<svg width="103" height="27" viewBox="0 0 103 27" fill="none" xmlns="http://www.w3.org/2000/svg">
<path fill-rule="evenodd" clip-rule="evenodd" d="M74.3463 11.538C73.3659 11.01 72.3409 10.8376 71.0997 10.632C69.8585 10.4268 68.4015 10.1883 66.7793 10.2393C65.1575 10.2903 63.3702 10.6313 61.5488 11.1483C59.7271 11.665 57.8713 12.3577 56.6396 12.7554C55.4078 13.153 54.8005 13.2554 53.7248 13.2837C52.6492 13.3121 51.1056 13.2667 49.796 13.2894C48.4864 13.3121 47.4104 13.4028 45.6805 13.7225C43.9506 14.0423 41.5653 13.0369 39.7009 13.4625C37.8361 13.8885 36.4906 14.192 34.8718 14.2018C33.253 14.2116 31.3602 13.9278 28.6798 13.2864C25.9997 12.6446 22.5055 13.4837 19.505 12.5297C16.5044 11.5754 13.9718 10.6664 11.9248 9.97362C9.87815 9.28083 8.31645 8.80348 6.96337 8.57066C5.6103 8.33784 4.43714 8.34918 3.35695 8.34351C2.27676 8.33784 1.28501 8.31743 0.106934 8.42288L0.133012 19.1945C2.30435 19.6197 5.42889 19.8714 9.55651 19.9814C15.9579 20.1515 24.7706 19.9814 35.7176 19.6745C46.6643 19.3676 59.7445 18.9251 66.7619 18.357C73.7794 17.7889 74.7337 17.0958 75.4624 16.0624C76.1907 15.0287 76.6938 15.209 76.4776 14.0797C76.2618 12.9508 75.326 12.066 74.3463 11.538Z" fill="url(#paint0_linear_263_86)"/>
<path fill-rule="evenodd" clip-rule="evenodd" d="M21.4855 14.9369C21.0542 14.8326 20.2114 14.5642 19.7049 14.4743C19.1977 14.3851 19.0277 14.4743 18.8727 14.4848C18.7177 14.4954 18.5794 14.4263 18.4354 14.2679C18.291 14.1095 18.1421 13.8616 17.9607 13.6651C17.7793 13.4685 17.5661 13.3241 17.2834 13.2829C17.0003 13.2418 16.6488 13.3034 16.3714 13.4137C16.094 13.5241 15.891 13.6824 15.6937 13.7406C15.4964 13.7996 15.3044 13.758 15.0217 13.5997C14.7394 13.4413 14.2333 13.9625 13.9185 13.6904C13.604 13.4183 13.3478 13.1499 13.0598 12.9844C12.7718 12.8192 12.452 12.7568 12.1531 12.8434C11.2501 13.1034 10.8291 13.0649 10.3128 12.6091C10.052 12.3785 9.79502 12.227 9.5074 12.1714C9.21978 12.1166 8.89928 12.1578 8.61657 12.213C8.33424 12.2681 8.08894 12.3369 7.88069 12.3641C7.67282 12.3921 7.50236 12.3785 7.22494 12.3509C6.94753 12.3233 6.56391 12.2818 6.22224 12.3025C5.88132 12.323 5.58198 12.4057 5.36844 12.3025C5.15565 12.1994 5.02791 11.9098 4.79811 11.8165C4.56869 11.7239 4.23836 11.8275 3.94469 11.9684C3.6514 12.1098 3.39515 12.2886 3.17102 12.3607C2.94728 12.4333 2.75565 12.3989 2.46198 12.3471C2.16869 12.2957 1.74274 12.2307 1.30469 12.2784C0.867402 12.3264 0.437669 12.4579 0 12.5626L0.133039 23.8584C2.90721 23.8959 5.89455 23.8248 9.18198 23.5568C12.5208 23.2851 16.1684 22.8096 18.7551 22.4377C21.3419 22.0658 22.8673 21.7971 23.6727 21.1565C24.4781 20.5158 24.5635 19.5029 24.3772 18.6937C24.1905 17.8845 23.7313 17.2779 23.2826 16.683C22.834 16.0881 22.3952 15.5046 22.1658 15.2426C21.9364 14.9807 21.9167 15.0412 21.4855 14.9369Z" fill="url(#paint1_linear_263_86)"/>
<path fill-rule="evenodd" clip-rule="evenodd" d="M101.988 5.62868C100.92 5.46163 99.3052 5.34333 97.7617 5.47259C96.2185 5.60185 94.7464 5.97867 93.4802 6.44733C92.2137 6.91561 91.1536 7.47574 90.3462 7.83102C89.5389 8.18629 88.9845 8.33748 88.1931 8.40173C87.402 8.46674 86.3728 8.44481 85.1777 8.47165C83.983 8.49886 82.6217 8.57407 80.8721 8.99965C79.1233 9.42484 76.7267 9.42333 75.0411 10.0693C69.1102 12.343 66.2435 13.7823 59.4463 15.731C56.8332 16.4805 54.4396 17.1071 50.8468 18.0656C47.2536 19.0241 42.4604 20.3148 39.1934 21.7998C35.926 23.2851 34.4444 26.209 36.8444 25.9557C39.244 25.7029 46.5627 24.6836 53.4959 24.8018C60.429 24.9205 66.7949 26.6221 75.7165 25.7411C84.6377 24.8604 96.0394 23.99 102.011 21.7298V5.63209L101.988 5.62868Z" fill="url(#paint2_linear_263_86)"/>
<path fill-rule="evenodd" clip-rule="evenodd" d="M102.011 9.84659C101.791 9.80389 101.662 9.76042 101.546 9.72111C101.295 9.63532 101.107 9.57069 100.945 9.55292C100.783 9.53516 100.647 9.56464 100.275 9.67085C99.9045 9.77667 99.299 9.9596 98.9404 10.1573C98.5824 10.3546 98.4717 10.567 98.3523 10.6819C98.2328 10.7971 98.1051 10.8145 98.0408 10.7114C97.977 10.6082 97.977 10.3844 97.8318 10.3576C97.6871 10.3311 97.3972 10.5023 97.0434 10.6819C96.6893 10.8618 96.2712 11.0504 95.9685 11.0738C95.6661 11.0976 95.4783 10.9559 95.3377 10.9238C95.1967 10.8913 95.1034 10.968 94.9023 11.0946C94.702 11.2212 94.3955 11.3985 94.1094 11.4926C93.8236 11.5867 93.5594 11.5988 93.3164 11.708C93.0734 11.8172 92.8512 12.0232 92.6127 12.0319C92.3742 12.041 92.1179 11.8524 91.9263 11.7046C91.7343 11.5576 91.6066 11.4514 91.4701 11.4601C91.3337 11.4688 91.1885 11.5931 91.0521 11.5988C90.9153 11.6048 90.7879 11.4926 90.6726 11.4869C90.5574 11.4809 90.4553 11.581 90.3654 11.6695C90.2762 11.7579 90.1991 11.8342 90.0369 11.7723C89.8755 11.7107 89.628 11.5103 89.4571 11.3985C89.2867 11.2862 89.193 11.2628 88.9582 11.4219C88.7239 11.5814 88.3482 11.9231 88.0753 12.2353C87.8025 12.5478 87.632 12.8309 87.5379 12.775C87.4445 12.719 87.4275 12.3237 87.3588 12.0969C87.2907 11.8702 87.1717 11.8108 86.9199 11.9348C86.6686 12.0588 86.2846 12.3653 85.9902 12.6453C85.6961 12.9254 85.4917 13.179 85.3635 13.3204C85.2358 13.4617 85.1844 13.4916 84.941 13.4855C84.6983 13.4799 84.2633 13.4383 84.0033 13.4058C83.7433 13.3736 83.6578 13.3498 83.4575 13.4708C83.2572 13.5914 82.942 13.8571 82.7069 13.975C82.4726 14.0929 82.3191 14.063 82.1657 14.0158C82.0118 13.9689 81.8584 13.9039 81.6921 13.91C81.5258 13.9156 81.3467 13.9924 81.1161 14.1012C80.8859 14.2104 80.6047 14.3522 80.2593 14.4168C79.9142 14.4818 79.5045 14.4697 79.1802 14.4875C78.8567 14.5052 78.6175 14.5525 78.4512 14.6353C78.2849 14.7176 78.1911 14.8356 77.9693 14.8681C77.7478 14.9002 77.3978 14.8473 77.0569 14.918C76.7156 14.989 76.3834 15.1833 75.104 15.6402C73.825 16.0972 71.5989 16.8164 69.7057 17.2734C67.8122 17.7303 66.2516 17.925 65.0576 18.1313C63.8633 18.3377 63.0364 18.5558 62.0132 18.9417C60.9897 19.3279 59.7701 19.882 58.7976 20.4421C57.8259 21.0026 57.1006 21.5684 57.2064 22.892C57.3126 24.216 54.4935 22.7476 56.3095 24.4926C58.1256 26.238 59.7765 25.3593 64.6532 25.7361C69.5296 26.1129 80.8379 25.4477 86.7812 25.5895C92.7242 25.7312 97.9592 26.0385 102.011 25.5313V9.84659Z" fill="url(#paint3_linear_263_86)"/>
<path fill-rule="evenodd" clip-rule="evenodd" d="M102.011 24.4242C101.396 24.244 101.076 24.123 100.704 24.0232C100.332 23.9235 99.9197 23.8649 99.6918 23.8377C99.4643 23.8101 99.3808 23.8029 99.4265 23.7133C99.4719 23.6237 99.6465 23.4518 99.6298 23.355C99.6136 23.259 99.4057 23.2382 99.1903 23.245C98.9749 23.2518 98.7507 23.2862 98.5228 23.3656C98.2949 23.445 98.0629 23.5686 97.9052 23.6377C97.7476 23.7061 97.6645 23.7205 97.6025 23.7277C97.5405 23.7341 97.4989 23.7341 97.5073 23.6377C97.5156 23.5413 97.5738 23.3482 97.731 23.1418C97.8886 22.9351 98.1456 22.7148 98.2824 22.5632C98.4189 22.4113 98.4359 22.3289 98.3694 22.2911C98.3029 22.2529 98.1539 22.2597 97.9718 22.3217C97.7892 22.3837 97.5734 22.5008 97.3621 22.6732C97.1509 22.8455 96.9434 23.0727 96.7608 23.2314C96.5786 23.3898 96.4214 23.479 96.2305 23.524C96.0401 23.5689 95.8159 23.5693 95.6583 23.5693C95.5007 23.5693 95.41 23.5689 95.4429 23.4C95.4761 23.231 95.6338 22.8935 95.6874 22.2465C95.7415 21.5987 95.6916 20.6413 95.6666 20.1624C95.6417 19.6836 95.6413 19.684 95.8862 19.6908C96.1311 19.6972 96.6202 19.7115 97.1301 19.6424C97.6399 19.5736 98.1706 19.4217 98.4899 19.1567C98.8089 18.8918 98.9163 18.5127 98.6264 18.0478C98.3365 17.5825 97.6482 17.0319 97.0677 16.6252C96.4875 16.2193 96.0147 15.9573 95.5464 15.8436C95.0778 15.7298 94.6137 15.7642 94.0539 15.9675C93.4945 16.1709 92.8395 16.5428 92.3297 16.9389C91.8198 17.335 91.4547 17.7549 91.2518 18.0754C91.0488 18.3955 91.0072 18.6162 91.0114 18.792C91.0155 18.9674 91.0651 19.0985 91.4589 19.2323C91.8527 19.3669 92.5905 19.5048 93.0739 19.5993C93.5573 19.6938 93.7867 19.7444 93.9012 19.7701C94.0154 19.7955 94.0157 19.7955 93.9885 20.1798C93.9609 20.5638 93.9054 21.3333 93.7704 21.8825C93.6355 22.4321 93.4201 22.7628 93.2625 22.9869C93.1049 23.2106 93.0051 23.3278 92.9473 23.352C92.8894 23.3762 92.8728 23.307 92.6782 23.1555C92.4831 23.0035 92.1097 22.7699 91.8773 22.6494C91.6456 22.5288 91.5545 22.5216 91.525 22.5972C91.4963 22.6732 91.5296 22.8323 91.5791 22.9835C91.629 23.135 91.6951 23.2798 91.6373 23.2934C91.5791 23.3074 91.3969 23.1898 91.1233 23.1143C90.8496 23.0383 90.4849 23.0035 90.1493 22.9763C89.8133 22.9487 89.5068 22.9279 89.3284 22.9181C89.15 22.9079 89.1001 22.9075 89.0381 22.7529C88.9761 22.598 88.9013 22.2877 89.0298 22.0983C89.1583 21.909 89.4898 21.8394 89.7634 21.7056C90.0367 21.5711 90.2528 21.3711 90.3273 21.1958C90.4018 21.02 90.3352 20.8685 90.0994 20.6621C89.8632 20.4554 89.4565 20.1934 89.0835 20.0525C88.7104 19.9115 88.3706 19.8903 88.0142 19.9353C87.6578 19.9803 87.2848 20.0899 86.9405 20.283C86.5965 20.4758 86.2809 20.7513 86.078 20.972C85.875 21.1924 85.7839 21.3579 85.8047 21.5367C85.8251 21.7155 85.9582 21.9086 86.2273 22.0186C86.4967 22.1289 86.903 22.1569 87.2141 22.1743C87.5244 22.1913 87.7406 22.1981 87.8566 22.2393C87.9723 22.2809 87.9893 22.3565 87.9976 22.491C88.0059 22.6252 88.0055 22.8179 87.9186 22.9147C87.8313 23.0107 87.6578 23.0107 87.1975 22.9147C86.7375 22.8183 85.4381 23.4975 84.8867 23.4718C79.2567 23.2106 83.6009 24.5025 76.4708 22.9181C75.6503 22.7359 74.8732 23.0553 74.5621 22.9173C74.2511 22.7798 74.2511 22.573 74.1721 22.4355C74.0935 22.2975 73.9362 22.2287 73.6789 22.2593C73.4222 22.2907 73.0654 22.4215 72.8413 22.5246C72.6176 22.6282 72.5269 22.7042 72.4974 22.5628C72.4686 22.4215 72.5019 22.0632 72.4312 21.853C72.3609 21.6433 72.1867 21.5813 72.0499 21.6017C71.9131 21.6225 71.8137 21.726 71.7059 21.8844C71.5978 22.0428 71.4822 22.2563 71.4032 22.3353C71.3246 22.4147 71.283 22.3595 71.0963 22.1977C70.91 22.036 70.5785 21.7672 70.2924 21.6293C70.0063 21.4917 69.7659 21.4845 69.6499 21.5465C69.5335 21.6089 69.5422 21.7396 69.459 21.7944C69.3762 21.85 69.202 21.8288 68.0492 21.333C66.8972 20.8371 64.7663 19.8661 62.8305 19.0841C60.8946 18.3025 59.1534 17.7099 57.9224 17.3792C56.691 17.0489 55.9695 16.9797 55.2484 16.7246C54.5272 16.4702 53.8061 16.0292 52.9769 15.7053C52.1476 15.3817 51.2111 15.175 50.4858 15.02C49.7597 14.8651 49.2457 14.7619 48.8852 14.5895C48.5246 14.4172 48.3171 14.1764 48.0601 14.0487C47.8031 13.9213 47.4966 13.9077 47.1772 13.8801C46.8582 13.8525 46.5263 13.811 46.3151 13.701C46.1034 13.591 46.0123 13.4115 45.8218 13.3355C45.6306 13.2599 45.3407 13.2879 45.0504 13.2531C44.7602 13.2187 44.4703 13.1227 44.2549 13.0981C44.039 13.0739 43.8984 13.1227 43.6331 13.0739C43.3678 13.0259 42.9777 12.8812 42.4637 12.7194C41.9497 12.5577 41.3117 12.3785 40.6443 12.323C39.9768 12.2681 39.2799 12.3373 38.7246 12.3264C38.1691 12.3161 37.7544 12.227 37.4562 12.2096C37.1577 12.1926 36.9755 12.2474 36.5983 12.1442C36.5465 12.1298 33.1589 11.7141 33.0988 11.7156C30.6092 11.7662 27.8604 11.9197 27.0493 11.5893C26.5856 11.4007 26.228 11.2832 25.9423 11.2832C25.6562 11.2832 25.4407 11.4 25.0926 11.4276C24.7442 11.4552 24.2634 11.3932 23.907 11.3554C23.5506 11.3176 23.3182 11.304 23.1315 11.3796C22.9451 11.4552 22.8045 11.6207 22.4935 11.7965C22.1824 11.9718 21.9734 12.0928 21.0761 11.7318C20.1785 11.3709 18.7997 12.2886 18.0208 12.23C17.2411 12.1714 14.6774 12.0822 14.3044 12.0958C13.9309 12.1098 13.533 12.227 13.2971 12.3645C13.0605 12.5025 12.9857 12.6608 12.7703 12.7568C12.5548 12.8532 12.1984 12.8884 11.9539 12.9844C11.7093 13.0811 11.5767 13.2395 11.4066 13.2909C11.2369 13.3427 11.029 13.2875 10.8552 13.2739C10.6809 13.2599 10.54 13.2879 10.3453 13.4012C10.1503 13.5146 9.90159 13.715 9.44162 13.9043C8.98166 14.0937 8.30966 14.2728 7.73366 14.4898C7.15728 14.7063 6.67652 14.9614 6.35753 15.0994C6.03816 15.237 5.88055 15.2578 5.70254 15.2302C5.52414 15.2026 5.32496 15.127 5.0929 15.1822C4.86084 15.237 4.59589 15.4233 4.4466 15.5537C4.29731 15.6848 4.26367 15.7604 4.14386 15.7812C4.02367 15.802 3.8158 15.7676 3.61284 15.8054C3.40988 15.8432 3.2107 15.9532 3.00774 16.1289C2.80477 16.3047 2.59766 16.5458 2.14562 16.8006C1.69359 17.0557 0.0661289 16.7688 0.0767115 17.677L0.132649 22.4993C0.133026 26.204 0.133026 23.183 0.133026 26.204L102.011 26.2044V24.4242Z" fill="#000D19"/>
<path fill-rule="evenodd" clip-rule="evenodd" d="M52.0769 20.0987C52.3937 20.2294 52.8275 20.491 53.1273 20.7389C53.427 20.9872 53.5925 21.2212 53.6885 21.4725C53.7853 21.7242 53.8125 21.9926 53.7539 22.1993C53.6953 22.4061 53.5509 22.5508 53.1583 22.6162C52.7656 22.6816 52.1249 22.668 51.5637 22.6438C51.002 22.6196 50.5198 22.5852 50.1789 22.5161C49.8379 22.4473 49.638 22.3441 49.4626 22.2269C49.2869 22.1098 49.1353 21.979 49.1387 21.7825C49.1425 21.5863 49.3009 21.3244 49.528 21.0764C49.7552 20.8285 50.0515 20.5945 50.3686 20.4116C50.6853 20.2291 51.0228 20.0987 51.2915 20.0329C51.5603 19.9675 51.7602 19.9675 52.0769 20.0987Z" fill="#031D31"/>
<path fill-rule="evenodd" clip-rule="evenodd" d="M51.9306 23.4877C51.9911 23.7012 52.0527 24.1079 52.0508 24.4227C52.0493 24.7379 51.9839 24.9621 51.8891 25.1442C51.7946 25.3268 51.6702 25.4682 51.5705 25.5471C51.4707 25.6265 51.3947 25.6439 51.3153 25.6231C51.2363 25.6027 51.154 25.5437 51.1056 25.4304C51.0576 25.317 51.0436 25.1476 51.0678 24.8948C51.092 24.6416 51.154 24.3041 51.202 24.061C51.2503 23.8184 51.2847 23.6702 51.3743 23.5478C51.4639 23.4257 51.6086 23.3293 51.7099 23.2911C51.8116 23.2533 51.8702 23.2741 51.9306 23.4877Z" fill="#031D31"/>
<path fill-rule="evenodd" clip-rule="evenodd" d="M53.7638 24.9966C53.661 25.1482 53.3575 25.4097 53.1855 25.5477C53.0132 25.6853 52.9716 25.6992 52.9338 25.6803C52.896 25.6614 52.8616 25.6097 52.896 25.491C52.9308 25.3723 53.034 25.186 53.1318 25.0533C53.2305 24.9207 53.3231 24.8417 53.4127 24.802C53.5026 24.7623 53.5884 24.7623 53.6795 24.7831C53.7713 24.8035 53.8673 24.8451 53.7638 24.9966Z" fill="#031D31"/>
<path fill-rule="evenodd" clip-rule="evenodd" d="M49.7951 24.831C49.8862 24.8756 50.0132 25.0721 50.0907 25.2271C50.1681 25.382 50.1961 25.4958 50.1409 25.5544C50.0857 25.613 49.9482 25.6164 49.8431 25.5151C49.738 25.4134 49.6655 25.2067 49.6571 25.0498C49.6485 24.8934 49.7036 24.7864 49.7951 24.831Z" fill="#031D31"/>
<path fill-rule="evenodd" clip-rule="evenodd" d="M7.26474 20.4894C7.46997 20.5741 7.75116 20.7434 7.94505 20.904C8.13932 21.0651 8.24666 21.2166 8.30902 21.3795C8.37138 21.5424 8.38915 21.7163 8.35135 21.8501C8.31318 21.9842 8.21945 22.078 7.96508 22.1203C7.71072 22.1626 7.29573 22.1539 6.93214 22.1384C6.56855 22.1226 6.25598 22.1003 6.03526 22.0553C5.81415 22.0111 5.68489 21.9442 5.57113 21.8682C5.45737 21.7922 5.3591 21.7076 5.36137 21.5802C5.36363 21.4532 5.46606 21.2835 5.61346 21.1229C5.76048 20.9623 5.95248 20.8103 6.15809 20.692C6.36332 20.5737 6.58178 20.4894 6.75601 20.4467C6.92987 20.4044 7.05951 20.4044 7.26474 20.4894Z" fill="#031D31"/>
<path fill-rule="evenodd" clip-rule="evenodd" d="M7.17 22.6849C7.20931 22.8232 7.24937 23.0867 7.24786 23.2908C7.24711 23.4948 7.20478 23.64 7.14317 23.7583C7.08194 23.8766 7.00144 23.968 6.93681 24.0191C6.87218 24.0705 6.82304 24.0818 6.77164 24.0686C6.72024 24.0553 6.66695 24.0172 6.63558 23.9435C6.60421 23.8698 6.59552 23.7605 6.61101 23.5965C6.62651 23.4325 6.66695 23.2137 6.69794 23.0564C6.72931 22.8992 6.75161 22.8032 6.80944 22.7238C6.86764 22.6448 6.96137 22.5821 7.02714 22.5575C7.0929 22.533 7.13107 22.5466 7.17 22.6849Z" fill="#031D31"/>
<path fill-rule="evenodd" clip-rule="evenodd" d="M9.56083 23.7901C9.49393 23.8884 9.2974 24.0577 9.1859 24.1473C9.07441 24.2365 9.04757 24.2456 9.02301 24.2331C8.99844 24.221 8.97614 24.1874 8.99844 24.1106C9.02112 24.0335 9.08764 23.913 9.15151 23.8268C9.21501 23.741 9.2751 23.69 9.3333 23.6643C9.39151 23.6386 9.44707 23.6386 9.50603 23.6518C9.56537 23.6654 9.62773 23.6922 9.56083 23.7901Z" fill="#031D31"/>
<path fill-rule="evenodd" clip-rule="evenodd" d="M5.78608 23.5553C5.84504 23.584 5.92743 23.7114 5.9777 23.8119C6.02797 23.9121 6.04573 23.9858 6.0102 24.0236C5.9743 24.0617 5.8851 24.064 5.81707 23.9982C5.74904 23.9325 5.70217 23.7983 5.69688 23.697C5.69121 23.5953 5.72674 23.5262 5.78608 23.5553Z" fill="#031D31"/>
<path fill-rule="evenodd" clip-rule="evenodd" d="M8.85234 23.4386C8.78544 23.5368 8.5889 23.7062 8.47741 23.7954C8.36591 23.8849 8.33908 23.894 8.31451 23.8815C8.28994 23.8694 8.26764 23.8358 8.28994 23.7587C8.31262 23.682 8.37952 23.5614 8.44301 23.4752C8.50651 23.3894 8.5666 23.3384 8.62481 23.3127C8.68301 23.287 8.73857 23.287 8.79753 23.3002C8.85687 23.3135 8.91923 23.3407 8.85234 23.4386Z" fill="#031D31"/>
<path fill-rule="evenodd" clip-rule="evenodd" d="M4.99359 23.8781C5.05293 23.9072 5.13532 24.0346 5.18521 24.1348C5.23548 24.2353 5.25362 24.309 5.2181 24.3468C5.18219 24.385 5.09299 24.3872 5.02496 24.3215C4.95693 24.2557 4.91006 24.1215 4.90439 24.0199C4.89873 23.9186 4.93463 23.8494 4.99359 23.8781Z" fill="#031D31"/>
<path fill-rule="evenodd" clip-rule="evenodd" d="M30.0804 19.5789C30.263 19.6545 30.5128 19.805 30.6851 19.9478C30.8579 20.0907 30.9531 20.2252 31.0087 20.3704C31.0642 20.5151 31.0801 20.6697 31.0461 20.7888C31.0125 20.9078 30.9293 20.991 30.7033 21.0288C30.4769 21.0666 30.108 21.0586 29.7849 21.0446C29.4617 21.031 29.1839 21.011 28.9874 20.9709C28.7912 20.9316 28.6759 20.8723 28.575 20.8046C28.4737 20.7374 28.3868 20.6618 28.3887 20.5488C28.3906 20.4358 28.4817 20.285 28.6128 20.1421C28.7436 19.9992 28.9141 19.8647 29.0966 19.7592C29.2792 19.6542 29.4734 19.5789 29.628 19.5412C29.783 19.5037 29.8979 19.5037 30.0804 19.5789Z" fill="#031D31"/>
<path fill-rule="evenodd" clip-rule="evenodd" d="M29.9961 21.5307C30.0308 21.6536 30.0664 21.8879 30.0656 22.0689C30.0645 22.2507 30.0271 22.3796 29.9723 22.4847C29.9178 22.5897 29.8464 22.671 29.789 22.7167C29.7315 22.7621 29.6877 22.7723 29.6419 22.7606C29.5966 22.7485 29.549 22.7148 29.521 22.6495C29.4934 22.5841 29.4855 22.4866 29.4994 22.3411C29.513 22.1952 29.549 22.0009 29.5765 21.8611C29.6045 21.7212 29.6242 21.6358 29.6759 21.5655C29.7273 21.4952 29.8109 21.4393 29.8691 21.4173C29.9277 21.3958 29.9613 21.4079 29.9961 21.5307Z" fill="#031D31"/>
<path d="M20.9678 3.42187H20.9674L20.9825 3.43623L20.9976 3.45096L21.0127 3.46571L21.0279 3.48045L21.043 3.49519L21.0581 3.50993L21.0732 3.52467L21.0887 3.53941L21.1046 3.55453L21.1205 3.56926L21.136 3.58401L21.1518 3.59837L21.1681 3.61311L21.1847 3.62747L21.201 3.64183L21.2183 3.65544L21.235 3.6698L21.2524 3.68341L21.2697 3.69663L21.2875 3.70987L21.3053 3.72272L21.3234 3.73519L21.3419 3.74728L21.3612 3.75975L21.3801 3.77147L21.399 3.78243L21.419 3.79339L21.4391 3.80398L21.4595 3.8138L21.4806 3.82363L21.5018 3.8327L21.5234 3.84177L21.4999 3.90073L21.4769 3.89166L21.4542 3.88183L21.4323 3.87125L21.4103 3.86067L21.3888 3.84933L21.368 3.83761L21.3476 3.8259L21.3272 3.81342L21.3072 3.80095L21.2879 3.7881L21.269 3.77487L21.2497 3.76127L21.2312 3.74728L21.2131 3.7333L21.1949 3.71894L21.1775 3.70457L21.1601 3.69021L21.1431 3.67509L21.1265 3.66073L21.1095 3.64599L21.0929 3.63087L21.0766 3.61538L21.0607 3.60064L21.0449 3.58552L21.0294 3.57078L21.0135 3.55528L20.9984 3.54054L20.9833 3.5258L20.9681 3.51106L20.953 3.49632L20.9379 3.48158L20.9235 3.46722H20.9232L20.9678 3.42187ZM20.9674 3.42187L20.9235 3.46722C20.9111 3.45512 20.9107 3.43509 20.9228 3.42262C20.9349 3.41015 20.9549 3.40977 20.9674 3.42187ZM20.7811 3.22041L20.7916 3.2344L20.8015 3.24725L20.8105 3.25934L20.8185 3.26955L20.8264 3.27976L20.8336 3.28883L20.84 3.29676L20.8457 3.30395L20.8514 3.31075L20.8559 3.31642L20.8608 3.32171L20.8653 3.32662L20.8695 3.33116L20.8733 3.33531L20.8767 3.33909L20.8805 3.34287L20.8831 3.34552L20.8869 3.34816L20.8918 3.3527L20.8948 3.3561L20.8982 3.35837L20.9031 3.3629L20.9073 3.36668L20.9122 3.37046L20.9179 3.37537L20.9232 3.38029L20.9292 3.38558L20.936 3.39163L20.9428 3.39806L20.9508 3.40523L20.9591 3.41355L20.9678 3.42187L20.9232 3.46722L20.9145 3.45891L20.9069 3.45134L20.8997 3.44492L20.8929 3.43849L20.8869 3.4332L20.8808 3.42791L20.8755 3.423L20.8706 3.41884L20.8657 3.4143L20.8616 3.41053L20.8574 3.4075L20.8525 3.40297L20.848 3.39881L20.8453 3.39654L20.8408 3.39239L20.8359 3.38747L20.8321 3.38369L20.8272 3.37916L20.8226 3.37424L20.8185 3.36971L20.8132 3.36404L20.8083 3.35799L20.8022 3.35156L20.7965 3.34401L20.7901 3.33683L20.7837 3.32813L20.7765 3.31906L20.7686 3.30886L20.7599 3.2979L20.7508 3.2858L20.741 3.27295L20.7304 3.25897L20.7811 3.22041ZM20.7811 3.22041L20.7304 3.25897C20.7198 3.24498 20.7225 3.22495 20.7365 3.21437C20.7504 3.20379 20.7705 3.20643 20.7811 3.22041ZM20.2961 2.31862L20.3067 2.34999L20.3181 2.38136L20.3298 2.41197L20.3411 2.44259L20.3536 2.4732L20.3661 2.50344L20.3782 2.5333L20.3914 2.56315L20.4046 2.59264L20.4178 2.62212L20.4314 2.65084L20.4454 2.67957L20.4598 2.70867L20.4742 2.73664L20.4889 2.76461L20.504 2.79295L20.5191 2.82054L20.535 2.84813L20.5509 2.8761L20.5668 2.90331L20.5834 2.93015L20.5996 2.95698L20.617 2.98419L20.6344 3.01103L20.6514 3.03787L20.6692 3.06394L20.6869 3.0904L20.7055 3.11648L20.724 3.14256L20.7429 3.16901L20.7622 3.19472L20.7811 3.22041L20.7304 3.25897L20.7108 3.23251L20.6915 3.20605L20.6726 3.1796L20.6533 3.15352L20.6348 3.12668L20.6163 3.09947L20.5985 3.07264L20.5807 3.0458L20.5634 3.01821L20.546 2.991L20.529 2.96341L20.5123 2.93582L20.4957 2.90785L20.4798 2.87988L20.464 2.85153L20.4481 2.82319L20.433 2.79484L20.4175 2.76611L20.4031 2.73664L20.3887 2.70753L20.374 2.67805L20.3604 2.64857L20.3464 2.6191L20.3332 2.58886L20.32 2.55824L20.3071 2.52763L20.2946 2.49739L20.2822 2.46602L20.2701 2.43465L20.2583 2.40328L20.247 2.37116L20.2357 2.33903L20.2961 2.31862ZM20.2961 2.31862L20.2357 2.33903C20.2304 2.3224 20.2391 2.30388 20.2557 2.29859C20.2723 2.2933 20.2908 2.30199 20.2961 2.31862ZM20.0856 1.60353L20.1457 1.60278L20.1431 1.61185L20.1416 1.62432L20.14 1.63906L20.1397 1.65532L20.1404 1.67384L20.1419 1.695L20.1442 1.71692L20.1465 1.74036L20.1503 1.76416L20.1548 1.78986L20.1597 1.81632L20.1646 1.84354L20.1707 1.87113L20.1767 1.89947L20.1835 1.92782L20.1903 1.95616L20.1975 1.98451L20.2047 2.01286L20.2122 2.04083L20.2198 2.06879L20.2274 2.09563L20.2353 2.12209L20.2425 2.14741L20.25 2.17235L20.2572 2.19616L20.2636 2.21846L20.2701 2.23925L20.2765 2.25853L20.2822 2.27629L20.2874 2.29254L20.292 2.30691L20.2961 2.31862L20.2357 2.33903L20.2315 2.32656L20.227 2.31219L20.2217 2.29594L20.216 2.27818L20.2096 2.25815L20.2032 2.2366L20.196 2.2143L20.1888 2.19049L20.1812 2.16555L20.1741 2.13947L20.1661 2.11302L20.1586 2.08542L20.151 2.05745L20.1434 2.02873L20.1363 2.00038L20.1283 1.97128L20.1215 1.94218L20.1147 1.91308L20.1087 1.88473L20.1026 1.85638L20.097 1.82842L20.092 1.8012L20.0875 1.77475L20.0837 1.74867L20.0807 1.72372L20.0784 1.70029L20.0769 1.67761L20.0762 1.65607L20.0766 1.63528L20.0781 1.61676L20.0811 1.599L20.0852 1.58237L20.1453 1.58161L20.0856 1.60353ZM20.1457 1.60278L20.0852 1.58237C20.0905 1.56574 20.1091 1.55704 20.1257 1.56234C20.1423 1.56763 20.151 1.58615 20.1457 1.60278ZM20.6605 2.87119L20.6325 2.82659L20.6064 2.78237L20.5811 2.74004L20.5566 2.69809L20.5335 2.65689L20.5112 2.61683L20.49 2.57752L20.4692 2.53859L20.45 2.50004L20.4311 2.46224L20.4126 2.42521L20.3952 2.38816L20.3782 2.35112L20.3611 2.31522L20.3453 2.27818L20.3298 2.24189L20.3139 2.20561L20.2992 2.16895L20.284 2.13267L20.2697 2.09563L20.2549 2.05783L20.2402 2.02041L20.2258 1.98224L20.2111 1.94332L20.1967 1.90401L20.1816 1.86394L20.1665 1.82312L20.1514 1.78117L20.1355 1.73846L20.1193 1.69462L20.1026 1.64965L20.0856 1.60353L20.1453 1.58161L20.1623 1.62772L20.179 1.6727L20.1952 1.71654L20.2111 1.75925L20.2262 1.8012L20.2413 1.84202L20.2565 1.88209L20.2708 1.92139L20.2856 1.95956L20.2999 1.99774L20.3139 2.03516L20.3286 2.07219L20.343 2.10848L20.3581 2.14476L20.3729 2.18142L20.388 2.21695L20.4035 2.25323L20.4194 2.28876L20.4356 2.32467L20.4526 2.36095L20.47 2.39723L20.4878 2.43428L20.5067 2.47131L20.5259 2.50911L20.546 2.54728L20.5671 2.58584L20.5894 2.6259L20.6117 2.66634L20.6355 2.70753L20.6609 2.74987L20.6869 2.79333L20.7142 2.83793L20.6605 2.87119ZM20.6605 2.87119L20.7142 2.83793C20.7232 2.85267 20.7187 2.87232 20.704 2.88139C20.6892 2.89046 20.6696 2.88593 20.6605 2.87119ZM21.0331 3.40901V3.40939L21.0203 3.39163L21.0074 3.375L20.995 3.35799L20.9825 3.34136L20.97 3.32511L20.9579 3.30886L20.9462 3.2926L20.9345 3.27673L20.9228 3.26086L20.9111 3.2446L20.8997 3.22873L20.8884 3.21286L20.8767 3.19698L20.8657 3.18148L20.8544 3.16524L20.8434 3.14936L20.8325 3.13349L20.8211 3.11761L20.8098 3.10098L20.7988 3.08473L20.7879 3.06848L20.7765 3.05185L20.7656 3.03484L20.7542 3.01783L20.7429 3.00045L20.7315 2.98306L20.7194 2.9653L20.7081 2.94716L20.6964 2.92864L20.6847 2.91012L20.6726 2.89084L20.6605 2.87119L20.7142 2.83793L20.7263 2.85682L20.7383 2.8761L20.7501 2.89462L20.7618 2.91314L20.7731 2.93053L20.7845 2.94829L20.7958 2.96567L20.8071 2.98306L20.8185 3.00007L20.8294 3.01632L20.8408 3.03295L20.8517 3.0492L20.8627 3.06546L20.8733 3.08133L20.8846 3.0972L20.8956 3.11308L20.9065 3.12895L20.9179 3.14445L20.9288 3.15994L20.9398 3.17582L20.9511 3.19169L20.9625 3.20757L20.9742 3.22306L20.9859 3.23893L20.9976 3.25481L21.0093 3.27106L21.0214 3.28731L21.0331 3.30357L21.0456 3.32019L21.0581 3.33645L21.0709 3.35383L21.0838 3.37084V3.37122L21.0331 3.40901ZM21.0331 3.40939L21.0838 3.37084C21.0944 3.38482 21.0917 3.40486 21.0777 3.41544C21.0638 3.42602 21.0437 3.42338 21.0331 3.40939ZM21.5234 3.84177L21.4856 3.88939L21.4825 3.88524L21.478 3.87995L21.4727 3.8739L21.4655 3.86671L21.458 3.8584L21.4489 3.85009L21.4391 3.84064L21.4285 3.83043L21.4168 3.81947L21.4047 3.80775L21.3922 3.79604L21.3786 3.78357L21.3639 3.76958L21.3495 3.75598L21.334 3.74123L21.3185 3.72612L21.3023 3.71062L21.2852 3.69399L21.2686 3.67698L21.2508 3.6596L21.2335 3.64183L21.2157 3.62331L21.1972 3.60404L21.1794 3.58438L21.1613 3.56435L21.1428 3.54357L21.1242 3.5224L21.1061 3.50086L21.0876 3.47856L21.0691 3.45588L21.0509 3.43282L21.0331 3.40901L21.0838 3.37122L21.1016 3.39427L21.1189 3.41657L21.1367 3.43849L21.1545 3.46004L21.1726 3.48082L21.1904 3.50199L21.2081 3.52202L21.2263 3.5413L21.244 3.56095L21.2618 3.57947L21.2788 3.59723L21.2962 3.615L21.3132 3.63238L21.3298 3.64864L21.3461 3.66451L21.3623 3.68001L21.3778 3.69513L21.3933 3.70987L21.4077 3.72347L21.4217 3.7367L21.4353 3.74917L21.4485 3.76165L21.4606 3.77336L21.4723 3.78432L21.4829 3.79453L21.4927 3.80398L21.5026 3.8138L21.5109 3.82212L21.5188 3.83005L21.5264 3.83837L21.5324 3.84593L21.5377 3.85311L21.4999 3.90073L21.5234 3.84177ZM21.4856 3.88939L21.5377 3.85311C21.5475 3.86747 21.5441 3.8875 21.5298 3.89733C21.5154 3.90716 21.4954 3.90376 21.4856 3.88939Z" fill="#000D19"/>
<path fill-rule="evenodd" clip-rule="evenodd" d="M21.5115 3.8712C21.2712 3.77747 21.1037 3.59757 20.9454 3.4445C20.8486 3.35039 20.8728 3.39536 20.7556 3.23965C20.5466 2.96223 20.3822 2.66969 20.2658 2.32878C20.2254 2.20973 20.0727 1.71952 20.1154 1.59253C20.3013 2.09143 20.3875 2.37149 20.6872 2.85451C20.8172 3.06352 20.9193 3.20487 21.0584 3.39007C21.2458 3.64065 21.4715 3.81413 21.5115 3.8712Z" fill="#0D3752"/>
<path d="M15.752 3.80913L15.7505 3.81934L15.6885 3.81064L15.6882 3.7925L15.7517 3.79099L15.752 3.80913ZM15.6885 3.81064L15.752 3.80913C15.7524 3.82652 15.7384 3.84126 15.721 3.84164C15.7037 3.84202 15.6889 3.82803 15.6885 3.81064ZM15.6409 3.87905V3.87868L15.6443 3.87338L15.6466 3.86961L15.6492 3.86507L15.6515 3.86129L15.6534 3.85864L15.6564 3.85373L15.6594 3.85033L15.6602 3.84919L15.6632 3.84504L15.6651 3.84315L15.6666 3.84088L15.6708 3.83672V3.83635L15.6723 3.83445L15.6738 3.83295L15.6742 3.83257L15.6753 3.83105L15.678 3.82765H15.6783V3.82728L15.6798 3.82538L15.6791 3.82652L15.6806 3.8235L15.6817 3.82198L15.6825 3.82009L15.6836 3.8182L15.6844 3.81593L15.6855 3.81442L15.6863 3.81102L15.6878 3.808L15.6885 3.80535L15.69 3.80044L15.7505 3.81934L15.749 3.8235L15.7475 3.82916L15.746 3.83295L15.7445 3.8371L15.7426 3.84164L15.7411 3.84542L15.7392 3.84882L15.7377 3.85222L15.7358 3.85524L15.735 3.85676L15.732 3.86167L15.7305 3.86356L15.7282 3.86696L15.7256 3.86998L15.7252 3.87036L15.7241 3.87187L15.7214 3.87528L15.7199 3.87678L15.7184 3.87868L15.7154 3.88132L15.7157 3.88094L15.7142 3.88321L15.7123 3.8851V3.88548L15.7093 3.88964L15.7078 3.89153L15.7071 3.89266L15.7052 3.89606L15.7029 3.89909L15.701 3.90211L15.6987 3.90589L15.6968 3.90967V3.90929L15.6409 3.87905ZM15.6409 3.87868L15.6968 3.90967C15.6885 3.92478 15.6685 3.93046 15.6534 3.92214C15.6383 3.91383 15.6326 3.89379 15.6409 3.87868ZM15.5899 4.41045V4.41008L15.5876 4.39609L15.5854 4.38098L15.5838 4.36624L15.582 4.35036L15.5808 4.33411L15.5793 4.31824L15.5782 4.30122L15.5774 4.28422L15.5767 4.26683L15.5763 4.24907V4.2313V4.21392V4.1954L15.577 4.17688L15.5778 4.15949L15.5785 4.14135L15.5801 4.12321L15.5816 4.10507L15.5835 4.08693L15.5861 4.06954L15.5884 4.05216L15.591 4.03401L15.5948 4.01701L15.5982 4.00075L15.6016 3.98375L15.6061 3.96749L15.6111 3.95124L15.616 3.93613L15.6213 3.92139L15.6277 3.90664L15.6337 3.89228L15.6409 3.87905L15.6968 3.90929L15.6912 3.92025L15.6859 3.93159L15.681 3.94406L15.6764 3.95729L15.6715 3.97089L15.6674 3.98488L15.6636 3.99886L15.6602 4.0136L15.6568 4.02986L15.6538 4.04535L15.6511 4.06123L15.6488 4.07786L15.647 4.09449L15.6451 4.11112L15.6436 4.1285L15.642 4.14513L15.6413 4.16252L15.6405 4.1799L15.6398 4.19691V4.21392V4.2313V4.24832L15.6402 4.26456L15.6409 4.2812L15.6417 4.29745L15.6428 4.31294L15.6443 4.32882L15.6454 4.34431L15.6473 4.35867L15.6488 4.37342L15.6504 4.38702L15.6526 4.40025V4.39987L15.5899 4.41045ZM15.5899 4.41008L15.6526 4.40025C15.6553 4.41726 15.6432 4.43389 15.6262 4.43653C15.6092 4.43918 15.5925 4.42708 15.5899 4.41008ZM15.7592 5.02652L15.7528 5.00913L15.7464 4.99175L15.7399 4.9736L15.7339 4.95584L15.7275 4.93808L15.721 4.91956L15.7146 4.90141L15.7086 4.88327L15.7025 4.86475L15.6968 4.84586L15.6908 4.82734L15.6851 4.80882L15.6787 4.78954L15.6734 4.77027L15.6677 4.75175L15.6621 4.73247L15.6568 4.71282L15.6515 4.69354L15.6466 4.67389L15.6413 4.65424L15.636 4.63496L15.6311 4.61455L15.6265 4.59452L15.622 4.57487L15.6175 4.55446L15.6133 4.53405L15.6092 4.51401L15.6046 4.49323L15.6008 4.47244L15.5971 4.45203L15.5933 4.43124L15.5899 4.41045L15.6526 4.39987L15.656 4.42066L15.6598 4.44069L15.6636 4.4611L15.6674 4.48113L15.6711 4.50116L15.6753 4.5212L15.6795 4.54085L15.684 4.5605L15.6885 4.58015L15.6931 4.60019L15.698 4.61908L15.7025 4.63836L15.7078 4.65801L15.7127 4.67691L15.718 4.69619L15.7233 4.71509L15.729 4.73361L15.7346 4.75288L15.7399 4.7714L15.7456 4.78992L15.7513 4.80844L15.7573 4.82696L15.763 4.8451L15.769 4.86287L15.7751 4.88101L15.7815 4.89915L15.7872 4.91691L15.7936 4.93467L15.7997 4.95244L15.8061 4.96983L15.8125 4.98721L15.8189 5.0046L15.7592 5.02652ZM15.7592 5.02652L15.8189 5.0046C15.825 5.02085 15.8163 5.03937 15.8 5.04542C15.7838 5.05146 15.7653 5.04277 15.7592 5.02652ZM16.3647 5.99143L16.3227 6.03376L16.3152 6.01675L16.3061 5.99975L16.2959 5.98236L16.2849 5.96384L16.2728 5.94457L16.2604 5.92491L16.2464 5.9045L16.232 5.88334L16.2165 5.86104L16.2003 5.83798L16.1837 5.81379L16.1663 5.78922L16.1485 5.76353L16.13 5.73632L16.1107 5.70835L16.0914 5.67924L16.0718 5.64938L16.0517 5.61802L16.031 5.58513L16.0105 5.55112L15.9894 5.51597L15.9686 5.47931L15.9474 5.44113L15.9263 5.40145L15.9047 5.36063L15.8836 5.31792L15.8624 5.2737L15.8412 5.22759L15.8208 5.17997L15.7997 5.13083L15.7796 5.07943L15.7592 5.02652L15.8189 5.0046L15.8386 5.05676L15.8586 5.10664L15.879 5.15502L15.8994 5.20189L15.9198 5.24649L15.941 5.28995L15.9614 5.3319L15.9822 5.37197L16.0034 5.4109L16.0238 5.44832L16.0446 5.48422L16.065 5.51861L16.0854 5.55187L16.1054 5.584L16.1254 5.61461L16.1443 5.64447L16.1636 5.67282L16.1821 5.70079L16.2007 5.72724L16.2184 5.75294L16.2358 5.77751L16.2524 5.8017L16.2687 5.82475L16.2842 5.84705L16.2993 5.86898L16.3133 5.89014L16.3265 5.91055L16.3394 5.93058L16.3511 5.94985L16.362 5.96951L16.3719 5.98878L16.3809 6.0073L16.339 6.04963L16.3647 5.99143ZM16.3227 6.03376L16.3809 6.0073C16.3881 6.02318 16.3809 6.04245 16.3651 6.04963C16.3492 6.05682 16.3299 6.04964 16.3227 6.03376ZM16.1614 5.77865V5.77902L16.167 5.78582L16.1731 5.79376L16.1784 5.80057L16.184 5.80775L16.1901 5.81568L16.1965 5.824L16.2025 5.83193L16.2082 5.8395L16.2146 5.84743L16.2207 5.85537L16.2275 5.86331L16.2339 5.87162L16.2407 5.87918L16.2475 5.8875L16.254 5.89505L16.2608 5.90299L16.2668 5.91055L16.274 5.91773L16.2804 5.92491L16.2868 5.93171L16.294 5.9389L16.3008 5.94532L16.3072 5.95099L16.3144 5.95742L16.3205 5.96309L16.3273 5.968L16.3341 5.97329L16.3401 5.97745L16.3465 5.98161L16.3526 5.98538L16.359 5.98878L16.3647 5.99143L16.339 6.04963L16.3303 6.04548L16.3216 6.04056L16.3133 6.03603L16.3046 6.03036L16.2963 6.02469L16.2887 6.01864L16.2804 6.01222L16.2721 6.00504L16.2649 5.99861L16.257 5.99143L16.2494 5.98349L16.2422 5.97631L16.2343 5.96875L16.2271 5.96082L16.2199 5.95288L16.2124 5.94457L16.2056 5.93663L16.1984 5.92831L16.1916 5.92L16.1848 5.91169L16.1784 5.90337L16.1716 5.89543L16.1648 5.88674L16.1583 5.8788L16.1519 5.87049L16.1459 5.86255L16.1402 5.85499L16.1341 5.84781L16.1277 5.83987L16.1217 5.83156L16.1171 5.82513L16.1115 5.81833V5.81871L16.1614 5.77865ZM16.1614 5.77902L16.1115 5.81833C16.1009 5.80472 16.1031 5.78431 16.1168 5.77373C16.1304 5.76315 16.1508 5.76542 16.1614 5.77902ZM15.6738 4.97398V4.97436L15.6832 4.99704L15.6942 5.02085L15.7048 5.04504L15.7169 5.06961L15.729 5.09493L15.7418 5.12063L15.7554 5.14671L15.769 5.17316L15.783 5.19924L15.7978 5.22646L15.8125 5.25329L15.828 5.28012L15.8439 5.30733L15.8597 5.33455L15.876 5.36214L15.8926 5.38897L15.9093 5.41656L15.9259 5.44302L15.9429 5.47023L15.9599 5.49631L15.9769 5.52277L15.9943 5.54847L16.0113 5.57417L16.0283 5.59912L16.0457 5.62369L16.0627 5.64787L16.0793 5.6713L16.0963 5.69436L16.1126 5.71628L16.1292 5.7382L16.1451 5.75861L16.1614 5.77865L16.1115 5.81871L16.0952 5.79792L16.0786 5.77675L16.062 5.75483L16.0449 5.73216L16.0279 5.70835L16.0105 5.68491L15.9935 5.65997L15.9762 5.6354L15.9584 5.6097L15.9414 5.584L15.924 5.55754L15.9062 5.53108L15.8892 5.50425L15.8722 5.47704L15.8548 5.44982L15.8382 5.42223L15.8216 5.39464L15.8053 5.36705L15.7887 5.33984L15.7728 5.31187L15.7573 5.28428L15.7418 5.25669L15.7271 5.22948L15.7123 5.20265L15.6987 5.17543L15.6851 5.14935L15.6723 5.1229L15.6594 5.09757L15.6473 5.07225L15.636 5.04731L15.625 5.02274L15.6148 4.99855V4.99893L15.6738 4.97398ZM15.6738 4.97436L15.6148 4.99855C15.6084 4.9823 15.616 4.9634 15.6322 4.95698C15.6485 4.95055 15.6674 4.95811 15.6738 4.97436ZM15.4784 4.32617L15.4814 4.34847L15.4848 4.37115L15.4886 4.39345L15.4924 4.41575L15.4965 4.43767L15.5007 4.45921L15.5052 4.48075L15.5101 4.5023L15.5154 4.52346L15.5203 4.54425L15.526 4.56504L15.5317 4.58582L15.5377 4.60624L15.5438 4.62702L15.5498 4.64705L15.5562 4.66746L15.5627 4.68712L15.5691 4.70639L15.5763 4.72642L15.5831 4.74608L15.5903 4.76497L15.5978 4.78463L15.605 4.80428L15.6122 4.82318L15.6197 4.84246L15.6273 4.86135L15.6349 4.88063L15.6424 4.89915L15.6504 4.91767L15.6583 4.93694L15.6659 4.95584L15.6738 4.97398L15.6148 4.99893L15.6069 4.98003L15.5993 4.96113L15.5914 4.94261L15.5835 4.92334L15.5759 4.90406L15.5683 4.88479L15.5608 4.86589L15.5532 4.84661L15.5453 4.82696L15.5381 4.8073L15.5305 4.78765L15.5234 4.76724L15.5166 4.74759L15.5094 4.72756L15.5022 4.70677L15.4958 4.68636L15.4894 4.66595L15.4825 4.64517L15.4765 4.62438L15.4705 4.60321L15.4648 4.58167L15.4591 4.56013L15.4534 4.53858L15.4482 4.51666L15.4432 4.49436L15.4387 4.47206L15.4338 4.44976L15.4296 4.42709L15.4259 4.40403L15.4221 4.38098L15.4187 4.35754L15.4157 4.33373L15.4784 4.32617ZM15.4784 4.32617L15.4157 4.33373C15.4138 4.31673 15.4262 4.30047 15.4432 4.29858C15.4602 4.29669 15.4765 4.30916 15.4784 4.32617ZM15.6882 3.7925L15.7078 3.82123L15.6999 3.8182L15.6916 3.81669L15.6821 3.81593H15.673L15.664 3.81745L15.6534 3.81971L15.6432 3.82312L15.633 3.82765L15.6216 3.83408L15.6103 3.84088L15.5993 3.84919L15.5884 3.85902L15.5774 3.86998L15.5665 3.88245L15.5559 3.89606L15.5457 3.91118L15.5358 3.92743L15.5264 3.94557L15.5173 3.96447L15.5094 3.9845L15.5014 4.00642L15.4943 4.0291L15.4882 4.05291L15.4829 4.07824L15.4784 4.10507L15.4754 4.13304L15.4727 4.16214L15.4712 4.19237V4.22413L15.4723 4.25663L15.475 4.29065L15.4784 4.32617L15.4157 4.33373L15.4115 4.29669L15.4088 4.26041L15.4077 4.22488V4.19087L15.4092 4.15761L15.4119 4.12623L15.4157 4.096L15.4202 4.0669L15.4262 4.03855L15.433 4.01172L15.441 3.98601L15.4497 3.96182L15.4591 3.93877L15.4697 3.91685L15.4807 3.89644L15.492 3.87716L15.5045 3.85902L15.5173 3.84239L15.5305 3.8269L15.5445 3.81291L15.5593 3.80006L15.574 3.78872L15.5891 3.7789L15.6042 3.77096L15.6205 3.7634L15.6368 3.75849L15.6519 3.75471L15.6685 3.75244H15.6851L15.7006 3.75395L15.7165 3.75698L15.732 3.76227L15.7517 3.79099L15.6882 3.7925ZM15.7078 3.82123L15.732 3.76227C15.7482 3.76869 15.7558 3.78759 15.7494 3.80384C15.743 3.82009 15.7241 3.82765 15.7078 3.82123Z" fill="#000D19"/>
<path fill-rule="evenodd" clip-rule="evenodd" d="M15.72 3.79173L15.7204 3.80988C15.7052 3.85901 15.6958 3.84578 15.669 3.89416C15.5998 4.02078 15.5983 4.26153 15.6213 4.40515C15.6572 4.62588 15.7204 4.83035 15.7891 5.01555C16.0004 5.5855 16.2676 5.83419 16.3519 6.02053C16.2737 5.98575 16.1943 5.87123 16.1365 5.79866C15.9664 5.58701 15.7476 5.23325 15.6444 4.98644C15.5609 4.78726 15.4781 4.57863 15.4471 4.32994C15.398 3.93573 15.5971 3.74147 15.72 3.79173Z" fill="#0D3752"/>
<path d="M13.4922 6.80102L13.4884 6.79724L13.5337 6.75265L13.632 6.83768L13.5904 6.88606L13.4922 6.80102ZM13.5337 6.75265L13.4922 6.80102C13.4789 6.78968 13.4774 6.76927 13.4888 6.75605C13.5001 6.74282 13.5205 6.74131 13.5337 6.75265ZM13.2979 5.84065L13.3444 5.83875L13.3289 5.85916L13.3157 5.88033L13.3039 5.903L13.2941 5.92719L13.2858 5.95252L13.2794 5.97859L13.2745 6.00619L13.2714 6.03491L13.2699 6.06439L13.2696 6.09463L13.2711 6.12486L13.2741 6.15623L13.2782 6.18798L13.2843 6.22049L13.2907 6.25337L13.2987 6.28587L13.3081 6.31875L13.3183 6.35163L13.3296 6.38414L13.3417 6.41664L13.355 6.44877L13.3693 6.48127L13.3837 6.51226L13.3992 6.54288L13.4151 6.57312L13.4317 6.60259L13.4487 6.63094L13.4661 6.65816L13.4839 6.68499L13.5012 6.71031L13.519 6.73375L13.5375 6.75642L13.4884 6.79724L13.4691 6.77305L13.4498 6.74735L13.4309 6.72052L13.4124 6.69293L13.3943 6.6642L13.3765 6.63435L13.3591 6.60335L13.3425 6.57236L13.3262 6.54024L13.3111 6.50698L13.2968 6.47372L13.2828 6.44008L13.2699 6.40606L13.2578 6.37129L13.2469 6.3369L13.2374 6.30175L13.2287 6.26697L13.2216 6.23258L13.2155 6.19781L13.2106 6.16379L13.2076 6.1294L13.2061 6.09539L13.2064 6.06212L13.2079 6.02962L13.2117 5.99711L13.2174 5.96575L13.2246 5.93513L13.2344 5.90527L13.2465 5.87655L13.2605 5.84934L13.2767 5.82288L13.296 5.79794L13.3425 5.79604L13.2979 5.84065ZM13.3444 5.83875L13.296 5.79794C13.307 5.78471 13.3274 5.78319 13.3406 5.79415C13.3538 5.80511 13.3553 5.82553 13.3444 5.83875ZM13.3194 5.93324L13.3198 5.92077L13.3202 5.91019V5.90112L13.3198 5.89129V5.8826L13.3194 5.87541L13.3191 5.86937L13.3183 5.86408L13.3179 5.85841L13.3172 5.85501L13.3164 5.8516L13.3157 5.8482L13.3153 5.84707V5.84631L13.3157 5.84745L13.3149 5.84631L13.3157 5.84707L13.3183 5.84972L13.3191 5.85047L13.3206 5.8516L13.3236 5.85312L13.3259 5.85387L13.3244 5.85349L13.3217 5.85274L13.3206 5.85236L13.324 5.85274H13.3217L13.3164 5.8516L13.3111 5.84972L13.3047 5.84631L13.3036 5.84556L13.2979 5.84065L13.3425 5.79604L13.3391 5.79264L13.3402 5.7934L13.3361 5.79151L13.3338 5.79037L13.3308 5.79H13.3315L13.338 5.79113L13.3391 5.79151H13.3395L13.341 5.79189L13.3463 5.7934L13.3523 5.79642L13.3561 5.79907L13.3599 5.80209L13.3656 5.80776L13.3686 5.8123L13.3708 5.8157L13.3735 5.82137L13.3758 5.82666L13.3776 5.83308L13.3784 5.83724L13.3799 5.84291L13.3807 5.85009L13.3818 5.85652L13.3826 5.86408L13.3829 5.87239L13.3833 5.88108V5.88978L13.3837 5.8996V5.91094L13.3833 5.92304L13.3829 5.93551L13.3194 5.93324ZM13.3194 5.93324L13.3829 5.93551C13.3826 5.9529 13.3674 5.9665 13.3501 5.96612C13.3327 5.96575 13.3191 5.95063 13.3194 5.93324ZM13.3232 6.09085V6.09047L13.3228 6.0848L13.3225 6.07951L13.3221 6.07422L13.3217 6.0693L13.3213 6.06439L13.321 6.05948L13.3206 6.05494L13.3202 6.0489V6.04398L13.3198 6.04096L13.3194 6.03529V6.03075L13.3191 6.02622V6.02017V6.01715L13.3187 6.01261V6.00694V6.00241V5.99787V5.99485L13.3183 5.99031V5.98313L13.3187 5.97822V5.97482V5.9699V5.96537V5.96045V5.95403L13.3191 5.94912V5.94383L13.3194 5.93853V5.93324L13.3829 5.93551V5.9408L13.3826 5.94609V5.95138L13.3822 5.9563V5.96045V5.96537V5.9699V5.97482V5.98049L13.3818 5.9854V5.98729L13.3822 5.99183V5.99787V6.00241V6.00694V6.00959L13.3826 6.01412V6.02017V6.02319L13.3829 6.02773V6.03227L13.3833 6.03567L13.3837 6.04171V6.04663L13.3841 6.04965L13.3844 6.05494L13.3848 6.05986L13.3852 6.06477L13.3856 6.06968L13.386 6.07497L13.3863 6.08027L13.3867 6.08518V6.0848L13.3232 6.09085ZM13.3232 6.09047L13.3867 6.08518C13.3878 6.10257 13.375 6.11844 13.3576 6.11957C13.3402 6.12071 13.3244 6.10786 13.3232 6.09047ZM13.3769 6.38187L13.3746 6.3728L13.3727 6.36373L13.3705 6.35504L13.3686 6.34521L13.3667 6.3369L13.3644 6.32858L13.3625 6.31913L13.3606 6.31044L13.3584 6.30175L13.3565 6.2923L13.3546 6.2836L13.3527 6.27491L13.3508 6.26584L13.3485 6.25639L13.347 6.2477L13.3455 6.23938L13.3433 6.22993L13.3417 6.22011L13.3402 6.21217L13.3383 6.2031L13.3368 6.19365L13.3353 6.18458L13.3338 6.17475L13.3327 6.16606L13.3312 6.15699L13.3296 6.14716L13.3289 6.13847L13.3274 6.12865L13.3262 6.1192L13.3251 6.11013L13.324 6.10068L13.3232 6.09085L13.3867 6.0848L13.3875 6.09387L13.3886 6.10256L13.3897 6.11239L13.3901 6.12108L13.3916 6.1294L13.3931 6.1396L13.3939 6.14792L13.3954 6.15699L13.3965 6.16568L13.3981 6.174L13.3996 6.18307L13.4011 6.191L13.403 6.20008L13.4045 6.20953L13.406 6.21784L13.4075 6.22578L13.4098 6.2356L13.4113 6.2443L13.4128 6.25223L13.4147 6.26131L13.4166 6.27L13.4185 6.27869L13.4204 6.28738L13.4226 6.29608L13.4245 6.30552L13.4264 6.31346L13.4287 6.32254L13.4306 6.33236L13.4324 6.34068L13.4347 6.34937L13.4366 6.35844L13.4389 6.36751L13.3769 6.38187ZM13.3769 6.38187L13.4389 6.36751C13.4427 6.38452 13.4321 6.4019 13.4151 6.40568C13.3981 6.40946 13.3807 6.39888 13.3769 6.38187ZM13.632 6.83768L13.5829 6.87585L13.5753 6.86074L13.5674 6.846L13.5598 6.83088L13.5526 6.8169L13.5455 6.80291L13.5379 6.78893L13.5311 6.77532L13.5239 6.76209L13.5164 6.74848L13.5096 6.7345L13.5027 6.72127L13.4959 6.70804L13.4891 6.69482L13.4823 6.68083L13.4759 6.66723L13.4695 6.65362L13.4631 6.64001L13.4563 6.62528L13.4498 6.61053L13.4438 6.59579L13.4377 6.58068L13.4317 6.5648L13.426 6.54931L13.42 6.53267L13.4143 6.51567L13.4086 6.49866L13.403 6.48052L13.3977 6.462L13.3924 6.44348L13.3871 6.42345L13.3818 6.40304L13.3769 6.38187L13.4389 6.36751L13.4438 6.38792L13.4483 6.40757L13.4536 6.42609L13.4589 6.44461L13.4642 6.46238L13.4691 6.479L13.4748 6.49601L13.4797 6.51151L13.4857 6.52738L13.4914 6.54288L13.4967 6.55724L13.5027 6.5716L13.5088 6.58559L13.5145 6.59957L13.5205 6.6128L13.5269 6.62641L13.5334 6.64001L13.5398 6.65362L13.5458 6.66609L13.5526 6.67932L13.5594 6.69255L13.5662 6.70578L13.573 6.71901L13.5798 6.73186L13.587 6.74584L13.5946 6.75945L13.6014 6.77343L13.6093 6.78741L13.6165 6.80215L13.6241 6.81652L13.632 6.83201L13.6396 6.84789L13.5904 6.88606L13.632 6.83768ZM13.5829 6.87585L13.6396 6.84789C13.6471 6.86338 13.6407 6.88266 13.6252 6.89022C13.6097 6.89778 13.5904 6.89135 13.5829 6.87585Z" fill="#000D19"/>
<path fill-rule="evenodd" clip-rule="evenodd" d="M13.6112 6.86189L13.5129 6.77685C13.3126 6.53458 13.1248 6.0508 13.3202 5.81836C13.3315 5.8297 13.3561 5.79757 13.3512 5.93439C13.3493 5.9926 13.3501 6.03001 13.355 6.08784C13.364 6.188 13.3856 6.27833 13.4079 6.37471C13.46 6.59959 13.5284 6.69521 13.6112 6.86189Z" fill="#0D3752"/>
<path fill-rule="evenodd" clip-rule="evenodd" d="M17.6401 12.4326L17.6443 8.90971C17.5857 8.97018 17.4349 9.27178 17.3801 9.36816L15.5512 12.6208C15.8743 12.6174 16.2406 12.5834 16.5701 12.5675C16.8975 12.5517 17.3325 12.5766 17.642 12.5399L17.6401 12.4326ZM20.5175 12.6254C20.1955 12.0184 19.7771 11.318 19.432 10.7054L18.6217 9.26612C18.5521 9.13648 18.4259 8.89119 18.3495 8.78914L18.3477 12.5445C19.0733 12.5532 19.7997 12.5762 20.5175 12.6254ZM21.0829 12.6809L21.197 12.6813C21.146 12.5622 21.0107 12.3219 20.934 12.19C20.8346 12.0195 20.7563 11.8577 20.6585 11.6914L19.576 9.69358C19.466 9.50649 19.1085 8.79178 19.0261 8.69314L18.8847 8.692L20.5269 11.688C20.6774 11.9681 20.968 12.4368 21.0829 12.6809ZM17.9353 7.95046C18.0869 8.0835 18.6039 8.04986 18.8575 8.05024C18.9611 8.05062 19.1285 8.08161 19.1266 7.97465C19.124 7.81667 18.6644 7.88545 18.537 7.88885C18.4025 7.89263 18.0268 7.87789 17.9353 7.95046ZM18.2634 7.0309C18.6602 6.9213 18.706 6.4224 18.424 6.17635C18.3745 6.13289 18.3507 6.12381 18.2849 6.12608C18.3779 6.26215 18.4387 6.36419 18.4403 6.59323C18.4421 6.86422 18.3409 6.91979 18.2634 7.0309ZM13.3201 5.81843C13.1247 6.05087 13.3126 6.53465 13.5129 6.77692L13.6112 6.86195C13.5284 6.69528 13.46 6.59966 13.4078 6.37478C13.3855 6.2784 13.364 6.18807 13.3549 6.08791C13.35 6.03008 13.3492 5.99267 13.3511 5.93446C13.356 5.79764 13.3315 5.82977 13.3201 5.81843ZM15.6691 3.89427C15.6959 3.8459 15.7054 3.85912 15.7205 3.80999L15.7201 3.79185C15.5973 3.74158 15.3981 3.93584 15.4472 4.33005C15.4782 4.57874 15.561 4.78737 15.6445 4.98655C15.7477 5.23336 15.9666 5.58712 16.1366 5.79877C16.1945 5.87134 16.2738 5.98586 16.3521 6.02064C16.2678 5.83431 16.0006 5.58561 15.7893 5.01566C15.7205 4.83046 15.6574 4.62599 15.6215 4.40526C15.5984 4.26164 15.5999 4.02089 15.6691 3.89427ZM21.5119 3.87121C21.4718 3.81414 21.2462 3.64066 21.0587 3.39008C20.9196 3.20488 20.8176 3.06353 20.6876 2.85453C20.3878 2.3715 20.3017 2.09144 20.1157 1.59254C20.073 1.71953 20.2257 2.20974 20.2661 2.32879C20.3826 2.66971 20.547 2.96224 20.756 3.23966C20.8731 3.39537 20.8489 3.3504 20.9457 3.44451C21.1041 3.59758 21.2715 3.77748 21.5119 3.87121ZM21.7375 0.0981138C21.507 0.0444445 21.3626 0.202053 21.3203 0.384227C21.2016 0.896353 21.5432 1.61106 21.7715 2.01471C22.0316 2.47468 22.6722 3.29862 23.2104 3.41351C23.724 3.52312 23.6832 2.87645 23.5944 2.50038C23.4818 2.02605 23.1688 1.45383 22.885 1.07399C22.6839 0.805266 22.4704 0.542586 22.1956 0.343405C22.0618 0.246649 21.9337 0.143468 21.7375 0.0981138ZM20.0609 1.27657C20.1014 0.846462 20.1607 0.822272 20.4472 0.641988C20.649 0.514996 20.8705 0.391785 21.0761 0.269706C21.3331 0.117769 21.5217 -0.0504206 21.7878 0.0142094C22.3524 0.151784 23.0248 1.03393 23.2966 1.53018C23.4784 1.86202 23.8257 2.54385 23.7641 3.05295C23.7221 3.39916 23.5453 3.47966 23.3049 3.61383C23.0845 3.73667 22.8789 3.85081 22.6616 3.97213C22.3967 4.11953 22.278 4.21931 21.9174 4.11802C21.8252 4.09194 21.7292 4.18114 21.589 4.25975L19.339 5.52514C19.2324 5.58372 19.1198 5.65175 19.0113 5.70807C18.8995 5.76627 18.7914 5.81918 18.6848 5.88457C18.7347 5.9938 18.8012 6.07997 18.8382 6.21528C18.9119 6.48514 18.9002 6.78183 18.729 7.01314C18.4478 7.39373 18.4807 6.92016 18.4788 7.7834C18.6984 7.78227 19.1225 7.71424 19.209 7.90511C19.2411 7.97579 19.2846 8.47128 19.1429 8.63418C19.5136 9.29295 19.8512 9.99632 20.2257 10.6676C20.409 10.9956 20.5965 11.3452 20.7628 11.6809C20.9313 12.0214 21.1324 12.3506 21.298 12.6945C21.564 12.7104 21.8513 12.7501 22.1109 12.7871C22.2409 12.806 22.3679 12.8264 22.498 12.8548C22.6503 12.888 22.7833 12.9024 22.8075 12.9995C22.7051 13.1503 21.9938 13.2104 21.7458 13.2399C19.6648 13.4863 16.4715 13.4504 14.3757 13.2308C14.2049 13.2127 13.4018 13.1503 13.3447 12.9814C13.4687 12.8268 14.3217 12.7516 14.6089 12.7206C14.8728 12.6923 14.8002 12.7369 14.9151 12.5354C15.1596 12.1068 15.3754 11.6691 15.6166 11.2326C16.0924 10.3712 16.5565 9.50536 17.0229 8.63418C16.933 8.5087 16.9254 8.52684 16.9262 8.31292C16.9266 8.20974 16.9088 7.99619 16.9439 7.91191C17.032 7.70101 17.3854 7.80835 17.6405 7.77736C17.639 6.99084 17.6791 7.27695 17.5048 7.07701C17.2871 6.82643 17.3022 6.65635 17.2557 6.56488C16.8952 6.75122 16.7629 6.90051 16.4628 6.79657C16.2598 6.72627 15.9257 6.4772 15.8358 6.32791C15.7141 6.34983 15.5474 6.43827 15.4265 6.48816C15.2927 6.54334 15.1713 6.59626 15.0413 6.65106C14.8962 6.71229 14.1751 6.98101 14.0976 7.08646C13.9925 7.22895 13.6357 7.36199 13.5707 7.35859C13.1081 7.33251 12.6459 6.23191 12.9074 5.99078C12.9667 5.93597 13.1708 5.83468 13.2529 5.78819C13.5991 5.59242 13.4611 5.81616 13.641 5.70542L15.0179 4.88942C15.0001 4.68797 14.8316 4.18869 15.1434 4.01295C15.3376 3.90334 15.6555 3.66183 15.8796 3.6743C15.9802 3.67997 16.4821 3.35077 16.5796 3.29521C16.8128 3.16218 17.0384 3.02612 17.2739 2.8927L20.0609 1.27657Z" fill="#000D19"/>
<path fill-rule="evenodd" clip-rule="evenodd" d="M21.8393 0.485158C21.9977 0.528245 22.0884 0.600813 22.1957 0.684718C22.2324 0.713443 22.2392 0.713442 22.2687 0.74519C22.2982 0.777316 22.2982 0.783366 22.3299 0.814358C22.7547 1.22897 23.1017 1.74601 23.2842 2.3341C23.6316 3.4502 22.8749 3.08358 22.3613 2.42821C22.3136 2.36699 22.2868 2.32995 22.2377 2.2691C22.0381 2.02267 21.769 1.4977 21.6711 1.19231C21.6054 0.987839 21.4512 0.379331 21.8393 0.485158Z" fill="#0D3752"/>
<path fill-rule="evenodd" clip-rule="evenodd" d="M21.8392 0.485069C21.451 0.379243 21.6052 0.98775 21.671 1.19222C21.7689 1.49761 22.038 2.02258 22.2375 2.26901C22.2867 2.32986 22.3135 2.3669 22.3611 2.42813C22.8748 3.0835 23.6314 3.45011 23.2841 2.33402C23.1015 1.74592 22.7546 1.22888 22.3298 0.814269C22.298 0.783277 22.298 0.777227 22.2685 0.745101C22.2391 0.713353 22.2323 0.713354 22.1956 0.68463C22.0883 0.600724 21.9975 0.528156 21.8392 0.485069ZM21.7375 0.0980462C21.9337 0.1434 22.0618 0.246581 22.1956 0.343337C22.4704 0.542518 22.6839 0.805198 22.885 1.07392C23.1688 1.45377 23.4818 2.02599 23.5944 2.50032C23.6832 2.87638 23.724 3.52305 23.2104 3.41345C22.6722 3.29855 22.0316 2.47461 21.7715 2.01464C21.5432 1.61099 21.2016 0.896285 21.3203 0.384159C21.3626 0.201986 21.507 0.0443769 21.7375 0.0980462Z" fill="#E9C87C"/>
<path fill-rule="evenodd" clip-rule="evenodd" d="M21.0829 12.6808C20.968 12.4367 20.6774 11.968 20.527 11.6879L18.8848 8.69189L19.0261 8.69303C19.1085 8.79168 19.4661 9.50638 19.576 9.69347L20.6585 11.6913C20.7564 11.8576 20.8346 12.0194 20.934 12.1898C21.0107 12.3218 21.1461 12.5621 21.1971 12.6812L21.0829 12.6808Z" fill="#E9C87C"/>
<path fill-rule="evenodd" clip-rule="evenodd" d="M17.9355 7.9505C18.027 7.87793 18.4027 7.89267 18.5372 7.88889C18.6646 7.88549 19.1242 7.8167 19.1269 7.97469C19.1287 8.08165 18.9613 8.05065 18.8578 8.05028C18.6041 8.0499 18.0871 8.08354 17.9355 7.9505Z" fill="#E9C87C"/>
<path fill-rule="evenodd" clip-rule="evenodd" d="M18.2632 7.03087C18.3407 6.91976 18.442 6.86419 18.4401 6.5932C18.4386 6.36416 18.3777 6.26212 18.2847 6.12605C18.3505 6.12378 18.3743 6.13286 18.4238 6.17632C18.7058 6.42237 18.66 6.92127 18.2632 7.03087Z" fill="#E9C87C"/>
<path fill-rule="evenodd" clip-rule="evenodd" d="M21.8237 0.491903C21.9125 0.512691 22.0471 0.574294 22.1892 0.677475C22.3317 0.780278 22.4817 0.925035 22.6155 1.08491C22.7497 1.24478 22.8672 1.42016 22.9734 1.58419C23.0792 1.74822 23.173 1.90091 23.2418 2.05247C23.3106 2.20403 23.354 2.35408 23.3771 2.48938C23.4001 2.62469 23.4032 2.74526 23.3967 2.82954C23.3907 2.91345 23.3752 2.96107 23.3465 2.99093C23.3177 3.02078 23.2762 3.03288 23.2493 3.03212C23.2229 3.03137 23.2112 3.01814 23.2119 2.97581C23.2123 2.9331 23.2251 2.86166 23.2112 2.73316C23.1968 2.60503 23.1563 2.41984 23.1023 2.25732C23.0483 2.09442 22.981 1.9542 22.9061 1.8223C22.8309 1.69077 22.7482 1.56718 22.6431 1.42015C22.5376 1.27313 22.4103 1.1023 22.2489 0.966988C22.0875 0.831681 21.8929 0.731902 21.7908 0.669918C21.6891 0.608311 21.6808 0.584877 21.6729 0.564846C21.6649 0.544814 21.657 0.528564 21.6748 0.510044C21.6922 0.491525 21.7349 0.471116 21.8237 0.491903Z" fill="#000D19"/>
<path fill-rule="evenodd" clip-rule="evenodd" d="M19.1291 7.99542C19.1457 8.09936 19.1166 8.34125 19.097 8.47542C19.0773 8.6096 19.0675 8.63643 19.0444 8.64323C19.021 8.65041 18.9847 8.63756 18.9734 8.56462C18.9624 8.49167 18.9764 8.35864 18.9779 8.26339C18.979 8.16815 18.9681 8.11107 18.9673 8.06723C18.9666 8.02301 18.9764 7.99164 19.0127 7.95876C19.049 7.92588 19.1121 7.89149 19.1291 7.99542Z" fill="#E9C87C"/>
<path fill-rule="evenodd" clip-rule="evenodd" d="M16.1406 3.84522C16.1546 3.80365 16.1678 3.76661 16.1686 3.63659C16.1689 3.50657 16.1572 3.28359 16.144 3.13883C16.1311 2.99407 16.1168 2.92717 16.1024 2.86027C15.9539 2.87123 15.805 2.88258 15.6954 2.88371C15.5858 2.88522 15.5151 2.87728 15.4693 2.84629C15.4236 2.81568 15.4032 2.76163 15.4043 2.68793C15.4059 2.61423 15.4285 2.52049 15.4746 2.4022C15.5208 2.2839 15.5903 2.14103 15.6644 2.03369C15.7388 1.92597 15.8178 1.85379 15.9142 1.81335C16.0102 1.77291 16.1232 1.76421 16.2634 1.8005C16.4036 1.83678 16.5707 1.91766 16.6973 1.97813C16.8239 2.03861 16.9097 2.07867 16.9657 2.14973C17.0216 2.22078 17.0477 2.32321 17.0299 2.39653C17.0118 2.46985 16.9494 2.51445 16.8863 2.55489C16.8236 2.59533 16.7593 2.63124 16.6792 2.67055C16.5987 2.70985 16.5019 2.75294 16.4052 2.79565C16.4384 2.84554 16.4713 2.89543 16.5076 2.98614C16.5442 3.07684 16.5839 3.20837 16.6213 3.33914C16.6588 3.46954 16.6932 3.59955 16.6951 3.69177C16.6969 3.78437 16.6659 3.83917 16.627 3.8781C16.5885 3.91741 16.542 3.94047 16.4524 3.95407C16.3628 3.96806 16.2298 3.97297 16.1708 3.95256C16.1119 3.93215 16.1266 3.8868 16.1406 3.84522Z" fill="#000D19"/>
<path fill-rule="evenodd" clip-rule="evenodd" d="M38.9167 13.2811C39.0634 13.3415 39.2637 13.4625 39.4024 13.577C39.5407 13.6915 39.6171 13.8 39.6617 13.916C39.7063 14.0324 39.7191 14.1564 39.6919 14.252C39.6651 14.3473 39.5982 14.4142 39.4167 14.4444C39.2349 14.4746 38.939 14.4682 38.6797 14.4572C38.4201 14.4463 38.1975 14.43 38.0399 14.3983C37.8823 14.3665 37.79 14.3189 37.7088 14.2649C37.6275 14.2104 37.5576 14.15 37.5591 14.0593C37.561 13.9685 37.6339 13.8476 37.739 13.7331C37.8441 13.6182 37.9809 13.5101 38.1275 13.4258C38.2738 13.3415 38.4299 13.2811 38.5539 13.2508C38.6782 13.2206 38.7704 13.2206 38.9167 13.2811Z" fill="#031D31"/>
<path fill-rule="evenodd" clip-rule="evenodd" d="M38.8495 14.8474C38.8771 14.9461 38.9059 15.1339 38.9051 15.2794C38.9043 15.4249 38.8741 15.5285 38.8303 15.6128C38.7864 15.6971 38.7294 15.7624 38.6829 15.7991C38.6368 15.8358 38.602 15.8437 38.5653 15.8342C38.5287 15.8248 38.4905 15.7976 38.4682 15.7451C38.4459 15.6925 38.4395 15.6147 38.4508 15.4975C38.4618 15.3807 38.4905 15.2246 38.5128 15.1124C38.5351 15.0001 38.551 14.9317 38.5922 14.875C38.6337 14.8187 38.7006 14.7741 38.7475 14.7567C38.7944 14.7389 38.8216 14.7488 38.8495 14.8474Z" fill="#031D31"/>
<path fill-rule="evenodd" clip-rule="evenodd" d="M39.6966 15.5447C39.649 15.6146 39.5088 15.7356 39.4294 15.7991C39.3496 15.8629 39.3304 15.8694 39.313 15.8603C39.2956 15.852 39.2797 15.8278 39.2956 15.773C39.3115 15.7182 39.3591 15.632 39.4045 15.5708C39.4502 15.5096 39.4929 15.4729 39.5345 15.4548C39.5757 15.4362 39.6154 15.4362 39.6577 15.4457C39.7 15.4555 39.7446 15.4744 39.6966 15.5447Z" fill="#031D31"/>
<path fill-rule="evenodd" clip-rule="evenodd" d="M37.8623 15.468C37.9046 15.4888 37.9632 15.5795 37.9991 15.6513C38.035 15.7228 38.0478 15.7753 38.0221 15.8025C37.9968 15.8294 37.933 15.8312 37.8846 15.784C37.8362 15.7371 37.8026 15.6415 37.7988 15.5693C37.7946 15.4968 37.8203 15.4476 37.8623 15.468Z" fill="#031D31"/>
<path fill-rule="evenodd" clip-rule="evenodd" d="M38.9167 13.2811C39.0634 13.3415 39.2637 13.4625 39.4024 13.577C39.5407 13.6915 39.6171 13.8 39.6617 13.916C39.7063 14.0324 39.7191 14.1564 39.6919 14.252C39.6651 14.3473 39.5982 14.4142 39.4167 14.4444C39.2349 14.4746 38.939 14.4682 38.6797 14.4572C38.4201 14.4463 38.1975 14.43 38.0399 14.3983C37.8823 14.3665 37.79 14.3189 37.7088 14.2649C37.6275 14.2104 37.5576 14.15 37.5591 14.0593C37.561 13.9685 37.6339 13.8476 37.739 13.7331C37.8441 13.6182 37.9809 13.5101 38.1275 13.4258C38.2738 13.3415 38.4299 13.2811 38.5539 13.2508C38.6782 13.2206 38.7704 13.2206 38.9167 13.2811Z" fill="#031D31"/>
<path fill-rule="evenodd" clip-rule="evenodd" d="M38.8495 14.8474C38.8771 14.9461 38.9059 15.1339 38.9051 15.2794C38.9043 15.4249 38.8741 15.5285 38.8303 15.6128C38.7864 15.6971 38.7294 15.7624 38.6829 15.7991C38.6368 15.8358 38.602 15.8437 38.5653 15.8342C38.5287 15.8248 38.4905 15.7976 38.4682 15.7451C38.4459 15.6925 38.4395 15.6147 38.4508 15.4975C38.4618 15.3807 38.4905 15.2246 38.5128 15.1124C38.5351 15.0001 38.551 14.9317 38.5922 14.875C38.6337 14.8187 38.7006 14.7741 38.7475 14.7567C38.7944 14.7389 38.8216 14.7488 38.8495 14.8474Z" fill="#031D31"/>
<path fill-rule="evenodd" clip-rule="evenodd" d="M39.6966 15.5447C39.649 15.6146 39.5088 15.7356 39.4294 15.7991C39.3496 15.8629 39.3304 15.8694 39.313 15.8603C39.2956 15.852 39.2797 15.8278 39.2956 15.773C39.3115 15.7182 39.3591 15.632 39.4045 15.5708C39.4502 15.5096 39.4929 15.4729 39.5345 15.4548C39.5757 15.4362 39.6154 15.4362 39.6577 15.4457C39.7 15.4555 39.7446 15.4744 39.6966 15.5447Z" fill="#031D31"/>
<path fill-rule="evenodd" clip-rule="evenodd" d="M37.8623 15.468C37.9046 15.4888 37.9632 15.5795 37.9991 15.6513C38.035 15.7228 38.0478 15.7753 38.0221 15.8025C37.9968 15.8294 37.933 15.8312 37.8846 15.784C37.8362 15.7371 37.8026 15.6415 37.7988 15.5693C37.7946 15.4968 37.8203 15.4476 37.8623 15.468Z" fill="#031D31"/>
<path fill-rule="evenodd" clip-rule="evenodd" d="M14.0993 14.0827C14.167 14.1107 14.2596 14.1663 14.3234 14.2192C14.3877 14.2721 14.4228 14.3224 14.4433 14.376C14.464 14.4297 14.4697 14.4868 14.4572 14.531C14.4448 14.5752 14.4141 14.6058 14.3302 14.6198C14.2463 14.6338 14.1099 14.6308 13.9901 14.6259C13.8703 14.6206 13.7671 14.6134 13.6945 14.5986C13.6216 14.5839 13.5793 14.562 13.5415 14.537C13.504 14.5117 13.4719 14.4837 13.4727 14.4422C13.4734 14.4002 13.5071 14.3443 13.5554 14.2914C13.6042 14.2385 13.6673 14.1886 13.735 14.1496C13.8026 14.1107 13.8744 14.0827 13.9319 14.0688C13.9893 14.0548 14.032 14.0548 14.0993 14.0827Z" fill="#031D31"/>
<path fill-rule="evenodd" clip-rule="evenodd" d="M14.068 14.8059C14.0808 14.8516 14.0941 14.9382 14.0937 15.0054C14.0933 15.0727 14.0793 15.1207 14.0589 15.1596C14.0389 15.1986 14.0124 15.2284 13.9909 15.2454C13.9697 15.2624 13.9535 15.2662 13.9368 15.2617C13.9198 15.2571 13.9021 15.2447 13.8918 15.2205C13.8816 15.1963 13.8786 15.16 13.8839 15.1063C13.8888 15.0523 13.9021 14.9801 13.9126 14.9283C13.9228 14.8765 13.93 14.8448 13.9493 14.8187C13.9682 14.7926 13.9992 14.7722 14.0207 14.7639C14.0427 14.756 14.0551 14.7605 14.068 14.8059Z" fill="#031D31"/>
<path fill-rule="evenodd" clip-rule="evenodd" d="M27.0437 11.917C27.142 11.9578 27.2765 12.0387 27.3691 12.1158C27.4621 12.1925 27.5135 12.2651 27.5434 12.343C27.5732 12.4212 27.5819 12.5044 27.5634 12.5686C27.5456 12.6325 27.5006 12.6774 27.3789 12.6975C27.2572 12.7179 27.0584 12.7137 26.8846 12.7062C26.7103 12.699 26.5611 12.688 26.4552 12.6665C26.3494 12.6453 26.2874 12.6132 26.233 12.5769C26.1786 12.5406 26.1317 12.5002 26.1328 12.4393C26.134 12.3785 26.1831 12.2972 26.2534 12.2205C26.3237 12.1434 26.4155 12.0708 26.5138 12.0141C26.6121 11.9578 26.7168 11.917 26.8003 11.897C26.8834 11.8766 26.9454 11.8766 27.0437 11.917Z" fill="#031D31"/>
<path fill-rule="evenodd" clip-rule="evenodd" d="M26.9982 12.9677C27.0168 13.0342 27.036 13.1601 27.0357 13.2576C27.0349 13.3555 27.0149 13.425 26.9854 13.4813C26.9559 13.538 26.9174 13.5819 26.8864 13.6064C26.8558 13.631 26.8319 13.6363 26.8074 13.6299C26.7828 13.6234 26.7575 13.6053 26.7424 13.5701C26.7276 13.535 26.7231 13.4825 26.7307 13.4042C26.7382 13.3256 26.7575 13.2209 26.7722 13.1457C26.7873 13.0705 26.7979 13.0244 26.8255 12.9866C26.8535 12.9488 26.8985 12.9186 26.9298 12.9068C26.9612 12.8951 26.9793 12.9015 26.9982 12.9677Z" fill="#031D31"/>
<path fill-rule="evenodd" clip-rule="evenodd" d="M27.5669 13.4356C27.5348 13.4829 27.4407 13.5637 27.3874 13.6065C27.3341 13.6492 27.3212 13.6537 27.3095 13.6477C27.2978 13.642 27.2872 13.6257 27.2978 13.5891C27.3084 13.552 27.3405 13.4946 27.3708 13.4534C27.4014 13.4122 27.4301 13.3876 27.4581 13.3755C27.4857 13.3631 27.5125 13.3631 27.5405 13.3695C27.5692 13.3759 27.5987 13.3888 27.5669 13.4356Z" fill="#031D31"/>
<path fill-rule="evenodd" clip-rule="evenodd" d="M26.3359 13.3842C26.3643 13.3982 26.4036 13.459 26.4274 13.507C26.4516 13.555 26.4603 13.5906 26.4433 13.6087C26.4259 13.6268 26.3832 13.628 26.3507 13.5962C26.3182 13.5649 26.2959 13.5006 26.2932 13.4522C26.2906 13.4035 26.3076 13.3706 26.3359 13.3842Z" fill="#031D31"/>
<defs>
<linearGradient id="paint0_linear_263_86" x1="62.2786" y1="8.74338" x2="61.3228" y2="18.6548" gradientUnits="userSpaceOnUse">
<stop stop-color="#0D314F"/>
<stop offset="1" stop-color="#1F4B69"/>
</linearGradient>
<linearGradient id="paint1_linear_263_86" x1="11.4928" y1="15.3228" x2="11.9482" y2="19.6881" gradientUnits="userSpaceOnUse">
<stop stop-color="#0D314F"/>
<stop offset="1" stop-color="#1D4663"/>
</linearGradient>
<linearGradient id="paint2_linear_263_86" x1="39.6031" y1="7.84538" x2="37.6627" y2="12.512" gradientUnits="userSpaceOnUse">
<stop stop-color="#0D3752"/>
<stop offset="1" stop-color="#1F4B69"/>
</linearGradient>
<linearGradient id="paint3_linear_263_86" x1="54.735" y1="9.89611" x2="50.74" y2="21.6338" gradientUnits="userSpaceOnUse">
<stop stop-color="#0D314F"/>
<stop offset="1" stop-color="#2E5C7B"/>
</linearGradient>
</defs>
</svg>
