<svg width="103" height="72" viewBox="0 0 103 72" fill="none" xmlns="http://www.w3.org/2000/svg">
<path fill-rule="evenodd" clip-rule="evenodd" d="M71.2985 27.1319C70.357 26.3571 69.3721 26.1042 68.1797 25.8026C66.9872 25.5014 65.5873 25.1514 64.029 25.2263C62.4707 25.3015 60.754 25.8015 59.0037 26.5597C57.2538 27.3182 55.4706 28.3349 54.2872 28.9181C53.1039 29.5017 52.5203 29.6517 51.487 29.6933C50.4537 29.7349 48.9706 29.6683 47.7124 29.7016C46.4538 29.7349 45.4205 29.8683 43.7586 30.3373C42.0964 30.8067 39.8052 31.6121 38.0137 32.2369C36.2219 32.862 34.9296 33.3069 33.3744 33.3213C31.8191 33.3356 30.0008 32.9199 27.4258 31.978C24.8508 31.0365 21.5187 29.5689 18.6361 28.1686C15.7534 26.7683 13.3202 25.4349 11.3537 24.4182C9.38683 23.4015 7.88674 22.7015 6.58696 22.3599C5.2868 22.0182 4.18658 22.0348 3.12227 22.0265C2.11087 22.0186 1.13159 21.9883 0 22.1425V40.6475C2.08592 41.2711 5.088 41.6407 9.05348 41.8018C15.2035 42.0516 23.67 41.8018 34.187 41.3516C44.7039 40.9015 57.2704 40.2518 64.012 39.4184C70.7539 38.585 71.6708 37.5683 72.3708 36.0516C73.0707 34.5349 73.5538 32.5185 73.3463 30.8615C73.1388 29.2046 72.2404 27.9071 71.2985 27.1319Z" fill="url(#paint0_linear_258_3)"/>
<path fill-rule="evenodd" clip-rule="evenodd" d="M16.6817 35.7164C16.3446 35.5905 15.6862 35.2655 15.2905 35.157C14.8944 35.0489 14.7613 35.157 14.6404 35.1695C14.5194 35.1823 14.4113 35.0988 14.2987 34.9072C14.1861 34.7156 14.0697 34.4155 13.9279 34.1777C13.7862 33.9404 13.6195 33.7654 13.3988 33.7155C13.1777 33.6656 12.9029 33.7404 12.6864 33.8739C12.4694 34.0073 12.3111 34.1989 12.1568 34.2696C12.0026 34.3406 11.8526 34.2904 11.6319 34.0987C11.4108 33.9071 11.1194 33.5738 10.8737 33.2446C10.6277 32.9154 10.4277 32.5903 10.2028 32.3904C9.97758 32.1905 9.72775 32.1152 9.49455 32.2196C9.26098 32.3239 9.04441 32.607 8.91137 32.7612C8.77795 32.9154 8.72768 32.9403 8.5988 32.7653C8.46954 32.5903 8.26091 32.2154 8.05682 31.9361C7.85272 31.6572 7.65241 31.4739 7.42753 31.407C7.20265 31.3404 6.95244 31.3903 6.73172 31.4569C6.51099 31.5238 6.31937 31.6069 6.15685 31.6402C5.99433 31.6738 5.86091 31.6572 5.64435 31.6239C5.4274 31.5907 5.12769 31.5404 4.86123 31.5653C4.59439 31.5907 4.36082 31.6904 4.19414 31.5653C4.02746 31.4406 3.92769 31.0902 3.74854 30.9776C3.56901 30.8654 3.31087 30.9905 3.08183 31.1613C2.85241 31.3321 2.65247 31.5487 2.47748 31.636C2.30249 31.7237 2.15244 31.6821 1.9234 31.6194C1.69398 31.557 1.38595 31.4739 1.01934 31.5362C0.702236 31.5903 0.342047 31.7532 0 31.8798V46.5096C2.16718 46.5549 4.50104 46.4691 7.06961 46.1449C9.67786 45.816 12.5276 45.2408 14.5485 44.7907C16.5694 44.3409 17.7611 44.0159 18.3904 43.2407C19.0197 42.4659 19.0862 41.2405 18.9407 40.2613C18.7948 39.2824 18.4362 38.5488 18.0858 37.8288C17.7351 37.1091 17.3923 36.4031 17.2131 36.0864C17.034 35.7697 17.0185 35.8426 16.6817 35.7164Z" fill="url(#paint1_linear_258_3)"/>
<path fill-rule="evenodd" clip-rule="evenodd" d="M102.376 16.8664C101.251 16.6082 99.5508 16.4249 97.9256 16.6248C96.3008 16.8248 94.7508 17.4083 93.4174 18.1333C92.084 18.8582 90.9675 19.7252 90.1175 20.2751C89.2675 20.825 88.6839 21.0586 87.8505 21.1584C87.0175 21.2585 85.9339 21.2249 84.6757 21.2665C83.4175 21.3084 81.9839 21.4248 80.1422 22.0832C78.3008 22.7416 76.0504 23.9416 74.2752 24.9417C72.5003 25.9418 71.2006 26.7415 69.9503 27.3247C68.7004 27.9082 67.5004 28.2752 65.4088 29.1336C63.3172 29.9919 60.3337 31.3416 57.5822 32.5011C54.8307 33.6611 52.3105 34.6309 48.5272 36.114C44.7439 37.5974 39.6971 39.5949 36.2569 41.8933C32.8168 44.192 30.9837 46.7919 33.7836 48.3253C36.5835 49.8586 44.0171 50.3254 51.3169 50.5087C58.617 50.692 65.7837 50.5922 75.2586 49.2168C84.571 47.8657 96.1122 45.2827 102.4 41.7848V16.872L102.376 16.8664Z" fill="url(#paint2_linear_258_3)"/>
<path fill-rule="evenodd" clip-rule="evenodd" d="M102.4 25.7505C102.185 25.69 102.059 25.6284 101.946 25.5728C101.7 25.4519 101.517 25.3604 101.358 25.3351C101.2 25.3102 101.067 25.3521 100.704 25.5018C100.342 25.6518 99.75 25.9103 99.3997 26.1893C99.0497 26.4686 98.9416 26.7687 98.8248 26.9312C98.708 27.0937 98.5833 27.1187 98.5205 26.9728C98.4582 26.8269 98.4582 26.5105 98.3165 26.4727C98.1747 26.4353 97.8916 26.6772 97.5458 26.9312C97.2 27.1856 96.7914 27.452 96.4955 27.4853C96.1999 27.5189 96.0166 27.3186 95.879 27.2729C95.7415 27.2271 95.65 27.3352 95.4538 27.5144C95.2581 27.6935 94.9583 27.9437 94.679 28.0768C94.3997 28.2102 94.1416 28.2272 93.9039 28.3814C93.6665 28.5356 93.4496 28.827 93.2164 28.8395C92.9832 28.852 92.733 28.5855 92.5455 28.3769C92.358 28.1686 92.2333 28.0186 92.0999 28.031C91.9665 28.0435 91.8247 28.2189 91.6913 28.2272C91.5579 28.2355 91.4332 28.0772 91.3205 28.0688C91.2079 28.0605 91.1081 28.2019 91.0205 28.327C90.9331 28.4521 90.8579 28.5602 90.6996 28.4725C90.5416 28.3852 90.2997 28.1021 90.133 27.9437C89.9663 27.7854 89.8749 27.7521 89.6455 27.977C89.4164 28.2022 89.0494 28.6853 88.7826 29.1267C88.5161 29.5686 88.3495 29.9688 88.2576 29.8894C88.1662 29.8104 88.1495 29.2518 88.0826 28.9309C88.0161 28.6104 87.8997 28.5269 87.6536 28.7019C87.408 28.8773 87.0327 29.3104 86.745 29.7061C86.4578 30.1022 86.2579 30.4605 86.1328 30.6605C86.008 30.8604 85.9578 30.9023 85.72 30.894C85.4827 30.8857 85.0579 30.8271 84.8035 30.7814C84.5495 30.7357 84.466 30.702 84.2702 30.8729C84.0744 31.0437 83.7664 31.419 83.537 31.5857C83.308 31.7524 83.1579 31.7104 83.0079 31.6435C82.8578 31.577 82.7078 31.4855 82.5452 31.4938C82.3827 31.5022 82.2077 31.6102 81.9825 31.7645C81.7576 31.9187 81.4828 32.119 81.1453 32.2104C80.8078 32.3023 80.4075 32.2853 80.0908 32.3102C79.7745 32.3355 79.5409 32.4021 79.3784 32.5189C79.2159 32.6356 79.1244 32.8023 78.9074 32.848C78.6909 32.8938 78.3492 32.8189 78.0159 32.9187C77.6825 33.0189 77.3578 33.2936 76.1076 33.9396C74.8577 34.5855 72.6826 35.6022 70.8325 36.2481C68.9824 36.894 67.4574 37.1688 66.2906 37.4606C65.1239 37.7524 64.3158 38.0604 63.3158 38.6062C62.3157 39.1523 61.124 39.9354 60.1738 40.7272C59.224 41.519 58.5154 42.3192 58.6189 44.19C58.7229 46.0613 59.639 49.0029 61.4135 51.4698C63.188 53.9371 65.8216 55.9292 70.6382 57.3292C75.4548 58.7291 82.4549 59.5372 89.8216 59.7908C94.0705 59.9374 98.4408 59.8996 102.4 59.1827V25.7505Z" fill="url(#paint3_linear_258_3)"/>
<path fill-rule="evenodd" clip-rule="evenodd" d="M102.4 51.4646C101.782 51.2461 101.422 51.0877 101.086 50.9793C100.673 50.8462 100.298 50.7877 100.069 50.7544C99.84 50.7211 99.7565 50.7128 99.8022 50.6044C99.8483 50.4963 100.023 50.288 100.007 50.1712C99.99 50.0548 99.7814 50.0295 99.5648 50.0378C99.3483 50.0461 99.123 50.0881 98.894 50.1837C98.6649 50.2797 98.4314 50.4294 98.273 50.5125C98.1146 50.596 98.0315 50.613 97.9688 50.6214C97.9064 50.6297 97.8648 50.6297 97.8731 50.5129C97.8815 50.3965 97.94 50.1629 98.098 49.9127C98.2564 49.6629 98.5149 49.3964 98.6521 49.2127C98.7897 49.0294 98.8067 48.9296 98.7398 48.8835C98.6733 48.8378 98.5232 48.8461 98.3399 48.9209C98.1566 48.9962 97.9397 49.1379 97.7272 49.3461C97.5148 49.5548 97.3062 49.8295 97.1229 50.0212C96.9396 50.2132 96.7816 50.3213 96.59 50.3753C96.3984 50.4297 96.1731 50.4297 96.0147 50.4297C95.8564 50.4297 95.7649 50.4297 95.7982 50.2253C95.8314 50.0212 95.9898 49.613 96.0438 48.8295C96.0983 48.046 96.048 46.8879 96.0231 46.3085C95.9981 45.7295 95.9981 45.7295 96.2438 45.7378C96.4898 45.7461 96.9815 45.7632 97.494 45.6796C98.0066 45.5965 98.5398 45.4128 98.8607 45.0919C99.1816 44.771 99.2897 44.3129 98.9979 43.7502C98.7065 43.1878 98.0149 42.5214 97.4313 42.0297C96.8481 41.538 96.373 41.2213 95.9021 41.0837C95.4312 40.9461 94.9648 40.9881 94.402 41.2338C93.8396 41.4798 93.1816 41.9296 92.6691 42.4088C92.1566 42.8881 91.7896 43.3964 91.5855 43.7838C91.3814 44.1712 91.3398 44.4381 91.344 44.6505C91.3482 44.8629 91.398 45.0212 91.7938 45.1837C92.1895 45.3463 92.9314 45.5129 93.4171 45.6271C93.9031 45.7412 94.1337 45.8032 94.2486 45.8338C94.3638 45.8648 94.3638 45.8648 94.3363 46.3297C94.3087 46.7946 94.2531 47.7247 94.117 48.3895C93.9814 49.0544 93.7648 49.4546 93.6064 49.7252C93.4481 49.9962 93.3483 50.138 93.2897 50.1671C93.2315 50.1962 93.2149 50.113 93.0191 49.9293C92.8233 49.746 92.448 49.4629 92.2144 49.317C91.9812 49.1712 91.8898 49.1628 91.8603 49.2543C91.8312 49.3461 91.8648 49.5381 91.9147 49.7214C91.9646 49.9048 92.0315 50.0797 91.9729 50.0964C91.9147 50.113 91.7314 49.9713 91.4563 49.8794C91.1815 49.788 90.8149 49.746 90.4773 49.7128C90.1398 49.6795 89.8314 49.6545 89.6523 49.6421C89.4731 49.6296 89.4229 49.6296 89.3605 49.4421C89.2981 49.2547 89.2229 48.8794 89.3522 48.6503C89.4815 48.4213 89.8148 48.3378 90.0896 48.1752C90.3647 48.0131 90.5817 47.7712 90.6565 47.5588C90.7313 47.3464 90.6648 47.1631 90.4271 46.9129C90.1897 46.6631 89.7812 46.3463 89.4062 46.1755C89.0313 46.0047 88.6896 45.9797 88.3313 46.0338C87.973 46.0882 87.5981 46.2212 87.2523 46.4544C86.9065 46.688 86.5897 47.0214 86.3853 47.2878C86.1812 47.5546 86.0897 47.7546 86.1105 47.9711C86.1313 48.1877 86.2647 48.4213 86.5353 48.5543C86.8063 48.6878 87.2149 48.7214 87.5271 48.7422C87.8396 48.763 88.0566 48.7713 88.173 48.8212C88.2898 48.8714 88.3064 48.9629 88.3147 49.1254C88.323 49.2879 88.323 49.5215 88.2353 49.6379C88.148 49.7547 87.973 49.7547 87.5104 49.6379C87.0482 49.5215 86.298 49.2879 85.7605 49.1213C85.2231 48.9546 84.898 48.8548 84.3855 48.7505C83.873 48.6462 83.173 48.5381 82.3189 48.2089C81.4647 47.8797 80.4563 47.3294 79.4396 46.8751C78.4229 46.4212 77.3979 46.0629 76.5729 45.8421C75.7478 45.6214 75.123 45.5379 74.8105 45.3712C74.4979 45.2045 74.4979 44.9547 74.4185 44.788C74.3395 44.6214 74.1812 44.5378 73.9226 44.5752C73.6645 44.613 73.3062 44.7714 73.0809 44.8961C72.8561 45.0212 72.7646 45.1131 72.7351 44.9422C72.706 44.7714 72.7397 44.3379 72.6686 44.0835C72.5979 43.8295 72.4229 43.7547 72.2854 43.7797C72.1478 43.8046 72.048 43.9297 71.9395 44.1213C71.8311 44.3129 71.7146 44.5715 71.6353 44.6671C71.5563 44.7631 71.5143 44.6962 71.3269 44.5004C71.1394 44.3046 70.8064 43.9796 70.5188 43.8129C70.2312 43.6462 69.9897 43.6379 69.8729 43.7128C69.7561 43.788 69.7648 43.9463 69.6813 44.0128C69.5981 44.0797 69.4227 44.0544 68.2643 43.4542C67.1063 42.8544 64.9644 41.6797 63.0187 40.7337C61.073 39.7881 59.3227 39.0711 58.0853 38.6712C56.8479 38.2714 56.1226 38.1878 55.3977 37.8794C54.6728 37.5714 53.9478 37.0381 53.1145 36.6462C52.2811 36.2546 51.3396 36.0048 50.6105 35.8169C49.8811 35.6295 49.3644 35.5048 49.002 35.2961C48.6395 35.0879 48.4309 34.7965 48.1727 34.6423C47.9142 34.4881 47.6062 34.4714 47.2853 34.4382C46.9644 34.4049 46.6311 34.3546 46.4186 34.2212C46.2059 34.0882 46.1144 33.8712 45.9228 33.7794C45.7308 33.6879 45.4394 33.7216 45.1476 33.6796C44.8558 33.6381 44.5644 33.5216 44.3478 33.4922C44.1309 33.4631 43.9895 33.5216 43.7231 33.4631C43.4562 33.4049 43.0643 33.2299 42.5477 33.0341C42.031 32.8383 41.3896 32.6214 40.7187 32.5545C40.0479 32.4879 39.3475 32.5715 38.7893 32.5586C38.2311 32.5461 37.8142 32.438 37.5145 32.4173C37.2144 32.3965 37.0311 32.463 36.652 32.3379C36.2729 32.2132 35.6976 31.8964 35.2312 31.667C34.7645 31.438 34.4058 31.2966 34.1185 31.2966C33.8309 31.2966 33.6144 31.438 33.2644 31.4712C32.9144 31.5049 32.431 31.4297 32.0727 31.3839C31.7144 31.3382 31.4808 31.3216 31.2934 31.413C31.1059 31.5049 30.9645 31.7048 30.652 31.9172C30.3394 32.1296 29.856 32.3549 29.006 32.4505C28.156 32.5465 26.9393 32.5129 26.1562 32.4418C25.3727 32.3712 25.0227 32.2631 24.6478 32.2797C24.2725 32.2963 23.8726 32.4381 23.6353 32.6047C23.3975 32.7714 23.3223 32.963 23.1058 33.0794C22.8892 33.1962 22.5309 33.2382 22.2852 33.3546C22.0392 33.4714 21.9061 33.663 21.7353 33.7254C21.5645 33.7881 21.3558 33.7212 21.1808 33.7046C21.0059 33.6879 20.8641 33.7216 20.6683 33.8588C20.4726 33.9963 20.2224 34.2382 19.7601 34.4673C19.2975 34.6963 18.6225 34.9133 18.0435 35.1756C17.4641 35.4382 16.981 35.7463 16.6602 35.9129C16.3393 36.0796 16.1809 36.1049 16.0018 36.0713C15.8226 36.0381 15.6223 35.9466 15.3891 36.0131C15.1559 36.0796 14.8891 36.3049 14.7394 36.4629C14.5894 36.6212 14.5557 36.7131 14.4351 36.738C14.3142 36.763 14.1056 36.7214 13.9015 36.7671C13.6974 36.8132 13.4974 36.9463 13.2934 37.1587C13.0893 37.3715 12.8806 37.6629 12.4267 37.9713C11.9724 38.2797 11.2724 38.6047 10.4058 38.9921C9.53915 39.3799 8.50583 39.8297 7.94343 39.9839C7.38066 40.1381 7.2892 39.9963 7.18904 39.9294C7.08888 39.8629 6.98079 39.8712 6.89348 39.9835C6.8058 40.0961 6.7389 40.3131 6.63912 40.5338C6.53896 40.7545 6.40592 40.9798 6.14362 40.9964C5.88095 41.013 5.48901 40.8214 5.19345 40.7628C4.89751 40.7046 4.6972 40.7798 4.57663 40.9839C4.45568 41.188 4.41411 41.5214 4.28939 41.7005C4.16428 41.8797 3.95565 41.9046 3.65594 41.888C3.35584 41.8714 2.96391 41.8128 2.74318 42.0003C2.52246 42.1881 2.47219 42.6212 2.24315 42.8711C2.01411 43.1213 1.60554 43.1882 1.07641 43.3295C0.771779 43.4112 0.427465 43.5177 0 43.7695V71.5392H102.4V51.4646Z" fill="#000D19"/>
<path fill-rule="evenodd" clip-rule="evenodd" d="M52.4157 41.9608C52.7989 42.1192 53.3239 42.4355 53.6863 42.7356C54.0488 43.0357 54.2491 43.3188 54.3655 43.6231C54.4823 43.9273 54.5156 44.2523 54.4445 44.5022C54.3738 44.7524 54.1988 44.9274 53.7238 45.0064C53.2487 45.0857 52.4739 45.0691 51.7947 45.04C51.1155 45.0109 50.5319 44.9689 50.1196 44.8854C49.7073 44.8023 49.4654 44.6775 49.253 44.5358C49.0405 44.3941 48.8572 44.2357 48.8614 43.998C48.8656 43.7606 49.0572 43.4439 49.3323 43.1438C49.6071 42.8437 49.9654 42.5606 50.349 42.3395C50.7323 42.1188 51.1404 41.9608 51.4655 41.8815C51.7905 41.8025 52.0324 41.8025 52.4157 41.9608Z" fill="#031D31"/>
<path fill-rule="evenodd" clip-rule="evenodd" d="M52.2386 46.0609C52.3115 46.3194 52.3864 46.8111 52.3841 47.1921C52.3822 47.5734 52.3032 47.8444 52.1883 48.0651C52.0738 48.2859 51.9238 48.4567 51.8028 48.5523C51.6822 48.6483 51.5904 48.6695 51.4944 48.6446C51.3988 48.6196 51.299 48.5486 51.2404 48.411C51.1822 48.2738 51.1656 48.0693 51.1947 47.7632C51.2238 47.457 51.299 47.0485 51.3572 46.7548C51.4154 46.4611 51.4574 46.282 51.5655 46.1338C51.6739 45.986 51.8489 45.8692 51.9718 45.8231C52.0946 45.7774 52.1657 45.8027 52.2386 46.0609Z" fill="#031D31"/>
<path fill-rule="evenodd" clip-rule="evenodd" d="M54.4567 47.8864C54.332 48.0697 53.965 48.386 53.7568 48.5527C53.5485 48.7194 53.4982 48.7364 53.4525 48.7133C53.4068 48.6907 53.3652 48.6279 53.4068 48.4843C53.4487 48.3407 53.5734 48.1154 53.6921 47.9548C53.8112 47.7945 53.9234 47.6989 54.0319 47.6509C54.1404 47.6029 54.2443 47.6029 54.3547 47.6279C54.4654 47.6528 54.5818 47.7031 54.4567 47.8864Z" fill="#031D31"/>
<path fill-rule="evenodd" clip-rule="evenodd" d="M49.6546 47.686C49.765 47.74 49.9188 47.9777 50.0125 48.1652C50.1062 48.3527 50.1399 48.4903 50.0734 48.5609C50.0065 48.632 49.8398 48.6361 49.7128 48.5133C49.5858 48.3905 49.4981 48.1403 49.4879 47.9505C49.4773 47.7612 49.5442 47.6319 49.6546 47.686Z" fill="#031D31"/>
<path fill-rule="evenodd" clip-rule="evenodd" d="M77.1085 61.6661C77.4918 61.8245 78.0168 62.1409 78.3792 62.4409C78.7417 62.741 78.942 63.0241 79.0584 63.3284C79.1752 63.6326 79.2084 63.9577 79.1374 64.2075C79.0667 64.4577 78.8917 64.6327 78.4166 64.7117C77.9415 64.7911 77.1667 64.7744 76.4876 64.7453C75.8084 64.7162 75.2248 64.6743 74.8125 64.5907C74.4001 64.5076 74.1582 64.3829 73.9458 64.2411C73.7334 64.0994 73.5501 63.941 73.5543 63.7033C73.5584 63.466 73.75 63.1492 74.0252 62.8491C74.3 62.549 74.6583 62.266 75.0419 62.0449C75.4251 61.8241 75.8333 61.6661 76.1584 61.5868C76.4834 61.5078 76.7253 61.5078 77.1085 61.6661Z" fill="#031D31"/>
<path fill-rule="evenodd" clip-rule="evenodd" d="M76.9315 65.7662C77.0044 66.0247 77.0792 66.5164 77.077 66.8974C77.0751 67.2788 76.9961 67.5498 76.8812 67.7705C76.7667 67.9912 76.6166 68.162 76.4957 68.2577C76.3751 68.3537 76.2833 68.3748 76.1873 68.3499C76.0917 68.3249 75.9919 68.2539 75.9333 68.1163C75.8751 67.9791 75.8585 67.7746 75.8876 67.4685C75.9167 67.1624 75.9919 66.7538 76.0501 66.4601C76.1083 66.1664 76.1502 65.9873 76.2583 65.8391C76.3668 65.6914 76.5418 65.5746 76.6646 65.5285C76.7875 65.4827 76.8585 65.5081 76.9315 65.7662Z" fill="#031D31"/>
<path fill-rule="evenodd" clip-rule="evenodd" d="M79.1496 67.5917C79.0249 67.775 78.6579 68.0913 78.4496 68.258C78.2414 68.4247 78.1911 68.4417 78.1454 68.4186C78.0996 68.396 78.0581 68.3332 78.0996 68.1896C78.1416 68.046 78.2663 67.8207 78.385 67.6601C78.504 67.4999 78.6163 67.4042 78.7248 67.3562C78.8332 67.3082 78.9372 67.3082 79.0475 67.3332C79.1583 67.3581 79.2747 67.4084 79.1496 67.5917Z" fill="#031D31"/>
<path fill-rule="evenodd" clip-rule="evenodd" d="M74.3475 67.3913C74.4578 67.4453 74.6116 67.6831 74.7054 67.8705C74.7991 68.058 74.8328 68.1956 74.7662 68.2662C74.6993 68.3373 74.5327 68.3415 74.4057 68.2186C74.2787 68.0958 74.191 67.8456 74.1808 67.6559C74.1702 67.4665 74.2371 67.3372 74.3475 67.3913Z" fill="#031D31"/>
<path fill-rule="evenodd" clip-rule="evenodd" d="M12.6759 45.4716C13.0592 45.6299 13.5841 45.9463 13.9466 46.2464C14.3091 46.5465 14.5094 46.8295 14.6258 47.1338C14.7426 47.4381 14.7758 47.7631 14.7048 48.0129C14.6341 48.2631 14.4591 48.4381 13.984 48.5171C13.5089 48.5965 12.7341 48.5798 12.0549 48.5507C11.3758 48.5216 10.7922 48.4797 10.3799 48.3962C9.96751 48.313 9.72562 48.1883 9.51321 48.0466C9.3008 47.9048 9.11749 47.7465 9.12165 47.5087C9.12581 47.2714 9.31743 46.9547 9.59258 46.6546C9.86735 46.3545 10.2257 46.0714 10.6093 45.8503C10.9925 45.6295 11.4007 45.4716 11.7257 45.3922C12.0508 45.3132 12.2927 45.3132 12.6759 45.4716Z" fill="#031D31"/>
<path fill-rule="evenodd" clip-rule="evenodd" d="M12.4989 49.5716C12.5718 49.8301 12.6466 50.3218 12.6444 50.7028C12.6425 51.0842 12.5635 51.3552 12.4486 51.5759C12.3341 51.7966 12.184 51.9675 12.0631 52.0631C11.9425 52.1591 11.8507 52.1802 11.7547 52.1553C11.659 52.1303 11.5593 52.0593 11.5007 51.9217C11.4425 51.7845 11.4258 51.5801 11.4549 51.2739C11.484 50.9678 11.5593 50.5592 11.6175 50.2655C11.6757 49.9719 11.7176 49.7927 11.8257 49.6446C11.9342 49.4968 12.1092 49.38 12.232 49.3339C12.3549 49.2881 12.4259 49.3135 12.4989 49.5716Z" fill="#031D31"/>
<path fill-rule="evenodd" clip-rule="evenodd" d="M16.964 51.6356C16.8393 51.8189 16.4723 52.1353 16.2641 52.302C16.0558 52.4686 16.0056 52.4857 15.9598 52.4626C15.9141 52.4399 15.8725 52.3772 15.9141 52.2336C15.956 52.0899 16.0808 51.8647 16.1994 51.704C16.3185 51.5438 16.4308 51.4482 16.5392 51.4002C16.6477 51.3522 16.7516 51.3522 16.862 51.3771C16.9727 51.4021 17.0891 51.4523 16.964 51.6356Z" fill="#031D31"/>
<path fill-rule="evenodd" clip-rule="evenodd" d="M9.91484 51.1969C10.0252 51.251 10.179 51.4887 10.2728 51.6762C10.3665 51.8637 10.4001 52.0012 10.3336 52.0719C10.2667 52.143 10.1 52.1471 9.97305 52.0243C9.84605 51.9014 9.75837 51.6512 9.74817 51.4615C9.73758 51.2722 9.80448 51.1429 9.91484 51.1969Z" fill="#031D31"/>
<path fill-rule="evenodd" clip-rule="evenodd" d="M77.1085 61.6661C77.4918 61.8245 78.0168 62.1409 78.3792 62.4409C78.7417 62.741 78.942 63.0241 79.0584 63.3284C79.1752 63.6326 79.2084 63.9577 79.1374 64.2075C79.0667 64.4577 78.8917 64.6327 78.4166 64.7117C77.9415 64.7911 77.1667 64.7744 76.4876 64.7453C75.8084 64.7162 75.2248 64.6743 74.8125 64.5907C74.4001 64.5076 74.1582 64.3829 73.9458 64.2411C73.7334 64.0994 73.5501 63.941 73.5543 63.7033C73.5584 63.466 73.75 63.1492 74.0252 62.8491C74.3 62.549 74.6583 62.266 75.0419 62.0449C75.4251 61.8241 75.8333 61.6661 76.1584 61.5868C76.4834 61.5078 76.7253 61.5078 77.1085 61.6661Z" fill="#031D31"/>
<path fill-rule="evenodd" clip-rule="evenodd" d="M76.9315 65.7662C77.0044 66.0247 77.0792 66.5164 77.077 66.8974C77.0751 67.2788 76.9961 67.5498 76.8812 67.7705C76.7667 67.9912 76.6166 68.162 76.4957 68.2577C76.3751 68.3537 76.2833 68.3748 76.1873 68.3499C76.0917 68.3249 75.9919 68.2539 75.9333 68.1163C75.8751 67.9791 75.8585 67.7746 75.8876 67.4685C75.9167 67.1624 75.9919 66.7538 76.0501 66.4601C76.1083 66.1664 76.1502 65.9873 76.2583 65.8391C76.3668 65.6914 76.5418 65.5746 76.6646 65.5285C76.7875 65.4827 76.8585 65.5081 76.9315 65.7662Z" fill="#031D31"/>
<path fill-rule="evenodd" clip-rule="evenodd" d="M79.1496 67.5917C79.0249 67.775 78.6579 68.0913 78.4496 68.258C78.2414 68.4247 78.1911 68.4417 78.1454 68.4186C78.0996 68.396 78.0581 68.3332 78.0996 68.1896C78.1416 68.046 78.2663 67.8207 78.385 67.6601C78.504 67.4999 78.6163 67.4042 78.7248 67.3562C78.8332 67.3082 78.9372 67.3082 79.0475 67.3332C79.1583 67.3581 79.2747 67.4084 79.1496 67.5917Z" fill="#031D31"/>
<path fill-rule="evenodd" clip-rule="evenodd" d="M74.3475 67.3913C74.4578 67.4453 74.6116 67.6831 74.7054 67.8705C74.7991 68.058 74.8328 68.1956 74.7662 68.2662C74.6993 68.3373 74.5327 68.3415 74.4057 68.2186C74.2787 68.0958 74.191 67.8456 74.1808 67.6559C74.1702 67.4665 74.2371 67.3372 74.3475 67.3913Z" fill="#031D31"/>
<path fill-rule="evenodd" clip-rule="evenodd" d="M15.6408 50.9791C15.5161 51.1625 15.1491 51.4788 14.9408 51.6455C14.7326 51.8121 14.6823 51.8292 14.6366 51.8061C14.5908 51.7834 14.5493 51.7207 14.5908 51.5771C14.6328 51.4334 14.7575 51.2082 14.8762 51.0476C14.9953 50.8873 15.1075 50.7917 15.216 50.7437C15.3245 50.6957 15.4284 50.6957 15.5388 50.7206C15.6495 50.7456 15.7659 50.7958 15.6408 50.9791Z" fill="#031D31"/>
<path fill-rule="evenodd" clip-rule="evenodd" d="M8.43535 51.8002C8.54571 51.8543 8.69954 52.092 8.79327 52.2795C8.887 52.4669 8.92064 52.6045 8.85412 52.6752C8.78722 52.7462 8.62055 52.7504 8.49356 52.6276C8.36656 52.5047 8.27888 52.2545 8.26867 52.0648C8.25809 51.8754 8.32499 51.7462 8.43535 51.8002Z" fill="#031D31"/>
<path fill-rule="evenodd" clip-rule="evenodd" d="M25.805 41.3323C26.0257 41.4234 26.3281 41.6056 26.5367 41.7787C26.7453 41.9514 26.8606 42.1143 26.9279 42.2897C26.9951 42.4647 27.014 42.6518 26.9732 42.7958C26.9324 42.9398 26.8319 43.0407 26.5582 43.086C26.2846 43.1318 25.8386 43.1223 25.4474 43.1053C25.0562 43.0887 24.7202 43.0645 24.4829 43.0165C24.2452 42.9685 24.1061 42.8967 23.9836 42.815C23.8615 42.7334 23.7557 42.6423 23.7583 42.5055C23.7606 42.3687 23.871 42.1865 24.0293 42.0134C24.1877 41.8407 24.3941 41.6778 24.6148 41.5504C24.8355 41.4234 25.0706 41.3323 25.2577 41.2866C25.4448 41.2412 25.5842 41.2412 25.805 41.3323Z" fill="#031D31"/>
<path fill-rule="evenodd" clip-rule="evenodd" d="M25.7032 43.6934C25.7452 43.8423 25.7886 44.1254 25.7871 44.3446C25.786 44.5642 25.7406 44.7203 25.6745 44.8477C25.6083 44.9747 25.5222 45.0729 25.4522 45.1281C25.3831 45.1833 25.3302 45.1954 25.275 45.181C25.2198 45.1667 25.1623 45.1258 25.1287 45.0465C25.0951 44.9675 25.0856 44.8499 25.1023 44.6734C25.1189 44.4973 25.1623 44.2622 25.1956 44.0929C25.2292 43.9239 25.2534 43.8208 25.3158 43.7353C25.3782 43.6503 25.4791 43.583 25.5498 43.5566C25.6204 43.5301 25.6612 43.5449 25.7032 43.6934Z" fill="#031D31"/>
<path d="M30.094 5.44682C30.2875 5.44682 30.4444 5.28996 30.4444 5.09646C30.4444 4.90296 30.2875 4.74609 30.094 4.74609C29.9005 4.74609 29.7437 4.90296 29.7437 5.09646C29.7437 5.28996 29.9005 5.44682 30.094 5.44682Z" fill="#FDE4B1"/>
<path fill-rule="evenodd" clip-rule="evenodd" d="M42.139 10.3379C41.4972 10.0884 41.0501 9.60803 40.6271 9.19833C40.3682 8.94775 40.4336 9.06756 40.1199 8.65143C39.5621 7.91065 39.1229 7.1298 38.8126 6.21931C38.7037 5.90069 38.2959 4.59222 38.4108 4.25244C38.9071 5.58548 39.1373 6.33345 39.9378 7.62303C40.2843 8.18126 40.5568 8.55846 40.9284 9.05358C41.4295 9.72217 42.032 10.1855 42.139 10.3379Z" stroke="#000D19" stroke-width="0.169701" stroke-miterlimit="22.9256" stroke-linecap="round" stroke-linejoin="round"/>
<path fill-rule="evenodd" clip-rule="evenodd" d="M42.139 10.3379C41.4972 10.0884 41.0501 9.60803 40.6271 9.19833C40.3682 8.94775 40.4336 9.06756 40.1199 8.65143C39.5621 7.91065 39.1229 7.1298 38.8126 6.21931C38.7037 5.90069 38.2959 4.59222 38.4108 4.25244C38.9071 5.58548 39.1373 6.33345 39.9378 7.62303C40.2843 8.18126 40.5568 8.55846 40.9284 9.05358C41.4295 9.72217 42.032 10.1855 42.139 10.3379Z" fill="#0D3752"/>
<path fill-rule="evenodd" clip-rule="evenodd" d="M26.6718 10.1259L26.6729 10.1754C26.6321 10.3062 26.6068 10.2707 26.5358 10.4C26.3506 10.7375 26.3468 11.3815 26.4084 11.7644C26.5036 12.354 26.6729 12.8997 26.8563 13.3948C27.4209 14.9169 28.1341 15.5809 28.359 16.0779C28.1504 15.9857 27.9391 15.6796 27.7837 15.4861C27.3298 14.9206 26.7451 13.9758 26.4696 13.317C26.2466 12.7848 26.0255 12.2281 25.9427 11.5633C25.8116 10.5107 26.3438 9.99214 26.6718 10.1259Z" stroke="#000D19" stroke-width="0.169701" stroke-miterlimit="22.9256" stroke-linecap="round" stroke-linejoin="round"/>
<path fill-rule="evenodd" clip-rule="evenodd" d="M26.6718 10.1259L26.6729 10.1754C26.6321 10.3062 26.6068 10.2707 26.5358 10.4C26.3506 10.7375 26.3468 11.3815 26.4084 11.7644C26.5036 12.354 26.6729 12.8997 26.8563 13.3948C27.4209 14.9169 28.1341 15.5809 28.359 16.0779C28.1504 15.9857 27.9391 15.6796 27.7837 15.4861C27.3298 14.9206 26.7451 13.9758 26.4696 13.317C26.2466 12.7848 26.0255 12.2281 25.9427 11.5633C25.8116 10.5107 26.3438 9.99214 26.6718 10.1259Z" fill="#0D3752"/>
<path fill-rule="evenodd" clip-rule="evenodd" d="M21.0395 18.325L20.7768 18.0982C20.2424 17.4511 19.7408 16.1597 20.2624 15.5391C20.2923 15.5685 20.358 15.4827 20.3456 15.8486C20.3403 16.0039 20.3418 16.1037 20.3558 16.2583C20.3796 16.5255 20.437 16.767 20.4967 17.024C20.6362 17.6242 20.8187 17.8797 21.0395 18.325Z" stroke="#000D19" stroke-width="0.169701" stroke-miterlimit="22.9256" stroke-linecap="round" stroke-linejoin="round"/>
<path fill-rule="evenodd" clip-rule="evenodd" d="M21.0395 18.325L20.7768 18.0982C20.2424 17.4511 19.7408 16.1597 20.2624 15.5391C20.2923 15.5685 20.358 15.4827 20.3456 15.8486C20.3403 16.0039 20.3418 16.1037 20.3558 16.2583C20.3796 16.5255 20.437 16.767 20.4967 17.024C20.6362 17.6242 20.8187 17.8797 21.0395 18.325Z" fill="#0D3752"/>
<path fill-rule="evenodd" clip-rule="evenodd" d="M31.7992 33.2018L31.8098 23.7938C31.6541 23.9548 31.2508 24.7606 31.1045 25.0176L26.221 33.7045C27.0835 33.695 28.0613 33.6043 28.9419 33.562C29.8153 33.5197 30.9776 33.5862 31.8038 33.4879L31.7992 33.2018ZM39.483 33.7166C38.6239 32.0952 37.5059 30.2247 36.5845 28.5885L34.4207 24.7451C34.2344 24.3989 33.898 23.7439 33.6935 23.4718L33.689 33.5008C35.6267 33.5234 37.5664 33.585 39.483 33.7166ZM40.9929 33.8647L41.2983 33.8659C41.1619 33.5473 40.8002 32.9059 40.5949 32.5532C40.3304 32.0986 40.1206 31.6666 39.8594 31.2225L36.9685 25.8869C36.6756 25.3876 35.7205 23.479 35.5001 23.2148L35.1229 23.2129L39.5087 31.2126C39.9105 31.961 40.6864 33.212 40.9929 33.8647ZM32.588 21.2324C32.9924 21.5873 34.3731 21.4977 35.05 21.4989C35.327 21.4993 35.7742 21.5824 35.7689 21.2963C35.7617 20.8749 34.5348 21.0578 34.1939 21.0676C33.8349 21.0778 32.8314 21.0385 32.588 21.2324ZM33.4637 18.7761C34.5231 18.4832 34.6456 17.1517 33.8927 16.494C33.7604 16.3784 33.6973 16.3542 33.5212 16.3602C33.7695 16.7234 33.9316 16.9956 33.9358 17.6071C33.9407 18.3316 33.6701 18.4794 33.4637 18.7761ZM20.2626 15.5389C19.741 16.1595 20.2426 17.451 20.777 18.0981L21.0397 18.3248C20.8189 17.8796 20.6364 17.6241 20.4969 17.0239C20.4372 16.7669 20.3798 16.5254 20.3559 16.2582C20.342 16.1036 20.3404 16.0038 20.3457 15.8485C20.3582 15.4826 20.2924 15.5684 20.2626 15.5389ZM26.5359 10.3999C26.6069 10.2707 26.6322 10.3062 26.673 10.1754L26.6719 10.1259C26.3439 9.9921 25.8117 10.5107 25.9428 11.5633C26.0256 12.2281 26.2467 12.7848 26.4697 13.317C26.7452 13.9757 27.3299 14.9206 27.7838 15.486C27.9392 15.6795 28.1505 15.9857 28.3591 16.0779C28.1342 15.5809 27.421 14.9168 26.8564 13.3948C26.673 12.8997 26.5037 12.3539 26.4085 11.7643C26.3469 11.3815 26.3507 10.7374 26.5359 10.3999ZM42.1389 10.3379C42.0319 10.1856 41.4295 9.72224 40.9283 9.05365C40.5568 8.55853 40.2843 8.18133 39.9377 7.6231C39.1372 6.33352 38.907 5.58555 38.4107 4.25251C38.2959 4.59229 38.7037 5.90076 38.8125 6.21938C39.1228 7.12987 39.562 7.91072 40.1199 8.6515C40.4335 9.06763 40.3682 8.94782 40.6271 9.1984C41.05 9.6081 41.4971 10.0885 42.1389 10.3379ZM42.7413 0.261709C42.1256 0.118465 41.7401 0.539503 41.6271 1.02555C41.3096 2.39412 42.2228 4.30203 42.8324 5.3807C43.5263 6.60905 45.2377 8.80911 46.6747 9.11601C48.0467 9.4093 47.9378 7.6813 47.6997 6.67784C47.3992 5.41132 46.5639 3.88287 45.8054 2.86769C45.2691 2.15034 44.6984 1.44924 43.9644 0.917835C43.6072 0.658937 43.2652 0.38341 42.7413 0.261709ZM38.2637 3.40968C38.3714 2.26032 38.5306 2.19607 39.2955 1.71456C39.8341 1.37516 40.4256 1.04596 40.9755 0.720544C41.6611 0.315001 42.1653 -0.134765 42.8755 0.0379594C44.3839 0.404952 46.1792 2.76149 46.9052 4.08659C47.3905 4.97213 48.3176 6.79387 48.1536 8.15299C48.0417 9.07821 47.5693 9.29289 46.9272 9.65081C46.3383 9.97925 45.7899 10.2835 45.209 10.6074C44.5015 11.0016 44.1847 11.2677 43.2217 10.9971C42.9753 10.9275 42.719 11.166 42.3445 11.3754L36.3365 14.7554C36.0516 14.9115 35.7507 15.0937 35.4612 15.2438C35.1622 15.3991 34.8735 15.5401 34.5889 15.7151C34.7219 16.0068 34.8996 16.237 34.9986 16.5983C35.1951 17.3187 35.1641 18.1113 34.7076 18.7292C33.9566 19.7448 34.0435 18.4805 34.0386 20.7857C34.6256 20.7834 35.7583 20.6012 35.9888 21.1111C36.0742 21.2997 36.191 22.6229 35.8127 23.0576C36.8026 24.8177 37.7032 26.6957 38.704 28.4876C39.1935 29.3644 39.6943 30.298 40.138 31.1945C40.5885 32.1039 41.1252 32.9822 41.5678 33.9006C42.2776 33.943 43.0456 34.0495 43.7384 34.1486C44.0857 34.1985 44.4247 34.2529 44.7721 34.3289C45.1791 34.4173 45.5336 34.4558 45.5987 34.7155C45.3254 35.1184 43.425 35.279 42.7632 35.3573C37.2066 36.016 28.6785 35.92 23.0821 35.3331C22.6256 35.2855 20.481 35.1176 20.328 34.6671C20.6598 34.2548 22.9374 34.0533 23.7046 33.9709C24.4087 33.8953 24.2156 34.0136 24.5221 33.4758C25.1748 32.3321 25.7508 31.1631 26.3949 29.9971C27.6659 27.6965 28.9056 25.3839 30.1513 23.0576C29.9106 22.7223 29.8906 22.7714 29.8928 22.2C29.894 21.9248 29.8456 21.3545 29.9397 21.1292C30.1755 20.5653 31.1189 20.8526 31.8 20.7702C31.7966 18.6699 31.9028 19.433 31.4379 18.8989C30.8566 18.2307 30.897 17.7757 30.7727 17.5323C29.8097 18.0296 29.4563 18.4284 28.6554 18.1506C28.1127 17.9627 27.2211 17.2972 26.9811 16.8992C26.656 16.9574 26.2108 17.1932 25.888 17.3266C25.5301 17.4741 25.2062 17.6158 24.8589 17.7621C24.4715 17.9253 22.5454 18.6427 22.3383 18.9246C22.0586 19.3052 21.1054 19.6609 20.9323 19.6511C19.696 19.5811 18.4616 16.6429 19.1601 15.9985C19.3185 15.8523 19.8642 15.5813 20.0831 15.4577C21.0075 14.935 20.639 15.5325 21.119 15.237L24.7969 13.0569C24.7493 12.5191 24.2987 11.1864 25.1318 10.7166C25.6507 10.4237 26.4992 9.77894 27.0979 9.81295C27.3658 9.82807 28.7068 8.9482 28.9672 8.79966C29.5901 8.44514 30.1925 8.08193 30.8215 7.72476L38.2637 3.40968Z" fill="#000D19"/>
<path fill-rule="evenodd" clip-rule="evenodd" d="M43.0128 1.2953C43.4362 1.41057 43.6777 1.60484 43.9653 1.82897C44.0624 1.90493 44.0806 1.90531 44.1592 1.99035C44.2385 2.07577 44.2378 2.0924 44.3228 2.17517C45.4571 3.2822 46.3838 4.66323 46.8721 6.23325C47.7989 9.21379 45.7783 8.23489 44.4071 6.48421C44.2797 6.32131 44.2076 6.22191 44.0764 6.05939C43.5443 5.40138 42.8254 3.99917 42.5638 3.1843C42.3885 2.63778 41.9769 1.01334 43.0128 1.2953Z" fill="#0D3752"/>
<path fill-rule="evenodd" clip-rule="evenodd" d="M43.0128 1.29549C41.9768 1.01354 42.3884 2.63798 42.5638 3.1845C42.8253 3.99936 43.5442 5.40157 44.0763 6.05959C44.2075 6.2221 44.2797 6.32151 44.4071 6.4844C45.7783 8.23508 47.7988 9.21398 46.8721 6.23344C46.3837 4.66343 45.457 3.28239 44.3228 2.17536C44.2377 2.09259 44.2385 2.07596 44.1591 1.99054C44.0805 1.9055 44.0624 1.90513 43.9652 1.82916C43.6776 1.60503 43.4361 1.41076 43.0128 1.29549ZM42.7414 0.261789C43.2653 0.383489 43.6073 0.659016 43.9645 0.917914C44.6985 1.44932 45.2692 2.15042 45.8055 2.86777C46.564 3.88295 47.3993 5.4114 47.6998 6.67792C47.9379 7.68138 48.0467 9.40938 46.6748 9.11609C45.2378 8.80919 43.5264 6.60913 42.8325 5.38078C42.2229 4.30211 41.3097 2.3942 41.6272 1.02563C41.7402 0.539582 42.1257 0.118544 42.7414 0.261789Z" fill="#E9C87C"/>
<path fill-rule="evenodd" clip-rule="evenodd" d="M40.993 33.8647C40.6865 33.212 39.9106 31.961 39.5088 31.2126L35.123 23.2129L35.5002 23.2148C35.7206 23.479 36.6757 25.3876 36.9686 25.8869L39.8596 31.2225C40.1207 31.6666 40.3305 32.0986 40.595 32.5532C40.8003 32.9059 41.162 33.5472 41.2984 33.8659L40.993 33.8647Z" fill="#E9C87C"/>
<path fill-rule="evenodd" clip-rule="evenodd" d="M32.5879 21.2324C32.8313 21.0385 33.8348 21.0778 34.1938 21.0676C34.5347 21.0578 35.7616 20.8749 35.7687 21.2963C35.774 21.5824 35.3269 21.4993 35.0499 21.4989C34.373 21.4977 32.9923 21.5873 32.5879 21.2324Z" fill="#E9C87C"/>
<path fill-rule="evenodd" clip-rule="evenodd" d="M33.4639 18.7761C33.6702 18.4794 33.9408 18.3316 33.9359 17.6071C33.9318 16.9956 33.7696 16.7234 33.5213 16.3602C33.6974 16.3542 33.7606 16.3784 33.8928 16.494C34.6457 17.1517 34.5233 18.4832 33.4639 18.7761Z" fill="#E9C87C"/>
<path fill-rule="evenodd" clip-rule="evenodd" d="M42.9713 1.31393C43.2079 1.36911 43.5677 1.53391 43.9476 1.80906C44.3278 2.08458 44.7284 2.47009 45.0864 2.89718C45.4439 3.32389 45.7584 3.79217 46.0414 4.2306C46.3242 4.66864 46.5751 5.07683 46.7584 5.48124C46.9421 5.88565 47.0581 6.28666 47.1197 6.64798C47.1817 7.0093 47.1893 7.33132 47.1723 7.5562C47.1556 7.78108 47.1145 7.90846 47.0381 7.98783C46.9614 8.06757 46.8499 8.09932 46.7788 8.09743C46.7074 8.09554 46.6768 8.06001 46.6783 7.94663C46.6798 7.83324 46.7134 7.64237 46.676 7.29957C46.6386 6.95715 46.5301 6.46278 46.3858 6.02814C46.2418 5.59387 46.0619 5.21932 45.8615 4.86707C45.6612 4.51519 45.4401 4.18562 45.1593 3.79293C44.8785 3.40024 44.5376 2.94442 44.1067 2.58272C43.6762 2.2214 43.1554 1.95457 42.884 1.78978C42.6123 1.62461 42.59 1.56225 42.5684 1.50896C42.5469 1.45567 42.5265 1.41182 42.5734 1.36269C42.6202 1.31318 42.7344 1.25875 42.9713 1.31393Z" fill="#000D19"/>
<path fill-rule="evenodd" clip-rule="evenodd" d="M35.7758 21.3521C35.8204 21.6292 35.7422 22.2751 35.6897 22.6338C35.6375 22.9921 35.6111 23.0635 35.5495 23.082C35.4875 23.1009 35.39 23.0673 35.3601 22.8723C35.3302 22.6776 35.3677 22.322 35.3714 22.0676C35.3756 21.8136 35.3457 21.6613 35.3438 21.5434C35.342 21.4254 35.368 21.3419 35.4652 21.2542C35.5623 21.1666 35.7309 21.0747 35.7758 21.3521Z" fill="#E9C87C"/>
<path fill-rule="evenodd" clip-rule="evenodd" d="M28.4855 10.6706C28.5361 10.5217 28.5834 10.3876 28.5852 9.92002C28.5875 9.4525 28.5448 8.65199 28.4979 8.13117C28.4511 7.61073 28.3997 7.37073 28.3486 7.13035C27.8142 7.16966 27.2794 7.20934 26.8848 7.21464C26.4906 7.2203 26.2363 7.19158 26.0719 7.08009C25.9082 6.96897 25.8349 6.77583 25.839 6.51013C25.8432 6.24519 25.9252 5.90843 26.0911 5.48324C26.2567 5.05804 26.5069 4.54478 26.7737 4.15813C27.0409 3.77149 27.3255 3.51108 27.6706 3.36557C28.0164 3.22043 28.4227 3.18982 28.9265 3.31984C29.4303 3.45023 30.032 3.74088 30.4871 3.9582C30.9422 4.17552 31.2506 4.32028 31.4516 4.57577C31.6527 4.83165 31.7468 5.19864 31.6818 5.46245C31.6172 5.72626 31.3934 5.88727 31.1667 6.03202C30.9399 6.17716 30.7101 6.30642 30.421 6.44815C30.1322 6.58951 29.7845 6.74371 29.4368 6.89753C29.5554 7.07668 29.6737 7.25584 29.8049 7.58163C29.9357 7.9078 30.0789 8.381 30.2131 8.85079C30.3473 9.32059 30.472 9.78699 30.4784 10.1192C30.4852 10.4514 30.3733 10.6495 30.2339 10.7897C30.0952 10.9299 29.9285 11.0127 29.6061 11.0626C29.2841 11.1128 28.8056 11.1302 28.5936 11.0569C28.3815 10.9836 28.4352 10.8196 28.4855 10.6706Z" fill="#000D19"/>
<defs>
<linearGradient id="paint0_linear_258_3" x1="59.8647" y1="22.7178" x2="58.6367" y2="39.5231" gradientUnits="userSpaceOnUse">
<stop stop-color="#0D314F"/>
<stop offset="1" stop-color="#1F4B69"/>
</linearGradient>
<linearGradient id="paint1_linear_258_3" x1="8.90381" y1="35.504" x2="9.31011" y2="41.1294" gradientUnits="userSpaceOnUse">
<stop stop-color="#0D314F"/>
<stop offset="1" stop-color="#1D4663"/>
</linearGradient>
<linearGradient id="paint2_linear_258_3" x1="36.7044" y1="20.5952" x2="34.3978" y2="28.2363" gradientUnits="userSpaceOnUse">
<stop stop-color="#0D3752"/>
<stop offset="1" stop-color="#1F4B69"/>
</linearGradient>
<linearGradient id="paint3_linear_258_3" x1="60.028" y1="26.9142" x2="51.5909" y2="50.0744" gradientUnits="userSpaceOnUse">
<stop stop-color="#0D314F"/>
<stop offset="1" stop-color="#2E5C7B"/>
</linearGradient>
</defs>
</svg>
