<?xml version="1.0" encoding="UTF-8"?>
<!DOCTYPE svg PUBLIC "-//W3C//DTD SVG 1.1//EN" "http://www.w3.org/Graphics/SVG/1.1/DTD/svg11.dtd">
<!-- Creator: CorelDRAW 2020 (64 Bit) -->
<svg xmlns="http://www.w3.org/2000/svg" xml:space="preserve" width="27.0932mm" height="7.1118mm" version="1.1" style="shape-rendering:geometricPrecision; text-rendering:geometricPrecision; image-rendering:optimizeQuality; fill-rule:evenodd; clip-rule:evenodd"
viewBox="0 0 2709.32 711.18"
 xmlns:xlink="http://www.w3.org/1999/xlink"
 xmlns:xodm="http://www.corel.com/coreldraw/odm/2003">
 <defs>
  <style type="text/css">
   <![CDATA[
    .str0 {stroke:#000D19;stroke-width:1.71;stroke-linecap:round;stroke-linejoin:round;stroke-miterlimit:22.9256}
    .fil6 {fill:none}
    .fil4 {fill:#000D19}
    .fil5 {fill:#031D31}
    .fil7 {fill:#0D3752}
    .fil8 {fill:#E9C87C}
    .fil1 {fill:url(#id0)}
    .fil3 {fill:url(#id1)}
    .fil2 {fill:url(#id2)}
    .fil0 {fill:url(#id3)}
   ]]>
  </style>
  <linearGradient id="id0" gradientUnits="userSpaceOnUse" x1="323.82" y1="418.28" x2="318.69" y2="536.04">
   <stop offset="0" style="stop-opacity:1; stop-color:#0D314F"/>
   <stop offset="1" style="stop-opacity:1; stop-color:#1D4663"/>
  </linearGradient>
  <linearGradient id="id1" gradientUnits="userSpaceOnUse" x1="2776.29" y1="267.98" x2="2829.1" y2="592.66">
   <stop offset="0" style="stop-opacity:1; stop-color:#0D314F"/>
   <stop offset="1" style="stop-opacity:1; stop-color:#2E5C7B"/>
  </linearGradient>
  <linearGradient id="id2" gradientUnits="userSpaceOnUse" x1="2630.47" y1="214.65" x2="2655.64" y2="345.4">
   <stop offset="0" style="stop-opacity:1; stop-color:#0D3752"/>
   <stop offset="1" style="stop-opacity:1; stop-color:#1F4B69"/>
  </linearGradient>
  <linearGradient id="id3" gradientUnits="userSpaceOnUse" x1="372.09" y1="241.11" x2="383.14" y2="508.38">
   <stop offset="0" style="stop-opacity:1; stop-color:#0D314F"/>
   <stop offset="1" style="stop-opacity:1; stop-color:#1F4B69"/>
  </linearGradient>
 </defs>
 <g id="Camada_x0020_1">
  <metadata id="CorelCorpID_0Corel-Layer"/>
  <g id="_2508587045968">
   <path class="fil0" d="M1978.74 316.6c-26.38,-14.2 -53.95,-18.84 -87.34,-24.37 -33.4,-5.52 -72.6,-11.94 -116.24,-10.57 -43.64,1.38 -91.72,10.55 -140.73,24.46 -49.01,13.9 -98.94,32.54 -132.08,43.23 -33.14,10.7 -49.48,13.46 -78.42,14.22 -28.94,0.76 -70.47,-0.46 -105.7,0.15 -35.24,0.61 -64.19,3.06 -110.73,11.66 -46.53,8.6 -110.71,-18.45 -160.88,-7 -50.17,11.46 -86.36,19.62 -129.92,19.89 -43.55,0.26 -94.47,-7.37 -166.58,-24.63 -72.11,-17.27 -166.12,5.31 -246.85,-20.36 -80.73,-25.67 -148.87,-50.13 -203.94,-68.76 -55.07,-18.65 -97.08,-31.49 -133.49,-37.75 -36.4,-6.26 -67.96,-5.96 -97.02,-6.11 -23.21,-0.12 -44.9,-0.5 -68.83,0.8l0 294.37c57.24,9.5 135.46,15.27 235.63,17.94 172.22,4.58 409.32,0 703.84,-8.26 294.52,-8.25 646.43,-20.16 835.22,-35.45 188.81,-15.28 214.48,-33.93 234.08,-61.73 19.61,-27.81 33.13,-22.96 27.32,-53.34 -5.81,-30.38 -30.98,-54.18 -57.34,-68.39z"/>
   <path class="fil1" d="M556.56 408.05c-11.61,-2.8 -34.29,-10.03 -47.92,-12.44 -13.64,-2.41 -18.22,0 -22.38,0.27 -4.17,0.29 -7.89,-1.57 -11.77,-5.83 -3.88,-4.26 -7.89,-10.94 -12.77,-16.22 -4.88,-5.28 -10.62,-9.17 -18.22,-10.28 -7.61,-1.11 -17.08,0.55 -24.53,3.52 -7.47,2.97 -12.93,7.23 -18.24,8.8 -5.31,1.58 -10.48,0.46 -18.08,-3.8 -7.6,-4.26 -21.21,9.77 -29.69,2.45 -8.46,-7.32 -15.34,-14.55 -23.1,-19 -7.74,-4.45 -16.35,-6.12 -24.39,-3.8 -24.29,7 -35.62,5.96 -49.51,-6.3 -7.02,-6.21 -13.93,-10.28 -21.67,-11.77 -7.74,-1.48 -16.36,-0.37 -23.97,1.11 -7.6,1.49 -14.2,3.34 -19.79,4.08 -5.6,0.74 -10.18,0.37 -17.65,-0.37 -7.46,-0.74 -17.78,-1.85 -26.97,-1.3 -9.18,0.56 -17.23,2.77 -22.97,0 -5.73,-2.77 -9.17,-10.56 -15.35,-13.07 -6.17,-2.5 -15.06,0.29 -22.96,4.09 -7.89,3.79 -14.78,8.61 -20.81,10.55 -6.03,1.95 -11.18,1.03 -19.08,-0.37 -7.89,-1.38 -19.36,-3.13 -31.14,-1.85 -4.56,0.5 -9.09,1.34 -13.61,2.35l0 309.39c69.55,0.49 144.12,-1.65 225.55,-8.29 89.82,-7.32 187.96,-20.11 257.56,-30.12 69.59,-10 110.63,-17.23 132.3,-34.47 21.67,-17.23 23.96,-44.48 18.95,-66.26 -5.02,-21.77 -17.37,-38.09 -29.44,-54.1 -12.08,-16 -23.88,-31.7 -30.05,-38.75 -6.17,-7.04 -6.71,-5.42 -18.3,-8.22z"/>
   <path class="fil2" d="M2709.32 155.79c-27.95,-3.43 -64.98,-5.36 -100.6,-2.38 -41.52,3.48 -81.13,13.63 -115.2,26.23 -34.07,12.6 -62.6,27.67 -84.32,37.23 -21.72,9.56 -36.63,13.62 -57.92,15.36 -21.29,1.74 -48.97,1.15 -81.12,1.88 -32.15,0.73 -68.78,2.75 -115.84,14.2 -47.05,11.44 -111.54,11.4 -156.89,28.78 -159.57,61.17 -236.69,99.89 -419.56,152.32 -70.31,20.17 -134.7,37.03 -231.38,62.81 -96.67,25.79 -225.62,60.51 -313.52,100.47 -87.9,39.96 -127.77,118.62 -63.2,111.82 64.57,-6.8 261.47,-34.24 448.01,-31.05 186.52,3.19 357.79,48.97 597.82,25.27 233.36,-23.04 529.79,-45.83 693.72,-102.96l0 -439.98z"/>
   <path class="fil3" d="M2709.32 267.31c-6.16,-2.1 -10.86,-3.66 -14.96,-4.12 -4.36,-0.47 -8.02,0.33 -18.01,3.18 -9.98,2.85 -26.27,7.77 -35.91,13.08 -9.64,5.32 -12.62,11.03 -15.83,14.12 -3.22,3.1 -6.65,3.57 -8.38,0.79 -1.72,-2.77 -1.72,-8.79 -5.62,-9.51 -3.9,-0.72 -11.7,3.89 -21.22,8.72 -9.52,4.84 -20.77,9.92 -28.92,10.55 -8.13,0.64 -13.18,-3.17 -16.97,-4.04 -3.79,-0.87 -6.31,1.18 -11.71,4.59 -5.39,3.41 -13.64,8.18 -21.33,10.71 -7.69,2.54 -14.8,2.86 -21.34,5.8 -6.54,2.93 -12.51,8.48 -18.93,8.72 -6.42,0.23 -13.31,-4.84 -18.47,-8.81 -5.16,-3.96 -8.6,-6.82 -12.27,-6.58 -3.68,0.24 -7.58,3.57 -11.25,3.73 -3.67,0.16 -7.11,-2.85 -10.21,-3.01 -3.1,-0.16 -5.85,2.53 -8.26,4.91 -2.41,2.38 -4.48,4.44 -8.84,2.77 -4.35,-1.66 -11.01,-7.05 -15.6,-10.06 -4.59,-3.02 -7.1,-3.65 -13.42,0.63 -6.31,4.29 -16.41,13.48 -23.76,21.88 -7.33,8.41 -11.92,16.03 -14.45,14.52 -2.52,-1.5 -2.98,-12.14 -4.82,-18.24 -1.83,-6.1 -5.04,-7.69 -11.81,-4.36 -6.77,3.34 -17.1,11.58 -25.02,19.11 -7.91,7.54 -13.41,14.36 -16.86,18.17 -3.43,3.8 -4.81,4.6 -11.36,4.44 -6.54,-0.16 -18.23,-1.27 -25.24,-2.14 -6.99,-0.87 -9.29,-1.51 -14.68,1.74 -5.39,3.25 -13.87,10.39 -20.19,13.57 -6.3,3.17 -10.43,2.37 -14.57,1.1 -4.13,-1.27 -8.26,-3.01 -12.73,-2.85 -4.48,0.16 -9.3,2.21 -15.5,5.15 -6.19,2.94 -13.75,6.75 -23.05,8.49 -9.29,1.75 -20.31,1.42 -29.03,1.9 -8.71,0.48 -15.14,1.75 -19.62,3.97 -4.47,2.22 -6.99,5.39 -12.96,6.27 -5.97,0.87 -15.37,-0.56 -24.55,1.34 -9.18,1.91 -18.12,7.14 -52.54,19.43 -34.42,12.3 -94.3,31.65 -145.24,43.94 -50.94,12.3 -92.93,17.53 -125.06,23.08 -32.12,5.55 -54.37,11.42 -81.9,21.81 -27.54,10.39 -60.35,25.3 -86.51,40.37 -26.15,15.07 -45.66,30.3 -42.81,65.91 2.85,35.62 -72.99,-3.89 -24.14,43.06 48.86,46.96 93.29,23.32 224.49,33.45 131.19,10.14 435.44,-7.75 595.33,-3.94 153.27,3.66 289.03,11.4 396.03,0.02l0 -427.36z"/>
   <path class="fil4" d="M2709.32 659.11c-8.46,-2.68 -14.63,-4.77 -21.45,-6.59 -10.01,-2.69 -21.09,-4.27 -27.22,-5.01 -6.13,-0.74 -8.38,-0.93 -7.14,-3.33 1.22,-2.42 5.92,-7.05 5.47,-9.64 -0.44,-2.59 -6.03,-3.15 -11.83,-2.96 -5.79,0.17 -11.82,1.11 -17.95,3.24 -6.13,2.13 -12.39,5.46 -16.62,7.31 -4.24,1.85 -6.48,2.24 -8.15,2.43 -1.67,0.17 -2.78,0.17 -2.56,-2.42 0.22,-2.59 1.79,-7.79 6.02,-13.34 4.24,-5.57 11.16,-11.49 14.83,-15.57 3.68,-4.09 4.13,-6.31 2.35,-7.32 -1.79,-1.03 -5.8,-0.84 -10.7,0.82 -4.91,1.67 -10.72,4.83 -16.4,9.46 -5.69,4.64 -11.27,10.75 -16.18,15.02 -4.91,4.26 -9.13,6.66 -14.26,7.87 -5.13,1.21 -11.16,1.21 -15.4,1.21 -4.24,0 -6.69,0 -5.8,-4.54 0.89,-4.55 5.13,-13.63 6.58,-31.04 1.45,-17.43 0.11,-43.19 -0.56,-56.07 -0.67,-12.88 -0.68,-12.88 5.91,-12.69 6.59,0.18 19.75,0.55 33.47,-1.3 13.71,-1.85 27.99,-5.94 36.58,-13.07 8.59,-7.13 11.47,-17.33 3.67,-29.83 -7.8,-12.52 -26.31,-27.34 -41.93,-38.27 -15.61,-10.93 -28.33,-17.97 -40.94,-21.03 -12.6,-3.06 -25.09,-2.14 -40.15,3.32 -15.05,5.48 -32.67,15.49 -46.39,26.15 -13.71,10.64 -23.54,21.95 -29,30.57 -5.46,8.61 -6.58,14.55 -6.46,19.28 0.11,4.72 1.44,8.24 12.03,11.85 10.6,3.61 30.45,7.33 43.46,9.87 13,2.54 19.17,3.91 22.25,4.59 3.08,0.69 3.09,0.69 2.35,11.02 -0.74,10.34 -2.24,31.04 -5.87,45.81 -3.63,14.79 -9.43,23.69 -13.67,29.72 -4.23,6.01 -6.92,9.17 -8.47,9.82 -1.56,0.65 -2.01,-1.21 -7.25,-5.29 -5.24,-4.08 -15.28,-10.37 -21.54,-13.61 -6.24,-3.25 -8.69,-3.44 -9.47,-1.41 -0.78,2.05 0.12,6.33 1.45,10.39 1.34,4.08 3.12,7.98 1.56,8.35 -1.56,0.37 -6.46,-2.79 -13.83,-4.82 -7.35,-2.05 -17.17,-2.98 -26.2,-3.72 -9.04,-0.74 -17.29,-1.29 -22.09,-1.56 -4.79,-0.28 -6.14,-0.29 -7.81,-4.45 -1.67,-4.17 -3.68,-12.52 -0.22,-17.61 3.46,-5.09 12.37,-6.96 19.74,-10.56 7.35,-3.62 13.17,-9 15.17,-13.72 2.01,-4.73 0.22,-8.8 -6.14,-14.36 -6.35,-5.56 -17.29,-12.61 -27.32,-16.4 -10.04,-3.8 -19.18,-4.36 -28.78,-3.15 -9.59,1.2 -19.62,4.16 -28.88,9.36 -9.26,5.18 -17.74,12.6 -23.21,18.53 -5.46,5.93 -7.91,10.38 -7.35,15.2 0.56,4.8 4.13,10 11.37,12.96 7.25,2.96 18.18,3.72 26.55,4.18 8.35,0.47 14.17,0.64 17.29,1.75 3.11,1.12 3.57,3.16 3.79,6.78 0.22,3.61 0.21,8.8 -2.12,11.39 -2.35,2.59 -7.03,2.59 -19.41,0 -12.37,-2.58 -47.33,15.69 -62.17,15 -151.47,-7.04 -34.6,27.73 -226.42,-14.9 -22.07,-4.9 -42.98,3.69 -51.35,-0.02 -8.37,-3.71 -8.37,-9.26 -10.49,-12.97 -2.12,-3.71 -6.36,-5.56 -13.28,-4.73 -6.91,0.84 -16.5,4.36 -22.53,7.13 -6.02,2.79 -8.46,4.83 -9.25,1.03 -0.78,-3.8 0.12,-13.44 -1.78,-19.1 -1.89,-5.65 -6.58,-7.31 -10.26,-6.75 -3.68,0.55 -6.35,3.33 -9.26,7.59 -2.9,4.27 -6.02,10.01 -8.14,12.14 -2.12,2.14 -3.24,0.65 -8.26,-3.71 -5.02,-4.35 -13.93,-11.58 -21.63,-15.29 -7.7,-3.7 -14.16,-3.89 -17.29,-2.22 -3.12,1.67 -2.89,5.19 -5.13,6.67 -2.22,1.49 -6.92,0.93 -37.92,-12.42 -31,-13.34 -88.33,-39.47 -140.41,-60.5 -52.08,-21.03 -98.94,-36.98 -132.06,-45.87 -33.12,-8.89 -52.53,-10.75 -71.94,-17.61 -19.4,-6.85 -38.81,-18.71 -61.11,-27.43 -22.31,-8.71 -47.51,-14.26 -67.03,-18.44 -19.52,-4.17 -33.35,-6.94 -43.05,-11.58 -9.71,-4.63 -15.29,-11.11 -22.2,-14.54 -6.92,-3.43 -15.16,-3.8 -23.75,-4.54 -8.59,-0.74 -17.52,-1.86 -23.2,-4.83 -5.7,-2.96 -8.15,-7.78 -13.27,-9.82 -5.14,-2.04 -12.94,-1.29 -20.75,-2.22 -7.81,-0.93 -15.61,-3.51 -21.41,-4.17 -5.81,-0.65 -9.59,0.66 -16.72,-0.65 -7.15,-1.29 -17.64,-5.18 -31.47,-9.54 -13.83,-4.35 -30.99,-9.18 -48.95,-10.66 -17.96,-1.48 -36.71,0.37 -51.65,0.09 -14.94,-0.28 -26.1,-2.68 -34.12,-3.15 -8.03,-0.46 -12.94,1.02 -23.09,-1.76 -1.38,-0.38 -92.53,-11.57 -94.14,-11.53 -66.99,1.37 -140.94,5.49 -162.76,-3.39 -12.49,-5.08 -22.1,-8.24 -29.79,-8.24 -7.7,0 -13.49,3.14 -22.86,3.89 -9.37,0.74 -22.31,-0.93 -31.9,-1.95 -9.59,-1.01 -15.84,-1.38 -20.86,0.65 -5.02,2.04 -8.8,6.49 -17.17,11.21 -8.36,4.73 -13.99,7.98 -38.13,-1.73 -24.15,-9.71 -61.24,14.97 -82.21,13.4 -20.97,-1.57 -89.94,-3.97 -99.98,-3.6 -10.05,0.36 -20.75,3.52 -27.1,7.22 -6.37,3.71 -8.38,7.97 -14.18,10.56 -5.79,2.59 -15.38,3.53 -21.96,6.12 -6.58,2.6 -10.15,6.86 -14.72,8.25 -4.57,1.39 -10.16,-0.1 -14.84,-0.47 -4.68,-0.37 -8.48,0.38 -13.72,3.43 -5.24,3.05 -11.94,8.44 -24.31,13.54 -12.37,5.09 -30.45,9.91 -45.95,15.75 -15.51,5.83 -28.44,12.69 -37.03,16.4 -8.59,3.7 -12.83,4.26 -17.62,3.52 -4.8,-0.74 -10.16,-2.78 -16.4,-1.3 -6.24,1.48 -13.37,6.49 -17.39,10.01 -4.02,3.52 -4.92,5.56 -8.14,6.11 -3.23,0.56 -8.83,-0.37 -14.29,0.65 -5.46,1.03 -10.81,3.99 -16.28,8.71 -5.46,4.72 -11.03,11.21 -23.2,18.07 -6.7,3.78 -23,3.13 -36.23,5.88l0 247.11 2709.33 0.01 0 -52.08z"/>
   <path class="fil5" d="M1379.6 546.92c8.52,3.52 20.19,10.56 28.26,17.23 8.06,6.67 12.51,12.97 15.1,19.74 2.6,6.76 3.34,13.99 1.76,19.55 -1.58,5.56 -5.47,9.45 -16.03,11.21 -10.57,1.76 -27.8,1.39 -42.9,0.75 -15.11,-0.65 -28.09,-1.58 -37.26,-3.44 -9.17,-1.85 -14.55,-4.62 -19.27,-7.78 -4.72,-3.15 -8.8,-6.67 -8.71,-11.96 0.09,-5.28 4.36,-12.32 10.48,-18.99 6.11,-6.68 14.07,-12.97 22.61,-17.89 8.52,-4.91 17.6,-8.42 24.83,-10.19 7.22,-1.75 12.6,-1.75 21.13,1.77z"/>
   <path class="fil5" d="M1375.66 638.1c1.62,5.75 3.29,16.68 3.24,25.16 -0.04,8.48 -1.8,14.5 -4.36,19.41 -2.54,4.91 -5.88,8.71 -8.57,10.84 -2.68,2.13 -4.72,2.6 -6.86,2.05 -2.12,-0.56 -4.34,-2.14 -5.65,-5.2 -1.29,-3.05 -1.66,-7.59 -1.01,-14.4 0.64,-6.81 2.32,-15.9 3.61,-22.43 1.3,-6.53 2.23,-10.51 4.63,-13.81 2.41,-3.28 6.31,-5.88 9.04,-6.91 2.73,-1.01 4.31,-0.45 5.93,5.29z"/>
   <path class="fil5" d="M1424.99 678.7c-2.78,4.07 -10.94,11.11 -15.57,14.82 -4.63,3.7 -5.75,4.08 -6.77,3.57 -1.01,-0.51 -1.94,-1.9 -1.01,-5.09 0.93,-3.2 3.7,-8.21 6.34,-11.78 2.65,-3.56 5.15,-5.69 7.56,-6.76 2.41,-1.07 4.72,-1.07 7.18,-0.51 2.46,0.55 5.05,1.67 2.27,5.75z"/>
   <path class="fil5" d="M1318.2 674.24c2.45,1.2 5.87,6.49 7.95,10.66 2.09,4.17 2.84,7.23 1.36,8.8 -1.49,1.58 -5.2,1.67 -8.02,-1.06 -2.82,-2.73 -4.77,-8.29 -5,-12.51 -0.24,-4.21 1.25,-7.09 3.71,-5.89z"/>
   <path class="fil5" d="M173.95 557.43c5.52,2.28 13.08,6.84 18.31,11.16 5.22,4.33 8.11,8.41 9.78,12.79 1.68,4.38 2.16,9.07 1.14,12.67 -1.02,3.6 -3.54,6.12 -10.38,7.26 -6.85,1.14 -18.01,0.9 -27.8,0.49 -9.78,-0.42 -18.19,-1.03 -24.13,-2.23 -5.94,-1.2 -9.43,-3 -12.49,-5.04 -3.06,-2.04 -5.7,-4.32 -5.64,-7.75 0.06,-3.42 2.82,-7.98 6.78,-12.3 3.96,-4.33 9.13,-8.41 14.65,-11.59 5.52,-3.18 11.41,-5.46 16.09,-6.6 4.68,-1.14 8.17,-1.14 13.69,1.14z"/>
   <path class="fil5" d="M171.4 616.5c1.05,3.73 2.13,10.81 2.1,16.3 -0.03,5.5 -1.17,9.4 -2.82,12.58 -1.65,3.18 -3.82,5.64 -5.56,7.02 -1.74,1.38 -3.06,1.69 -4.44,1.33 -1.38,-0.36 -2.82,-1.38 -3.66,-3.37 -0.84,-1.97 -1.08,-4.92 -0.66,-9.33 0.42,-4.41 1.5,-10.3 2.34,-14.53 0.84,-4.23 1.44,-6.81 3,-8.94 1.56,-2.13 4.09,-3.82 5.86,-4.48 1.77,-0.66 2.79,-0.3 3.84,3.42z"/>
   <path class="fil5" d="M235.73 646.24c-1.79,2.64 -7.08,7.2 -10.08,9.6 -3,2.4 -3.73,2.65 -4.38,2.32 -0.66,-0.33 -1.26,-1.23 -0.66,-3.3 0.6,-2.07 2.4,-5.32 4.11,-7.63 1.71,-2.31 3.33,-3.69 4.89,-4.38 1.57,-0.69 3.06,-0.69 4.65,-0.33 1.6,0.36 3.28,1.08 1.47,3.72z"/>
   <path class="fil5" d="M134.17 639.92c1.59,0.78 3.81,4.2 5.16,6.9 1.35,2.71 1.83,4.69 0.87,5.71 -0.96,1.02 -3.36,1.08 -5.19,-0.69 -1.83,-1.77 -3.1,-5.37 -3.24,-8.11 -0.16,-2.73 0.81,-4.59 2.4,-3.81z"/>
   <path class="fil5" d="M216.67 636.78c-1.8,2.64 -7.09,7.2 -10.09,9.6 -3,2.41 -3.72,2.65 -4.38,2.32 -0.66,-0.33 -1.26,-1.23 -0.66,-3.3 0.61,-2.07 2.4,-5.32 4.11,-7.63 1.72,-2.31 3.34,-3.69 4.9,-4.38 1.56,-0.69 3.06,-0.69 4.65,-0.33 1.59,0.36 3.27,1.08 1.47,3.72z"/>
   <path class="fil5" d="M112.85 648.61c1.59,0.78 3.81,4.2 5.16,6.91 1.35,2.7 1.83,4.68 0.87,5.7 -0.96,1.02 -3.36,1.08 -5.19,-0.69 -1.83,-1.77 -3.09,-5.37 -3.24,-8.11 -0.15,-2.73 0.81,-4.59 2.4,-3.81z"/>
   <path class="fil5" d="M787.8 532.94c4.91,2.03 11.63,6.08 16.27,9.92 4.64,3.85 7.21,7.47 8.7,11.37 1.49,3.89 1.92,8.06 1.01,11.26 -0.9,3.2 -3.15,5.44 -9.23,6.45 -6.08,1.02 -16.01,0.81 -24.7,0.43 -8.7,-0.37 -16.18,-0.91 -21.46,-1.98 -5.28,-1.06 -8.37,-2.66 -11.09,-4.47 -2.73,-1.82 -5.07,-3.85 -5.02,-6.89 0.05,-3.04 2.51,-7.1 6.03,-10.94 3.52,-3.84 8.11,-7.47 13.02,-10.3 4.91,-2.83 10.14,-4.85 14.3,-5.87 4.16,-1.01 7.26,-1.01 12.17,1.02z"/>
   <path class="fil5" d="M785.53 585.45c0.94,3.31 1.9,9.61 1.87,14.48 -0.03,4.89 -1.04,8.36 -2.51,11.19 -1.47,2.82 -3.39,5.01 -4.94,6.23 -1.54,1.23 -2.72,1.5 -3.95,1.19 -1.22,-0.32 -2.5,-1.23 -3.25,-3 -0.75,-1.75 -0.96,-4.37 -0.59,-8.29 0.38,-3.92 1.34,-9.16 2.09,-12.92 0.74,-3.76 1.28,-6.05 2.66,-7.95 1.39,-1.89 3.63,-3.39 5.21,-3.98 1.57,-0.58 2.48,-0.26 3.41,3.05z"/>
   <g>
    <g>
     <g>
      <path class="fil6 str0" d="M557.26 110.33c-6.46,-2.51 -10.96,-7.35 -15.23,-11.48 -2.6,-2.53 -1.95,-1.32 -5.1,-5.51 -5.63,-7.46 -10.05,-15.33 -13.18,-24.51 -1.09,-3.2 -5.2,-16.39 -4.05,-19.81 5.01,13.43 7.33,20.97 15.39,33.96 3.49,5.62 6.24,9.42 9.98,14.41 5.05,6.74 11.12,11.4 12.19,12.94z"/>
      <path id="1" class="fil7" d="M557.26 110.33c-6.46,-2.51 -10.96,-7.35 -15.23,-11.48 -2.6,-2.53 -1.95,-1.32 -5.1,-5.51 -5.63,-7.46 -10.05,-15.33 -13.18,-24.51 -1.09,-3.2 -5.2,-16.39 -4.05,-19.81 5.01,13.43 7.33,20.97 15.39,33.96 3.49,5.62 6.24,9.42 9.98,14.41 5.05,6.74 11.12,11.4 12.19,12.94z"/>
     </g>
     <g>
      <path class="fil6 str0" d="M401.44 108.19l0.01 0.5c-0.41,1.32 -0.66,0.96 -1.38,2.26 -1.86,3.41 -1.9,9.89 -1.28,13.75 0.96,5.94 2.66,11.44 4.51,16.43 5.69,15.33 12.88,22.02 15.14,27.03 -2.1,-0.93 -4.23,-4.02 -5.8,-5.96 -4.57,-5.7 -10.46,-15.22 -13.24,-21.86 -2.24,-5.36 -4.47,-10.97 -5.3,-17.66 -1.32,-10.61 4.04,-15.83 7.34,-14.49z"/>
      <path id="1" class="fil7" d="M401.44 108.19l0.01 0.5c-0.41,1.32 -0.66,0.96 -1.38,2.26 -1.86,3.41 -1.9,9.89 -1.28,13.75 0.96,5.94 2.66,11.44 4.51,16.43 5.69,15.33 12.88,22.02 15.14,27.03 -2.1,-0.93 -4.23,-4.02 -5.8,-5.96 -4.57,-5.7 -10.46,-15.22 -13.24,-21.86 -2.24,-5.36 -4.47,-10.97 -5.3,-17.66 -1.32,-10.61 4.04,-15.83 7.34,-14.49z"/>
     </g>
     <g>
      <path class="fil6 str0" d="M344.7 190.79l-2.65 -2.28c-5.38,-6.52 -10.43,-19.53 -5.18,-25.78 0.3,0.29 0.96,-0.57 0.84,3.12 -0.05,1.56 -0.04,2.56 0.1,4.12 0.24,2.7 0.82,5.13 1.42,7.72 1.41,6.05 3.25,8.62 5.47,13.1z"/>
      <path id="1" class="fil7" d="M344.7 190.79l-2.65 -2.28c-5.38,-6.52 -10.43,-19.53 -5.18,-25.78 0.3,0.29 0.96,-0.57 0.84,3.12 -0.05,1.56 -0.04,2.56 0.1,4.12 0.24,2.7 0.82,5.13 1.42,7.72 1.41,6.05 3.25,8.62 5.47,13.1z"/>
     </g>
     <path class="fil4" d="M453.1 340.67l0.11 -94.78c-1.57,1.62 -5.64,9.74 -7.11,12.33l-49.2 87.52c8.69,-0.1 18.54,-1.01 27.41,-1.44 8.8,-0.42 20.51,0.25 28.83,-0.74l-0.04 -2.89zm77.41 5.19c-8.66,-16.34 -19.92,-35.18 -29.2,-51.66l-21.8 -38.72c-1.88,-3.49 -5.27,-10.09 -7.33,-12.83l-0.04 101.03c19.52,0.23 39.06,0.85 58.37,2.18zm15.21 1.49l3.08 0.01c-1.38,-3.21 -5.02,-9.67 -7.09,-13.22 -2.66,-4.58 -4.78,-8.94 -7.41,-13.41l-29.12 -53.75c-2.96,-5.03 -12.58,-24.26 -14.8,-26.92l-3.8 -0.02 44.19 80.59c4.05,7.54 11.86,20.15 14.95,26.72zm-84.68 -127.26c4.08,3.57 17.99,2.67 24.81,2.68 2.79,0 7.29,0.84 7.24,-2.04 -0.07,-4.25 -12.43,-2.4 -15.87,-2.3 -3.61,0.1 -13.72,-0.3 -16.18,1.66zm8.83 -24.75c10.67,-2.95 11.9,-16.37 4.32,-22.99 -1.33,-1.17 -1.97,-1.41 -3.74,-1.35 2.5,3.66 4.13,6.4 4.17,12.56 0.05,7.3 -2.67,8.79 -4.75,11.78zm-133 -32.61c-5.25,6.25 -0.2,19.26 5.18,25.78l2.65 2.28c-2.22,-4.48 -4.06,-7.05 -5.47,-13.1 -0.6,-2.59 -1.18,-5.02 -1.42,-7.72 -0.14,-1.56 -0.15,-2.56 -0.1,-4.12 0.12,-3.69 -0.54,-2.83 -0.84,-3.12zm63.2 -51.78c0.72,-1.3 0.97,-0.94 1.38,-2.26l-0.01 -0.5c-3.3,-1.34 -8.66,3.88 -7.34,14.49 0.83,6.69 3.06,12.3 5.3,17.66 2.78,6.64 8.67,16.16 13.24,21.86 1.57,1.94 3.7,5.03 5.8,5.96 -2.26,-5.01 -9.45,-11.7 -15.14,-27.03 -1.85,-4.99 -3.55,-10.49 -4.51,-16.43 -0.62,-3.86 -0.58,-10.34 1.28,-13.75zm157.19 -0.62c-1.07,-1.54 -7.14,-6.2 -12.19,-12.94 -3.74,-4.99 -6.49,-8.79 -9.98,-14.41 -8.06,-12.99 -10.38,-20.53 -15.39,-33.96 -1.15,3.42 2.96,16.61 4.05,19.81 3.13,9.18 7.55,17.05 13.18,24.51 3.15,4.19 2.5,2.98 5.1,5.51 4.27,4.13 8.77,8.97 15.23,11.48zm6.08 -101.51c-6.21,-1.45 -10.09,2.8 -11.23,7.69 -3.2,13.79 6,33.01 12.14,43.88 6.99,12.37 24.23,34.54 38.71,37.63 13.82,2.95 12.73,-14.45 10.33,-24.56 -3.03,-12.77 -11.44,-28.16 -19.09,-38.39 -5.4,-7.23 -11.15,-14.29 -18.54,-19.65 -3.6,-2.6 -7.05,-5.38 -12.32,-6.6zm-45.11 31.71c1.08,-11.58 2.68,-12.23 10.39,-17.08 5.43,-3.42 11.38,-6.73 16.93,-10.01 6.9,-4.09 11.98,-8.62 19.14,-6.88 15.19,3.7 33.28,27.44 40.6,40.79 4.89,8.92 14.22,27.28 12.57,40.97 -1.12,9.32 -5.88,11.48 -12.35,15.09 -5.93,3.31 -11.46,6.37 -17.31,9.63 -7.13,3.98 -10.32,6.65 -20.02,3.93 -2.49,-0.7 -5.07,1.7 -8.84,3.81l-60.53 34.06c-2.87,1.57 -5.9,3.4 -8.82,4.91 -3.01,1.57 -5.92,2.99 -8.79,4.75 1.34,2.94 3.13,5.26 4.13,8.9 1.98,7.26 1.67,15.24 -2.93,21.47 -7.57,10.23 -6.69,-2.51 -6.74,20.72 5.91,-0.03 17.32,-1.86 19.65,3.27 0.86,1.91 2.04,15.23 -1.78,19.61 9.98,17.74 19.05,36.66 29.13,54.71 4.93,8.83 9.98,18.24 14.45,27.27 4.54,9.16 9.95,18.01 14.4,27.26 7.15,0.43 14.89,1.5 21.87,2.5 3.5,0.5 6.91,1.05 10.42,1.82 4.09,0.89 7.67,1.28 8.32,3.89 -2.75,4.06 -21.89,5.68 -28.56,6.47 -55.98,6.63 -141.9,5.67 -198.28,-0.24 -4.6,-0.49 -26.21,-2.17 -27.75,-6.71 3.34,-4.16 26.29,-6.19 34.02,-7.02 7.09,-0.76 5.14,0.43 8.24,-4.98 6.57,-11.53 12.37,-23.31 18.86,-35.05 12.81,-23.18 25.3,-46.48 37.85,-69.92 -2.43,-3.37 -2.63,-2.88 -2.61,-8.64 0.01,-2.77 -0.47,-8.51 0.48,-10.78 2.37,-5.68 11.87,-2.79 18.74,-3.62 -0.04,-21.16 1.03,-13.47 -3.65,-18.85 -5.86,-6.73 -5.45,-11.32 -6.7,-13.77 -9.71,5.01 -13.26,9.03 -21.34,6.23 -5.46,-1.89 -14.44,-8.6 -16.86,-12.61 -3.28,0.59 -7.76,2.96 -11.02,4.31 -3.6,1.48 -6.86,2.91 -10.36,4.38 -3.91,1.65 -23.31,8.88 -25.4,11.72 -2.81,3.83 -12.42,7.41 -14.16,7.32 -12.46,-0.71 -24.89,-30.31 -17.86,-36.8 1.6,-1.47 7.1,-4.21 9.3,-5.45 9.32,-5.27 5.6,0.75 10.44,-2.23l37.05 -21.96c-0.48,-5.42 -5.02,-18.84 3.38,-23.58 5.23,-2.95 13.77,-9.44 19.8,-9.1 2.7,0.15 16.21,-8.71 18.84,-10.21 6.27,-3.57 12.34,-7.23 18.68,-10.83l74.98 -43.47z"/>
     <path class="fil7" d="M566.07 19.23c4.26,1.16 6.7,3.12 9.59,5.38 0.98,0.76 1.17,0.76 1.96,1.62 0.8,0.86 0.79,1.03 1.65,1.86 11.42,11.16 20.76,25.07 25.68,40.89 9.34,30.02 -11.02,20.16 -24.83,2.52 -1.29,-1.63 -2.01,-2.64 -3.34,-4.27 -5.36,-6.63 -12.6,-20.76 -15.23,-28.97 -1.77,-5.5 -5.92,-21.87 4.52,-19.03z"/>
     <path class="fil8" d="M566.07 19.23c-10.44,-2.84 -6.29,13.53 -4.52,19.03 2.63,8.21 9.87,22.34 15.23,28.97 1.33,1.63 2.05,2.64 3.34,4.27 13.81,17.64 34.17,27.5 24.83,-2.52 -4.92,-15.82 -14.26,-29.73 -25.68,-40.89 -0.86,-0.83 -0.85,-1 -1.65,-1.86 -0.79,-0.86 -0.98,-0.86 -1.96,-1.62 -2.89,-2.26 -5.33,-4.22 -9.59,-5.38zm-2.73 -10.41c5.27,1.22 8.72,4 12.32,6.6 7.39,5.36 13.14,12.42 18.54,19.65 7.65,10.23 16.06,25.62 19.09,38.39 2.4,10.11 3.49,27.51 -10.33,24.56 -14.48,-3.09 -31.72,-25.26 -38.71,-37.63 -6.14,-10.87 -15.34,-30.09 -12.14,-43.88 1.14,-4.89 5.02,-9.14 11.23,-7.69z"/>
     <path class="fil8" d="M545.72 347.35c-3.09,-6.57 -10.9,-19.18 -14.95,-26.72l-44.19 -80.59 3.8 0.02c2.22,2.66 11.84,21.89 14.8,26.92l29.12 53.75c2.63,4.47 4.75,8.83 7.41,13.41 2.07,3.55 5.71,10.01 7.09,13.22l-3.08 -0.01z"/>
     <path class="fil8" d="M461.04 220.09c2.46,-1.96 12.57,-1.56 16.18,-1.66 3.44,-0.1 15.8,-1.95 15.87,2.3 0.05,2.88 -4.45,2.04 -7.24,2.04 -6.82,-0.01 -20.73,0.89 -24.81,-2.68z"/>
     <path class="fil8" d="M469.87 195.34c2.08,-2.99 4.8,-4.48 4.75,-11.78 -0.04,-6.16 -1.67,-8.9 -4.17,-12.56 1.77,-0.06 2.41,0.18 3.74,1.35 7.58,6.62 6.35,20.04 -4.32,22.99z"/>
     <path class="fil4" d="M565.65 19.42c2.39,0.55 6.01,2.21 9.84,4.99 3.83,2.77 7.87,6.65 11.47,10.96 3.6,4.3 6.77,9.01 9.62,13.43 2.85,4.41 5.38,8.53 7.23,12.6 1.85,4.08 3.02,8.11 3.64,11.76 0.62,3.64 0.7,6.88 0.53,9.14 -0.17,2.27 -0.59,3.55 -1.36,4.35 -0.77,0.81 -1.89,1.13 -2.61,1.11 -0.71,-0.02 -1.02,-0.38 -1.01,-1.52 0.02,-1.14 0.36,-3.07 -0.02,-6.52 -0.38,-3.45 -1.47,-8.43 -2.93,-12.81 -1.45,-4.38 -3.26,-8.15 -5.28,-11.7 -2.02,-3.54 -4.24,-6.86 -7.07,-10.82 -2.83,-3.96 -6.27,-8.55 -10.61,-12.19 -4.34,-3.64 -9.58,-6.33 -12.32,-7.99 -2.73,-1.66 -2.96,-2.29 -3.18,-2.83 -0.21,-0.54 -0.42,-0.98 0.06,-1.47 0.47,-0.5 1.62,-1.05 4,-0.49z"/>
     <path class="fil8" d="M493.16 221.29c0.45,2.79 -0.34,9.3 -0.86,12.91 -0.53,3.62 -0.8,4.33 -1.42,4.52 -0.62,0.19 -1.6,-0.15 -1.9,-2.11 -0.31,-1.96 0.07,-5.55 0.11,-8.11 0.04,-2.56 -0.26,-4.09 -0.28,-5.28 -0.02,-1.19 0.24,-2.03 1.22,-2.91 0.98,-0.89 2.68,-1.81 3.13,0.98z"/>
    </g>
    <path class="fil4" d="M412.76 109.63c0.38,-1.11 0.73,-2.12 0.75,-5.62 0.02,-3.5 -0.3,-9.49 -0.66,-13.38 -0.35,-3.9 -0.73,-5.7 -1.11,-7.49 -4,0.29 -8.01,0.59 -10.96,0.63 -2.95,0.04 -4.85,-0.18 -6.08,-1.01 -1.23,-0.83 -1.78,-2.28 -1.75,-4.26 0.04,-1.99 0.65,-4.51 1.89,-7.69 1.24,-3.18 3.11,-7.02 5.11,-9.92 2,-2.89 4.13,-4.84 6.71,-5.93 2.59,-1.09 5.63,-1.31 9.4,-0.34 3.77,0.98 8.27,3.15 11.68,4.78 3.41,1.62 5.71,2.7 7.22,4.62 1.51,1.91 2.21,4.66 1.72,6.63 -0.48,1.98 -2.16,3.18 -3.85,4.27 -1.7,1.08 -3.42,2.05 -5.58,3.11 -2.16,1.06 -4.77,2.21 -7.37,3.36 0.89,1.34 1.77,2.68 2.75,5.12 0.98,2.44 2.06,5.98 3.06,9.5 1.01,3.52 1.94,7.01 1.99,9.49 0.05,2.49 -0.79,3.97 -1.83,5.02 -1.04,1.05 -2.29,1.67 -4.7,2.04 -2.41,0.38 -5.99,0.51 -7.58,-0.04 -1.59,-0.55 -1.18,-1.77 -0.81,-2.89z"/>
   </g>
   <path class="fil5" d="M1025.53 363.5c3.94,1.63 9.34,4.88 13.06,7.96 3.73,3.09 5.79,6 6.98,9.12 1.2,3.13 1.54,6.47 0.81,9.04 -0.72,2.57 -2.52,4.37 -7.4,5.18 -4.89,0.81 -12.85,0.64 -19.83,0.34 -6.98,-0.29 -12.98,-0.73 -17.21,-1.58 -4.24,-0.86 -6.73,-2.14 -8.91,-3.6 -2.18,-1.45 -4.07,-3.08 -4.02,-5.52 0.04,-2.44 2.01,-5.7 4.84,-8.78 2.82,-3.09 6.5,-6 10.44,-8.27 3.94,-2.27 8.14,-3.89 11.48,-4.7 3.34,-0.82 5.82,-0.82 9.76,0.81z"/>
   <path class="fil5" d="M1023.72 405.64c0.74,2.65 1.51,7.71 1.49,11.62 -0.02,3.92 -0.83,6.71 -2.01,8.97 -1.18,2.27 -2.72,4.03 -3.96,5.01 -1.24,0.99 -2.19,1.2 -3.17,0.95 -0.99,-0.26 -2.01,-0.99 -2.61,-2.4 -0.6,-1.41 -0.77,-3.51 -0.47,-6.66 0.3,-3.15 1.07,-7.34 1.67,-10.36 0.6,-3.02 1.03,-4.86 2.14,-6.38 1.11,-1.52 2.91,-2.72 4.17,-3.2 1.27,-0.47 2,-0.21 2.75,2.45z"/>
   <path class="fil5" d="M1046.51 424.4c-1.28,1.88 -5.06,5.13 -7.2,6.84 -2.14,1.72 -2.65,1.89 -3.12,1.65 -0.47,-0.23 -0.9,-0.87 -0.47,-2.35 0.43,-1.47 1.71,-3.79 2.93,-5.44 1.22,-1.65 2.38,-2.63 3.49,-3.12 1.12,-0.5 2.18,-0.5 3.32,-0.24 1.14,0.26 2.33,0.77 1.05,2.66z"/>
   <path class="fil5" d="M997.16 422.34c1.13,0.55 2.71,3 3.68,4.92 0.96,1.93 1.31,3.34 0.62,4.07 -0.68,0.73 -2.4,0.77 -3.7,-0.49 -1.31,-1.26 -2.21,-3.83 -2.31,-5.78 -0.11,-1.95 0.58,-3.28 1.71,-2.72z"/>
   <path class="fil5" d="M1025.53 363.5c3.94,1.63 9.34,4.88 13.06,7.96 3.73,3.09 5.79,6 6.98,9.12 1.2,3.13 1.54,6.47 0.81,9.04 -0.72,2.57 -2.52,4.37 -7.4,5.18 -4.89,0.81 -12.85,0.64 -19.83,0.34 -6.98,-0.29 -12.98,-0.73 -17.21,-1.58 -4.24,-0.86 -6.73,-2.14 -8.91,-3.6 -2.18,-1.45 -4.07,-3.08 -4.02,-5.52 0.04,-2.44 2.01,-5.7 4.84,-8.78 2.82,-3.09 6.5,-6 10.44,-8.27 3.94,-2.27 8.14,-3.89 11.48,-4.7 3.34,-0.82 5.82,-0.82 9.76,0.81z"/>
   <path class="fil5" d="M1023.72 405.64c0.74,2.65 1.51,7.71 1.49,11.62 -0.02,3.92 -0.83,6.71 -2.01,8.97 -1.18,2.27 -2.72,4.03 -3.96,5.01 -1.24,0.99 -2.19,1.2 -3.17,0.95 -0.99,-0.26 -2.01,-0.99 -2.61,-2.4 -0.6,-1.41 -0.77,-3.51 -0.47,-6.66 0.3,-3.15 1.07,-7.34 1.67,-10.36 0.6,-3.02 1.03,-4.86 2.14,-6.38 1.11,-1.52 2.91,-2.72 4.17,-3.2 1.27,-0.47 2,-0.21 2.75,2.45z"/>
   <path class="fil5" d="M1046.51 424.4c-1.28,1.88 -5.06,5.13 -7.2,6.84 -2.14,1.72 -2.65,1.89 -3.12,1.65 -0.47,-0.23 -0.9,-0.87 -0.47,-2.35 0.43,-1.47 1.71,-3.79 2.93,-5.44 1.22,-1.65 2.38,-2.63 3.49,-3.12 1.12,-0.5 2.18,-0.5 3.32,-0.24 1.14,0.26 2.33,0.77 1.05,2.66z"/>
   <path class="fil5" d="M997.16 422.34c1.13,0.55 2.71,3 3.68,4.92 0.96,1.93 1.31,3.34 0.62,4.07 -0.68,0.73 -2.4,0.77 -3.7,-0.49 -1.31,-1.26 -2.21,-3.83 -2.31,-5.78 -0.11,-1.95 0.58,-3.28 1.71,-2.72z"/>
   <path class="fil5" d="M357.83 385.07c1.82,0.75 4.31,2.25 6.03,3.67 1.72,1.43 2.67,2.77 3.23,4.21 0.55,1.45 0.71,2.99 0.37,4.18 -0.34,1.18 -1.17,2.01 -3.42,2.39 -2.25,0.37 -5.93,0.3 -9.15,0.16 -3.23,-0.14 -6,-0.34 -7.95,-0.74 -1.96,-0.39 -3.11,-0.98 -4.12,-1.65 -1,-0.68 -1.87,-1.43 -1.85,-2.56 0.02,-1.12 0.93,-2.63 2.23,-4.05 1.3,-1.42 3.01,-2.77 4.83,-3.82 1.81,-1.04 3.75,-1.79 5.29,-2.17 1.55,-0.38 2.69,-0.38 4.51,0.38z"/>
   <path class="fil5" d="M356.99 404.52c0.35,1.23 0.7,3.56 0.69,5.37 -0.01,1.81 -0.38,3.1 -0.93,4.14 -0.54,1.05 -1.25,1.86 -1.82,2.31 -0.58,0.46 -1.01,0.56 -1.47,0.44 -0.45,-0.12 -0.93,-0.45 -1.2,-1.11 -0.28,-0.65 -0.36,-1.62 -0.22,-3.07 0.14,-1.45 0.49,-3.39 0.77,-4.79 0.28,-1.39 0.48,-2.24 0.99,-2.94 0.51,-0.7 1.34,-1.26 1.93,-1.48 0.58,-0.21 0.92,-0.09 1.26,1.13z"/>
   <path class="fil5" d="M706.09 326.81c2.64,1.09 6.26,3.27 8.76,5.34 2.5,2.07 3.88,4.02 4.68,6.12 0.81,2.09 1.04,4.34 0.55,6.06 -0.49,1.72 -1.7,2.93 -4.97,3.47 -3.28,0.55 -8.62,0.44 -13.3,0.24 -4.68,-0.2 -8.71,-0.49 -11.55,-1.07 -2.84,-0.57 -4.51,-1.43 -5.98,-2.41 -1.46,-0.98 -2.72,-2.07 -2.7,-3.71 0.03,-1.64 1.35,-3.82 3.25,-5.89 1.9,-2.07 4.37,-4.02 7.01,-5.54 2.64,-1.53 5.46,-2.61 7.7,-3.16 2.24,-0.55 3.91,-0.55 6.55,0.55z"/>
   <path class="fil5" d="M704.87 355.07c0.5,1.79 1.02,5.18 1,7.8 -0.01,2.63 -0.55,4.5 -1.35,6.02 -0.79,1.53 -1.82,2.7 -2.65,3.36 -0.84,0.66 -1.47,0.81 -2.13,0.64 -0.66,-0.17 -1.35,-0.66 -1.75,-1.61 -0.4,-0.95 -0.52,-2.36 -0.32,-4.47 0.2,-2.11 0.72,-4.93 1.12,-6.95 0.4,-2.03 0.69,-3.26 1.44,-4.28 0.75,-1.02 1.95,-1.83 2.8,-2.14 0.85,-0.32 1.34,-0.15 1.84,1.63z"/>
   <path class="fil5" d="M720.16 367.66c-0.86,1.26 -3.39,3.45 -4.82,4.6 -1.44,1.14 -1.79,1.26 -2.1,1.1 -0.32,-0.15 -0.6,-0.59 -0.32,-1.58 0.29,-0.99 1.15,-2.54 1.97,-3.65 0.82,-1.1 1.59,-1.76 2.34,-2.09 0.75,-0.33 1.47,-0.33 2.23,-0.16 0.76,0.17 1.56,0.52 0.7,1.78z"/>
   <path class="fil5" d="M687.05 366.28c0.76,0.37 1.83,2.01 2.47,3.3 0.65,1.3 0.88,2.25 0.42,2.73 -0.46,0.49 -1.61,0.52 -2.48,-0.33 -0.88,-0.84 -1.49,-2.57 -1.56,-3.88 -0.07,-1.3 0.39,-2.19 1.15,-1.82z"/>
  </g>
 </g>
</svg>
