<?xml version="1.0" encoding="UTF-8"?>
<!DOCTYPE svg PUBLIC "-//W3C//DTD SVG 1.1//EN" "http://www.w3.org/Graphics/SVG/1.1/DTD/svg11.dtd">
<!-- Creator: CorelDRAW 2020 (64 Bit) -->
<svg xmlns="http://www.w3.org/2000/svg" xml:space="preserve" width="162.56mm" height="42mm" version="1.1" style="shape-rendering:geometricPrecision; text-rendering:geometricPrecision; image-rendering:optimizeQuality; fill-rule:evenodd; clip-rule:evenodd"
viewBox="0 0 16256 4200"
 xmlns:xlink="http://www.w3.org/1999/xlink"
 xmlns:xodm="http://www.corel.com/coreldraw/odm/2003">
 <defs>
  <style type="text/css">
   <![CDATA[
    .str0 {stroke:#000D19;stroke-width:10.19;stroke-linecap:round;stroke-linejoin:round;stroke-miterlimit:22.9256}
    .fil6 {fill:none}
    .fil4 {fill:#000D19}
    .fil5 {fill:#031D31}
    .fil7 {fill:#0D3752}
    .fil8 {fill:#E9C87C}
    .fil0 {fill:url(#id0)}
    .fil1 {fill:url(#id1)}
    .fil3 {fill:url(#id2)}
    .fil2 {fill:url(#id3)}
   ]]>
  </style>
  <linearGradient id="id0" gradientUnits="userSpaceOnUse" x1="2292.69" y1="1408.05" x2="2358.52" y2="3000.13">
   <stop offset="0" style="stop-opacity:1; stop-color:#0D314F"/>
   <stop offset="1" style="stop-opacity:1; stop-color:#1F4B69"/>
  </linearGradient>
  <linearGradient id="id1" gradientUnits="userSpaceOnUse" x1="2005.13" y1="2463.43" x2="1974.61" y2="3164.86">
   <stop offset="0" style="stop-opacity:1; stop-color:#0D314F"/>
   <stop offset="1" style="stop-opacity:1; stop-color:#1D4663"/>
  </linearGradient>
  <linearGradient id="id2" gradientUnits="userSpaceOnUse" x1="16613.69" y1="1568.14" x2="16928.26" y2="3502.16">
   <stop offset="0" style="stop-opacity:1; stop-color:#0D314F"/>
   <stop offset="1" style="stop-opacity:1; stop-color:#2E5C7B"/>
  </linearGradient>
  <linearGradient id="id3" gradientUnits="userSpaceOnUse" x1="15745.13" y1="1250.46" x2="15895.04" y2="2029.3">
   <stop offset="0" style="stop-opacity:1; stop-color:#0D3752"/>
   <stop offset="1" style="stop-opacity:1; stop-color:#1F4B69"/>
  </linearGradient>
 </defs>
 <g id="Camada_x0020_1">
  <metadata id="CorelCorpID_0Corel-Layer"/>
  <g id="_2508243538992">
   <path class="fil0" d="M11862.95 1857.75c-157.11,-84.63 -321.35,-112.24 -520.26,-145.18 -198.92,-32.9 -432.44,-71.13 -692.38,-62.95 -259.94,8.2 -546.37,62.82 -838.27,145.67 -291.97,82.82 -589.37,193.86 -786.77,257.55 -197.4,63.74 -294.74,80.13 -467.11,84.67 -172.37,4.54 -419.77,-2.73 -629.65,0.91 -209.89,3.63 -382.32,18.2 -659.53,69.43 -277.22,51.27 -659.48,-109.89 -958.32,-41.65 -298.84,68.23 -514.46,116.86 -773.9,118.43 -259.44,1.57 -562.76,-43.87 -992.29,-146.71 -429.55,-102.83 -989.53,31.67 -1470.39,-121.23 -480.85,-152.96 -886.75,-298.63 -1214.79,-409.64 -328.03,-111.05 -578.26,-187.54 -795.14,-224.81 -216.82,-37.32 -404.83,-35.55 -577.96,-36.41 -162.43,-0.85 -312.38,-3.83 -486.19,9.76l0 1735.04c346.49,64.6 837.32,103.18 1479.76,120.26 1025.89,27.29 2438.2,0 4192.55,-49.16 1754.34,-49.17 3850.6,-120.13 4975.16,-211.16 1124.63,-91.02 1277.58,-202.11 1394.34,-367.73 116.77,-165.66 197.35,-136.75 162.73,-317.73 -34.61,-180.93 -184.54,-322.74 -341.59,-407.36z"/>
   <path class="fil1" d="M3391.49 2402.44c-69.16,-16.67 -204.22,-59.72 -285.39,-74.09 -81.25,-14.33 -108.54,0 -133.35,1.65 -24.82,1.7 -46.99,-9.37 -70.09,-34.75 -23.11,-25.38 -46.99,-65.14 -76.06,-96.64 -29.07,-31.44 -63.26,-54.62 -108.54,-61.22 -45.36,-6.61 -101.72,3.3 -146.15,20.98 -44.5,17.67 -76.98,43.05 -108.62,52.42 -31.63,9.41 -62.41,2.75 -107.68,-22.64 -45.29,-25.38 -126.38,58.18 -176.85,14.58 -50.4,-43.61 -91.41,-86.68 -137.62,-113.16 -46.13,-26.49 -97.38,-36.45 -145.29,-22.63 -144.67,41.7 -212.2,35.5 -294.93,-37.56 -41.79,-36.94 -82.95,-61.22 -129.09,-70.09 -46.05,-8.81 -97.45,-2.2 -142.73,6.62 -45.28,8.86 -84.59,19.87 -117.92,24.27 -33.35,4.46 -60.63,2.26 -105.13,-2.15 -44.43,-4.41 -105.91,-11.06 -160.65,-7.76 -54.66,3.3 -102.65,16.52 -136.83,0 -34.12,-16.52 -54.59,-62.93 -91.42,-77.85 -36.75,-14.88 -89.7,1.7 -136.76,24.32 -46.99,22.64 -88.08,51.33 -123.98,62.89 -35.88,11.62 -66.59,6.12 -113.65,-2.2 -46.99,-8.26 -115.29,-18.67 -185.46,-11.01 -52.77,5.81 -104.84,19.16 -157.3,32.56l0 1823.63c435.96,5.1 904.86,-6.71 1419.73,-48.69 535.05,-43.55 1119.62,-119.76 1534.17,-179.4 414.56,-59.57 659.01,-102.63 788.1,-205.32 129.09,-102.64 142.74,-264.97 112.89,-394.69 -29.93,-129.67 -103.5,-226.86 -175.38,-322.24 -71.94,-95.32 -142.27,-188.85 -179.01,-230.81 -36.75,-41.95 -39.93,-32.29 -109.01,-49.02z"/>
   <path class="fil2" d="M16256 905.27c-170.18,-23.73 -410.25,-38.84 -640.47,-19.57 -247.3,20.7 -483.22,81.13 -686.17,156.19 -202.95,75.07 -372.88,164.85 -502.26,221.8 -129.37,56.94 -218.19,81.14 -345.04,91.46 -126.78,10.38 -291.72,6.9 -483.21,11.2 -191.51,4.34 -409.7,16.4 -690.03,84.58 -280.27,68.17 -664.36,67.9 -934.51,171.46 -950.5,364.38 -1409.9,595.01 -2499.21,907.34 -418.79,120.12 -802.37,220.54 -1378.21,374.12 -575.84,153.62 -1343.97,360.46 -1867.58,598.46 -523.6,238.04 -761.06,706.6 -376.45,666.05 384.62,-40.5 1557.52,-203.9 2668.63,-184.92 1111.06,18.97 2131.28,291.69 3561.03,150.52 1409.85,-139.21 3206.15,-276.8 4173.48,-627.9l0 -2600.79z"/>
   <path class="fil3" d="M16256 1577.26c-13.27,-3.68 -23.95,-7.29 -33.98,-10.69 -40.29,-13.72 -70.36,-24.09 -96.33,-26.96 -25.98,-2.83 -47.8,1.93 -107.3,18.9 -59.45,17.01 -156.46,46.32 -213.92,77.95 -57.39,31.66 -75.13,65.69 -94.28,84.11 -19.15,18.43 -39.61,21.26 -49.9,4.72 -10.23,-16.55 -10.23,-52.41 -33.47,-56.69 -23.25,-4.25 -69.68,23.18 -126.4,51.97 -56.71,28.85 -123.72,59.05 -172.26,62.83 -48.47,3.81 -78.54,-18.9 -101.1,-24.09 -22.56,-5.18 -37.56,7.07 -69.73,27.39 -32.11,20.31 -81.26,48.67 -127.07,63.76 -45.82,15.13 -88.15,17.05 -127.14,34.54 -38.93,17.48 -74.51,50.52 -112.76,51.93 -38.24,1.42 -79.27,-28.79 -110.02,-52.45 -30.75,-23.6 -51.2,-40.62 -73.08,-39.2 -21.88,1.41 -45.13,21.29 -67.02,22.23 -21.87,0.95 -42.33,-17 -60.8,-17.95 -18.47,-0.94 -34.83,15.09 -49.21,29.26 -14.32,14.19 -26.66,26.45 -52.64,16.51 -25.9,-9.91 -65.57,-42 -92.92,-59.96 -27.33,-17.94 -42.33,-21.73 -79.95,3.78 -37.57,25.54 -97.76,80.3 -141.52,130.36 -43.7,50.08 -71.04,95.47 -86.1,86.47 -15,-8.96 -17.73,-72.3 -28.7,-108.67 -10.91,-36.35 -30.01,-45.81 -70.36,-25.98 -40.28,19.89 -101.84,69 -149.01,113.86 -47.11,44.91 -79.9,85.53 -100.42,108.21 -20.46,22.67 -28.7,27.42 -67.69,26.48 -38.93,-0.94 -108.6,-7.58 -150.32,-12.77 -41.65,-5.19 -55.35,-9 -87.46,10.37 -32.11,19.37 -82.63,61.92 -120.26,80.82 -37.56,18.9 -62.17,14.14 -86.78,6.55 -24.61,-7.54 -49.21,-17.9 -75.87,-16.96 -26.66,0.94 -55.36,13.19 -92.3,30.68 -36.88,17.48 -81.95,40.19 -137.29,50.56 -55.36,10.42 -121.01,8.49 -172.95,11.31 -51.89,2.88 -90.2,10.42 -116.84,23.66 -26.66,13.25 -41.66,32.14 -77.24,37.33 -35.52,5.18 -91.56,-3.31 -146.23,8 -54.68,11.37 -107.92,42.52 -312.97,115.75 -204.99,73.24 -561.72,188.51 -865.15,261.74 -303.42,73.24 -553.54,104.39 -744.9,137.47 -191.35,33.08 -323.88,68.01 -487.9,129.89 -164.01,61.92 -359.46,150.7 -515.29,240.48 -155.78,89.78 -272,180.5 -255.01,392.61 16.98,212.17 -434.78,-23.17 -143.75,256.52 291.02,279.69 555.65,138.88 1337.18,199.26 781.46,60.38 2593.77,-46.19 3546.2,-23.48 932.75,22.24 1756.68,69.91 2400.21,-4.49l0 -2527.92z"/>
   <path class="fil4" d="M16256 3910.77c-73.2,-22.37 -118.06,-38.47 -168.95,-52.1 -59.65,-16.02 -125.64,-25.38 -162.16,-29.79 -36.52,-4.4 -49.9,-5.56 -42.55,-19.88 7.29,-14.36 35.25,-41.95 32.61,-57.43 -2.66,-15.41 -35.92,-18.71 -70.45,-17.62 -34.54,1.05 -70.44,6.61 -106.97,19.33 -36.52,12.67 -73.76,32.49 -99.01,43.56 -25.25,11.02 -38.57,13.32 -48.51,14.42 -9.94,1.05 -16.57,1.05 -15.24,-14.37 1.32,-15.48 10.66,-46.42 35.85,-79.51 25.25,-33.14 66.47,-68.45 88.34,-92.73 21.88,-24.32 24.59,-37.55 13.99,-43.6 -10.67,-6.11 -34.53,-5.01 -63.76,4.9 -29.23,9.97 -63.82,28.74 -97.69,56.33 -33.87,27.63 -67.13,64.03 -96.35,89.47 -29.23,25.38 -54.42,39.7 -84.98,46.92 -30.55,7.15 -66.46,7.2 -91.71,7.2 -25.26,0 -39.84,-0.05 -34.53,-27.08 5.3,-27.09 30.55,-81.16 39.16,-184.91 8.69,-103.78 0.67,-257.24 -3.31,-333.95 -3.98,-76.75 -4.04,-76.7 35.2,-75.6 39.22,1.05 117.63,3.3 199.34,-7.76 81.72,-11.02 166.74,-35.35 217.91,-77.81 51.16,-42.5 68.34,-103.23 21.87,-177.74 -46.46,-74.54 -156.73,-162.82 -249.79,-227.96 -92.98,-65.08 -168.73,-107.04 -243.81,-125.26 -75.09,-18.23 -149.46,-12.72 -239.18,19.82 -89.67,32.6 -194.59,92.22 -276.3,155.71 -81.72,63.44 -140.23,130.77 -172.78,182.1 -32.54,51.31 -39.17,86.72 -38.5,114.85 0.66,28.14 8.61,49.12 71.71,70.6 63.09,21.53 181.33,43.66 258.82,58.78 77.44,15.12 114.21,23.28 132.58,27.39 18.31,4.05 18.38,4.05 13.98,65.63 -4.4,61.59 -13.32,184.86 -34.95,272.87 -21.64,88.08 -56.17,141.1 -81.42,177 -25.24,35.85 -41.22,54.62 -50.49,58.53 -9.28,3.85 -11.94,-7.22 -43.16,-31.49 -31.21,-24.34 -91.05,-61.79 -128.29,-81.11 -37.19,-19.33 -51.77,-20.49 -56.46,-8.37 -4.65,12.17 0.72,37.66 8.67,61.89 7.96,24.27 18.56,47.51 9.29,49.71 -9.29,2.2 -38.52,-16.62 -82.38,-28.74 -43.82,-12.16 -102.27,-17.72 -156.09,-22.13 -53.8,-4.4 -102.98,-7.71 -131.54,-9.31 -28.57,-1.65 -36.59,-1.7 -46.53,-26.48 -9.95,-24.84 -21.94,-74.56 -1.32,-104.89 20.6,-30.35 73.69,-41.47 117.57,-62.94 43.8,-21.53 78.46,-53.58 90.38,-81.71 11.94,-28.14 1.27,-52.42 -36.57,-85.52 -37.85,-33.15 -102.99,-75.1 -162.77,-97.68 -59.77,-22.63 -114.25,-25.99 -171.38,-18.78 -57.14,7.16 -116.92,24.79 -172.05,55.73 -55.14,30.89 -105.7,75.05 -138.25,110.4 -32.53,35.3 -47.12,61.83 -43.8,90.53 3.31,28.63 24.59,59.57 67.73,77.2 43.21,17.67 108.29,22.17 158.12,24.93 49.79,2.76 84.44,3.81 103,10.42 18.56,6.66 21.27,18.82 22.59,40.35 1.33,21.52 1.27,52.42 -12.65,67.89 -13.99,15.42 -41.83,15.42 -115.58,0 -73.71,-15.42 -281.97,93.43 -370.32,89.33 -902.3,-41.91 -206.09,165.17 -1348.72,-88.78 -131.5,-29.19 -256.06,21.98 -305.89,-0.1 -49.84,-22.08 -49.84,-55.18 -62.5,-77.25 -12.59,-22.09 -37.83,-33.15 -79.05,-28.19 -41.16,5.01 -98.3,25.99 -134.21,42.51 -35.85,16.57 -50.44,28.73 -55.14,6.1 -4.64,-22.62 0.72,-80.06 -10.6,-113.75 -11.27,-33.65 -39.17,-43.56 -61.11,-40.26 -21.94,3.31 -37.84,19.88 -55.14,45.27 -17.29,25.38 -35.86,59.62 -48.51,72.29 -12.6,12.72 -19.29,3.86 -49.18,-22.07 -29.89,-25.94 -82.98,-69 -128.84,-91.08 -45.86,-22.08 -84.36,-23.18 -102.98,-13.26 -18.62,9.96 -17.24,30.94 -30.56,39.75 -13.26,8.85 -41.22,5.5 -225.92,-74 -184.64,-79.46 -526.15,-235.07 -836.38,-360.39 -310.22,-125.27 -589.3,-220.25 -786.6,-273.22 -197.3,-52.98 -312.94,-64.04 -428.52,-104.9 -115.59,-40.8 -231.17,-111.45 -364.04,-163.37 -132.89,-51.86 -283,-84.97 -399.24,-109.85 -116.31,-24.83 -198.68,-41.35 -256.48,-68.99 -57.79,-27.59 -91.05,-66.19 -132.21,-86.61 -41.22,-20.44 -90.34,-22.64 -141.5,-27.05 -51.16,-4.4 -104.31,-11.06 -138.18,-28.73 -33.93,-17.62 -48.51,-46.37 -79.07,-58.53 -30.61,-12.12 -77.07,-7.66 -123.59,-13.22 -46.52,-5.51 -92.99,-20.93 -127.52,-24.84 -34.58,-3.85 -57.12,3.91 -99.61,-3.85 -42.55,-7.71 -105.03,-30.89 -187.41,-56.83 -82.38,-25.93 -184.65,-54.67 -291.62,-63.54 -106.95,-8.8 -218.63,2.26 -307.63,0.56 -89.01,-1.65 -155.48,-15.97 -203.27,-18.73 -47.85,-2.76 -77.08,6.06 -137.51,-10.51 -8.26,-2.26 -551.16,-68.9 -560.8,-68.7 -399,8.16 -839.52,32.75 -969.5,-20.18 -74.36,-30.23 -131.62,-49.06 -177.41,-49.06 -45.86,0 -80.39,18.68 -136.2,23.13 -55.8,4.41 -132.87,-5.51 -190,-11.57 -57.13,-6.05 -94.37,-8.26 -124.26,3.86 -29.89,12.12 -52.43,38.65 -102.27,66.8 -49.83,28.13 -83.34,47.51 -227.12,-10.32 -143.85,-57.88 -364.83,89.17 -489.7,79.8 -124.91,-9.36 -535.79,-23.67 -595.57,-21.47 -59.84,2.2 -123.6,20.98 -161.43,43.05 -37.91,22.09 -49.91,47.47 -84.43,62.89 -34.53,15.42 -91.66,21.03 -130.84,36.45 -39.16,15.47 -60.43,40.85 -87.68,49.11 -27.23,8.31 -60.49,-0.54 -88.4,-2.74 -27.9,-2.21 -50.5,2.25 -81.72,20.42 -31.21,18.17 -71.11,50.27 -144.8,80.61 -73.7,30.34 -181.39,59.08 -273.71,93.83 -92.39,34.74 -169.41,75.6 -220.57,97.68 -51.16,22.08 -76.41,25.38 -104.97,20.98 -28.56,-4.41 -60.51,-16.53 -97.68,-7.71 -37.19,8.81 -79.67,38.66 -103.6,59.57 -23.92,20.98 -29.29,33.16 -48.5,36.46 -19.23,3.31 -52.56,-2.21 -85.1,3.85 -32.54,6.11 -64.42,23.74 -96.96,51.88 -32.54,28.13 -65.74,66.79 -138.18,107.64 -54.67,30.84 -216.6,12.24 -292.05,63.81l0 1443.19 16256 0.05 0 -297.43z"/>
   <path class="fil5" d="M8294.07 3229.67c50.77,20.98 120.31,62.89 168.33,102.64 48.01,39.75 74.54,77.25 89.97,117.56 15.47,40.31 19.88,83.36 10.46,116.45 -9.35,33.15 -32.54,56.33 -95.47,66.79 -62.94,10.52 -165.58,8.31 -255.56,4.46 -89.97,-3.86 -167.27,-9.41 -221.9,-20.48 -54.62,-11.01 -86.67,-27.54 -114.8,-46.31 -28.14,-18.78 -52.42,-39.75 -51.87,-71.25 0.55,-31.44 25.93,-73.4 62.38,-113.15 36.41,-39.75 83.87,-77.25 134.69,-106.54 50.77,-29.24 104.84,-50.17 147.9,-60.68 43.06,-10.47 75.1,-10.47 125.87,10.51z"/>
   <path class="fil5" d="M8270.64 3772.81c9.66,34.25 19.57,99.39 19.28,149.85 -0.26,50.51 -10.73,86.41 -25.94,115.65 -15.17,29.24 -35.05,51.88 -51.07,64.54 -15.97,12.72 -28.14,15.52 -40.86,12.22 -12.67,-3.31 -25.88,-12.71 -33.65,-30.95 -7.7,-18.17 -9.91,-45.25 -6.05,-85.81 3.85,-40.55 13.82,-94.68 21.53,-133.58 7.71,-38.9 13.27,-62.63 27.59,-82.26 14.36,-19.57 37.55,-35.05 53.82,-41.16 16.27,-6.05 25.68,-2.7 35.35,31.5z"/>
   <path class="fil5" d="M8564.43 4014.64c-16.52,24.28 -65.13,66.18 -92.72,88.27 -27.58,22.07 -34.24,24.33 -40.3,21.27 -6.07,-3 -11.57,-11.31 -6.07,-30.34 5.57,-19.02 22.09,-48.87 37.81,-70.14 15.77,-21.24 30.64,-33.9 45.01,-40.26 14.37,-6.35 28.14,-6.35 42.76,-3.05 14.67,3.3 30.09,9.96 13.51,34.25z"/>
   <path class="fil5" d="M7928.32 3988.1c14.62,7.16 35,38.65 47.41,63.48 12.42,24.84 16.88,43.06 8.07,52.43 -8.87,9.41 -30.94,9.96 -47.77,-6.31 -16.82,-16.27 -28.44,-49.42 -29.79,-74.56 -1.4,-25.07 7.46,-42.2 22.08,-35.04z"/>
   <path class="fil5" d="M1112.42 3292.28c32.89,13.6 77.95,40.75 109.06,66.5 31.1,25.76 48.3,50.05 58.29,76.17 10.02,26.11 12.88,54 6.78,75.45 -6.06,21.47 -21.09,36.48 -61.86,43.26 -40.77,6.81 -107.27,5.39 -165.56,2.89 -58.29,-2.49 -108.38,-6.1 -143.76,-13.27 -35.39,-7.13 -56.15,-17.83 -74.38,-30 -18.24,-12.16 -33.97,-25.75 -33.61,-46.15 0.36,-20.37 16.8,-47.56 40.42,-73.31 23.58,-25.76 54.33,-50.06 87.25,-69.03 32.9,-18.95 67.93,-32.51 95.82,-39.32 27.91,-6.78 48.66,-6.78 81.55,6.81z"/>
   <path class="fil5" d="M1097.24 3644.16c6.26,22.2 12.69,64.39 12.5,97.09 -0.17,32.73 -6.95,55.98 -16.81,74.93 -9.83,18.94 -22.71,33.61 -33.09,41.82 -10.35,8.24 -18.22,10.05 -26.46,7.91 -8.21,-2.15 -16.78,-8.24 -21.8,-20.05 -5,-11.77 -6.43,-29.32 -3.93,-55.6 2.5,-26.27 8.95,-61.34 13.95,-86.54 5,-25.2 8.59,-40.58 17.87,-53.3 9.31,-12.67 24.33,-22.7 34.87,-26.66 10.54,-3.92 16.65,-1.74 22.9,20.4z"/>
   <path class="fil5" d="M1480.45 3821.31c-10.7,15.73 -42.19,42.88 -60.07,57.18 -17.87,14.31 -22.18,15.77 -26.11,13.79 -3.92,-1.94 -7.5,-7.33 -3.92,-19.66 3.6,-12.32 14.3,-31.66 24.49,-45.45 10.22,-13.75 19.85,-21.95 29.16,-26.07 9.31,-4.12 18.23,-4.12 27.7,-1.98 9.5,2.14 19.5,6.46 8.75,22.19z"/>
   <path class="fil5" d="M875.47 3783.64c9.47,4.65 22.67,25.05 30.72,41.13 8.05,16.1 10.92,27.9 5.22,33.97 -5.74,6.1 -20.05,6.45 -30.94,-4.09 -10.9,-10.54 -18.43,-32.02 -19.3,-48.29 -0.91,-16.26 4.83,-27.35 14.3,-22.72z"/>
   <path class="fil5" d="M1366.9 3764.96c-10.71,15.73 -42.2,42.89 -60.08,57.19 -17.87,14.31 -22.19,15.77 -26.11,13.78 -3.92,-1.94 -7.49,-7.33 -3.92,-19.65 3.59,-12.33 14.3,-31.66 24.48,-45.45 10.22,-13.75 19.86,-21.96 29.16,-26.08 9.32,-4.11 18.24,-4.11 27.71,-1.97 9.5,2.14 19.49,6.45 8.76,22.18z"/>
   <path class="fil5" d="M748.47 3835.41c9.48,4.65 22.68,25.05 30.72,41.13 8.05,16.1 10.94,27.91 5.22,33.97 -5.73,6.1 -20.03,6.45 -30.94,-4.09 -10.9,-10.54 -18.43,-32.02 -19.3,-48.29 -0.91,-16.26 4.84,-27.35 14.3,-22.72z"/>
   <path class="fil5" d="M4768.92 3146.41c29.23,12.08 69.28,36.21 96.94,59.11 27.65,22.88 42.92,44.48 51.8,67.69 8.91,23.21 11.45,48 6.03,67.06 -5.39,19.09 -18.74,32.44 -54.98,38.46 -36.25,6.06 -95.35,4.79 -147.16,2.57 -51.81,-2.22 -96.32,-5.42 -127.78,-11.8 -31.45,-6.34 -49.91,-15.85 -66.11,-26.66 -16.2,-10.82 -30.19,-22.9 -29.87,-41.03 0.32,-18.11 14.93,-42.26 35.92,-65.16 20.96,-22.89 48.3,-44.48 77.56,-61.35 29.24,-16.84 60.38,-28.89 85.17,-34.94 24.8,-6.03 43.24,-6.03 72.48,6.05z"/>
   <path class="fil5" d="M4755.42 3459.17c5.57,19.72 11.28,57.24 11.11,86.29 -0.15,29.09 -6.17,49.77 -14.94,66.6 -8.73,16.85 -20.18,29.87 -29.4,37.17 -9.2,7.33 -16.21,8.94 -23.53,7.03 -7.29,-1.9 -14.9,-7.32 -19.37,-17.82 -4.44,-10.45 -5.72,-26.05 -3.5,-49.41 2.23,-23.36 7.97,-54.52 12.41,-76.92 4.44,-22.4 7.64,-36.07 15.88,-47.37 8.28,-11.27 21.63,-20.18 30.99,-23.7 9.38,-3.49 14.79,-1.56 20.35,18.13z"/>
   <g>
    <g>
     <g>
      <path class="fil6 str0" d="M3395.71 629.04c-38.5,-14.97 -65.32,-43.79 -90.72,-68.38 -15.53,-15.03 -11.61,-7.85 -30.44,-32.82 -33.47,-44.45 -59.82,-91.31 -78.46,-145.96 -6.51,-19.09 -31,-97.64 -24.11,-118.01 29.78,79.99 43.61,124.87 91.65,202.26 20.8,33.5 37.15,56.14 59.43,85.84 30.09,40.13 66.24,67.94 72.65,77.07z"/>
      <path id="1" class="fil7" d="M3395.71 629.04c-38.5,-14.97 -65.32,-43.79 -90.72,-68.38 -15.53,-15.03 -11.61,-7.85 -30.44,-32.82 -33.47,-44.45 -59.82,-91.31 -78.46,-145.96 -6.51,-19.09 -31,-97.64 -24.11,-118.01 29.78,79.99 43.61,124.87 91.65,202.26 20.8,33.5 37.15,56.14 59.43,85.84 30.09,40.13 66.24,67.94 72.65,77.07z"/>
     </g>
     <g>
      <path class="fil6 str0" d="M2467.54 616.33l0.05 2.96c-2.45,7.85 -3.97,5.73 -8.22,13.48 -11.11,20.26 -11.35,58.9 -7.64,81.88 5.72,35.39 15.85,68.13 26.88,97.84 33.87,91.34 76.68,131.2 90.17,161.03 -12.51,-5.53 -25.21,-23.92 -34.53,-35.51 -27.24,-33.94 -62.32,-90.65 -78.86,-130.18 -13.37,-31.95 -26.66,-65.35 -31.62,-105.24 -7.87,-63.18 24.08,-94.3 43.77,-86.26z"/>
      <path id="1" class="fil7" d="M2467.54 616.33l0.05 2.96c-2.45,7.85 -3.97,5.73 -8.22,13.48 -11.11,20.26 -11.35,58.9 -7.64,81.88 5.72,35.39 15.85,68.13 26.88,97.84 33.87,91.34 76.68,131.2 90.17,161.03 -12.51,-5.53 -25.21,-23.92 -34.53,-35.51 -27.24,-33.94 -62.32,-90.65 -78.86,-130.18 -13.37,-31.95 -26.66,-65.35 -31.62,-105.24 -7.87,-63.18 24.08,-94.3 43.77,-86.26z"/>
     </g>
     <g>
      <path class="fil6 str0" d="M2129.54 1108.35l-15.77 -13.61c-32.08,-38.82 -62.18,-116.34 -30.86,-153.58 1.78,1.78 5.71,-3.37 4.98,18.58 -0.31,9.32 -0.22,15.3 0.61,24.58 1.44,16.05 4.88,30.54 8.45,45.95 8.38,36.04 19.33,51.37 32.59,78.08z"/>
      <path id="1" class="fil7" d="M2129.54 1108.35l-15.77 -13.61c-32.08,-38.82 -62.18,-116.34 -30.86,-153.58 1.78,1.78 5.71,-3.37 4.98,18.58 -0.31,9.32 -0.22,15.3 0.61,24.58 1.44,16.05 4.88,30.54 8.45,45.95 8.38,36.04 19.33,51.37 32.59,78.08z"/>
     </g>
     <path class="fil4" d="M2775.23 2001.13l0.64 -564.57c-9.36,9.65 -33.56,58 -42.33,73.44l-293.07 521.31c51.76,-0.57 110.44,-6.01 163.29,-8.56 52.42,-2.54 122.14,1.45 171.74,-4.44l-0.27 -17.18zm461.1 30.9c-51.55,-97.31 -118.65,-209.56 -173.94,-307.74l-129.84 -230.65c-11.18,-20.76 -31.38,-60.08 -43.65,-76.42l-0.26 601.85c116.28,1.37 232.68,5.06 347.69,12.96zm90.61 8.89l18.34 0.07c-8.19,-19.12 -29.9,-57.61 -42.21,-78.77 -15.87,-27.29 -28.46,-53.22 -44.14,-79.87l-173.49 -320.18c-17.58,-29.97 -74.89,-144.51 -88.13,-160.36l-22.62 -0.12 263.2 480.07c24.11,44.91 70.67,120 89.05,159.16zm-504.39 -758.08c24.27,21.3 107.14,15.91 147.74,15.98 16.64,0.02 43.47,5.03 43.17,-12.16 -0.46,-25.29 -74.07,-14.29 -94.52,-13.7 -21.55,0.61 -81.77,-1.75 -96.39,9.88zm52.57 -147.42c63.57,-17.57 70.92,-97.47 25.75,-136.94 -7.95,-6.94 -11.74,-8.4 -22.3,-8.02 14.9,21.79 24.63,38.11 24.87,74.81 0.29,43.48 -15.94,52.36 -28.32,70.15zm-792.21 -194.26c-31.32,37.24 -1.22,114.76 30.86,153.58l15.77 13.61c-13.26,-26.71 -24.21,-42.04 -32.59,-78.08 -3.57,-15.41 -7.01,-29.9 -8.45,-45.95 -0.83,-9.28 -0.92,-15.26 -0.61,-24.58 0.73,-21.95 -3.2,-16.8 -4.98,-18.58zm376.46 -308.39c4.25,-7.75 5.77,-5.63 8.22,-13.48l-0.05 -2.96c-19.69,-8.04 -51.64,23.08 -43.77,86.26 4.96,39.89 18.25,73.29 31.62,105.24 16.54,39.53 51.62,96.24 78.86,130.18 9.32,11.59 22.02,29.98 34.53,35.51 -13.49,-29.83 -56.3,-69.69 -90.17,-161.03 -11.03,-29.71 -21.16,-62.45 -26.88,-97.84 -3.71,-22.98 -3.47,-61.62 7.64,-81.88zm936.34 -3.73c-6.41,-9.13 -42.56,-36.94 -72.65,-77.07 -22.28,-29.7 -38.63,-52.34 -59.43,-85.84 -48.04,-77.39 -61.87,-122.27 -91.65,-202.26 -6.89,20.37 17.6,98.92 24.11,118.01 18.64,54.65 44.99,101.51 78.46,145.96 18.83,24.97 14.91,17.79 30.44,32.82 25.4,24.59 52.22,53.41 90.72,68.38zm36.16 -604.67c-36.94,-8.59 -60.09,16.67 -66.86,45.84 -19.05,82.12 35.74,196.62 72.32,261.35 41.65,73.71 144.34,205.74 230.59,224.16 82.32,17.59 75.79,-86.09 61.52,-146.31 -18.03,-76.02 -68.16,-167.73 -113.69,-228.65 -32.18,-43.06 -66.44,-85.14 -110.48,-117.04 -21.42,-15.51 -41.97,-32.04 -73.4,-39.35zm-268.69 188.9c6.45,-68.97 16,-72.83 61.9,-101.73 32.33,-20.35 67.82,-40.1 100.82,-59.63 41.15,-24.35 71.4,-51.34 114.03,-40.97 90.51,22.02 198.25,163.45 241.83,242.96 29.13,53.15 84.74,162.47 74.9,244.02 -6.7,55.52 -35.06,68.41 -73.59,89.9 -35.33,19.7 -68.24,37.97 -103.11,57.41 -42.44,23.65 -61.48,39.61 -119.25,23.37 -14.8,-4.17 -30.17,10.15 -52.65,22.72l-360.54 202.84c-17.1,9.37 -35.17,20.29 -52.54,29.3 -17.94,9.32 -35.28,17.78 -52.35,28.28 8,17.5 18.66,31.32 24.58,53 11.81,43.22 9.95,90.81 -17.46,127.88 -45.06,60.95 -39.84,-14.92 -40.13,123.42 35.22,-0.16 103.18,-11.08 117.03,19.52 5.12,11.32 12.14,90.72 -10.58,116.81 59.42,105.62 113.47,218.33 173.51,325.86 29.38,52.62 59.43,108.64 86.07,162.44 27.03,54.58 59.24,107.29 85.79,162.4 42.6,2.54 88.69,8.94 130.26,14.89 20.86,2.99 41.19,6.25 62.04,10.8 24.42,5.33 45.71,7.63 49.59,23.22 -16.39,24.16 -130.42,33.81 -170.15,38.51 -333.45,39.52 -845.24,33.78 -1181.07,-1.45 -27.4,-2.87 -156.11,-12.93 -165.3,-39.97 19.93,-24.75 156.6,-36.83 202.65,-41.78 42.26,-4.53 30.65,2.57 49.07,-29.7 39.17,-68.66 73.73,-138.81 112.39,-208.77 76.26,-138.05 150.66,-276.85 225.42,-416.45 -14.44,-20.13 -15.66,-17.17 -15.52,-51.47 0.07,-16.52 -2.83,-50.74 2.82,-64.24 14.15,-33.85 70.75,-16.62 111.64,-21.57 -0.21,-126.04 6.16,-80.23 -21.73,-112.28 -34.9,-40.11 -32.46,-67.41 -39.93,-82.03 -57.79,29.85 -78.99,53.78 -127.07,37.12 -32.55,-11.28 -86.06,-51.21 -100.47,-75.11 -19.5,3.49 -46.22,17.65 -65.6,25.65 -21.47,8.87 -40.9,17.35 -61.76,26.14 -23.25,9.79 -138.82,52.84 -151.25,69.77 -16.78,22.85 -74,44.18 -84.39,43.59 -74.19,-4.18 -148.25,-180.52 -106.34,-219.19 9.5,-8.77 42.25,-25.04 55.38,-32.47 55.49,-31.37 33.37,4.5 62.18,-13.24l220.71 -130.82c-2.86,-32.27 -29.91,-112.25 20.1,-140.46 31.14,-17.56 82.05,-56.26 117.98,-54.22 16.08,0.9 96.55,-51.9 112.19,-60.8 37.37,-21.28 73.54,-43.09 111.27,-64.5l446.63 -258.97z"/>
     <path class="fil7" d="M3448.15 86.39c25.41,6.92 39.9,18.57 57.16,32.03 5.83,4.56 6.92,4.59 11.64,9.67 4.75,5.14 4.72,6.14 9.82,11.11 68.07,66.43 123.68,149.31 152.98,243.52 55.63,178.87 -65.64,120.12 -147.92,15.06 -7.65,-9.76 -11.98,-15.74 -19.85,-25.48 -31.94,-39.48 -75.07,-123.63 -90.77,-172.54 -10.52,-32.79 -35.23,-130.29 26.94,-113.37z"/>
     <path class="fil8" d="M3448.15 86.39c-62.17,-16.92 -37.46,80.58 -26.94,113.37 15.7,48.91 58.83,133.06 90.77,172.54 7.87,9.74 12.2,15.72 19.85,25.48 82.28,105.06 203.55,163.81 147.92,-15.06 -29.3,-94.21 -84.91,-177.09 -152.98,-243.52 -5.1,-4.97 -5.07,-5.97 -9.82,-11.11 -4.72,-5.08 -5.81,-5.11 -11.64,-9.67 -17.26,-13.46 -31.75,-25.11 -57.16,-32.03zm-16.28 -62.02c31.43,7.31 51.98,23.84 73.4,39.35 44.04,31.9 78.3,73.98 110.48,117.04 45.53,60.92 95.66,152.63 113.69,228.65 14.27,60.22 20.8,163.9 -61.52,146.31 -86.25,-18.42 -188.94,-150.45 -230.59,-224.16 -36.58,-64.73 -91.37,-179.23 -72.32,-261.35 6.77,-29.17 29.92,-54.43 66.86,-45.84z"/>
     <path class="fil8" d="M3326.94 2040.92c-18.38,-39.16 -64.94,-114.25 -89.05,-159.16l-263.2 -480.07 22.62 0.12c13.24,15.85 70.55,130.39 88.13,160.36l173.49 320.18c15.68,26.65 28.27,52.58 44.14,79.87 12.31,21.16 34.02,59.65 42.21,78.77l-18.34 -0.07z"/>
     <path class="fil8" d="M2822.55 1282.84c14.62,-11.63 74.84,-9.27 96.39,-9.88 20.45,-0.59 94.06,-11.59 94.52,13.7 0.3,17.19 -26.53,12.18 -43.17,12.16 -40.6,-0.07 -123.47,5.32 -147.74,-15.98z"/>
     <path class="fil8" d="M2875.12 1135.42c12.38,-17.79 28.61,-26.67 28.32,-70.15 -0.24,-36.7 -9.97,-53.02 -24.87,-74.81 10.56,-0.38 14.35,1.08 22.3,8.02 45.17,39.47 37.82,119.37 -25.75,136.94z"/>
     <path class="fil4" d="M3445.68 87.51c14.21,3.31 35.79,13.2 58.6,29.72 22.81,16.52 46.86,39.67 68.32,65.29 21.47,25.62 40.35,53.72 57.32,80.02 16.97,26.29 32.03,50.79 43.04,75.06 11.01,24.27 17.97,48.33 21.68,70.02 3.71,21.68 4.17,41.01 3.15,54.49 -1.01,13.49 -3.48,21.13 -8.06,25.92 -4.59,4.77 -11.28,6.68 -15.56,6.57 -4.27,-0.12 -6.11,-2.25 -6.02,-9.04 0.09,-6.82 2.11,-18.28 -0.14,-38.84 -2.25,-20.57 -8.76,-50.23 -17.42,-76.3 -8.65,-26.07 -19.43,-48.55 -31.46,-69.68 -12.03,-21.12 -25.29,-40.91 -42.15,-64.46 -16.85,-23.58 -37.32,-50.93 -63.16,-72.62 -25.85,-21.69 -57.08,-37.71 -73.38,-47.61 -16.29,-9.89 -17.65,-13.64 -18.93,-16.84 -1.29,-3.19 -2.52,-5.83 0.29,-8.79 2.82,-2.95 9.66,-6.22 23.88,-2.91z"/>
     <path class="fil8" d="M3013.86 1290.02c2.7,16.63 -2,55.39 -5.14,76.91 -3.16,21.53 -4.73,25.8 -8.44,26.92 -3.71,1.13 -9.55,-0.9 -11.35,-12.59 -1.79,-11.68 0.46,-33.04 0.69,-48.29 0.23,-15.25 -1.55,-24.39 -1.66,-31.47 -0.11,-7.08 1.44,-12.09 7.27,-17.35 5.83,-5.26 15.94,-10.76 18.63,5.87z"/>
    </g>
    <path class="fil4" d="M2534.95 624.89c2.25,-6.64 4.36,-12.61 4.45,-33.46 0.1,-20.84 -1.79,-56.54 -3.89,-79.75 -2.09,-23.21 -4.38,-33.9 -6.66,-44.61 -23.83,1.75 -47.67,3.53 -65.26,3.76 -17.57,0.24 -28.92,-1.03 -36.22,-6 -7.3,-4.96 -10.59,-13.57 -10.39,-25.41 0.18,-11.82 3.84,-26.83 11.23,-45.78 7.4,-18.95 18.53,-41.84 30.42,-59.08 11.92,-17.23 24.61,-28.85 40.01,-35.31 15.39,-6.48 33.5,-7.85 55.97,-2.05 22.46,5.82 49.28,18.77 69.56,28.45 20.29,9.7 34.04,16.14 43.01,27.54 8.97,11.4 13.15,27.76 10.26,39.52 -2.88,11.77 -12.86,18.94 -22.97,25.4 -10.11,6.46 -20.35,12.23 -33.23,18.54 -12.88,6.32 -28.38,13.17 -43.87,20.03 5.28,8 10.56,15.97 16.4,30.51 5.83,14.54 12.22,35.62 18.2,56.57 5.99,20.94 11.54,41.73 11.83,56.54 0.3,14.82 -4.7,23.64 -10.91,29.89 -6.19,6.25 -13.61,9.95 -27.97,12.18 -14.36,2.23 -35.69,3.01 -45.15,-0.26 -9.45,-3.27 -7.06,-10.58 -4.82,-17.22z"/>
   </g>
   <path class="fil5" d="M6185.03 2137.11c23.46,9.69 55.6,29.06 77.79,47.43 22.18,18.37 34.45,35.7 41.57,54.32 7.15,18.63 9.18,38.53 4.84,53.82 -4.33,15.31 -15.05,26.03 -44.12,30.86 -29.08,4.87 -76.51,3.84 -118.09,2.06 -41.57,-1.77 -77.3,-4.35 -102.55,-9.46 -25.24,-5.09 -40.04,-12.73 -53.05,-21.4 -13,-8.68 -24.22,-18.37 -23.97,-32.92 0.26,-14.54 11.99,-33.93 28.83,-52.29 16.82,-18.38 38.76,-35.71 62.24,-49.24 23.46,-13.51 48.45,-23.18 68.34,-28.04 19.91,-4.84 34.71,-4.84 58.17,4.86z"/>
   <path class="fil5" d="M6174.2 2388.09c4.46,15.83 9.04,45.93 8.91,69.26 -0.12,23.34 -4.95,39.93 -11.99,53.44 -7,13.51 -16.19,23.97 -23.59,29.82 -7.38,5.88 -13.01,7.18 -18.88,5.64 -5.85,-1.52 -11.96,-5.87 -15.55,-14.3 -3.56,-8.39 -4.58,-20.91 -2.8,-39.65 1.78,-18.74 6.39,-43.75 9.94,-61.73 3.57,-17.97 6.13,-28.94 12.75,-38.01 6.64,-9.05 17.35,-16.19 24.88,-19.02 7.52,-2.8 11.86,-1.25 16.33,14.55z"/>
   <path class="fil5" d="M6309.97 2499.85c-7.64,11.21 -30.11,30.58 -42.85,40.78 -12.75,10.21 -15.83,11.25 -18.62,9.84 -2.8,-1.39 -5.35,-5.23 -2.8,-14.03 2.56,-8.78 10.19,-22.58 17.46,-32.41 7.29,-9.81 14.16,-15.66 20.8,-18.6 6.65,-2.94 13,-2.94 19.76,-1.41 6.78,1.52 13.91,4.61 6.25,15.83z"/>
   <path class="fil5" d="M6016.02 2487.58c6.75,3.32 16.17,17.86 21.9,29.34 5.74,11.48 7.81,19.9 3.73,24.23 -4.09,4.34 -14.3,4.6 -22.07,-2.92 -7.77,-7.52 -13.14,-22.84 -13.76,-34.45 -0.65,-11.6 3.44,-19.5 10.2,-16.2z"/>
   <path class="fil5" d="M6185.03 2137.11c23.46,9.69 55.6,29.06 77.79,47.43 22.18,18.37 34.45,35.7 41.57,54.32 7.15,18.63 9.18,38.53 4.84,53.82 -4.33,15.31 -15.05,26.03 -44.12,30.86 -29.08,4.87 -76.51,3.84 -118.09,2.06 -41.57,-1.77 -77.3,-4.35 -102.55,-9.46 -25.24,-5.09 -40.04,-12.73 -53.05,-21.4 -13,-8.68 -24.22,-18.37 -23.97,-32.92 0.26,-14.54 11.99,-33.93 28.83,-52.29 16.82,-18.38 38.76,-35.71 62.24,-49.24 23.46,-13.51 48.45,-23.18 68.34,-28.04 19.91,-4.84 34.71,-4.84 58.17,4.86z"/>
   <path class="fil5" d="M6174.2 2388.09c4.46,15.83 9.04,45.93 8.91,69.26 -0.12,23.34 -4.95,39.93 -11.99,53.44 -7,13.51 -16.19,23.97 -23.59,29.82 -7.38,5.88 -13.01,7.18 -18.88,5.64 -5.85,-1.52 -11.96,-5.87 -15.55,-14.3 -3.56,-8.39 -4.58,-20.91 -2.8,-39.65 1.78,-18.74 6.39,-43.75 9.94,-61.73 3.57,-17.97 6.13,-28.94 12.75,-38.01 6.64,-9.05 17.35,-16.19 24.88,-19.02 7.52,-2.8 11.86,-1.25 16.33,14.55z"/>
   <path class="fil5" d="M6309.97 2499.85c-7.64,11.21 -30.11,30.58 -42.85,40.78 -12.75,10.21 -15.83,11.25 -18.62,9.84 -2.8,-1.39 -5.35,-5.23 -2.8,-14.03 2.56,-8.78 10.19,-22.58 17.46,-32.41 7.29,-9.81 14.16,-15.66 20.8,-18.6 6.65,-2.94 13,-2.94 19.76,-1.41 6.78,1.52 13.91,4.61 6.25,15.83z"/>
   <path class="fil5" d="M6016.02 2487.58c6.75,3.32 16.17,17.86 21.9,29.34 5.74,11.48 7.81,19.9 3.73,24.23 -4.09,4.34 -14.3,4.6 -22.07,-2.92 -7.77,-7.52 -13.14,-22.84 -13.76,-34.45 -0.65,-11.6 3.44,-19.5 10.2,-16.2z"/>
   <path class="fil5" d="M2207.76 2265.57c10.83,4.48 25.67,13.42 35.91,21.9 10.25,8.48 15.92,16.48 19.2,25.08 3.3,8.6 4.25,17.79 2.24,24.85 -2,7.07 -6.94,12.02 -20.37,14.26 -13.43,2.24 -35.33,1.77 -54.53,0.94 -19.2,-0.82 -35.7,-2.01 -47.35,-4.37 -11.66,-2.35 -18.5,-5.87 -24.5,-9.88 -6,-4 -11.19,-8.48 -11.07,-15.2 0.12,-6.71 5.54,-15.66 13.31,-24.15 7.77,-8.48 17.9,-16.48 28.74,-22.73 10.84,-6.24 22.37,-10.7 31.57,-12.94 9.18,-2.24 16.02,-2.24 26.85,2.24z"/>
   <path class="fil5" d="M2202.76 2381.45c2.06,7.31 4.17,21.22 4.11,31.98 -0.05,10.79 -2.29,18.45 -5.53,24.68 -3.24,6.24 -7.48,11.07 -10.9,13.77 -3.4,2.72 -6.01,3.32 -8.71,2.61 -2.71,-0.71 -5.53,-2.72 -7.19,-6.6 -1.64,-3.88 -2.11,-9.66 -1.29,-18.31 0.82,-8.66 2.95,-20.2 4.59,-28.5 1.65,-8.3 2.83,-13.37 5.89,-17.56 3.06,-4.17 8.01,-7.48 11.49,-8.78 3.47,-1.29 5.48,-0.58 7.54,6.71z"/>
   <path class="fil5" d="M4282.22 1918.52c15.74,6.51 37.29,19.51 52.18,31.83 14.88,12.32 23.11,23.95 27.9,36.45 4.79,12.49 6.16,25.84 3.24,36.1 -2.9,10.28 -10.1,17.46 -29.61,20.7 -19.51,3.27 -51.32,2.59 -79.22,1.39 -27.9,-1.19 -51.86,-2.92 -68.79,-6.35 -16.94,-3.42 -26.87,-8.54 -35.6,-14.35 -8.72,-5.83 -16.25,-12.33 -16.08,-22.1 0.17,-9.75 8.05,-22.75 19.35,-35.08 11.28,-12.32 25.99,-23.95 41.74,-33.03 15.74,-9.07 32.51,-15.56 45.86,-18.81 13.35,-3.24 23.29,-3.24 39.03,3.25z"/>
   <path class="fil5" d="M4274.95 2086.91c3,10.62 6.07,30.81 5.98,46.46 -0.08,15.66 -3.33,26.8 -8.05,35.86 -4.7,9.06 -10.86,16.09 -15.83,20.01 -4.95,3.94 -8.73,4.81 -12.67,3.79 -3.92,-1.02 -8.02,-3.94 -10.43,-9.6 -2.39,-5.63 -3.07,-14.03 -1.87,-26.6 1.19,-12.57 4.28,-29.36 6.67,-41.42 2.39,-12.06 4.11,-19.42 8.55,-25.5 4.46,-6.07 11.65,-10.86 16.69,-12.76 5.04,-1.87 7.96,-0.84 10.96,9.76z"/>
   <path class="fil5" d="M4366.04 2161.89c-5.12,7.52 -20.2,20.52 -28.75,27.37 -8.55,6.84 -10.62,7.54 -12.5,6.6 -1.88,-0.94 -3.58,-3.52 -1.88,-9.42 1.72,-5.9 6.85,-15.14 11.73,-21.74 4.88,-6.59 9.49,-10.51 13.95,-12.49 4.45,-1.96 8.72,-1.96 13.25,-0.94 4.55,1.03 9.33,3.09 4.2,10.62z"/>
   <path class="fil5" d="M4168.82 2153.66c4.53,2.22 10.85,11.98 14.7,19.69 3.85,7.69 5.23,13.34 2.5,16.24 -2.74,2.92 -9.6,3.09 -14.81,-1.95 -5.22,-5.04 -8.81,-15.32 -9.24,-23.11 -0.42,-7.77 2.32,-13.09 6.85,-10.87z"/>
  </g>
 </g>
</svg>
