<svg width="615" height="344" viewBox="0 0 615 344" fill="none" xmlns="http://www.w3.org/2000/svg">
<path fill-rule="evenodd" clip-rule="evenodd" d="M441.041 129.341C435.217 125.648 429.125 124.442 421.748 123.004C414.372 121.568 405.713 119.9 396.073 120.256C386.434 120.615 375.815 122.999 364.987 126.613C354.163 130.229 343.132 135.076 335.812 137.856C328.492 140.638 324.883 141.353 318.49 141.551C312.098 141.749 302.924 141.432 295.141 141.591C287.356 141.749 280.964 142.386 270.684 144.622C260.402 146.859 246.229 150.699 235.147 153.677C224.063 156.657 216.069 158.778 206.448 158.847C196.828 158.915 185.58 156.933 169.651 152.443C153.723 147.955 133.112 140.959 115.28 134.283C97.4483 127.608 82.3967 121.251 70.2323 116.404C58.0656 111.558 48.7861 108.221 40.7459 106.592C32.7035 104.963 25.8977 105.043 19.3138 105.003C13.0575 104.965 7.00006 104.821 0 105.556V193.772C12.9033 196.744 31.4736 198.507 56.0035 199.274C94.0467 200.465 146.419 199.274 211.475 197.128C276.531 194.982 354.266 191.885 395.968 187.912C437.672 183.939 443.344 179.093 447.674 171.862C452.004 164.632 454.992 155.019 453.708 147.121C452.425 139.222 446.868 133.037 441.041 129.341Z" fill="url(#paint0_linear_258_2)"/>
<path fill-rule="evenodd" clip-rule="evenodd" d="M134.929 170.264C132.202 169.664 126.876 168.115 123.676 167.598C120.472 167.082 119.396 167.598 118.418 167.657C117.439 167.718 116.565 167.32 115.654 166.407C114.743 165.493 113.802 164.063 112.655 162.929C111.509 161.798 110.16 160.963 108.375 160.726C106.587 160.488 104.364 160.844 102.613 161.48C100.858 162.116 99.5769 163.03 98.3297 163.367C97.0825 163.706 95.8689 163.466 94.0834 162.553C92.2953 161.639 89.9384 160.05 87.9511 158.481C85.9608 156.911 84.3439 155.362 82.5248 154.409C80.7027 153.455 78.6822 153.097 76.7958 153.594C74.9068 154.091 73.155 155.441 72.079 156.176C70.9999 156.911 70.5933 157.03 69.5509 156.196C68.5054 155.362 66.8179 153.574 65.167 152.243C63.5161 150.913 61.8958 150.039 60.0771 149.72C58.258 149.403 56.2345 149.641 54.449 149.958C52.6636 150.277 51.114 150.674 49.7994 150.832C48.4849 150.993 47.4055 150.913 45.654 150.755C43.8992 150.596 41.475 150.357 39.3196 150.476C37.1614 150.596 35.2721 151.072 33.9239 150.476C32.5757 149.881 31.7688 148.21 30.3197 147.674C28.8677 147.139 26.7798 147.735 24.9271 148.55C23.0714 149.364 21.4545 150.396 20.0391 150.812C18.6236 151.23 17.41 151.032 15.5573 150.733C13.7015 150.436 11.2101 150.039 8.24504 150.337C5.67987 150.594 2.76661 151.371 0 151.975V221.717C17.5291 221.933 36.4063 221.524 57.182 219.978C78.2785 218.41 101.329 215.668 117.675 213.522C134.021 211.378 143.659 209.829 148.75 206.133C153.84 202.44 154.377 196.598 153.201 191.93C152.021 187.264 149.119 183.766 146.285 180.334C143.449 176.904 140.676 173.538 139.227 172.028C137.778 170.518 137.653 170.866 134.929 170.264Z" fill="url(#paint1_linear_258_2)"/>
<path fill-rule="evenodd" clip-rule="evenodd" d="M614.262 80.4035C607.886 79.1729 598.248 78.299 589.035 79.2522C579.823 80.2054 571.037 82.9872 563.477 86.4432C555.918 89.8988 549.589 94.0321 544.77 96.6536C539.951 99.275 536.643 100.389 531.918 100.864C527.196 101.342 521.053 101.181 513.92 101.379C506.787 101.579 498.66 102.135 488.219 105.273C477.78 108.412 465.023 114.132 454.959 118.9C444.897 123.667 437.528 127.48 430.44 130.26C423.354 133.042 416.552 134.791 404.694 138.883C392.837 142.975 375.923 149.409 360.324 154.937C344.726 160.466 330.438 165.089 308.991 172.159C287.543 179.231 258.932 188.753 239.43 199.71C219.927 210.668 209.536 223.062 225.408 230.372C241.281 237.682 283.422 239.907 324.805 240.781C366.191 241.655 406.82 241.179 460.534 234.623C513.326 228.181 578.755 215.868 614.4 199.193V80.4307L614.262 80.4035Z" fill="url(#paint2_linear_258_2)"/>
<path fill-rule="evenodd" clip-rule="evenodd" d="M614.399 122.755C613.066 122.467 612.28 122.174 611.579 121.909C610.053 121.332 608.915 120.896 607.932 120.775C606.949 120.657 606.123 120.857 603.87 121.57C601.62 122.285 597.948 123.518 595.772 124.847C593.599 126.179 592.928 127.609 592.203 128.384C591.478 129.159 590.704 129.278 590.314 128.582C589.927 127.887 589.927 126.379 589.047 126.199C588.167 126.02 586.409 127.173 584.262 128.384C582.115 129.597 579.579 130.867 577.741 131.026C575.906 131.186 574.768 130.231 573.914 130.013C573.06 129.795 572.492 130.31 571.274 131.164C570.059 132.018 568.198 133.211 566.464 133.845C564.73 134.481 563.127 134.562 561.651 135.297C560.177 136.032 558.831 137.422 557.383 137.481C555.935 137.541 554.381 136.271 553.218 135.276C552.053 134.283 551.279 133.568 550.451 133.627C549.622 133.687 548.743 134.523 547.914 134.562C547.086 134.602 546.312 133.847 545.612 133.807C544.913 133.768 544.294 134.442 543.749 135.038C543.207 135.634 542.74 136.15 541.757 135.732C540.776 135.316 539.274 133.966 538.239 133.211C537.204 132.456 536.637 132.298 535.212 133.37C533.79 134.444 531.512 136.746 529.855 138.85C528.201 140.957 527.166 142.865 526.596 142.486C526.028 142.11 525.925 139.447 525.51 137.917C525.096 136.389 524.374 135.991 522.846 136.825C521.321 137.661 518.991 139.726 517.205 141.613C515.422 143.501 514.18 145.209 513.404 146.162C512.629 147.115 512.317 147.315 510.841 147.275C509.367 147.236 506.73 146.956 505.151 146.739C503.574 146.521 503.055 146.36 501.84 147.175C500.624 147.989 498.712 149.778 497.287 150.573C495.866 151.367 494.934 151.167 494.002 150.848C493.071 150.531 492.139 150.095 491.13 150.135C490.121 150.175 489.034 150.69 487.636 151.425C486.24 152.16 484.534 153.115 482.438 153.551C480.343 153.989 477.858 153.908 475.891 154.027C473.927 154.147 472.477 154.465 471.468 155.021C470.459 155.578 469.891 156.372 468.544 156.59C467.2 156.809 465.079 156.452 463.009 156.928C460.939 157.405 458.924 158.715 451.161 161.794C443.401 164.873 429.897 169.72 418.41 172.799C406.924 175.878 397.456 177.188 390.212 178.579C382.968 179.97 377.951 181.439 371.742 184.04C365.533 186.644 358.134 190.377 352.235 194.151C346.338 197.926 341.939 201.741 342.581 210.659C343.227 219.58 348.915 233.602 359.932 245.362C370.949 257.124 387.3 266.622 417.204 273.295C447.108 279.969 490.569 283.821 536.306 285.03C562.686 285.729 589.819 285.549 614.399 282.131V122.755Z" fill="url(#paint3_linear_258_2)"/>
<path fill-rule="evenodd" clip-rule="evenodd" d="M614.4 246.702C610.694 245.646 608.531 244.88 606.517 244.356C604.041 243.712 601.789 243.429 600.415 243.269C599.04 243.108 598.539 243.068 598.814 242.543C599.09 242.02 600.14 241.013 600.04 240.449C599.941 239.886 598.689 239.764 597.389 239.804C596.09 239.844 594.739 240.047 593.364 240.509C591.99 240.973 590.589 241.697 589.638 242.099C588.688 242.503 588.189 242.585 587.813 242.625C587.439 242.665 587.189 242.665 587.239 242.101C587.289 241.538 587.641 240.409 588.589 239.199C589.539 237.991 591.09 236.703 591.913 235.815C592.738 234.929 592.84 234.446 592.439 234.223C592.04 234.002 591.14 234.042 590.04 234.404C588.94 234.768 587.638 235.453 586.364 236.46C585.089 237.469 583.838 238.797 582.738 239.723C581.638 240.652 580.69 241.174 579.54 241.436C578.391 241.699 577.039 241.699 576.089 241.699C575.139 241.699 574.59 241.699 574.789 240.71C574.989 239.723 575.939 237.75 576.263 233.962C576.59 230.174 576.288 224.575 576.139 221.774C575.989 218.974 575.989 218.974 577.463 219.014C578.939 219.055 581.89 219.137 584.965 218.733C588.04 218.331 591.239 217.443 593.165 215.892C595.09 214.34 595.739 212.125 593.988 209.404C592.24 206.685 588.09 203.464 584.588 201.086C581.089 198.709 578.239 197.178 575.413 196.513C572.587 195.848 569.789 196.051 566.412 197.238C563.038 198.428 559.09 200.602 556.015 202.92C552.94 205.236 550.738 207.694 549.513 209.567C548.289 211.44 548.039 212.73 548.064 213.757C548.089 214.784 548.389 215.55 550.763 216.336C553.137 217.121 557.589 217.927 560.503 218.479C563.419 219.031 564.802 219.331 565.492 219.478C566.183 219.628 566.183 219.628 566.018 221.876C565.852 224.124 565.519 228.621 564.703 231.835C563.888 235.049 562.589 236.984 561.639 238.293C560.689 239.603 560.09 240.288 559.739 240.429C559.389 240.57 559.29 240.168 558.115 239.279C556.94 238.393 554.688 237.024 553.287 236.319C551.888 235.614 551.339 235.574 551.162 236.016C550.987 236.46 551.189 237.388 551.489 238.274C551.788 239.161 552.189 240.007 551.838 240.087C551.489 240.168 550.389 239.482 548.738 239.038C547.089 238.596 544.89 238.393 542.865 238.232C540.839 238.071 538.989 237.951 537.914 237.891C536.839 237.83 536.538 237.83 536.163 236.924C535.789 236.018 535.338 234.203 536.114 233.096C536.889 231.988 538.889 231.585 540.538 230.799C542.189 230.015 543.49 228.846 543.939 227.818C544.388 226.791 543.989 225.905 542.563 224.696C541.139 223.488 538.687 221.956 536.438 221.13C534.188 220.305 532.138 220.184 529.988 220.445C527.839 220.708 525.589 221.352 523.514 222.479C521.439 223.608 519.539 225.22 518.312 226.508C517.087 227.798 516.539 228.765 516.663 229.812C516.788 230.859 517.589 231.988 519.212 232.632C520.838 233.277 523.29 233.439 525.163 233.54C527.038 233.64 528.34 233.68 529.038 233.922C529.739 234.165 529.839 234.607 529.889 235.393C529.939 236.179 529.939 237.308 529.412 237.871C528.889 238.435 527.839 238.435 525.063 237.871C522.289 237.308 517.788 236.179 514.563 235.372C511.338 234.567 509.388 234.084 506.313 233.58C503.238 233.076 499.038 232.553 493.913 230.961C488.788 229.37 482.738 226.709 476.638 224.513C470.538 222.318 464.388 220.586 459.437 219.519C454.487 218.452 450.738 218.048 448.863 217.242C446.987 216.436 446.987 215.228 446.511 214.423C446.037 213.617 445.087 213.213 443.536 213.394C441.987 213.576 439.837 214.342 438.486 214.945C437.136 215.55 436.588 215.994 436.411 215.168C436.236 214.342 436.438 212.246 436.012 211.016C435.588 209.788 434.538 209.426 433.712 209.547C432.887 209.668 432.288 210.273 431.637 211.199C430.986 212.125 430.288 213.375 429.812 213.838C429.338 214.302 429.086 213.978 427.961 213.032C426.836 212.085 424.839 210.514 423.113 209.708C421.387 208.902 419.938 208.862 419.237 209.224C418.537 209.587 418.589 210.353 418.088 210.674C417.589 210.998 416.536 210.875 409.586 207.974C402.638 205.074 389.786 199.394 378.112 194.821C366.438 190.249 355.936 186.782 348.512 184.849C341.087 182.916 336.736 182.512 332.386 181.021C328.037 179.531 323.687 176.953 318.687 175.058C313.686 173.165 308.038 171.957 303.663 171.049C299.286 170.143 296.186 169.54 294.012 168.531C291.837 167.524 290.585 166.115 289.036 165.37C287.485 164.624 285.637 164.544 283.712 164.383C281.786 164.222 279.786 163.979 278.512 163.334C277.235 162.691 276.686 161.642 275.537 161.198C274.385 160.756 272.636 160.918 270.886 160.716C269.135 160.515 267.386 159.952 266.087 159.809C264.785 159.669 263.937 159.952 262.339 159.669C260.738 159.387 258.386 158.541 255.286 157.595C252.186 156.648 248.338 155.599 244.312 155.276C240.287 154.954 236.085 155.358 232.736 155.296C229.386 155.236 226.885 154.713 225.087 154.612C223.286 154.512 222.186 154.833 219.912 154.229C217.637 153.626 214.186 152.094 211.387 150.985C208.587 149.878 206.435 149.194 204.711 149.194C202.986 149.194 201.686 149.878 199.586 150.039C197.486 150.201 194.586 149.838 192.436 149.617C190.286 149.395 188.885 149.315 187.76 149.757C186.635 150.201 185.787 151.168 183.912 152.195C182.036 153.222 179.136 154.311 174.036 154.773C168.936 155.237 161.636 155.075 156.937 154.731C152.236 154.389 150.136 153.867 147.887 153.947C145.635 154.028 143.236 154.713 141.812 155.519C140.385 156.325 139.934 157.251 138.635 157.814C137.335 158.379 135.185 158.581 133.711 159.144C132.235 159.709 131.437 160.635 130.412 160.937C129.387 161.24 128.135 160.917 127.085 160.836C126.035 160.756 125.185 160.918 124.01 161.582C122.835 162.247 121.334 163.416 118.561 164.524C115.785 165.631 111.735 166.68 108.261 167.948C104.784 169.218 101.886 170.707 99.9609 171.513C98.0357 172.319 97.0855 172.441 96.0106 172.279C94.9357 172.118 93.7338 171.676 92.3346 171.997C90.9354 172.319 89.3344 173.408 88.4364 174.172C87.5361 174.938 87.3343 175.382 86.6109 175.502C85.8852 175.623 84.6335 175.422 83.4089 175.643C82.1843 175.866 80.9847 176.509 79.7601 177.536C78.5356 178.565 77.2838 179.974 74.5602 181.465C71.8345 182.956 67.6346 184.528 62.4348 186.4C57.2349 188.275 51.035 190.45 47.6606 191.195C44.284 191.941 43.7352 191.256 43.1342 190.932C42.5333 190.611 41.8847 190.651 41.3609 191.194C40.8348 191.738 40.4334 192.787 39.8347 193.854C39.2338 194.921 38.4355 196.01 36.8617 196.091C35.2857 196.171 32.934 195.245 31.1607 194.961C29.3851 194.68 28.1832 195.044 27.4598 196.031C26.7341 197.017 26.4847 198.629 25.7363 199.495C24.9857 200.361 23.7339 200.482 21.9356 200.401C20.1351 200.321 17.7834 200.038 16.4591 200.944C15.1347 201.852 14.8331 203.946 13.4589 205.154C12.0847 206.364 9.63326 206.687 6.45846 207.371C4.63068 207.766 2.56479 208.281 0 209.498V343.758H614.4V246.702Z" fill="#000D19"/>
<path fill-rule="evenodd" clip-rule="evenodd" d="M312.995 200.032C314.822 200.788 317.325 202.296 319.052 203.726C320.78 205.157 321.735 206.506 322.29 207.957C322.847 209.407 323.005 210.956 322.667 212.148C322.33 213.34 321.496 214.175 319.231 214.551C316.966 214.929 313.272 214.85 310.035 214.711C306.797 214.573 304.015 214.373 302.049 213.974C300.083 213.578 298.93 212.983 297.918 212.308C296.905 211.632 296.031 210.877 296.051 209.744C296.071 208.612 296.985 207.103 298.296 205.672C299.606 204.241 301.314 202.892 303.143 201.838C304.97 200.786 306.916 200.032 308.465 199.654C310.015 199.278 311.168 199.278 312.995 200.032Z" fill="#031D31"/>
<path fill-rule="evenodd" clip-rule="evenodd" d="M312.152 219.578C312.499 220.81 312.856 223.154 312.846 224.97C312.837 226.788 312.46 228.08 311.912 229.132C311.366 230.185 310.651 230.999 310.075 231.455C309.5 231.913 309.062 232.014 308.604 231.895C308.148 231.776 307.673 231.437 307.393 230.781C307.116 230.127 307.037 229.152 307.175 227.693C307.314 226.234 307.673 224.286 307.95 222.886C308.227 221.486 308.428 220.632 308.943 219.926C309.46 219.221 310.294 218.664 310.88 218.445C311.465 218.227 311.804 218.347 312.152 219.578Z" fill="#031D31"/>
<path fill-rule="evenodd" clip-rule="evenodd" d="M322.725 228.28C322.13 229.154 320.381 230.662 319.388 231.457C318.395 232.251 318.155 232.333 317.937 232.223C317.719 232.115 317.521 231.815 317.719 231.131C317.919 230.446 318.514 229.372 319.08 228.606C319.647 227.843 320.182 227.387 320.7 227.158C321.217 226.929 321.712 226.929 322.238 227.048C322.766 227.167 323.321 227.406 322.725 228.28Z" fill="#031D31"/>
<path fill-rule="evenodd" clip-rule="evenodd" d="M299.833 227.325C300.359 227.583 301.093 228.716 301.539 229.61C301.986 230.504 302.146 231.159 301.829 231.496C301.511 231.835 300.716 231.855 300.111 231.269C299.505 230.684 299.087 229.491 299.038 228.587C298.988 227.684 299.307 227.068 299.833 227.325Z" fill="#031D31"/>
<path fill-rule="evenodd" clip-rule="evenodd" d="M430.709 293.97C432.536 294.725 435.038 296.233 436.766 297.664C438.494 299.094 439.449 300.444 440.004 301.894C440.561 303.345 440.719 304.894 440.38 306.085C440.044 307.278 439.21 308.112 436.944 308.488C434.68 308.867 430.986 308.788 427.748 308.649C424.511 308.51 421.729 308.31 419.763 307.912C417.797 307.516 416.644 306.921 415.632 306.245C414.619 305.57 413.745 304.815 413.765 303.682C413.785 302.55 414.698 301.04 416.01 299.61C417.32 298.179 419.028 296.829 420.857 295.776C422.684 294.723 424.63 293.97 426.179 293.592C427.728 293.215 428.882 293.215 430.709 293.97Z" fill="#031D31"/>
<path fill-rule="evenodd" clip-rule="evenodd" d="M429.865 313.516C430.213 314.748 430.57 317.092 430.559 318.908C430.55 320.726 430.173 322.018 429.625 323.07C429.08 324.123 428.364 324.937 427.788 325.393C427.213 325.85 426.775 325.951 426.318 325.832C425.862 325.713 425.386 325.375 425.107 324.719C424.829 324.065 424.75 323.09 424.889 321.631C425.027 320.171 425.386 318.224 425.663 316.824C425.941 315.424 426.141 314.57 426.656 313.863C427.173 313.159 428.007 312.602 428.593 312.382C429.179 312.164 429.517 312.285 429.865 313.516Z" fill="#031D31"/>
<path fill-rule="evenodd" clip-rule="evenodd" d="M440.438 322.218C439.843 323.092 438.094 324.6 437.101 325.394C436.108 326.189 435.869 326.27 435.65 326.16C435.433 326.052 435.234 325.753 435.433 325.069C435.633 324.384 436.227 323.31 436.793 322.544C437.36 321.78 437.896 321.324 438.413 321.096C438.93 320.867 439.425 320.867 439.952 320.986C440.479 321.105 441.034 321.344 440.438 322.218Z" fill="#031D31"/>
<path fill-rule="evenodd" clip-rule="evenodd" d="M417.547 321.263C418.073 321.521 418.806 322.654 419.253 323.548C419.7 324.442 419.86 325.097 419.543 325.434C419.224 325.773 418.43 325.793 417.824 325.207C417.219 324.621 416.801 323.429 416.752 322.524C416.702 321.622 417.021 321.006 417.547 321.263Z" fill="#031D31"/>
<path fill-rule="evenodd" clip-rule="evenodd" d="M123.55 216.769C125.377 217.524 127.88 219.032 129.607 220.463C131.335 221.893 132.29 223.242 132.845 224.693C133.402 226.144 133.56 227.693 133.222 228.884C132.885 230.077 132.051 230.911 129.786 231.288C127.521 231.666 123.827 231.587 120.59 231.448C117.352 231.309 114.57 231.109 112.604 230.711C110.639 230.314 109.486 229.72 108.473 229.044C107.46 228.369 106.587 227.614 106.606 226.48C106.626 225.349 107.54 223.839 108.851 222.408C110.161 220.978 111.869 219.628 113.698 218.574C115.525 217.522 117.471 216.769 119.021 216.391C120.57 216.014 121.723 216.014 123.55 216.769Z" fill="#031D31"/>
<path fill-rule="evenodd" clip-rule="evenodd" d="M122.706 236.314C123.054 237.547 123.411 239.891 123.4 241.707C123.391 243.525 123.014 244.817 122.467 245.869C121.921 246.921 121.206 247.736 120.629 248.191C120.054 248.649 119.617 248.75 119.159 248.631C118.703 248.512 118.227 248.173 117.948 247.518C117.671 246.864 117.591 245.889 117.73 244.429C117.869 242.97 118.227 241.022 118.505 239.622C118.782 238.222 118.982 237.368 119.498 236.662C120.015 235.958 120.849 235.401 121.435 235.181C122.02 234.963 122.359 235.084 122.706 236.314Z" fill="#031D31"/>
<path fill-rule="evenodd" clip-rule="evenodd" d="M143.993 246.154C143.398 247.027 141.648 248.535 140.656 249.33C139.663 250.125 139.423 250.206 139.205 250.096C138.987 249.988 138.789 249.689 138.987 249.004C139.187 248.319 139.782 247.245 140.348 246.48C140.915 245.716 141.45 245.26 141.967 245.031C142.484 244.802 142.98 244.802 143.506 244.921C144.034 245.04 144.589 245.28 143.993 246.154Z" fill="#031D31"/>
<path fill-rule="evenodd" clip-rule="evenodd" d="M110.388 244.062C110.914 244.319 111.648 245.453 112.094 246.346C112.541 247.24 112.701 247.896 112.384 248.233C112.066 248.572 111.271 248.591 110.666 248.006C110.06 247.421 109.642 246.228 109.594 245.323C109.543 244.42 109.862 243.804 110.388 244.062Z" fill="#031D31"/>
<path fill-rule="evenodd" clip-rule="evenodd" d="M430.709 293.97C432.536 294.725 435.038 296.233 436.766 297.664C438.494 299.094 439.449 300.444 440.004 301.894C440.561 303.345 440.719 304.894 440.38 306.085C440.044 307.278 439.21 308.112 436.944 308.488C434.68 308.867 430.986 308.788 427.748 308.649C424.511 308.51 421.729 308.31 419.763 307.912C417.797 307.516 416.644 306.921 415.632 306.245C414.619 305.57 413.745 304.815 413.765 303.682C413.785 302.55 414.698 301.04 416.01 299.61C417.32 298.179 419.028 296.829 420.857 295.776C422.684 294.723 424.63 293.97 426.179 293.592C427.728 293.215 428.882 293.215 430.709 293.97Z" fill="#031D31"/>
<path fill-rule="evenodd" clip-rule="evenodd" d="M429.865 313.516C430.213 314.748 430.57 317.092 430.559 318.908C430.55 320.726 430.173 322.018 429.625 323.07C429.08 324.123 428.364 324.937 427.788 325.393C427.213 325.85 426.775 325.951 426.318 325.832C425.862 325.713 425.386 325.375 425.107 324.719C424.829 324.065 424.75 323.09 424.889 321.631C425.027 320.171 425.386 318.224 425.663 316.824C425.941 315.424 426.141 314.57 426.656 313.863C427.173 313.159 428.007 312.602 428.593 312.382C429.179 312.164 429.517 312.285 429.865 313.516Z" fill="#031D31"/>
<path fill-rule="evenodd" clip-rule="evenodd" d="M440.438 322.218C439.843 323.092 438.094 324.6 437.101 325.394C436.108 326.189 435.869 326.27 435.65 326.16C435.433 326.052 435.234 325.753 435.433 325.069C435.633 324.384 436.227 323.31 436.793 322.544C437.36 321.78 437.896 321.324 438.413 321.096C438.93 320.867 439.425 320.867 439.952 320.986C440.479 321.105 441.034 321.344 440.438 322.218Z" fill="#031D31"/>
<path fill-rule="evenodd" clip-rule="evenodd" d="M417.547 321.263C418.073 321.521 418.806 322.654 419.253 323.548C419.7 324.442 419.86 325.097 419.543 325.434C419.224 325.773 418.43 325.793 417.824 325.207C417.219 324.621 416.801 323.429 416.752 322.524C416.702 321.622 417.021 321.006 417.547 321.263Z" fill="#031D31"/>
<path fill-rule="evenodd" clip-rule="evenodd" d="M137.684 243.024C137.09 243.898 135.34 245.406 134.348 246.201C133.355 246.995 133.115 247.076 132.897 246.966C132.679 246.858 132.481 246.559 132.679 245.874C132.88 245.19 133.474 244.116 134.04 243.35C134.607 242.586 135.142 242.13 135.659 241.902C136.176 241.673 136.672 241.673 137.198 241.792C137.726 241.911 138.281 242.15 137.684 243.024Z" fill="#031D31"/>
<path fill-rule="evenodd" clip-rule="evenodd" d="M103.334 246.937C103.86 247.195 104.594 248.328 105.041 249.222C105.488 250.116 105.648 250.771 105.331 251.109C105.012 251.447 104.217 251.467 103.612 250.881C103.006 250.296 102.589 249.103 102.54 248.199C102.489 247.296 102.808 246.68 103.334 246.937Z" fill="#031D31"/>
<path fill-rule="evenodd" clip-rule="evenodd" d="M186.139 197.036C187.191 197.471 188.632 198.34 189.627 199.164C190.622 199.987 191.172 200.764 191.491 201.599C191.812 202.435 191.903 203.327 191.708 204.013C191.514 204.7 191.034 205.18 189.73 205.397C188.425 205.615 186.299 205.569 184.434 205.489C182.57 205.409 180.968 205.294 179.836 205.065C178.704 204.837 178.04 204.494 177.457 204.105C176.874 203.716 176.371 203.281 176.382 202.629C176.393 201.977 176.919 201.108 177.675 200.284C178.429 199.46 179.412 198.683 180.466 198.076C181.518 197.47 182.638 197.036 183.531 196.819C184.423 196.602 185.087 196.602 186.139 197.036Z" fill="#031D31"/>
<path fill-rule="evenodd" clip-rule="evenodd" d="M185.653 208.291C185.853 209.001 186.059 210.351 186.053 211.397C186.048 212.444 185.831 213.188 185.515 213.794C185.201 214.4 184.789 214.869 184.457 215.131C184.126 215.394 183.874 215.452 183.61 215.384C183.348 215.316 183.074 215.121 182.913 214.743C182.753 214.366 182.708 213.805 182.787 212.964C182.868 212.124 183.074 211.002 183.234 210.196C183.394 209.39 183.509 208.898 183.805 208.492C184.103 208.086 184.583 207.765 184.921 207.639C185.258 207.513 185.453 207.583 185.653 208.291Z" fill="#031D31"/>
<path d="M257.078 43.5584L257.268 43.7432L257.459 43.9296L257.651 44.1174L257.843 44.3053L258.036 44.4942L258.23 44.6836L258.426 44.8729L258.623 45.0623L258.821 45.2513L259.021 45.4387L259.224 45.6266L259.428 45.8125L259.634 45.997L259.843 46.1799L260.054 46.3609L260.267 46.5401L260.483 46.7162L260.702 46.8901L260.924 47.0609L261.149 47.228L261.377 47.3928L261.61 47.5526L261.845 47.7099L262.084 47.8622L262.327 48.0099L262.574 48.1536L262.826 48.2919L263.081 48.4257L263.341 48.5542L263.606 48.6767L263.875 48.7934L264.15 48.9042L263.856 49.6586L263.563 49.5403L263.275 49.4152L262.992 49.2844L262.715 49.1476L262.443 49.0055L262.176 48.8581L261.913 48.7062L261.656 48.5493L261.403 48.3879L261.155 48.2231L260.911 48.0542L260.671 47.8818L260.436 47.7065L260.204 47.528L259.976 47.3474L259.751 47.1637L259.53 46.9785L259.312 46.7914L259.097 46.6032L258.885 46.4135L258.676 46.2222L258.47 46.0314L258.265 45.8394L258.064 45.6474L257.864 45.4558L257.666 45.2641L257.471 45.074L257.277 44.8843L257.084 44.6957L256.893 44.5086L256.703 44.3238L256.515 44.1405L257.078 43.5584ZM257.078 43.5584L256.515 44.1405C256.354 43.9851 256.35 43.7285 256.505 43.5679C256.661 43.4072 256.917 43.4031 257.078 43.5584ZM254.702 40.9982L254.837 41.1762L254.961 41.3398L255.076 41.4899L255.181 41.6263L255.279 41.7514L255.368 41.8652L255.451 41.968L255.527 42.0613L255.597 42.1464L255.661 42.2216L255.72 42.29L255.775 42.3524L255.827 42.4079L255.876 42.4601L255.922 42.507L255.967 42.5504L256.011 42.5928L256.057 42.6343L256.103 42.6763L256.15 42.7182L256.201 42.7621L256.254 42.8082L256.312 42.8581L256.374 42.9114L256.44 42.9696L256.512 43.0327L256.589 43.1015L256.672 43.1767L256.763 43.2598L256.86 43.3506L256.965 43.4496L257.078 43.5584L256.515 44.1405L256.406 44.0354L256.305 43.9401L256.212 43.8532L256.127 43.7753L256.048 43.7039L255.975 43.6382L255.907 43.5781L255.843 43.5229L255.783 43.4711L255.726 43.422L255.671 43.3744L255.617 43.3275L255.563 43.2802L255.511 43.233L255.458 43.1846L255.404 43.1332L255.35 43.0792L255.293 43.0217L255.236 42.9613L255.175 42.8959L255.113 42.8252L255.046 42.7492L254.975 42.6649L254.901 42.5753L254.82 42.4767L254.734 42.3686L254.642 42.2511L254.541 42.1229L254.433 41.9827L254.317 41.8304L254.191 41.6653L254.055 41.4857L254.702 40.9982ZM254.702 40.9982L254.055 41.4857C253.921 41.3073 253.957 41.053 254.135 40.9184C254.314 40.7839 254.568 40.8198 254.702 40.9982ZM248.529 29.5175V29.5171L248.668 29.9185L248.81 30.3161L248.956 30.7099L249.107 31.1007L249.26 31.4881L249.416 31.8721L249.577 32.2531L249.741 32.6314L249.908 33.0067L250.078 33.3787L250.252 33.7479L250.43 34.1145L250.611 34.4785L250.796 34.8398L250.984 35.1988L251.175 35.5553L251.37 35.9094L251.569 36.2617L251.77 36.6113L251.976 36.959L252.184 37.3044L252.396 37.6487L252.612 37.9904L252.83 38.3306L253.053 38.6688L253.278 39.006L253.507 39.3412L253.739 39.6753L253.975 40.0079L254.214 40.3394L254.457 40.6693L254.702 40.9982L254.055 41.4857L253.806 41.1516L253.56 40.8156L253.317 40.4789L253.077 40.141L252.84 39.8008L252.607 39.4595L252.378 39.1163L252.152 38.772L251.928 38.4251L251.709 38.0766L251.493 37.7262L251.28 37.374L251.071 37.0194L250.865 36.6623L250.663 36.3032L250.464 35.9423L250.269 35.5783L250.077 35.2117L249.888 34.8428L249.703 34.4713L249.522 34.0971L249.344 33.7203L249.17 33.3401L248.999 32.9572L248.832 32.5713L248.668 32.1821L248.508 31.7897L248.352 31.3948L248.199 30.9956L248.05 30.5935L247.904 30.1876L247.762 29.7787V29.7782L248.529 29.5175ZM248.529 29.5171L247.762 29.7787C247.69 29.567 247.803 29.3368 248.015 29.2646C248.226 29.1924 248.456 29.3054 248.529 29.5171ZM245.851 20.4141L246.614 20.4024L246.583 20.5207L246.558 20.6745L246.544 20.862L246.539 21.0763L246.546 21.3151L246.563 21.5759L246.591 21.856L246.628 22.1531L246.673 22.4645L246.727 22.7891L246.788 23.1248L246.856 23.4691L246.931 23.821L247.01 24.1781L247.094 24.5387L247.182 24.9011L247.273 25.2636L247.367 25.6242L247.462 25.9817L247.558 26.3336L247.655 26.6787L247.751 27.0147L247.846 27.3409L247.939 27.6546L248.03 27.9546L248.116 28.2385L248.2 28.5049L248.278 28.7532L248.351 28.9796L248.417 29.1841L248.477 29.364L248.529 29.5175L247.762 29.7782L247.709 29.6203L247.648 29.4366L247.58 29.2291L247.506 28.9982L247.427 28.7476L247.343 28.4773L247.255 28.1897L247.163 27.8866L247.069 27.5691L246.973 27.2392L246.875 26.8986L246.778 26.549L246.68 26.1926L246.584 25.8306L246.488 25.4639L246.396 25.0954L246.306 24.7262L246.221 24.358L246.139 23.9925L246.063 23.6316L245.993 23.2759L245.929 22.9283L245.873 22.59L245.825 22.2612L245.786 21.9452L245.756 21.6424L245.737 21.3537L245.729 21.0801L245.735 20.8227L245.754 20.5815L245.79 20.3552L245.847 20.1431L246.61 20.1314L245.851 20.4141ZM246.614 20.4024L245.847 20.1431C245.918 19.9315 246.148 19.8177 246.36 19.8891C246.572 19.9606 246.685 20.1907 246.614 20.4024ZM253.167 36.5538L252.815 35.982L252.479 35.4241L252.157 34.8795L251.848 34.3466L251.552 33.8254L251.269 33.3136L250.998 32.8113L250.737 32.317L250.486 31.8306L250.245 31.3498L250.012 30.8743L249.788 30.403L249.57 29.9355L249.359 29.4702L249.154 29.0065L248.955 28.5435L248.759 28.0797L248.566 27.6145L248.378 27.1469L248.191 26.6768L248.005 26.2017L247.82 25.7213L247.636 25.2353L247.45 24.7417L247.263 24.2397L247.074 23.7288L246.882 23.2076L246.686 22.6754L246.486 22.1308L246.28 21.5729L246.069 21.0011L245.851 20.4141L246.61 20.1314L246.828 20.7199L247.04 21.2925L247.245 21.8511L247.446 22.3957L247.642 22.9279L247.834 23.4483L248.022 23.9578L248.208 24.4575L248.393 24.9488L248.577 25.4326L248.76 25.9091L248.944 26.3797L249.129 26.8461L249.316 27.3083L249.506 27.7676L249.699 28.2252L249.896 28.6822L250.099 29.1391L250.307 29.5976L250.52 30.0583L250.741 30.5221L250.971 30.99L251.208 31.4632L251.455 31.9428L251.712 32.4296L251.98 32.9251L252.259 33.4293L252.55 33.9444L252.855 34.4705L253.174 35.0091L253.507 35.5609L253.855 36.1267L253.167 36.5538ZM253.167 36.5538L253.855 36.1267C253.973 36.3165 253.914 36.5663 253.724 36.6842C253.535 36.8021 253.285 36.7436 253.167 36.5538ZM257.908 43.4023L257.744 43.1824L257.581 42.9654L257.421 42.7511L257.264 42.5395L257.109 42.3297L256.955 42.1222L256.804 41.9158L256.653 41.7117L256.505 41.508L256.358 41.3054L256.212 41.1036L256.067 40.9022L255.923 40.7011L255.78 40.4993L255.638 40.2971L255.495 40.0948L255.354 39.8911L255.212 39.6867L255.071 39.4799L254.929 39.2724L254.787 39.063L254.645 38.8506L254.502 38.6363L254.358 38.419L254.214 38.1991L254.069 37.9761L253.922 37.7493L253.774 37.5183L253.625 37.284L253.474 37.0452L253.321 36.8021L253.167 36.5538L253.855 36.1267L254.008 36.3728L254.159 36.6135L254.309 36.8501L254.457 37.083L254.603 37.3109L254.748 37.5354L254.892 37.7561L255.035 37.9738L255.176 38.1888L255.318 38.4009L255.458 38.6103L255.599 38.8174L255.739 39.0234L255.879 39.2271L256.019 39.4293L256.159 39.6307L256.3 39.8314L256.441 40.0314L256.582 40.2309L256.725 40.4305L256.869 40.6304L257.014 40.8307L257.16 41.0318L257.307 41.2332L257.456 41.4366L257.607 41.6414L257.759 41.8482L257.914 42.0564L258.071 42.2673L258.23 42.4809L258.392 42.6971L258.556 42.9163L257.908 43.4023ZM257.908 43.4023L258.556 42.9163C258.69 43.095 258.654 43.349 258.475 43.4832C258.296 43.6174 258.042 43.5811 257.908 43.4023ZM264.15 48.9042L263.672 49.5142L263.632 49.4617L263.575 49.394L263.503 49.3143L263.416 49.2224L263.316 49.1208L263.203 49.0096L263.079 48.8898L262.943 48.7606L262.798 48.623L262.643 48.4771L262.479 48.3233L262.306 48.1611L262.125 47.991L261.937 47.8134L261.743 47.6278L261.542 47.4351L261.335 47.2348L261.123 47.0273L260.907 46.8118L260.686 46.59L260.462 46.3609L260.234 46.1251L260.004 45.8824L259.772 45.6326L259.539 45.3764L259.305 45.1133L259.07 44.8438L258.835 44.5679L258.601 44.2856L258.369 43.9976L258.137 43.7028L257.908 43.4023L258.556 42.9163L258.778 43.2077L259.002 43.4934L259.228 43.7731L259.455 44.0471L259.684 44.3154L259.913 44.5781L260.141 44.8344L260.369 45.0846L260.595 45.3284L260.82 45.5657L261.042 45.797L261.263 46.0215L261.479 46.2396L261.692 46.4505L261.9 46.655L262.104 46.8523L262.302 47.0428L262.495 47.2261L262.681 47.4022L262.86 47.5708L263.033 47.7321L263.198 47.8867L263.354 48.0341L263.501 48.1732L263.64 48.3055L263.769 48.4306L263.888 48.5485L263.997 48.6593L264.096 48.7632L264.186 48.8618L264.265 48.9567L264.334 49.0486L263.856 49.6586L264.15 48.9042ZM263.672 49.5142L264.334 49.0486C264.463 49.2311 264.419 49.484 264.236 49.6125C264.053 49.741 263.801 49.6968 263.672 49.5142Z" fill="#000D19"/>
<path fill-rule="evenodd" clip-rule="evenodd" d="M264.003 49.2814C260.944 48.0923 258.813 45.8023 256.796 43.8494C255.563 42.6555 255.873 43.2258 254.379 41.2419C251.719 37.7107 249.626 33.989 248.145 29.6479C247.628 28.1304 245.684 21.8915 246.23 20.2727C248.596 26.6272 249.695 30.1932 253.511 36.3402C255.163 39.0014 256.462 40.7993 258.232 43.1593C260.622 46.3465 263.493 48.5561 264.003 49.2814Z" fill="#0D3752"/>
<path d="M190.68 48.4994L190.662 48.6271L189.871 48.5137L189.867 48.2787L190.676 48.2643L190.68 48.4994ZM189.871 48.5137L190.68 48.4994C190.684 48.7228 190.506 48.9076 190.283 48.9114C190.059 48.9151 189.875 48.7371 189.871 48.5137ZM189.268 49.3827L189.302 49.3211L189.336 49.2632L189.368 49.2099L189.4 49.1601L189.431 49.1136L189.461 49.0697L189.49 49.0297L189.519 48.9911L189.546 48.9563L189.572 48.925L189.596 48.8947L189.62 48.8679L189.641 48.8429L189.661 48.8203L189.68 48.7991L189.696 48.7813L189.709 48.7647L189.721 48.7504L189.733 48.7356L189.745 48.7194L189.754 48.7065L189.762 48.6929L189.772 48.6774L189.782 48.6585L189.794 48.6366L189.805 48.6139L189.817 48.5859L189.83 48.5546L189.844 48.5198L189.858 48.4809L189.873 48.4366L189.889 48.386L190.662 48.6271L190.642 48.6891L190.622 48.7484L190.602 48.8048L190.581 48.8577L190.56 48.9072L190.539 48.9541L190.517 49.0002L190.496 49.0418L190.473 49.0818L190.45 49.1215L190.425 49.1593L190.4 49.1948L190.378 49.2239L190.355 49.2538L190.332 49.2825L190.31 49.3082L190.289 49.3328L190.27 49.3547L190.251 49.3759L190.233 49.397L190.215 49.4178L190.197 49.4382L190.179 49.4613L190.16 49.4847L190.142 49.5089L190.122 49.5369L190.102 49.5664L190.08 49.6L190.056 49.637L190.031 49.6782L190.005 49.7225L189.977 49.7719L189.268 49.3827ZM189.268 49.3827L189.977 49.7719C189.87 49.9677 189.624 50.0395 189.428 49.9322C189.232 49.8249 189.16 49.5784 189.268 49.3827ZM188.616 56.1465L188.588 55.9651L188.563 55.7776L188.539 55.5837L188.518 55.3842L188.499 55.1797L188.483 54.9707L188.469 54.7575L188.458 54.5398L188.449 54.3199L188.443 54.0961L188.441 53.8705V53.6433L188.444 53.4139L188.451 53.1834L188.46 52.9528L188.474 52.7226L188.49 52.4917L188.511 52.2623L188.536 52.034L188.564 51.8072L188.596 51.5831L188.633 51.3613L188.674 51.1432L188.719 50.9281L188.769 50.7165L188.824 50.5097L188.884 50.3075L188.949 50.1102L189.019 49.919L189.096 49.7334L189.178 49.5546L189.268 49.3827L189.977 49.7719L189.906 49.9099L189.838 50.0577L189.774 50.2138L189.713 50.3778L189.656 50.5494L189.603 50.7282L189.554 50.9137L189.509 51.1042L189.468 51.3004L189.43 51.5019L189.397 51.7071L189.366 51.9153L189.34 52.127L189.317 52.3417L189.298 52.5575L189.282 52.7748L189.269 52.9936L189.259 53.2128L189.253 53.4313L189.25 53.6486V53.8659L189.253 54.081L189.259 54.2934L189.267 54.5036L189.277 54.7099L189.29 54.9125L189.306 55.1109L189.324 55.304L189.344 55.4923L189.366 55.6741L189.39 55.8495L189.415 56.0172L188.616 56.1465ZM188.616 56.1465L189.415 56.0172C189.451 56.2376 189.301 56.4459 189.081 56.4814C188.86 56.5169 188.652 56.3669 188.616 56.1465ZM190.771 63.9954V63.9951L190.688 63.7721L190.607 63.5468L190.525 63.3204L190.445 63.0925L190.364 62.8635L190.285 62.6333L190.205 62.4009L190.127 62.1669L190.05 61.9318L189.974 61.6956L189.898 61.4579L189.823 61.2186L189.75 60.9779L189.677 60.7356L189.606 60.4922L189.536 60.2477L189.467 60.0016L189.399 59.7537L189.333 59.505L189.268 59.2544L189.204 59.0027L189.143 58.7502L189.082 58.4959L189.023 58.2396L188.966 57.9826L188.911 57.7245L188.856 57.4648L188.805 57.2033L188.755 56.9414L188.707 56.6779L188.66 56.413L188.616 56.1465L189.415 56.0172L189.459 56.2769L189.504 56.5351L189.551 56.7924L189.6 57.0491L189.65 57.3038L189.703 57.5574L189.757 57.8103L189.813 58.0612L189.87 58.3107L189.929 58.5598L189.99 58.8077L190.052 59.0541L190.116 59.2986L190.181 59.5428L190.247 59.7854L190.315 60.0269L190.384 60.267L190.454 60.5058L190.525 60.7435L190.597 60.9798L190.67 61.2145L190.745 61.4484L190.82 61.6809L190.896 61.9122L190.973 62.1416L191.05 62.3703L191.129 62.5974L191.208 62.8234L191.288 63.0483L191.368 63.2717L191.449 63.4931L191.53 63.7139V63.7135L190.771 63.9954ZM190.771 63.9951L191.53 63.7139C191.608 63.9233 191.501 64.1565 191.291 64.234C191.082 64.3114 190.849 64.2045 190.771 63.9951ZM198.478 76.2755L197.945 76.8126L197.845 76.6028L197.731 76.3847L197.603 76.1591L197.464 75.9252L197.311 75.6821L197.148 75.4304L196.973 75.1685L196.787 74.8971L196.593 74.6156L196.388 74.3226L196.175 74.018L195.954 73.7017L195.726 73.3728L195.491 73.0312L195.249 72.6755L195.002 72.3059L194.75 71.9215L194.494 71.5216L194.234 71.1063L193.971 70.6742L193.704 70.2252L193.436 69.7585L193.167 69.2732L192.896 68.7701L192.626 68.2467L192.355 67.7039L192.086 67.1404L191.818 66.5557L191.552 65.9495L191.288 65.3213L191.028 64.6697L190.771 63.9954L191.53 63.7135L191.782 64.3757L192.037 65.0144L192.296 65.6305L192.557 66.2246L192.819 66.7972L193.083 67.3487L193.348 67.8801L193.613 68.3922L193.878 68.8854L194.141 69.3601L194.404 69.8171L194.664 70.257L194.923 70.6807L195.178 71.0885L195.43 71.4808L195.678 71.8592L195.92 72.2235L196.159 72.5739L196.392 72.9125L196.618 73.239L196.839 73.5539L197.052 73.8585L197.257 74.1529L197.455 74.4383L197.644 74.7157L197.823 74.9844L197.994 75.246L198.154 75.5019L198.304 75.7524L198.442 75.9985L198.569 76.24L198.683 76.4792L198.15 77.0163L198.478 76.2755ZM197.945 76.8126L198.683 76.4792C198.775 76.6829 198.684 76.923 198.481 77.0148C198.277 77.1067 198.037 77.0163 197.945 76.8126ZM195.887 73.5709L195.959 73.6612L196.031 73.753L196.105 73.8472L196.18 73.9435L196.256 74.0414L196.333 74.1409L196.412 74.241L196.491 74.3423L196.571 74.444L196.652 74.5468L196.733 74.6484L196.816 74.7501L196.899 74.8518L196.983 74.9519L197.067 75.0509L197.152 75.1489L197.236 75.2452L197.322 75.3389L197.408 75.4312L197.493 75.5196L197.579 75.6054L197.665 75.6885L197.75 75.7679L197.835 75.8432L197.919 75.9142L198.003 75.9815L198.086 76.0435L198.167 76.1005L198.247 76.1527L198.326 76.1988L198.403 76.24L198.478 76.2755L198.15 77.0163L198.038 76.9634L197.929 76.9048L197.82 76.8406L197.715 76.7718L197.61 76.6988L197.507 76.621L197.406 76.5401L197.305 76.4554L197.205 76.3666L197.108 76.2759L197.011 76.1829L196.915 76.0865L196.82 75.9875L196.727 75.8877L196.634 75.7857L196.543 75.6825L196.452 75.5786L196.363 75.4735L196.275 75.3673L196.188 75.2618L196.103 75.1564L196.018 75.0502L195.935 74.9459L195.854 74.842L195.773 74.7391L195.694 74.6375L195.617 74.5381L195.541 74.4409L195.467 74.3461L195.395 74.2535L195.324 74.1639L195.256 74.0781L195.887 73.5709ZM195.887 73.5709L195.256 74.0781C195.116 73.9039 195.143 73.6487 195.318 73.5089C195.492 73.3691 195.747 73.3967 195.887 73.5709ZM189.68 63.3272L189.805 63.6202L189.938 63.921L190.08 64.229L190.229 64.5435L190.385 64.8644L190.548 65.1902L190.718 65.5209L190.893 65.8558L191.074 66.1936L191.26 66.5353L191.451 66.8789L191.647 67.2235L191.846 67.5705L192.049 67.9171L192.256 68.2641L192.465 68.6099L192.678 68.955L192.891 69.2977L193.107 69.6383L193.324 69.9762L193.542 70.3095L193.76 70.6391L193.979 70.9641L194.197 71.2835L194.415 71.5965L194.632 71.9034L194.847 72.2027L195.06 72.4945L195.271 72.7779L195.48 73.0523L195.685 73.3169L195.887 73.5709L195.256 74.0781L195.048 73.8166L194.837 73.5452L194.624 73.2647L194.409 72.9752L194.191 72.6782L193.972 72.3735L193.752 72.0613L193.531 71.7431L193.309 71.4185L193.087 71.0889L192.865 70.7547L192.644 70.4161L192.424 70.0737L192.206 69.7286L191.989 69.3813L191.774 69.0317L191.562 68.6805L191.352 68.3291L191.146 67.9772L190.944 67.6257L190.745 67.275L190.551 66.9261L190.362 66.5791L190.177 66.2344L189.999 65.8936L189.826 65.556L189.659 65.2227L189.499 64.8942L189.346 64.5715L189.2 64.2544L189.062 63.9437L188.933 63.6402L189.68 63.3272ZM189.68 63.3272L188.933 63.6402C188.847 63.4342 188.944 63.1965 189.15 63.1103C189.356 63.0241 189.593 63.1213 189.68 63.3272ZM187.196 55.0742L187.234 55.3641L187.276 55.651L187.322 55.9352L187.37 56.2172L187.423 56.4957L187.478 56.7724L187.537 57.046L187.598 57.3182L187.663 57.5876L187.73 57.8549L187.8 58.1198L187.872 58.3825L187.947 58.644L188.024 58.9029L188.104 59.1599L188.185 59.4158L188.268 59.6694L188.354 59.9215L188.441 60.1721L188.53 60.4215L188.62 60.6695L188.712 60.9163L188.805 61.1619L188.898 61.4057L188.994 61.6491L189.09 61.8914L189.187 62.1325L189.284 62.3729L189.383 62.6125L189.482 62.8514L189.581 63.0899L189.68 63.3272L188.933 63.6402L188.833 63.4013L188.733 63.1613L188.634 62.9209L188.534 62.679L188.436 62.4357L188.338 62.1915L188.24 61.9462L188.144 61.699L188.048 61.4507L187.954 61.2005L187.86 60.9492L187.768 60.6959L187.677 60.4412L187.588 60.1845L187.5 59.9257L187.415 59.6653L187.331 59.4026L187.249 59.138L187.17 58.8708L187.093 58.6017L187.018 58.3307L186.946 58.0567L186.876 57.7804L186.81 57.5019L186.746 57.2206L186.685 56.9364L186.628 56.65L186.574 56.3608L186.523 56.0683L186.476 55.7735L186.432 55.4753L186.393 55.1741L187.196 55.0742ZM187.196 55.0742L186.393 55.1741C186.365 54.9522 186.523 54.7496 186.744 54.7224C186.966 54.6952 187.169 54.8524 187.196 55.0742ZM189.867 48.2787L190.119 48.6464L190.015 48.6113L189.907 48.5886L189.795 48.5784L189.677 48.5807L189.555 48.5965L189.427 48.626L189.295 48.671L189.159 48.7303L189.021 48.8059L188.88 48.8977L188.738 49.0059L188.597 49.1302L188.457 49.2716L188.319 49.4295L188.183 49.6042L188.052 49.7958L187.926 50.004L187.805 50.2281L187.692 50.4693L187.585 50.7271L187.488 51.0014L187.398 51.2917L187.32 51.5982L187.252 51.9206L187.196 52.2596L187.152 52.6145L187.121 52.985L187.105 53.3716L187.104 53.7741L187.118 54.1917L187.148 54.6252L187.196 55.0742L186.393 55.1741L186.342 54.6971L186.309 54.2341L186.294 53.7862L186.295 53.3535L186.313 52.9351L186.346 52.5321L186.394 52.144L186.456 51.7717L186.531 51.4145L186.619 51.0725L186.719 50.7467L186.83 50.4368L186.951 50.1427L187.082 49.8646L187.223 49.6026L187.372 49.3573L187.529 49.1279L187.693 48.9155L187.864 48.7197L188.041 48.5414L188.224 48.3799L188.412 48.2363L188.605 48.1112L188.801 48.0039L189.002 47.9158L189.205 47.8474L189.411 47.7998L189.617 47.7733L189.824 47.7688L190.028 47.7881L190.229 47.8304L190.424 47.8965L190.676 48.2643L189.867 48.2787ZM190.119 48.6464L190.424 47.8965C190.631 47.9808 190.731 48.2174 190.646 48.4242C190.562 48.6309 190.326 48.7307 190.119 48.6464Z" fill="#000D19"/>
<path fill-rule="evenodd" clip-rule="evenodd" d="M190.271 48.2715L190.276 48.5066C190.081 49.1298 189.96 48.9617 189.623 49.5773C188.74 51.187 188.721 54.2564 189.016 56.0819C189.47 58.8931 190.275 61.4942 191.151 63.8545C193.842 71.1104 197.242 74.2762 198.314 76.6459C197.319 76.2064 196.311 74.7456 195.571 73.8245C193.407 71.129 190.62 66.6237 189.306 63.4837C188.244 60.9461 187.189 58.2922 186.794 55.1242C186.17 50.105 188.707 47.6335 190.271 48.2715Z" fill="#0D3752"/>
<path d="M161.904 86.5816L161.856 86.5328L162.433 85.9686L163.686 87.0503L163.157 87.6633L161.904 86.5816ZM162.433 85.9686L161.904 86.5816C161.735 86.4357 161.716 86.1795 161.862 86.0105C162.008 85.8416 162.264 85.8227 162.433 85.9686ZM159.432 74.3632L160.026 74.3359L159.83 74.593L159.658 74.8666L159.509 75.1564L159.383 75.4622L159.28 75.7831L159.197 76.1191L159.136 76.4683L159.096 76.8297L159.075 77.2031L159.075 77.5859L159.093 77.9775L159.13 78.3774L159.184 78.7833L159.256 79.1938L159.343 79.6084L159.446 80.0256L159.563 80.4437L159.694 80.8617L159.839 81.2782L159.994 81.6924L160.162 82.1028L160.339 82.5088L160.526 82.9075L160.721 83.2991L160.924 83.6819L161.133 84.0554L161.349 84.4171L161.57 84.7667L161.794 85.1027L162.021 85.4239L162.251 85.7293L162.481 86.0173L161.856 86.5328L161.61 86.2252L161.367 85.9009L161.126 85.5615L160.89 85.2074L160.659 84.8404L160.433 84.4605L160.213 84.0697L160.001 83.6695L159.796 83.2598L159.601 82.8421L159.416 82.4181L159.241 81.9879L159.077 81.5533L158.925 81.1149L158.787 80.6742L158.663 80.232L158.554 79.789L158.461 79.3472L158.384 78.9065L158.326 78.4681L158.285 78.0342L158.265 77.6041L158.266 77.1804L158.289 76.7632L158.335 76.3535L158.405 75.9528L158.5 75.5624L158.623 75.1833L158.774 74.8171L158.954 74.4659L159.165 74.1311L159.407 73.8151L160.001 73.7879L159.432 74.3632ZM160.026 74.3359L159.407 73.8151C159.55 73.6443 159.806 73.622 159.977 73.7656C160.148 73.9092 160.17 74.1651 160.026 74.3359ZM159.709 75.5378L159.713 75.3851L159.715 75.2453L159.716 75.1175L159.714 75.0015L159.711 74.8972L159.707 74.8046L159.701 74.7218L159.693 74.6496L159.686 74.588L159.678 74.5374L159.669 74.4965L159.661 74.4648L159.654 74.4433L159.65 74.4327L159.65 74.4315L159.653 74.4361L159.661 74.4478L159.678 74.4652L159.696 74.4811L159.722 74.4977L159.744 74.509L159.76 74.5147L159.772 74.5181L159.772 74.5185L159.766 74.5174L159.746 74.5147L159.714 74.5087L159.669 74.4985L159.62 74.4826L159.56 74.4565L159.493 74.4153L159.432 74.3632L160.001 73.7879L159.968 73.7592L159.93 73.7361L159.901 73.7229L159.885 73.7176L159.873 73.7149H159.876L159.892 73.7176L159.921 73.7225L159.958 73.7305L160.007 73.7437L160.059 73.763L160.119 73.7917L160.18 73.8317L160.234 73.8771L160.285 73.9315L160.328 73.9893L160.363 74.0483L160.394 74.1122L160.419 74.1787L160.441 74.2464L160.458 74.3166L160.474 74.3922L160.487 74.4739L160.498 74.5604L160.507 74.6538L160.515 74.7555L160.52 74.8655L160.524 74.9849L160.525 75.1137L160.525 75.2529L160.523 75.4033L160.518 75.565L159.709 75.5378ZM159.709 75.5378L160.518 75.565C160.511 75.7884 160.323 75.9634 160.1 75.9562C159.876 75.949 159.701 75.7612 159.709 75.5378ZM159.758 77.5406V77.5402L159.752 77.4707L159.746 77.4023L159.741 77.335L159.736 77.2688L159.731 77.205L159.726 77.1418L159.722 77.0791L159.718 77.0164L159.715 76.9544L159.712 76.8931L159.709 76.8338L159.706 76.7749L159.704 76.7148L159.702 76.6562L159.7 76.598L159.698 76.5383L159.697 76.4785L159.696 76.4203L159.696 76.3618L159.695 76.3017V76.2423V76.1826L159.696 76.121L159.696 76.0601L159.697 75.9997L159.698 75.9358L159.699 75.8723L159.701 75.808L159.702 75.7412L159.704 75.6754L159.706 75.6077L159.709 75.5378L160.518 75.565L160.516 75.6327L160.514 75.6988L160.512 75.7646L160.51 75.8269L160.509 75.8897L160.508 75.9509L160.507 76.0095L160.506 76.07L160.505 76.1286L160.505 76.1849V76.2423V76.2986L160.505 76.3535L160.506 76.4097L160.507 76.4649L160.508 76.5194L160.509 76.5738L160.511 76.6297L160.513 76.6853L160.515 76.7401L160.518 76.7968L160.52 76.8538L160.523 76.9105L160.526 76.968L160.53 77.0262L160.534 77.0852L160.539 77.1468L160.543 77.2091L160.548 77.2715L160.553 77.3357L160.559 77.4011L160.565 77.4684V77.468L159.758 77.5406ZM159.758 77.5402L160.565 77.4684C160.584 77.691 160.42 77.8879 160.197 77.9076C159.975 77.9272 159.778 77.7628 159.758 77.5402ZM160.439 81.2457V81.246L160.412 81.1315L160.385 81.0177L160.359 80.9028L160.333 80.7887L160.306 80.6761L160.28 80.5627L160.254 80.4489L160.229 80.3352L160.204 80.2222L160.179 80.1088L160.154 79.9954L160.129 79.8816L160.105 79.7682L160.082 79.6541L160.059 79.5407L160.036 79.4269L160.014 79.3117L159.992 79.1964L159.971 79.0822L159.95 78.9666L159.93 78.8506L159.911 78.7349L159.892 78.6177L159.874 78.5006L159.857 78.3823L159.84 78.264L159.825 78.1457L159.809 78.0259L159.795 77.9053L159.782 77.7844L159.77 77.6623L159.758 77.5406L160.565 77.468L160.576 77.5844L160.587 77.6997L160.6 77.8139L160.613 77.9284L160.627 78.0414L160.643 78.1552L160.658 78.2681L160.675 78.3796L160.692 78.4923L160.71 78.6034L160.729 78.7153L160.748 78.8268L160.768 78.9371L160.788 79.049L160.809 79.1598L160.83 79.2697L160.853 79.3805L160.875 79.4916L160.898 79.6027L160.921 79.7131L160.945 79.8238L160.969 79.9349L160.994 80.0468L161.019 80.1583L161.044 80.2698L161.07 80.3813L161.096 80.4939L161.122 80.6073L161.148 80.7207L161.174 80.8333L161.201 80.9478L161.227 81.0624V81.0627L160.439 81.2457ZM160.439 81.246L161.227 81.0624C161.278 81.2801 161.142 81.4977 160.925 81.5484C160.707 81.599 160.489 81.4637 160.439 81.246ZM163.686 87.0503L163.059 87.5367L162.962 87.3424L162.866 87.1531L162.77 86.9675L162.676 86.7853L162.583 86.6065L162.49 86.43L162.399 86.2554L162.308 86.0831L162.218 85.9115L162.129 85.7406L162.041 85.5702L161.954 85.3994L161.867 85.2278L161.782 85.055L161.698 84.8808L161.615 84.7039L161.532 84.5252L161.451 84.3434L161.371 84.1578L161.292 83.9684L161.214 83.7753L161.138 83.5776L161.062 83.3747L160.987 83.1657L160.914 82.9506L160.843 82.7303L160.772 82.5024L160.703 82.2673L160.635 82.0246L160.568 81.7736L160.503 81.514L160.439 81.2457L161.227 81.0627L161.289 81.3212L161.352 81.5711L161.416 81.8114L161.481 82.0435L161.547 82.268L161.615 82.4853L161.683 82.6959L161.752 82.8996L161.822 83.0973L161.894 83.2896L161.967 83.4782L162.041 83.6615L162.116 83.8411L162.192 84.0176L162.27 84.191L162.349 84.3623L162.429 84.5316L162.51 84.6998L162.592 84.8664L162.676 85.0335L162.761 85.2005L162.848 85.368L162.935 85.5366L163.025 85.7066L163.115 85.879L163.207 86.0536L163.3 86.2309L163.395 86.4119L163.49 86.5963L163.587 86.785L163.685 86.9781L163.784 87.1769L163.157 87.6633L163.686 87.0503ZM163.059 87.5367L163.784 87.1769C163.883 87.3772 163.802 87.6206 163.601 87.7196C163.401 87.8186 163.158 87.737 163.059 87.5367Z" fill="#000D19"/>
<path fill-rule="evenodd" clip-rule="evenodd" d="M163.422 87.3567L162.169 86.275C159.621 83.1917 157.23 77.0344 159.717 74.0754C159.859 74.2164 160.172 73.8078 160.113 75.5513C160.089 76.2914 160.096 76.7668 160.161 77.5042C160.276 78.7791 160.548 79.9299 160.833 81.1541C161.498 84.0164 162.369 85.2349 163.422 87.3567Z" fill="#0D3752"/>
<path fill-rule="evenodd" clip-rule="evenodd" d="M214.713 158.276L214.764 113.429C214.021 114.196 212.098 118.036 211.402 119.263L188.121 160.674C192.233 160.629 196.895 160.197 201.093 159.994C205.257 159.793 210.795 160.109 214.735 159.641L214.713 158.276ZM251.343 160.732C247.247 153.001 241.918 144.084 237.525 136.285L227.21 117.963C226.322 116.313 224.718 113.19 223.743 111.892L223.723 159.702C232.959 159.811 242.206 160.104 251.343 160.732ZM258.541 161.437L259.997 161.443C259.346 159.924 257.622 156.867 256.644 155.186C255.383 153.018 254.382 150.957 253.137 148.841L239.356 123.406C237.959 121.026 233.407 111.927 232.356 110.668L230.558 110.658L251.466 148.795C253.381 152.362 257.08 158.326 258.541 161.437ZM218.473 101.217C220.401 102.91 226.984 102.482 230.209 102.487C231.53 102.489 233.662 102.887 233.637 101.521C233.602 99.5121 227.754 100.386 226.129 100.432C224.418 100.481 219.634 100.294 218.473 101.217ZM222.648 89.5073C227.699 88.1111 228.282 81.7638 224.693 78.6287C224.062 78.0772 223.761 77.9616 222.922 77.991C224.106 79.7224 224.879 81.0196 224.899 83.9348C224.922 87.3885 223.632 88.0941 222.648 89.5073ZM159.717 74.0755C157.23 77.0345 159.621 83.1917 162.169 86.275L163.422 87.3567C162.369 85.2349 161.498 84.0164 160.833 81.1541C160.548 79.93 160.276 78.7791 160.161 77.5042C160.096 76.7669 160.089 76.2914 160.113 75.5514C160.172 73.8079 159.859 74.2164 159.717 74.0755ZM189.622 49.5773C189.96 48.9617 190.081 49.1298 190.276 48.5066L190.271 48.2715C188.707 47.6335 186.17 50.1049 186.794 55.1242C187.189 58.2922 188.244 60.9461 189.306 63.4837C190.62 66.6237 193.407 71.129 195.571 73.8245C196.311 74.7456 197.319 76.2064 198.314 76.6459C197.242 74.2761 193.842 71.1104 191.151 63.8545C190.275 61.4942 189.47 58.8931 189.016 56.0819C188.721 54.2564 188.74 51.187 189.622 49.5773ZM264.003 49.2814C263.493 48.5561 260.622 46.3466 258.232 43.1593C256.462 40.7994 255.163 39.0014 253.511 36.3403C249.695 30.1933 248.596 26.6273 246.23 20.2727C245.684 21.8915 247.628 28.1304 248.145 29.6479C249.626 33.9891 251.719 37.7108 254.379 41.242C255.873 43.2258 255.563 42.6555 256.796 43.8495C258.814 45.8023 260.944 48.0924 264.003 49.2814ZM266.876 1.24775C263.941 0.565547 262.103 2.57247 261.565 4.8897C260.051 11.4124 264.403 20.5082 267.309 25.6503C270.618 31.5059 278.776 41.9937 285.626 43.4571C292.166 44.8544 291.647 36.6181 290.513 31.8343C289.081 25.7958 285.099 18.5107 281.482 13.671C278.926 10.2506 276.205 6.90759 272.707 4.37455C271.004 3.14129 269.373 1.82829 266.876 1.24775ZM245.531 16.254C246.044 10.7744 246.803 10.4683 250.449 8.17261C253.017 6.55611 255.836 4.98646 258.458 3.43534C261.726 1.50135 264.13 -0.642776 267.516 0.181161C274.705 1.9307 283.264 13.165 286.726 19.4813C289.04 23.7034 293.458 32.3877 292.676 38.8658C292.144 43.2761 289.891 44.3 286.83 46.0068C284.024 47.5719 281.409 49.0232 278.639 50.5668C275.267 52.4467 273.756 53.7136 269.166 52.4237C267.991 52.0933 266.77 53.2302 264.983 54.2284L236.344 70.3417C234.985 71.0855 233.55 71.9533 232.171 72.6695C230.745 73.4091 229.368 74.0811 228.012 74.9153C228.647 76.3061 229.494 77.4037 229.964 79.126C230.902 82.5597 230.755 86.3397 228.577 89.2847C224.997 94.1262 225.412 88.0994 225.389 99.0884C228.187 99.0759 233.586 98.2089 234.686 100.639C235.093 101.539 235.65 107.846 233.845 109.918C238.565 118.308 242.859 127.261 247.628 135.804C249.962 139.984 252.349 144.434 254.466 148.708C256.613 153.043 259.172 157.23 261.281 161.609C264.665 161.81 268.326 162.318 271.628 162.791C273.285 163.029 274.9 163.287 276.557 163.649C278.497 164.072 280.188 164.255 280.496 165.494C279.194 167.413 270.136 168.179 266.98 168.553C240.491 171.692 199.836 171.235 173.158 168.437C170.981 168.209 160.757 167.411 160.027 165.263C161.61 163.297 172.467 162.337 176.125 161.944C179.482 161.584 178.561 162.148 180.023 159.584C183.135 154.13 185.88 148.558 188.951 143C195.009 132.033 200.919 121.008 206.858 109.918C205.711 108.32 205.614 108.554 205.625 105.83C205.631 104.518 205.401 101.799 205.849 100.726C206.973 98.0377 211.47 99.4062 214.717 99.0131C214.7 89.0008 215.207 92.6401 212.991 90.0939C210.219 86.9077 210.413 84.7386 209.819 83.5776C205.228 85.9489 203.545 87.8496 199.726 86.5264C197.139 85.6302 192.889 82.4581 191.744 80.56C190.195 80.8371 188.073 81.9622 186.533 82.5976C184.827 83.3017 183.284 83.9756 181.627 84.6736C179.78 85.4519 170.599 88.8719 169.612 90.2159C168.279 92.0309 163.733 93.7256 162.909 93.6787C157.015 93.3461 151.132 79.3388 154.461 76.2664C155.216 75.5703 157.817 74.278 158.861 73.6881C163.269 71.1958 161.511 74.0452 163.8 72.6355L181.332 62.244C181.105 59.6808 178.957 53.3274 182.929 51.0869C185.403 49.6911 189.447 46.6176 192.301 46.7786C193.579 46.8508 199.971 42.6563 201.213 41.9491C204.182 40.2589 207.055 38.5267 210.052 36.8256L245.531 16.254Z" fill="#000D19"/>
<path fill-rule="evenodd" clip-rule="evenodd" d="M268.169 6.17478C270.187 6.72395 271.339 7.65031 272.709 8.71954C273.172 9.08086 273.259 9.08313 273.634 9.48792C274.012 9.89535 274.009 9.97435 274.414 10.3697C279.822 15.6463 284.239 22.2302 286.567 29.7148C290.985 43.9232 281.352 39.2562 274.816 30.911C274.208 30.1355 273.865 29.6604 273.239 28.8871C270.702 25.7497 267.276 19.066 266.029 15.1803C265.193 12.5758 263.23 4.83078 268.169 6.17478Z" fill="#0D3752"/>
<path fill-rule="evenodd" clip-rule="evenodd" d="M268.168 6.17478C263.23 4.83078 265.192 12.5758 266.028 15.1803C267.275 19.066 270.701 25.7497 273.239 28.8871C273.865 29.6604 274.208 30.1355 274.815 30.911C281.352 39.2562 290.985 43.9232 286.566 29.7148C284.239 22.2302 279.821 15.6463 274.414 10.3697C274.009 9.97434 274.012 9.89535 273.634 9.48792C273.259 9.08313 273.172 9.08086 272.709 8.71953C271.339 7.65031 270.187 6.72394 268.168 6.17478ZM266.875 1.24779C269.373 1.82832 271.004 3.14133 272.706 4.37459C276.204 6.90763 278.926 10.2506 281.482 13.6711C285.098 18.5108 289.081 25.7958 290.513 31.8344C291.647 36.6181 292.166 44.8544 285.626 43.4572C278.775 41.9937 270.618 31.5059 267.309 25.6503C264.403 20.5083 260.05 11.4124 261.564 4.88974C262.102 2.57251 263.941 0.565584 266.875 1.24779Z" fill="#E9C87C"/>
<path fill-rule="evenodd" clip-rule="evenodd" d="M258.54 161.437C257.08 158.326 253.381 152.362 251.466 148.795L230.558 110.658L232.356 110.668C233.407 111.927 237.959 121.025 239.356 123.406L253.137 148.841C254.382 150.957 255.383 153.018 256.644 155.186C257.622 156.867 259.346 159.924 259.996 161.443L258.54 161.437Z" fill="#E9C87C"/>
<path fill-rule="evenodd" clip-rule="evenodd" d="M218.473 101.217C219.634 100.294 224.418 100.481 226.129 100.432C227.754 100.386 233.602 99.512 233.637 101.521C233.661 102.887 231.53 102.489 230.209 102.487C226.984 102.482 220.401 102.91 218.473 101.217Z" fill="#E9C87C"/>
<path fill-rule="evenodd" clip-rule="evenodd" d="M222.648 89.5073C223.632 88.0941 224.922 87.3885 224.899 83.9348C224.879 81.0196 224.106 79.7224 222.922 77.991C223.761 77.9616 224.062 78.0772 224.694 78.6287C228.282 81.7638 227.699 88.1111 222.648 89.5073Z" fill="#E9C87C"/>
<path fill-rule="evenodd" clip-rule="evenodd" d="M267.973 6.26355C269.101 6.52623 270.816 7.31201 272.628 8.62426C274.439 9.93652 276.35 11.7756 278.055 13.8109C279.76 15.8462 281.26 18.078 282.608 20.1673C283.956 22.2559 285.152 24.202 286.027 26.1303C286.902 28.0582 287.455 29.9687 287.75 31.6918C288.044 33.4149 288.08 34.9502 288 36.0213C287.919 37.0928 287.723 37.6994 287.359 38.0792C286.995 38.4587 286.463 38.6106 286.123 38.6016C285.784 38.5929 285.638 38.4232 285.645 37.8831C285.652 37.3426 285.812 36.4317 285.634 34.7982C285.455 33.1647 284.938 30.8082 284.25 28.7374C283.563 26.6658 282.706 24.8804 281.751 23.2023C280.796 21.5242 279.742 19.9526 278.403 18.081C277.064 16.2086 275.439 14.0354 273.386 12.3127C271.333 10.5896 268.851 9.31702 267.556 8.53125C266.262 7.74511 266.155 7.44694 266.052 7.19295C265.95 6.93897 265.853 6.72956 266.076 6.49523C266.299 6.26015 266.843 6.00088 267.973 6.26355Z" fill="#000D19"/>
<path fill-rule="evenodd" clip-rule="evenodd" d="M233.671 101.788C233.885 103.109 233.511 106.189 233.261 107.898C233.011 109.607 232.886 109.947 232.592 110.036C232.297 110.125 231.832 109.964 231.69 109.036C231.547 108.107 231.725 106.411 231.744 105.2C231.763 103.989 231.621 103.262 231.613 102.7C231.604 102.137 231.727 101.739 232.19 101.321C232.653 100.904 233.456 100.467 233.671 101.788Z" fill="#E9C87C"/>
<path fill-rule="evenodd" clip-rule="evenodd" d="M195.627 48.9519C195.805 48.4239 195.973 47.9495 195.98 46.2933C195.988 44.6383 195.837 41.8029 195.67 39.9592C195.505 38.1152 195.323 37.2655 195.142 36.4144C193.249 36.5538 191.355 36.6948 189.958 36.7134C188.562 36.7326 187.661 36.6309 187.08 36.2367C186.5 35.8433 186.24 35.1588 186.254 34.2189C186.269 33.2796 186.56 32.0872 187.147 30.5818C187.734 29.0761 188.619 27.2585 189.564 25.8888C190.511 24.5198 191.519 23.5973 192.741 23.0832C193.965 22.5689 195.404 22.4604 197.188 22.9211C198.973 23.383 201.103 24.4117 202.714 25.1809C204.326 25.9515 205.417 26.4629 206.13 27.3685C206.843 28.2737 207.175 29.5738 206.946 30.5078C206.716 31.4428 205.924 32.0124 205.121 32.5253C204.318 33.0389 203.504 33.4966 202.481 33.9981C201.458 34.4997 200.227 35.0447 198.996 35.5897C199.415 36.2243 199.835 36.8581 200.298 38.0127C200.762 39.1681 201.269 40.8429 201.744 42.507C202.22 44.1704 202.662 45.822 202.684 46.9982C202.708 48.1751 202.311 48.8763 201.818 49.3725C201.326 49.8695 200.737 50.1636 199.595 50.3397C198.454 50.5173 196.76 50.5789 196.009 50.3189C195.258 50.0596 195.449 49.4795 195.627 48.9519Z" fill="#000D19"/>
<defs>
<linearGradient id="paint0_linear_258_2" x1="370.314" y1="108.298" x2="362.715" y2="188.411" gradientUnits="userSpaceOnUse">
<stop stop-color="#0D314F"/>
<stop offset="1" stop-color="#1F4B69"/>
</linearGradient>
<linearGradient id="paint1_linear_258_2" x1="72.0147" y1="169.25" x2="75.3041" y2="196.069" gradientUnits="userSpaceOnUse">
<stop stop-color="#0D314F"/>
<stop offset="1" stop-color="#1D4663"/>
</linearGradient>
<linearGradient id="paint2_linear_258_2" x1="241.967" y1="98.1778" x2="228.89" y2="134.606" gradientUnits="userSpaceOnUse">
<stop stop-color="#0D3752"/>
<stop offset="1" stop-color="#1F4B69"/>
</linearGradient>
<linearGradient id="paint3_linear_258_2" x1="351.329" y1="128.303" x2="298.947" y2="238.711" gradientUnits="userSpaceOnUse">
<stop stop-color="#0D314F"/>
<stop offset="1" stop-color="#2E5C7B"/>
</linearGradient>
</defs>
</svg>
