<svg width="610" height="157" viewBox="0 0 610 157" fill="none" xmlns="http://www.w3.org/2000/svg">
<path fill-rule="evenodd" clip-rule="evenodd" d="M443.953 69.1266C438.09 65.97 431.962 64.9399 424.54 63.7113C417.117 62.4842 408.403 61.0583 398.704 61.3634C389.004 61.6696 378.317 63.7068 367.424 66.7968C356.53 69.8857 345.432 74.0274 338.067 76.403C330.7 78.7804 327.068 79.3917 320.636 79.5611C314.204 79.7304 304.973 79.4594 297.142 79.5951C289.31 79.7304 282.875 80.274 272.531 82.1846C262.187 84.0971 247.923 78.086 236.772 80.6313C225.621 83.1762 217.575 84.99 207.895 85.0486C198.214 85.1072 186.896 83.4121 170.868 79.5766C154.84 75.7411 133.944 80.7576 116.001 75.0546C98.0584 69.3497 82.9125 63.9162 70.6719 59.7756C58.4317 55.6339 49.0945 52.7809 41.0015 51.3905C32.9112 49.9985 25.8957 50.0647 19.4354 50.0326C12.9755 49.9985 7.04469 49.8753 0.0012207 50.5051L0.15628 114.895C13.14 117.435 31.8266 118.941 56.5097 119.597C94.7904 120.615 147.49 119.597 212.953 117.763C278.415 115.929 356.635 113.282 398.598 109.887C440.563 106.492 446.27 102.349 450.627 96.1714C454.984 89.9925 457.991 91.0706 456.699 84.3205C455.408 77.5719 449.813 72.2828 443.953 69.1266Z" fill="url(#paint0_linear_264_192)"/>
<path fill-rule="evenodd" clip-rule="evenodd" d="M128.404 89.2661C125.825 88.6443 120.788 87.0388 117.761 86.5029C114.732 85.9688 113.714 86.5029 112.789 86.5645C111.864 86.628 111.037 86.2152 110.175 85.2688C109.313 84.3221 108.423 82.8398 107.339 81.6651C106.255 80.4927 104.98 79.6283 103.291 79.3819C101.6 79.1354 99.498 79.5051 97.8415 80.1642C96.1819 80.8234 94.9705 81.7698 93.791 82.119C92.6114 82.4701 91.4635 82.2218 89.7752 81.275C88.0865 80.3282 85.0625 83.4445 83.1803 81.8185C81.3011 80.1922 79.7715 78.5863 78.0485 77.5987C76.3284 76.6111 74.4171 76.2396 72.6305 76.7547C67.2356 78.31 64.7173 78.0787 61.6325 75.3544C60.0742 73.9768 58.5389 73.0712 56.8185 72.7405C55.1014 72.412 53.1845 72.6584 51.4962 72.9873C49.8075 73.3176 48.3418 73.7284 47.0987 73.8925C45.8552 74.0588 44.8378 73.9767 43.1782 73.8123C41.5216 73.6479 39.2289 73.3996 37.1876 73.5229C35.1493 73.6461 33.3597 74.1389 32.0849 73.5229C30.8127 72.9068 30.0492 71.1761 28.6761 70.6198C27.3057 70.0649 25.3309 70.6833 23.576 71.5269C21.8238 72.3708 20.2916 73.4408 18.9529 73.8721C17.6146 74.3052 16.4694 74.1 14.7145 73.79C12.9624 73.482 10.4153 73.0935 7.79876 73.3792C5.18522 73.6668 2.61779 74.4507 0.0012207 75.0762V143C16.5794 143.224 35.2276 142.384 54.8758 140.782C74.8279 139.158 96.6271 136.316 112.086 134.092C127.545 131.871 136.661 130.265 141.475 126.436C146.289 122.608 146.798 116.555 145.685 111.718C144.569 106.882 141.825 103.258 139.145 99.701C136.462 96.1463 133.839 92.6586 132.469 91.0939C131.099 89.5295 130.98 89.8897 128.404 89.2661Z" fill="url(#paint1_linear_264_192)"/>
<path fill-rule="evenodd" clip-rule="evenodd" d="M609.505 33.6377C603.121 32.641 593.472 31.9331 584.247 32.7052C575.025 33.4774 566.228 35.7307 558.66 38.5299C551.091 41.3294 544.755 44.6773 539.93 46.801C535.106 48.9243 531.794 49.8265 527.063 50.2116C522.335 50.5987 516.185 50.4686 509.044 50.6293C501.902 50.791 493.766 51.2408 483.312 53.7833C472.861 56.3254 458.538 56.3152 448.464 60.1771C413.019 73.7649 395.887 82.3656 355.266 94.0126C339.649 98.4917 325.345 102.236 303.872 107.964C282.398 113.692 253.754 121.405 234.228 130.281C214.703 139.157 205.848 156.63 220.19 155.118C234.533 153.608 278.271 147.514 319.705 148.222C361.138 148.93 399.182 159.1 452.499 153.835C505.815 148.571 573.955 143.369 609.642 129.862V33.6595L609.505 33.6377Z" fill="url(#paint2_linear_264_192)"/>
<path fill-rule="evenodd" clip-rule="evenodd" d="M609.642 58.8465C608.329 58.5907 607.555 58.3303 606.864 58.0955C605.361 57.5842 604.24 57.1975 603.272 57.0902C602.303 56.9848 601.489 57.1624 599.27 57.7951C597.054 58.4293 593.436 59.5223 591.293 60.7019C589.153 61.8826 588.491 63.1514 587.778 63.8385C587.063 64.5257 586.3 64.6311 585.916 64.0143C585.535 63.3975 585.535 62.0599 584.668 61.9004C583.801 61.742 582.07 62.7648 579.955 63.8385C577.84 64.9142 575.341 66.0405 573.531 66.1815C571.724 66.3236 570.603 65.4766 569.761 65.2831C568.92 65.0899 568.361 65.5469 567.161 66.3043C565.964 67.0617 564.131 68.1196 562.422 68.682C560.714 69.2463 559.135 69.3181 557.681 69.9701C556.229 70.6221 554.903 71.8542 553.476 71.9067C552.05 71.9596 550.52 70.8329 549.373 69.9508C548.227 69.0705 547.464 68.436 546.648 68.4889C545.832 68.5414 544.965 69.283 544.149 69.3181C543.334 69.3533 542.571 68.6839 541.882 68.6487C541.193 68.6136 540.583 69.2111 540.047 69.7399C539.513 70.269 539.053 70.726 538.084 70.3552C537.118 69.9859 535.639 68.7893 534.619 68.1196C533.599 67.4502 533.04 67.3093 531.637 68.2602C530.236 69.2127 527.992 71.2547 526.36 73.1215C524.73 74.9893 523.711 76.6817 523.149 76.3461C522.59 76.012 522.488 73.6502 522.079 72.2937C521.672 70.9384 520.96 70.5854 519.455 71.325C517.953 72.0666 515.657 73.8981 513.898 75.5709C512.142 77.2457 510.919 78.7605 510.154 79.606C509.391 80.4514 509.084 80.6287 507.63 80.5935C506.178 80.5584 503.58 80.3109 502.024 80.1173C500.471 79.9238 499.96 79.7817 498.762 80.504C497.565 81.2263 495.681 82.8133 494.278 83.5178C492.877 84.2227 491.96 84.045 491.042 83.7623C490.124 83.4811 489.207 83.0945 488.213 83.1296C487.219 83.1648 486.148 83.6217 484.771 84.2737C483.395 84.9256 481.715 85.7727 479.651 86.1593C477.587 86.5478 475.139 86.4757 473.202 86.5811C471.267 86.6884 469.838 86.9696 468.844 87.4632C467.85 87.9572 467.291 88.6617 465.964 88.8552C464.64 89.0484 462.55 88.732 460.511 89.1538C458.472 89.5775 456.487 90.7393 448.84 93.47C441.196 96.2011 427.893 100.5 416.578 103.231C405.263 105.962 395.936 107.123 388.8 108.357C381.665 109.59 376.723 110.893 370.606 113.201C364.49 115.51 357.202 118.82 351.391 122.168C345.582 125.516 341.248 128.899 341.881 136.809C342.515 144.721 325.668 135.945 336.521 146.375C347.373 156.805 357.241 151.554 386.385 153.805C415.526 156.057 483.109 152.083 518.625 152.93C554.142 153.777 585.429 155.613 609.642 152.581V58.8465Z" fill="url(#paint3_linear_264_192)"/>
<path fill-rule="evenodd" clip-rule="evenodd" d="M609.642 145.965C605.97 144.888 604.056 144.165 601.831 143.57C599.606 142.972 597.145 142.623 595.784 142.459C594.422 142.295 593.923 142.252 594.197 141.717C594.469 141.182 595.511 140.153 595.413 139.576C595.314 139.001 594.073 138.878 592.786 138.919C591.498 138.958 590.159 139.165 588.797 139.64C587.435 140.112 586.046 140.851 585.105 141.264C584.163 141.675 583.666 141.761 583.296 141.802C582.925 141.841 582.678 141.841 582.727 141.266C582.777 140.689 583.125 139.535 584.064 138.301C585.006 137.065 586.543 135.748 587.359 134.843C588.174 133.936 588.276 133.443 587.88 133.217C587.482 132.989 586.593 133.03 585.503 133.4C584.413 133.771 583.123 134.471 581.86 135.5C580.597 136.531 579.356 137.888 578.267 138.837C577.177 139.783 576.237 140.317 575.098 140.586C573.958 140.853 572.619 140.855 571.678 140.855C570.736 140.855 570.192 140.853 570.39 139.845C570.588 138.835 571.529 136.818 571.851 132.95C572.174 129.08 571.876 123.357 571.727 120.497C571.579 117.634 571.576 117.636 573.04 117.677C574.502 117.716 577.426 117.8 580.473 117.388C583.521 116.977 586.691 116.07 588.599 114.486C590.507 112.901 591.148 110.637 589.415 107.858C587.682 105.078 583.57 101.786 580.1 99.3573C576.633 96.9304 573.808 95.3657 571.008 94.6862C568.208 94.0066 565.435 94.2119 562.089 95.4255C558.745 96.641 554.832 98.8644 551.785 101.232C548.738 103.598 546.556 106.109 545.342 108.023C544.129 109.936 543.882 111.256 543.907 112.306C543.931 113.355 544.228 114.137 546.581 114.938C548.933 115.741 553.343 116.566 556.232 117.13C559.12 117.694 560.491 117.998 561.176 118.151C561.859 118.303 561.862 118.303 561.698 120.599C561.534 122.896 561.201 127.492 560.394 130.775C559.587 134.059 558.3 136.036 557.358 137.375C556.417 138.712 555.821 139.412 555.475 139.557C555.129 139.701 555.03 139.288 553.866 138.383C552.702 137.476 550.471 136.079 549.082 135.358C547.695 134.638 547.151 134.595 546.976 135.047C546.803 135.5 547.003 136.451 547.3 137.354C547.597 138.26 547.992 139.126 547.646 139.208C547.3 139.29 546.21 138.588 544.574 138.136C542.94 137.683 540.761 137.476 538.754 137.311C536.747 137.147 534.913 137.024 533.848 136.964C532.783 136.902 532.484 136.9 532.113 135.976C531.742 135.05 531.295 133.196 532.064 132.065C532.832 130.933 534.812 130.519 536.448 129.718C538.082 128.915 539.374 127.72 539.819 126.671C540.264 125.622 539.866 124.716 538.455 123.482C537.043 122.246 534.614 120.681 532.385 119.839C530.156 118.995 528.124 118.87 525.994 119.139C523.863 119.406 521.634 120.063 519.578 121.217C517.522 122.369 515.636 124.016 514.423 125.334C513.21 126.65 512.666 127.64 512.789 128.71C512.913 129.778 513.706 130.931 515.315 131.589C516.926 132.248 519.353 132.416 521.212 132.518C523.068 132.621 524.36 132.661 525.052 132.907C525.744 133.155 525.846 133.609 525.895 134.412C525.944 135.214 525.942 136.366 525.423 136.944C524.902 137.518 523.863 137.518 521.113 136.944C518.365 136.368 510.598 140.428 507.304 140.274C473.656 138.712 499.618 146.434 457.009 136.964C452.105 135.875 447.46 137.784 445.602 136.96C443.743 136.137 443.743 134.903 443.271 134.079C442.802 133.256 441.86 132.844 440.323 133.028C438.788 133.215 436.658 133.997 435.318 134.613C433.982 135.231 433.438 135.685 433.262 134.841C433.089 133.997 433.289 131.856 432.867 130.599C432.447 129.344 431.406 128.975 430.588 129.098C429.77 129.221 429.177 129.839 428.532 130.786C427.887 131.732 427.195 133.009 426.723 133.482C426.253 133.956 426.004 133.626 424.889 132.659C423.775 131.692 421.795 130.086 420.085 129.262C418.374 128.439 416.939 128.398 416.244 128.768C415.55 129.139 415.601 129.922 415.105 130.25C414.61 130.58 413.568 130.455 406.68 127.491C399.795 124.527 387.06 118.725 375.491 114.051C363.922 109.38 353.515 105.838 346.158 103.863C338.801 101.887 334.488 101.475 330.178 99.9511C325.868 98.4294 321.558 95.7951 316.603 93.8588C311.647 91.9249 306.049 90.6905 301.715 89.7626C297.377 88.8366 294.306 88.2205 292.151 87.1899C289.996 86.1611 288.755 84.7214 287.22 83.9599C285.683 83.1979 283.852 83.1159 281.944 82.9515C280.036 82.7871 278.054 82.5388 276.791 81.88C275.526 81.2227 274.982 80.1509 273.842 79.6973C272.701 79.2453 270.968 79.4116 269.233 79.2045C267.499 78.9989 265.766 78.424 264.478 78.2781C263.188 78.1345 262.348 78.424 260.764 78.1345C259.177 77.8469 256.847 76.9825 253.775 76.0153C250.703 75.0481 246.889 73.9766 242.9 73.6459C238.912 73.3175 234.748 73.7302 231.428 73.6667C228.109 73.6051 225.631 73.071 223.849 72.9682C222.064 72.8654 220.974 73.1943 218.721 72.5763C218.412 72.492 198.167 70.007 197.808 70.0146C182.929 70.3188 166.502 71.2357 161.655 69.262C158.882 68.1346 156.746 67.4324 155.039 67.4324C153.329 67.4324 152.041 68.129 149.96 68.2949C147.879 68.4593 145.005 68.0896 142.874 67.8636C140.744 67.638 139.355 67.5556 138.241 68.0076C137.126 68.4593 136.286 69.4488 134.427 70.4983C132.569 71.5475 131.319 72.2702 125.958 70.1136C120.593 67.9551 112.353 73.4388 107.697 73.0896C103.038 72.7403 87.7164 72.2067 85.4873 72.2887C83.2558 72.3707 80.8781 73.071 79.4672 73.8942C78.0537 74.7178 77.6062 75.6642 76.3189 76.2394C75.0312 76.8143 72.9007 77.0237 71.4399 77.5986C69.9795 78.1757 69.1862 79.1221 68.1702 79.4301C67.1547 79.74 65.9142 79.4097 64.8737 79.3277C63.8332 79.2453 62.9904 79.4116 61.8263 80.0893C60.6622 80.7669 59.1746 81.9639 56.4265 83.0951C53.678 84.2267 49.6623 85.2986 46.2195 86.5942C42.7744 87.8898 39.9024 89.4134 37.9945 90.2369C36.0866 91.0601 35.1451 91.1833 34.08 91.0193C33.0149 90.8549 31.8236 90.4028 30.4373 90.7316C29.0506 91.0601 27.4666 92.1732 26.5742 92.9533C25.6823 93.7356 25.482 94.1895 24.7654 94.3127C24.0484 94.436 22.8057 94.2303 21.5921 94.4564C20.3788 94.6843 19.1898 95.3416 17.9766 96.3908C16.763 97.4399 15.5248 98.8815 12.8236 100.405C10.1223 101.929 -0.0624516 100.073 0.000288604 105.5L0.00115447 134.5C0.00342218 156.64 0.00115447 138.549 0.00115447 156.604H609.642V145.965Z" fill="#000D19"/>
<path fill-rule="evenodd" clip-rule="evenodd" d="M311.225 120.114C313.118 120.896 315.711 122.459 317.502 123.941C319.292 125.423 320.282 126.822 320.857 128.325C321.434 129.828 321.598 131.434 321.247 132.668C320.898 133.904 320.034 134.768 317.687 135.158C315.34 135.551 311.512 135.468 308.157 135.325C304.802 135.181 301.919 134.974 299.882 134.561C297.845 134.15 296.65 133.534 295.601 132.834C294.552 132.134 293.646 131.352 293.667 130.177C293.688 129.005 294.634 127.44 295.993 125.958C297.351 124.475 299.121 123.077 301.016 121.984C302.909 120.894 304.925 120.114 306.531 119.722C308.137 119.331 309.332 119.331 311.225 120.114Z" fill="#031D31"/>
<path fill-rule="evenodd" clip-rule="evenodd" d="M310.351 140.368C310.711 141.645 311.081 144.074 311.07 145.956C311.061 147.839 310.67 149.178 310.103 150.269C309.537 151.359 308.796 152.203 308.198 152.675C307.603 153.15 307.149 153.254 306.675 153.131C306.202 153.008 305.71 152.657 305.42 151.977C305.133 151.299 305.05 150.289 305.194 148.777C305.338 147.265 305.71 145.246 305.997 143.795C306.285 142.345 306.492 141.46 307.026 140.728C307.562 139.998 308.426 139.421 309.033 139.193C309.64 138.967 309.991 139.092 310.351 140.368Z" fill="#031D31"/>
<path fill-rule="evenodd" clip-rule="evenodd" d="M321.307 149.386C320.691 150.291 318.878 151.854 317.849 152.677C316.82 153.501 316.572 153.585 316.346 153.471C316.12 153.359 315.915 153.049 316.12 152.34C316.328 151.63 316.944 150.517 317.53 149.724C318.118 148.932 318.672 148.459 319.208 148.222C319.744 147.985 320.258 147.986 320.803 148.109C321.35 148.232 321.925 148.48 321.307 149.386Z" fill="#031D31"/>
<path fill-rule="evenodd" clip-rule="evenodd" d="M297.586 148.396C298.131 148.663 298.891 149.837 299.354 150.763C299.817 151.69 299.983 152.369 299.655 152.718C299.324 153.069 298.501 153.09 297.873 152.483C297.246 151.876 296.813 150.64 296.763 149.703C296.71 148.768 297.041 148.129 297.586 148.396Z" fill="#031D31"/>
<path fill-rule="evenodd" clip-rule="evenodd" d="M43.416 122.449C44.6424 122.956 46.3228 123.968 47.4828 124.929C48.6427 125.889 49.2841 126.795 49.6564 127.769C50.0302 128.742 50.1367 129.783 49.9092 130.582C49.6832 131.383 49.1231 131.943 47.6026 132.196C46.0821 132.45 43.6023 132.397 41.4287 132.304C39.2551 132.211 37.3873 132.076 36.0678 131.809C34.748 131.543 33.974 131.144 33.294 130.69C32.6141 130.237 32.0275 129.73 32.0407 128.969C32.0544 128.209 32.6674 127.196 33.548 126.235C34.4275 125.274 35.5742 124.368 36.8018 123.661C38.0287 122.954 39.3349 122.449 40.375 122.195C41.4155 121.942 42.1895 121.942 43.416 122.449Z" fill="#031D31"/>
<path fill-rule="evenodd" clip-rule="evenodd" d="M42.8496 135.571C43.0832 136.398 43.3228 137.972 43.3156 139.191C43.3096 140.412 43.0567 141.279 42.689 141.985C42.3224 142.692 41.842 143.238 41.455 143.545C41.0691 143.852 40.7754 143.919 40.4681 143.84C40.162 143.76 39.8426 143.532 39.6552 143.092C39.4688 142.653 39.4155 141.999 39.5089 141.019C39.6019 140.039 39.8426 138.731 40.029 137.791C40.2153 136.852 40.3495 136.278 40.6953 135.804C41.0426 135.331 41.6027 134.957 41.9958 134.81C42.3889 134.663 42.6164 134.745 42.8496 135.571Z" fill="#031D31"/>
<path fill-rule="evenodd" clip-rule="evenodd" d="M57.14 142.176C56.7409 142.763 55.5666 143.775 54.8999 144.309C54.2336 144.842 54.0726 144.897 53.9263 144.823C53.78 144.751 53.6466 144.549 53.78 144.09C53.9142 143.63 54.3133 142.909 54.6932 142.395C55.0742 141.882 55.4336 141.576 55.7805 141.423C56.1279 141.269 56.4605 141.269 56.8135 141.349C57.168 141.429 57.5407 141.59 57.14 142.176Z" fill="#031D31"/>
<path fill-rule="evenodd" clip-rule="evenodd" d="M34.5798 140.772C34.9332 140.945 35.4253 141.706 35.7254 142.306C36.0255 142.906 36.1328 143.346 35.92 143.572C35.7061 143.8 35.1724 143.813 34.7661 143.42C34.3598 143.027 34.079 142.226 34.0465 141.619C34.0125 141.013 34.2268 140.599 34.5798 140.772Z" fill="#031D31"/>
<path fill-rule="evenodd" clip-rule="evenodd" d="M52.9056 140.075C52.5061 140.662 51.3318 141.674 50.6651 142.208C49.9988 142.741 49.8378 142.796 49.6915 142.722C49.5453 142.649 49.4122 142.448 49.5453 141.989C49.6794 141.529 50.0785 140.808 50.4584 140.294C50.8394 139.781 51.1988 139.475 51.5458 139.322C51.8931 139.168 52.2257 139.168 52.5791 139.248C52.9332 139.328 53.3059 139.489 52.9056 140.075Z" fill="#031D31"/>
<path fill-rule="evenodd" clip-rule="evenodd" d="M29.844 142.702C30.1973 142.875 30.6894 143.636 30.9895 144.236C31.2896 144.836 31.3973 145.277 31.1842 145.503C30.9703 145.73 30.437 145.743 30.0303 145.35C29.624 144.957 29.3432 144.156 29.3107 143.549C29.2766 142.943 29.4909 142.53 29.844 142.702Z" fill="#031D31"/>
<path fill-rule="evenodd" clip-rule="evenodd" d="M179.77 117.009C180.86 117.459 182.353 118.359 183.384 119.213C184.415 120.066 184.985 120.872 185.316 121.737C185.648 122.603 185.743 123.527 185.541 124.238C185.34 124.95 184.842 125.448 183.49 125.672C182.139 125.898 179.935 125.851 178.003 125.768C176.071 125.685 174.411 125.566 173.238 125.328C172.065 125.092 171.377 124.737 170.773 124.334C170.168 123.931 169.647 123.48 169.659 122.804C169.671 122.129 170.216 121.228 170.998 120.374C171.78 119.52 172.799 118.715 173.89 118.086C174.981 117.458 176.142 117.009 177.066 116.783C177.991 116.558 178.679 116.558 179.77 117.009Z" fill="#031D31"/>
<path fill-rule="evenodd" clip-rule="evenodd" d="M179.266 128.672C179.474 129.407 179.687 130.806 179.68 131.89C179.675 132.975 179.45 133.746 179.123 134.373C178.798 135.002 178.371 135.487 178.027 135.759C177.684 136.033 177.423 136.093 177.149 136.022C176.878 135.951 176.594 135.749 176.427 135.357C176.262 134.967 176.214 134.385 176.297 133.514C176.38 132.644 176.594 131.481 176.759 130.646C176.925 129.811 177.044 129.301 177.352 128.879C177.66 128.459 178.158 128.127 178.507 127.996C178.857 127.866 179.059 127.938 179.266 128.672Z" fill="#031D31"/>
<path d="M125.311 20.4478L125.4 20.5348L125.489 20.6217L125.579 20.7102L125.669 20.7982L125.76 20.887L125.851 20.9758L125.943 21.0647L126.036 21.1535L126.129 21.2423L126.223 21.3303L126.318 21.4184L126.414 21.5057L126.511 21.5927L126.608 21.6784L126.707 21.7631L126.808 21.8474L126.909 21.9302L127.012 22.0118L127.116 22.0919L127.222 22.1706L127.329 22.2477L127.438 22.3229L127.549 22.3965L127.661 22.468L127.775 22.5375L127.891 22.6048L128.009 22.6698L128.129 22.7329L128.25 22.7927L128.375 22.8501L128.501 22.9053L128.63 22.9571L128.493 23.3116L128.355 23.256L128.219 23.1971L128.087 23.1358L127.956 23.0716L127.829 23.0047L127.703 22.9359L127.581 22.8641L127.46 22.7908L127.341 22.7148L127.224 22.6373L127.11 22.5583L126.997 22.4775L126.887 22.3951L126.778 22.3111L126.67 22.2265L126.565 22.14L126.462 22.0534L126.359 21.9657L126.258 21.8769L126.159 21.7877L126.061 21.6981L125.964 21.6085L125.868 21.5182L125.774 21.4286L125.679 21.3383L125.587 21.2487L125.495 21.1592L125.404 21.0703L125.313 20.9815L125.224 20.8938L125.134 20.8069L125.046 20.7207L125.311 20.4478ZM125.311 20.4478L125.046 20.7207C124.971 20.6478 124.969 20.5272 125.042 20.452C125.115 20.3768 125.235 20.3749 125.311 20.4478ZM124.195 19.246L124.258 19.3295L124.317 19.4062L124.371 19.4769L124.42 19.5411L124.466 19.5997L124.508 19.6534L124.546 19.7014L124.582 19.7449L124.615 19.7842L124.645 19.8205L124.673 19.8526L124.699 19.8817L124.723 19.9077L124.746 19.9319L124.768 19.9546L124.789 19.975L124.809 19.9947L124.83 20.0136L124.852 20.0332L124.876 20.0536L124.899 20.0741L124.924 20.0956L124.951 20.119L124.98 20.144L125.011 20.1716L125.045 20.201L125.081 20.2332L125.12 20.2683L125.162 20.3073L125.208 20.3496L125.257 20.3964L125.311 20.4478L125.046 20.7207L124.995 20.6716L124.948 20.627L124.904 20.5862L124.864 20.5495L124.827 20.5159L124.792 20.4853L124.76 20.4566L124.731 20.4312L124.702 20.407L124.676 20.3836L124.65 20.3613L124.624 20.3386L124.6 20.3174L124.575 20.2955L124.55 20.2721L124.524 20.2479L124.498 20.2222L124.473 20.1957L124.446 20.1678L124.417 20.1364L124.388 20.1035L124.357 20.0676L124.324 20.0291L124.289 19.9867L124.251 19.9403L124.21 19.8892L124.166 19.834L124.12 19.7739L124.069 19.7082L124.014 19.6368L123.955 19.5593L123.891 19.475L124.195 19.246ZM124.195 19.246L123.891 19.475C123.828 19.3911 123.845 19.2716 123.929 19.2085C124.013 19.1454 124.132 19.1621 124.195 19.246ZM121.297 13.8563L121.362 14.0442L121.429 14.2313L121.498 14.4165L121.568 14.5994L121.641 14.7812L121.714 14.9618L121.789 15.141L121.866 15.3179L121.944 15.4944L122.025 15.669L122.107 15.8425L122.19 16.0145L122.275 16.1853L122.362 16.355L122.45 16.5232L122.54 16.691L122.631 16.8569L122.724 17.0225L122.819 17.1865L122.915 17.3498L123.013 17.5119L123.113 17.6733L123.214 17.8339L123.316 17.9938L123.421 18.1526L123.527 18.3109L123.634 18.4685L123.743 18.625L123.854 18.7811L123.966 18.9368L124.08 19.0917L124.195 19.246L123.891 19.475L123.774 19.3177L123.659 19.1605L123.545 19.0025L123.432 18.8434L123.321 18.6839L123.212 18.5233L123.104 18.3627L122.997 18.2009L122.893 18.038L122.79 17.8744L122.689 17.7099L122.589 17.5448L122.491 17.3785L122.394 17.2107L122.299 17.0421L122.206 16.8724L122.114 16.7016L122.024 16.5296L121.935 16.3561L121.849 16.1823L121.763 16.0065L121.68 15.8292L121.598 15.6509L121.518 15.4713L121.44 15.2899L121.362 15.107L121.288 14.9233L121.214 14.7377L121.142 14.5503L121.073 14.3613L121.004 14.1712L120.937 13.9788L121.297 13.8563ZM121.297 13.8563L120.937 13.9788C120.904 13.8798 120.957 13.7713 121.056 13.7377C121.155 13.704 121.263 13.7573 121.297 13.8563ZM120.04 9.58284L120.398 9.57753L120.383 9.63311L120.372 9.70531L120.365 9.79297L120.363 9.89388L120.366 10.0058L120.374 10.1286L120.387 10.2598L120.404 10.3992L120.426 10.5455L120.451 10.6978L120.48 10.8554L120.512 11.0175L120.546 11.1827L120.584 11.3498L120.624 11.5195L120.665 11.6896L120.707 11.8596L120.751 12.0289L120.796 12.1968L120.842 12.3619L120.887 12.5237L120.932 12.6817L120.977 12.8347L121.02 12.9818L121.063 13.1228L121.104 13.2558L121.143 13.3813L121.18 13.4973L121.214 13.6042L121.245 13.6999L121.273 13.7845L121.297 13.8563L120.937 13.9788L120.912 13.9047L120.884 13.8185L120.852 13.7206L120.817 13.6129L120.78 13.4954L120.741 13.3684L120.699 13.2331L120.656 13.0906L120.612 12.9421L120.567 12.7867L120.521 12.6272L120.475 12.4632L120.43 12.2958L120.384 12.1257L120.339 11.9534L120.296 11.7802L120.254 11.6071L120.213 11.4344L120.175 11.2628L120.139 11.0931L120.107 10.9265L120.077 10.7636L120.05 10.6044L120.028 10.4498L120.009 10.3021L119.995 10.1596L119.987 10.0239L119.983 9.89539L119.986 9.77485L119.994 9.66146L120.011 9.55523L120.038 9.45584L120.396 9.45056L120.04 9.58284ZM120.398 9.57753L120.038 9.45584C120.071 9.35681 120.18 9.30354 120.279 9.3368C120.378 9.37006 120.431 9.4785 120.398 9.57753ZM123.474 17.1593L123.309 16.8909L123.151 16.629L123 16.3735L122.855 16.1233L122.717 15.8788L122.584 15.6388L122.456 15.4025L122.334 15.1705L122.216 14.9422L122.102 14.7162L121.994 14.4932L121.888 14.2721L121.786 14.0525L121.687 13.8344L121.591 13.6167L121.497 13.399L121.405 13.1817L121.315 12.9632L121.226 12.7437L121.138 12.5229L121.051 12.2999L120.964 12.0747L120.878 11.8464L120.791 11.6143L120.703 11.3789L120.614 11.1389L120.524 10.8947L120.432 10.6445L120.338 10.389L120.241 10.1271L120.142 9.85874L120.04 9.58284L120.396 9.45056L120.499 9.72646L120.598 9.99556L120.695 10.2575L120.789 10.513L120.881 10.7632L120.971 11.0073L121.059 11.2466L121.147 11.4813L121.233 11.7119L121.32 11.9386L121.406 12.1624L121.492 12.3838L121.579 12.6023L121.667 12.8196L121.756 13.0351L121.846 13.2501L121.939 13.464L122.034 13.6787L122.132 13.8938L122.232 14.1103L122.336 14.3277L122.443 14.5476L122.555 14.7699L122.671 14.9951L122.791 15.2234L122.917 15.4558L123.048 15.6928L123.185 15.9343L123.328 16.1815L123.478 16.434L123.634 16.6929L123.797 16.959L123.474 17.1593ZM123.474 17.1593L123.797 16.959C123.852 17.0478 123.825 17.1653 123.736 17.2205C123.647 17.2757 123.53 17.2481 123.474 17.1593ZM125.7 20.3745L125.623 20.271L125.547 20.1693L125.472 20.0687L125.397 19.969L125.325 19.8707L125.252 19.7736L125.182 19.6768L125.111 19.5808L125.041 19.4852L124.972 19.3903L124.904 19.2955L124.836 19.201L124.769 19.1065L124.701 19.0116L124.634 18.9168L124.567 18.8219L124.501 18.7259L124.434 18.6299L124.368 18.5335L124.302 18.436L124.235 18.3374L124.168 18.2376L124.101 18.137L124.034 18.0354L123.966 17.9318L123.898 17.8268L123.829 17.7205L123.759 17.6125L123.689 17.5021L123.618 17.3902L123.547 17.2761L123.474 17.1593L123.797 16.959L123.869 17.0742L123.94 17.1876L124.01 17.2987L124.08 17.4076L124.149 17.5149L124.217 17.6204L124.284 17.7239L124.351 17.826L124.418 17.9269L124.484 18.0267L124.55 18.1249L124.616 18.2221L124.682 18.3188L124.747 18.4145L124.813 18.5097L124.879 18.6042L124.945 18.6983L125.012 18.7924L125.078 18.8858L125.145 18.9795L125.212 19.0732L125.28 19.1673L125.348 19.2615L125.418 19.3563L125.488 19.4515L125.558 19.5475L125.63 19.6447L125.703 19.7429L125.776 19.842L125.851 19.9418L125.927 20.0434L126.004 20.1463L125.7 20.3745ZM125.7 20.3745L126.004 20.1463C126.067 20.2302 126.05 20.3496 125.966 20.4123C125.882 20.475 125.763 20.4584 125.7 20.3745ZM128.63 22.9571L128.406 23.2435L128.387 23.219L128.361 23.1873L128.327 23.1498L128.286 23.1067L128.239 23.0591L128.186 23.007L128.127 22.9506L128.064 22.8898L127.996 22.8252L127.923 22.7567L127.846 22.6842L127.765 22.6086L127.68 22.5288L127.592 22.4453L127.5 22.3584L127.406 22.2677L127.309 22.1736L127.209 22.0761L127.107 21.9752L127.004 21.8708L126.899 21.7635L126.792 21.6524L126.684 21.5386L126.576 21.4214L126.466 21.3013L126.356 21.1777L126.246 21.0511L126.135 20.9218L126.026 20.7891L125.916 20.6538L125.808 20.5159L125.7 20.3745L126.004 20.1463L126.108 20.283L126.213 20.4172L126.32 20.5488L126.426 20.6769L126.534 20.8031L126.641 20.9267L126.748 21.0465L126.855 21.1644L126.961 21.2786L127.067 21.3901L127.172 21.4989L127.275 21.604L127.376 21.706L127.476 21.8054L127.574 21.9014L127.67 21.9941L127.763 22.0833L127.853 22.1694L127.941 22.2522L128.025 22.3312L128.106 22.4075L128.183 22.4801L128.256 22.5485L128.326 22.6146L128.39 22.6762L128.451 22.7348L128.508 22.79L128.559 22.8422L128.606 22.8913L128.647 22.9378L128.684 22.9816L128.717 23.0251L128.493 23.3116L128.63 22.9571ZM128.406 23.2435L128.717 23.0251C128.777 23.1105 128.756 23.2296 128.671 23.2897C128.585 23.3498 128.466 23.329 128.406 23.2435Z" fill="#000D19"/>
<path fill-rule="evenodd" clip-rule="evenodd" d="M128.561 23.1342C127.125 22.576 126.125 21.5011 125.178 20.5842C124.599 20.0237 124.745 20.2917 124.043 19.3604C122.795 17.7027 121.812 15.9554 121.117 13.9175C120.874 13.2054 119.961 10.2763 120.218 9.5166C121.329 12.4998 121.844 14.1733 123.636 17.059C124.411 18.3085 125.021 19.1525 125.852 20.2603C126.974 21.7566 128.322 22.7937 128.561 23.1342Z" fill="#0D3752"/>
<path d="M94.1413 22.7675L94.1325 22.8276L93.761 22.7743L93.7591 22.6639L94.1394 22.6571L94.1413 22.7675ZM93.761 22.7743L94.1413 22.7675C94.1428 22.8722 94.0592 22.9595 93.9545 22.961C93.8498 22.9625 93.7625 22.879 93.761 22.7743ZM93.4779 23.1821L93.4938 23.1541L93.5093 23.1266L93.5256 23.1005L93.5395 23.0782L93.555 23.0547L93.5686 23.0355L93.5811 23.0177L93.5959 22.9977L93.6087 22.9818L93.6201 22.9674L93.6325 22.9527L93.6442 22.9391L93.6537 22.9289L93.6624 22.9187L93.6707 22.9089L93.6783 22.9005L93.6851 22.8922L93.6911 22.8851L93.6968 22.8775L93.7009 22.8718L93.7051 22.8662L93.7111 22.8567L93.7153 22.8499L93.7195 22.8419L93.7247 22.8321L93.7297 22.8219L93.7361 22.808L93.7418 22.794L93.7486 22.7769L93.7557 22.7577L93.7622 22.738L93.7697 22.7142L94.1325 22.8276L94.1235 22.8567L94.1133 22.8854L94.1038 22.9107L94.0948 22.9353L94.0846 22.9591L94.0751 22.9807L94.0649 23.0022L94.0543 23.0226L94.0434 23.0419L94.0316 23.0608L94.0218 23.0755L94.0109 23.0925L93.9984 23.1088L93.9882 23.1216L93.9776 23.1349L93.9678 23.1462L93.9579 23.1583L93.9489 23.1681L93.9394 23.1791L93.93 23.19L93.922 23.1991L93.9149 23.2078L93.9058 23.2192L93.8967 23.2305L93.8895 23.2399L93.8793 23.2547L93.8687 23.2694L93.8593 23.2838L93.8476 23.3023L93.8366 23.3201L93.8249 23.3409L93.8113 23.365L93.4779 23.1821ZM93.4779 23.1821L93.8113 23.365C93.761 23.4569 93.645 23.4905 93.5532 23.4402C93.4613 23.39 93.4277 23.2739 93.4779 23.1821ZM93.1722 26.3573L93.159 26.2722L93.1469 26.1838L93.1359 26.0931L93.1261 25.9994L93.1174 25.9034L93.1094 25.8055L93.103 25.7053L93.0977 25.6033L93.0936 25.4997L93.0909 25.3946L93.0898 25.2888V25.1819L93.0913 25.0742L93.0943 24.9664L93.0992 24.8583L93.1053 24.7502L93.1132 24.6414L93.123 24.5341L93.134 24.4267L93.1476 24.3205L93.1627 24.2151L93.1801 24.1111L93.199 24.0083L93.2202 23.907L93.244 23.808L93.2697 23.7116L93.2977 23.6164L93.3283 23.5238L93.3615 23.4338L93.3974 23.3469L93.436 23.263L93.4779 23.1821L93.8113 23.365L93.7777 23.4301L93.7459 23.4988L93.7153 23.5722L93.6873 23.6493L93.6605 23.7298L93.6355 23.8137L93.6129 23.901L93.5913 23.9909L93.5717 24.0824L93.5543 24.1769L93.5384 24.2733L93.5241 24.3711L93.512 24.4705L93.501 24.5711L93.4919 24.6724L93.4847 24.7744L93.4787 24.8772L93.4745 24.98L93.4715 25.0825L93.47 25.1849V25.2866L93.4711 25.3878L93.4738 25.4876L93.4772 25.5859L93.4825 25.6826L93.4889 25.7783L93.4961 25.8716L93.504 25.9623L93.5138 26.05L93.5241 26.1355L93.5354 26.2178L93.5471 26.2968L93.1722 26.3573ZM93.1722 26.3573L93.5471 26.2968C93.5637 26.4 93.4931 26.4979 93.3899 26.5145C93.2867 26.5311 93.1888 26.4605 93.1722 26.3573ZM94.184 30.0416L94.145 29.9365L94.1065 29.831L94.0683 29.7249L94.0305 29.6179L93.9927 29.5102L93.9553 29.4025L93.9183 29.2932L93.8816 29.1832L93.8453 29.0736L93.809 28.9625L93.7735 28.8507L93.7383 28.738L93.7043 28.625L93.6703 28.5116L93.6367 28.3979L93.6034 28.2826L93.5713 28.1669L93.5395 28.0505L93.5086 27.9337L93.4779 27.8166L93.4481 27.6979L93.419 27.5792L93.3906 27.4602L93.363 27.34L93.3362 27.219L93.3101 27.0981L93.2848 26.976L93.2602 26.8536L93.2372 26.7303L93.2145 26.6071L93.1926 26.4824L93.1722 26.3573L93.5471 26.2968L93.5675 26.4189L93.5887 26.5398L93.6106 26.6608L93.6337 26.781L93.6575 26.9004L93.682 27.0195L93.7074 27.1381L93.7334 27.2561L93.761 27.3732L93.7886 27.49L93.817 27.6064L93.8461 27.7221L93.8759 27.837L93.9062 27.9515L93.9379 28.0656L93.9693 28.179L94.0018 28.2913L94.0347 28.4035L94.0679 28.5154L94.1019 28.6261L94.1363 28.7365L94.1711 28.8461L94.2066 28.955L94.2422 29.0638L94.2781 29.1715L94.3151 29.2785L94.3518 29.3854L94.3888 29.4917L94.4266 29.5971L94.464 29.7018L94.5018 29.8057L94.54 29.9093L94.184 30.0416ZM94.184 30.0416L94.54 29.9093C94.5763 30.0076 94.5264 30.1172 94.4281 30.1535C94.3298 30.1897 94.2202 30.1398 94.184 30.0416ZM97.8013 35.8065L97.5515 36.0586L97.5047 35.9603L97.4506 35.8583L97.3909 35.7517L97.3255 35.6417L97.2541 35.5279L97.177 35.4097L97.0949 35.2872L97.008 35.1594L96.9162 35.0272L96.8206 34.8896L96.7204 34.7467L96.6165 34.5982L96.5095 34.444L96.3991 34.2833L96.2858 34.1167L96.1701 33.9428L96.0514 33.7622L95.9312 33.5747L95.8092 33.3797L95.6856 33.1767L95.5608 32.9662L95.4346 32.7473L95.3084 32.5194L95.1814 32.2828L95.0544 32.0375L94.9274 31.7824L94.8012 31.5178L94.6749 31.2435L94.5502 30.9589L94.4266 30.6637L94.3045 30.3583L94.184 30.0416L94.54 29.9093L94.6583 30.22L94.7781 30.5201L94.8994 30.8092L95.0219 31.0877L95.1451 31.3568L95.2691 31.6161L95.393 31.8652L95.5178 32.106L95.6417 32.3373L95.7657 32.5599L95.8889 32.7742L96.0114 32.9809L96.1327 33.1801L96.2525 33.3713L96.3704 33.5558L96.4868 33.7334L96.601 33.9043L96.7128 34.0687L96.8224 34.2278L96.9287 34.3812L97.0318 34.529L97.132 34.6719L97.2284 34.8102L97.321 34.944L97.4102 35.074L97.4944 35.2003L97.5746 35.3231L97.6498 35.4436L97.7197 35.5612L97.7847 35.6761L97.8441 35.7895L97.8977 35.9021L97.6479 36.1542L97.8013 35.8065ZM97.5515 36.0586L97.8977 35.9021C97.9408 35.9973 97.8981 36.1104 97.8029 36.1535C97.7076 36.1965 97.5946 36.1538 97.5515 36.0586ZM96.5851 34.537L96.6187 34.5793L96.6527 34.6224L96.6875 34.6666L96.723 34.712L96.7586 34.7577L96.7949 34.8045L96.8315 34.8518L96.8682 34.8986L96.9064 34.9467L96.9445 34.995L96.9827 35.043L97.0209 35.0903L97.0606 35.1383L97.0995 35.1855L97.1388 35.2316L97.1789 35.2774L97.2193 35.3231L97.259 35.3669L97.299 35.4097L97.3395 35.4516L97.3795 35.492L97.42 35.531L97.46 35.5684L97.4997 35.6035L97.5394 35.6368L97.5791 35.6685L97.6177 35.6977L97.6558 35.7245L97.6933 35.7487L97.7299 35.7702L97.7662 35.7899L97.8013 35.8065L97.6479 36.1542L97.5954 36.1293L97.544 36.102L97.4929 36.0722L97.4434 36.0397L97.3939 36.0053L97.3455 35.9686L97.2983 35.9308L97.251 35.8908L97.2046 35.8496L97.1584 35.8069L97.1127 35.7627L97.0681 35.7177L97.0239 35.6719L96.9793 35.6247L96.9358 35.5763L96.8931 35.5283L96.8508 35.4796L96.8085 35.4297L96.7673 35.3802L96.7268 35.3307L96.6864 35.2811L96.6467 35.2316L96.6078 35.1825L96.5696 35.1337L96.5314 35.0854L96.4948 35.0373L96.4585 34.9912L96.4229 34.9455L96.3882 34.9009L96.3542 34.8574L96.3209 34.8151L96.2888 34.7751L96.5851 34.537ZM96.5851 34.537L96.2888 34.7751C96.2234 34.6934 96.2362 34.5732 96.3179 34.5078C96.3995 34.4425 96.5197 34.4553 96.5851 34.537ZM93.6714 29.7283L93.73 29.8654L93.7928 30.0068L93.8593 30.1512L93.9292 30.2989L94.0025 30.4498L94.0793 30.6028L94.1586 30.7582L94.2406 30.9146L94.3257 31.0738L94.413 31.234L94.5029 31.3954L94.5948 31.5576L94.6885 31.7197L94.7838 31.8826L94.8809 32.0455L94.9792 32.2084L95.0782 32.3698L95.1791 32.5308L95.2804 32.691L95.3821 32.8494L95.4845 33.0063L95.5869 33.1608L95.6893 33.3131L95.7921 33.4632L95.8942 33.6102L95.9962 33.7542L96.0968 33.8948L96.1969 34.0316L96.2963 34.1647L96.3942 34.2935L96.4906 34.4179L96.5851 34.537L96.2888 34.7751L96.1913 34.6522L96.0926 34.5249L95.9925 34.3929L95.8915 34.2576L95.7891 34.1178L95.6863 33.9749L95.5828 33.8279L95.4792 33.6786L95.3749 33.5263L95.2709 33.3717L95.167 33.2149L95.0631 33.0558L94.9599 32.8951L94.8571 32.7333L94.7554 32.5701L94.6541 32.4057L94.5551 32.2413L94.4565 32.0761L94.3597 31.9109L94.2645 31.7458L94.1719 31.5814L94.0804 31.4177L93.9916 31.2544L93.905 31.0931L93.8207 30.9328L93.7399 30.7744L93.6616 30.6176L93.5868 30.4637L93.5146 30.3122L93.4466 30.1633L93.3816 30.0174L93.3207 29.8749L93.6714 29.7283ZM93.6714 29.7283L93.3207 29.8749C93.2803 29.7781 93.326 29.6666 93.4228 29.6262C93.5195 29.5858 93.631 29.6315 93.6714 29.7283ZM92.5055 25.8539L92.5232 25.9899L92.5429 26.1245L92.5644 26.2579L92.5875 26.3906L92.612 26.5213L92.6378 26.651L92.6653 26.7799L92.6944 26.9072L92.7243 27.0338L92.756 27.1593L92.7886 27.2837L92.8229 27.4069L92.8581 27.5297L92.894 27.6507L92.9318 27.7716L92.97 27.8922L93.0089 28.0112L93.049 28.1295L93.0898 28.247L93.1314 28.3639L93.1741 28.4803L93.2171 28.5966L93.2606 28.7115L93.3048 28.8261L93.3494 28.9406L93.3944 29.0544L93.4398 29.1674L93.4855 29.28L93.532 29.3923L93.5785 29.5049L93.6246 29.6167L93.6714 29.7283L93.3207 29.8749L93.2738 29.7627L93.227 29.65L93.1805 29.5374L93.134 29.4236L93.0875 29.3095L93.0414 29.1949L92.9957 29.0797L92.9503 28.9636L92.9053 28.8469L92.8611 28.7297L92.8173 28.6118L92.7738 28.4931L92.7315 28.3733L92.6892 28.2527L92.6483 28.1314L92.6079 28.0086L92.569 27.8857L92.5304 27.7618L92.493 27.6363L92.4571 27.5097L92.4219 27.3827L92.3879 27.2538L92.3554 27.1246L92.3241 26.9934L92.2942 26.8615L92.2658 26.7281L92.2386 26.5939L92.2133 26.4578L92.1895 26.3206L92.1672 26.1819L92.1468 26.0421L92.1283 25.9007L92.5055 25.8539ZM92.5055 25.8539L92.1283 25.9007C92.1154 25.7968 92.1895 25.7015 92.2934 25.6887C92.3974 25.6758 92.4926 25.7499 92.5055 25.8539ZM93.7591 22.6639L93.8774 22.8367L93.8283 22.82L93.778 22.8091L93.7255 22.8045L93.6707 22.8053L93.6129 22.8132L93.5528 22.8272L93.4908 22.848L93.4269 22.876L93.3619 22.9115L93.2958 22.9546L93.2292 23.0049L93.1631 23.0638L93.0973 23.13L93.0327 23.204L92.9688 23.286L92.9076 23.3756L92.8483 23.4735L92.7916 23.579L92.7383 23.6923L92.688 23.8129L92.6427 23.9414L92.6007 24.0782L92.5637 24.2222L92.5315 24.3738L92.5055 24.5325L92.4847 24.6996L92.4703 24.8731L92.4628 25.0545L92.462 25.2435L92.4684 25.4392L92.4832 25.643L92.5055 25.8539L92.1283 25.9007L92.1045 25.677L92.089 25.4596L92.0818 25.2495L92.0825 25.0462L92.0909 24.8496L92.1067 24.6603L92.129 24.4781L92.1581 24.3035L92.1933 24.1353L92.2349 23.9754L92.2813 23.8227L92.3335 23.6768L92.3906 23.5389L92.4522 23.4081L92.5179 23.2853L92.5879 23.17L92.6619 23.0623L92.7387 22.9629L92.8192 22.8707L92.9023 22.7871L92.9881 22.7115L93.0766 22.6439L93.1669 22.5849L93.2591 22.535L93.3532 22.4935L93.4485 22.4614L93.5448 22.439L93.642 22.4266L93.7391 22.4243L93.8355 22.4334L93.9296 22.4534L94.0211 22.4844L94.1394 22.6571L93.7591 22.6639ZM93.8774 22.8367L94.0211 22.4844C94.1182 22.5237 94.1647 22.6352 94.1254 22.7324C94.0861 22.8295 93.9746 22.876 93.8774 22.8367Z" fill="#000D19"/>
<path fill-rule="evenodd" clip-rule="evenodd" d="M93.9492 22.6604L93.951 22.7708C93.8596 23.0633 93.8029 22.9843 93.6445 23.2735C93.2303 24.029 93.2212 25.4698 93.3595 26.327C93.5727 27.6464 93.9507 28.8676 94.3619 29.9753C95.625 33.3815 97.2215 34.8679 97.7245 35.9803C97.2577 35.7739 96.7842 35.0883 96.4368 34.6559C95.4209 33.3905 94.1128 31.2755 93.496 29.8015C92.9975 28.6102 92.502 27.3645 92.3168 25.8772C92.0235 23.5211 93.2148 22.3607 93.9492 22.6604Z" fill="#0D3752"/>
<path d="M80.6325 40.6446L80.6102 40.6215L80.8812 40.3566L81.4693 40.8642L81.2206 41.1522L80.6325 40.6446ZM80.8812 40.3566L80.6325 40.6446C80.5532 40.5762 80.5445 40.4556 80.6129 40.3763C80.6813 40.2969 80.8019 40.2882 80.8812 40.3566ZM79.4715 34.908L79.7515 34.8959L79.6593 35.0165L79.5784 35.145L79.5089 35.2811L79.4495 35.4243L79.4008 35.5755L79.3619 35.7327L79.3335 35.8967L79.3142 36.0664L79.3048 36.2414V36.4217L79.3131 36.6054L79.3305 36.7929L79.3558 36.9834L79.3894 37.1761L79.4303 37.3708L79.4786 37.5665L79.5338 37.7631L79.5954 37.9592L79.6627 38.1546L79.736 38.3493L79.8143 38.542L79.8978 38.7325L79.9855 38.9196L80.0769 39.1033L80.1722 39.2832L80.2708 39.4582L80.3721 39.6283L80.4757 39.7923L80.5811 39.9503L80.6873 40.1011L80.795 40.2443L80.9035 40.3797L80.6102 40.6215L80.495 40.4772L80.3804 40.3248L80.2674 40.1657L80.1567 39.9994L80.0478 39.8271L79.942 39.6487L79.8388 39.4654L79.7391 39.2772L79.643 39.0852L79.5516 38.889L79.4643 38.6894L79.3823 38.4876L79.3052 38.2839L79.2341 38.0779L79.1695 37.8712L79.1113 37.6633L79.0599 37.4554L79.016 37.2479L78.9801 37.0416L78.9525 36.8359L78.9336 36.6319L78.9246 36.43V36.2308L78.9355 36.0347L78.9571 35.8431L78.9899 35.6548L79.0349 35.4712L79.0927 35.2935L79.1634 35.1216L79.2481 34.9568L79.3471 34.7995L79.4605 34.651L79.7406 34.6389L79.4715 34.908ZM79.7515 34.8959L79.4605 34.651C79.5278 34.5709 79.6483 34.5607 79.7285 34.6279C79.8086 34.6952 79.8188 34.8158 79.7515 34.8959ZM79.6018 35.4598L79.6037 35.3884L79.6049 35.3222L79.6053 35.2625L79.6045 35.2081L79.6034 35.1597L79.6007 35.1159L79.5981 35.0769L79.5947 35.0426L79.5913 35.0146L79.5875 34.9915L79.5833 34.9715L79.5792 34.9556L79.5762 34.9454L79.5746 34.9413L79.575 34.9417L79.5796 34.9481L79.5882 34.9575L79.5954 34.9636L79.606 34.9704L79.6185 34.9768L79.6279 34.9802L79.6313 34.9813L79.6294 34.981H79.6287L79.6204 34.9798L79.6022 34.9764L79.5841 34.9719L79.5641 34.9658L79.5342 34.9534L79.499 34.9318L79.4715 34.908L79.7406 34.6389L79.7258 34.6264L79.7043 34.6132L79.6895 34.6068L79.6846 34.6053L79.6816 34.6045L79.6801 34.6041L79.6884 34.6053L79.7043 34.6083L79.7198 34.6117L79.7406 34.6174L79.7666 34.6268L79.7965 34.6416L79.8237 34.6597L79.8475 34.6794L79.8728 34.7062L79.8932 34.7345L79.9088 34.7606L79.9239 34.7909L79.936 34.823L79.9458 34.8543L79.9537 34.8869L79.9609 34.9213L79.9677 34.9602L79.9726 35.0018L79.9768 35.0452L79.9802 35.0924L79.9828 35.1439L79.9847 35.2006L79.9855 35.261L79.9851 35.3268L79.984 35.3967L79.9821 35.4727L79.6018 35.4598ZM79.6018 35.4598L79.9821 35.4727C79.9787 35.5774 79.8902 35.6598 79.7855 35.6563C79.6808 35.6529 79.5984 35.5645 79.6018 35.4598ZM79.6253 36.4002L79.6226 36.368L79.6196 36.3359L79.6174 36.3027L79.6151 36.2732L79.6128 36.2437L79.6102 36.2135L79.6083 36.1825L79.6068 36.1541L79.6049 36.125L79.6037 36.0963L79.6022 36.0687L79.6011 36.0404L79.5996 36.0124L79.5988 35.9855L79.5977 35.9572L79.5973 35.9296L79.5966 35.9028L79.5962 35.8744L79.5958 35.8465V35.8178V35.7906V35.7633V35.7346L79.5962 35.7047L79.5966 35.6764L79.5969 35.6465L79.5977 35.6174L79.5981 35.588L79.5988 35.5551L79.6 35.5245L79.6007 35.4927L79.6018 35.4598L79.9821 35.4727L79.9809 35.5041L79.9802 35.5358L79.979 35.5672L79.9783 35.5947L79.9779 35.625L79.9772 35.6541L79.9768 35.6817L79.9764 35.71L79.976 35.7369V35.7633V35.7906V35.8178V35.8434L79.9764 35.8692L79.9768 35.8945L79.9775 35.9213L79.9779 35.9466L79.979 35.972L79.9798 35.9988L79.9806 36.0245L79.9817 36.0506L79.9832 36.0781L79.9843 36.1046L79.9862 36.1314L79.9877 36.1598L79.9896 36.1863L79.9915 36.2142L79.9938 36.2445L79.9961 36.2747L79.9983 36.3034L80.0013 36.334L80.004 36.3662L79.6253 36.4002ZM79.6253 36.4002L80.004 36.3662C80.0131 36.4705 79.936 36.5634 79.8316 36.5725C79.7273 36.5816 79.6344 36.5045 79.6253 36.4002ZM79.9447 38.1395L79.9322 38.0858L79.9197 38.0322L79.9072 37.9785L79.8951 37.9252L79.8827 37.8719L79.8706 37.8186L79.8581 37.7649L79.8464 37.7117L79.8347 37.6588L79.823 37.6062L79.8112 37.5529L79.7995 37.4989L79.7886 37.4456L79.7772 37.3923L79.7666 37.339L79.7561 37.2853L79.7455 37.2317L79.7353 37.1784L79.7251 37.1239L79.7156 37.0692L79.7062 37.0151L79.6971 36.9611L79.688 36.9055L79.6797 36.8499L79.6718 36.7959L79.6638 36.7403L79.6563 36.684L79.6495 36.6277L79.6427 36.571L79.6366 36.5147L79.631 36.4576L79.6253 36.4002L80.004 36.3662L80.0089 36.4206L80.0146 36.4746L80.0206 36.5287L80.0267 36.5823L80.0335 36.6356L80.0403 36.6882L80.0482 36.7407L80.0561 36.7947L80.0637 36.8473L80.072 36.8991L80.0811 36.9516L80.0898 37.0041L80.0992 37.0559L80.1087 37.1073L80.1189 37.1599L80.1287 37.212L80.1393 37.2642L80.1499 37.3159L80.1605 37.3685L80.1714 37.4203L80.1824 37.472L80.1941 37.5238L80.2058 37.5764L80.2175 37.6293L80.2293 37.6818L80.241 37.734L80.2531 37.7865L80.2655 37.8398L80.2776 37.8931L80.2901 37.946L80.3026 37.9997L80.3151 38.0533L79.9447 38.1395ZM79.9447 38.1395L80.3151 38.0533C80.3385 38.1554 80.275 38.2582 80.1729 38.2816C80.0709 38.305 79.9681 38.2416 79.9447 38.1395ZM81.4693 40.8642L81.1749 41.0929L81.1292 41.0014L81.0838 40.9125L81.0392 40.8253L80.995 40.7398L80.9515 40.6559L80.9077 40.5732L80.865 40.4915L80.8223 40.4106L80.7799 40.3301L80.738 40.2496L80.6968 40.1695L80.6563 40.0894L80.6155 40.0089L80.5755 39.928L80.5358 39.8456L80.4968 39.7628L80.4583 39.6793L80.4201 39.5939L80.3823 39.507L80.3453 39.4181L80.3086 39.327L80.2727 39.2341L80.2372 39.1385L80.2024 39.0409L80.168 38.94L80.1344 38.8365L80.1011 38.7291L80.069 38.6191L80.0369 38.5054L80.0055 38.3875L79.9749 38.2654L79.9447 38.1395L80.3151 38.0533L80.3438 38.1747L80.3736 38.2922L80.4035 38.4048L80.4341 38.5141L80.4655 38.6195L80.4965 38.7216L80.5286 38.8198L80.5615 38.9155L80.5947 39.0092L80.628 39.0995L80.6624 39.1872L80.6968 39.2737L80.7323 39.358L80.7678 39.4404L80.8045 39.5221L80.8415 39.6026L80.879 39.6823L80.9171 39.7609L80.9557 39.8396L80.995 39.9178L81.0354 39.9964L81.0759 40.075L81.1171 40.154L81.1586 40.2337L81.2013 40.3146L81.2441 40.3963L81.2879 40.4798L81.3321 40.5645L81.3771 40.6514L81.4225 40.7394L81.4686 40.8305L81.5151 40.9235L81.2206 41.1522L81.4693 40.8642ZM81.1749 41.0929L81.5151 40.9235C81.5615 41.0172 81.5234 41.1318 81.4296 41.1783C81.3359 41.2247 81.2214 41.1866 81.1749 41.0929Z" fill="#000D19"/>
<path fill-rule="evenodd" clip-rule="evenodd" d="M81.345 41.0081L80.7569 40.5005C79.5607 39.053 78.4382 36.1624 79.6061 34.7734C79.6726 34.84 79.8192 34.648 79.792 35.4662C79.7803 35.8139 79.7837 36.0369 79.8147 36.3831C79.8684 36.9814 79.9965 37.5219 80.1299 38.0964C80.4421 39.4404 80.8507 40.0122 81.345 41.0081Z" fill="#0D3752"/>
<path fill-rule="evenodd" clip-rule="evenodd" d="M105.423 74.3005L105.447 53.2474C105.098 53.6073 104.196 55.4101 103.869 55.9861L92.9397 75.4261C94.8699 75.4049 97.0582 75.2019 99.0289 75.1067C100.984 75.0122 103.584 75.1607 105.433 74.9412L105.423 74.3005ZM122.618 75.4529C120.695 71.8242 118.193 67.6384 116.132 63.9771L111.29 55.376C110.873 54.6016 110.12 53.1356 109.662 52.5263L109.652 74.9695C113.988 75.0205 118.329 75.1585 122.618 75.4529ZM125.997 75.7844L126.681 75.787C126.375 75.0742 125.566 73.6387 125.106 72.8496C124.515 71.8321 124.045 70.8649 123.461 69.8713L116.991 57.9314C116.335 56.8138 114.198 52.5426 113.705 51.9514L112.861 51.9469L122.676 69.8494C123.575 71.5241 125.311 74.324 125.997 75.7844ZM107.188 47.515C108.093 48.3095 111.183 48.1084 112.697 48.1111C113.317 48.1118 114.318 48.2985 114.307 47.6575C114.29 46.7145 111.545 47.1246 110.782 47.1465C109.979 47.1692 107.733 47.0815 107.188 47.515ZM109.148 42.0177C111.519 41.3623 111.793 38.3829 110.108 36.9112C109.812 36.6523 109.671 36.5979 109.277 36.6118C109.832 37.4244 110.195 38.0333 110.204 39.4019C110.215 41.0233 109.61 41.3544 109.148 42.0177ZM79.6059 34.7735C78.438 36.1625 79.5605 39.053 80.7568 40.5006L81.3449 41.0082C80.8505 40.0123 80.4419 39.4404 80.1297 38.0964C79.9963 37.522 79.8682 36.9815 79.8145 36.3832C79.7835 36.037 79.7801 35.814 79.7919 35.4663C79.8191 34.648 79.6724 34.84 79.6059 34.7735ZM93.6446 23.2735C93.8029 22.9844 93.8596 23.0634 93.9511 22.7708L93.9492 22.6605C93.2148 22.3608 92.0235 23.5211 92.3168 25.8772C92.502 27.3645 92.9975 28.6102 93.496 29.8015C94.1129 31.2755 95.421 33.3905 96.4369 34.6559C96.7842 35.0883 97.2578 35.7739 97.7246 35.9803C97.2215 34.868 95.625 33.3815 94.3619 29.9754C93.9507 28.8676 93.5728 27.6464 93.3596 26.327C93.2213 25.4698 93.2303 24.029 93.6446 23.2735ZM128.561 23.1344C128.322 22.7939 126.974 21.7568 125.852 20.2605C125.021 19.1527 124.411 18.3087 123.636 17.0592C121.844 14.1735 121.329 12.5 120.218 9.5168C119.961 10.2765 120.875 13.2056 121.117 13.9177C121.812 15.9556 122.795 17.7029 124.043 19.3606C124.745 20.2919 124.599 20.0239 125.178 20.5844C126.125 21.5013 127.126 22.5762 128.561 23.1344ZM129.91 0.58578C128.532 0.265654 127.669 1.20749 127.417 2.29524C126.706 5.35741 128.749 9.62716 130.113 12.0411C131.667 14.79 135.496 19.7132 138.712 20.4003C141.782 21.0561 141.538 17.19 141.006 14.9442C140.334 12.1095 138.464 8.68946 136.767 6.41758C135.567 4.81204 134.289 3.24275 132.647 2.05334C131.848 1.47469 131.082 0.858284 129.91 0.58578ZM119.89 7.63006C120.131 5.05809 120.487 4.91409 122.199 3.83654C123.404 3.07761 124.727 2.34099 125.958 1.61267C127.493 0.704832 128.621 -0.301653 130.21 0.0849923C133.585 0.906284 137.603 6.18023 139.228 9.14527C140.315 11.1272 142.388 15.2038 142.021 18.2448C141.772 20.3153 140.714 20.796 139.277 21.5973C137.96 22.332 136.732 23.0131 135.432 23.738C133.849 24.6201 133.14 25.2151 130.985 24.6096C130.433 24.4542 129.86 24.9883 129.022 25.457L115.577 33.0209C114.939 33.3701 114.266 33.7776 113.618 34.1136C112.949 34.4609 112.302 34.7765 111.666 35.1681C111.964 35.8208 112.362 36.3359 112.582 37.1444C113.023 38.7563 112.953 40.5308 111.931 41.9134C110.251 44.186 110.445 41.357 110.435 46.5157C111.748 46.5097 114.282 46.1026 114.799 47.2436C114.99 47.6658 115.251 50.6267 114.404 51.5995C116.62 55.5382 118.636 59.7411 120.875 63.7511C121.97 65.7135 123.091 67.8024 124.084 69.8086C125.092 71.8438 126.293 73.8096 127.284 75.8645C128.872 75.9594 130.591 76.1979 132.141 76.4197C132.919 76.5312 133.677 76.6529 134.454 76.8226C135.365 77.0214 136.159 77.1072 136.304 77.6885C135.693 78.5896 131.44 78.9494 129.959 79.1247C117.524 80.5984 98.4389 80.3841 85.9154 79.0703C84.8938 78.9633 80.0942 78.5884 79.7514 77.58C80.4945 76.6571 85.5912 76.2066 87.3086 76.0221C88.8843 75.8532 88.4515 76.1177 89.1382 74.9143C90.599 72.3541 91.8878 69.7383 93.3294 67.1293C96.1731 61.9812 98.9476 56.8055 101.735 51.5995C101.197 50.8489 101.151 50.9593 101.157 49.6803C101.159 49.0643 101.051 47.7879 101.262 47.2845C101.789 46.0225 103.9 46.665 105.425 46.4802C105.417 41.78 105.655 43.4883 104.615 42.2932C103.313 40.7977 103.404 39.7794 103.126 39.2344C100.97 40.3475 100.18 41.2399 98.3871 40.6185C97.1731 40.1978 95.1779 38.7087 94.6405 37.8175C93.9133 37.9479 92.917 38.4759 92.1944 38.7741C91.3935 39.1048 90.669 39.4212 89.8911 39.7488C89.0241 40.1139 84.7143 41.7195 84.2509 42.3507C83.625 43.2026 81.4915 43.9982 81.1041 43.9763C78.3375 43.8202 75.5758 37.2445 77.1386 35.8023C77.4928 35.4753 78.7139 34.8687 79.2038 34.5917C81.273 33.4219 80.448 34.7595 81.5225 34.0977L89.7528 29.2195C89.6462 28.0161 88.6375 25.0336 90.5023 23.9818C91.6637 23.3268 93.5622 21.8838 94.902 21.9597C95.5015 21.9934 98.5024 20.0242 99.0856 19.6924C100.479 18.8991 101.828 18.0857 103.235 17.2871L119.89 7.63006Z" fill="#000D19"/>
<path fill-rule="evenodd" clip-rule="evenodd" d="M130.517 2.89835C131.464 3.15649 132.005 3.59115 132.648 4.09307C132.866 4.26277 132.906 4.26391 133.082 4.45364C133.26 4.64526 133.259 4.6823 133.449 4.86787C135.987 7.34498 138.061 10.4355 139.153 13.9489C141.228 20.619 136.705 18.4281 133.637 14.5106C133.352 14.1466 133.19 13.9236 132.897 13.5604C131.706 12.0879 130.098 8.95014 129.512 7.12614C129.12 5.90346 128.198 2.26754 130.517 2.89835Z" fill="#0D3752"/>
<path fill-rule="evenodd" clip-rule="evenodd" d="M130.517 2.89853C128.198 2.26773 129.12 5.90365 129.512 7.12632C130.098 8.95032 131.706 12.0881 132.897 13.5606C133.19 13.9238 133.352 14.1468 133.637 14.5108C136.705 18.4282 141.228 20.6192 139.153 13.9491C138.061 10.4357 135.987 7.34516 133.449 4.86806C133.258 4.68248 133.26 4.64544 133.082 4.45382C132.906 4.26409 132.866 4.26296 132.648 4.09325C132.005 3.59133 131.464 3.15667 130.517 2.89853ZM129.91 0.58586C131.082 0.858364 131.848 1.47477 132.647 2.05342C134.289 3.24283 135.567 4.81212 136.767 6.41766C138.464 8.68954 140.334 12.1096 141.006 14.9443C141.538 17.1901 141.782 21.0562 138.712 20.4004C135.496 19.7133 131.667 14.7901 130.113 12.0412C128.749 9.62724 126.706 5.35749 127.416 2.29532C127.669 1.20757 128.532 0.265734 129.91 0.58586Z" fill="#E9C87C"/>
<path fill-rule="evenodd" clip-rule="evenodd" d="M125.997 75.7843C125.311 74.3239 123.575 71.524 122.676 69.8493L112.861 51.9468L113.705 51.9513C114.198 52.5424 116.335 56.8137 116.991 57.9313L123.46 69.8712C124.045 70.8648 124.515 71.832 125.106 72.8494C125.566 73.6386 126.375 75.0741 126.681 75.7869L125.997 75.7843Z" fill="#E9C87C"/>
<path fill-rule="evenodd" clip-rule="evenodd" d="M107.188 47.5149C107.733 47.0814 109.979 47.1691 110.782 47.1464C111.545 47.1245 114.29 46.7144 114.307 47.6574C114.318 48.2984 113.317 48.1117 112.697 48.111C111.183 48.1083 108.093 48.3094 107.188 47.5149Z" fill="#E9C87C"/>
<path fill-rule="evenodd" clip-rule="evenodd" d="M109.148 42.0177C109.61 41.3544 110.215 41.0234 110.204 39.4019C110.195 38.0334 109.832 37.4245 109.277 36.6119C109.671 36.5979 109.812 36.6523 110.108 36.9112C111.793 38.383 111.519 41.3624 109.148 42.0177Z" fill="#E9C87C"/>
<path fill-rule="evenodd" clip-rule="evenodd" d="M130.425 2.94053C130.955 3.06375 131.759 3.4326 132.61 4.04867C133.46 4.66473 134.357 5.52801 135.158 6.48347C135.958 7.43894 136.662 8.48659 137.295 9.46738C137.928 10.4478 138.489 11.3613 138.9 12.2665C139.311 13.1717 139.57 14.0686 139.709 14.8774C139.847 15.6862 139.864 16.407 139.826 16.9097C139.788 17.4127 139.696 17.6977 139.525 17.8761C139.354 18.0541 139.105 18.1251 138.945 18.121C138.786 18.1168 138.717 18.0371 138.721 17.7839C138.724 17.5299 138.799 17.1024 138.715 16.3356C138.631 15.5687 138.389 14.4624 138.066 13.4903C137.743 12.5182 137.341 11.6799 136.893 10.8919C136.444 10.1042 135.95 9.36646 135.321 8.4881C134.692 7.60898 133.929 6.58891 132.966 5.78009C132.002 4.97127 130.837 4.37374 130.229 4.00485C129.622 3.63597 129.571 3.49613 129.523 3.37669C129.475 3.25764 129.429 3.15937 129.534 3.04901C129.639 2.93903 129.894 2.81694 130.425 2.94053Z" fill="#000D19"/>
<path fill-rule="evenodd" clip-rule="evenodd" d="M114.322 47.783C114.423 48.4028 114.247 49.8485 114.13 50.6509C114.012 51.4536 113.954 51.6127 113.816 51.6547C113.677 51.6966 113.459 51.621 113.392 51.1853C113.325 50.7495 113.409 49.9532 113.418 49.3843C113.427 48.8159 113.36 48.475 113.356 48.2108C113.352 47.947 113.41 47.7599 113.627 47.5638C113.845 47.3676 114.221 47.1627 114.322 47.783Z" fill="#E9C87C"/>
<path fill-rule="evenodd" clip-rule="evenodd" d="M96.4629 22.9794C96.5468 22.7319 96.6254 22.5092 96.6288 21.7318C96.6326 20.9547 96.5619 19.6236 96.4837 18.758C96.4058 17.8925 96.3204 17.4938 96.2354 17.0943C95.3468 17.1597 94.4579 17.2258 93.8017 17.2345C93.1467 17.2436 92.7234 17.1959 92.4509 17.0107C92.1788 16.8259 92.0563 16.5047 92.0635 16.0632C92.0703 15.6226 92.2068 15.0628 92.4823 14.356C92.7582 13.6493 93.1736 12.7958 93.6169 12.1529C94.0614 11.5104 94.5346 11.0773 95.1087 10.8362C95.6828 10.5947 96.3582 10.5436 97.1961 10.7598C98.0337 10.9767 99.0337 11.4598 99.79 11.8207C100.547 12.1824 101.059 12.4224 101.394 12.8476C101.728 13.2728 101.884 13.8828 101.777 14.3213C101.669 14.7604 101.297 15.0276 100.92 15.2684C100.543 15.5095 100.161 15.7246 99.6808 15.96C99.2004 16.1955 98.6225 16.451 98.0446 16.7069C98.2415 17.0051 98.4385 17.3025 98.6562 17.8445C98.8739 18.3869 99.112 19.173 99.335 19.9543C99.5583 20.7351 99.7655 21.5103 99.776 22.0625C99.7874 22.615 99.601 22.9442 99.3694 23.1771C99.1384 23.4103 98.8618 23.5482 98.3262 23.6314C97.7907 23.7145 96.9954 23.7436 96.6424 23.6215C96.2902 23.4998 96.3794 23.2273 96.4629 22.9794Z" fill="#000D19"/>
<path fill-rule="evenodd" clip-rule="evenodd" d="M232.577 79.3716C233.452 79.7329 234.65 80.4551 235.478 81.14C236.305 81.8252 236.762 82.4715 237.028 83.1658C237.295 83.8605 237.371 84.6024 237.208 85.1727C237.047 85.7438 236.648 86.1433 235.563 86.3236C234.479 86.505 232.71 86.4668 231.16 86.4003C229.609 86.3342 228.277 86.2382 227.336 86.0477C226.394 85.858 225.842 85.573 225.357 85.2495C224.872 84.9259 224.454 84.5646 224.464 84.0218C224.473 83.4799 224.911 82.7568 225.538 82.072C226.166 81.3868 226.984 80.7405 227.859 80.2359C228.734 79.7321 229.666 79.3715 230.408 79.1901C231.15 79.0098 231.702 79.0099 232.577 79.3716Z" fill="#031D31"/>
<path fill-rule="evenodd" clip-rule="evenodd" d="M232.173 88.7308C232.34 89.3212 232.51 90.4433 232.506 91.3134C232.501 92.1838 232.321 92.8025 232.058 93.3063C231.797 93.8101 231.454 94.2001 231.179 94.4182C230.903 94.6374 230.694 94.6858 230.474 94.6288C230.256 94.5721 230.028 94.4095 229.895 94.0955C229.762 93.7825 229.724 93.3157 229.79 92.6169C229.857 91.9181 230.028 90.9853 230.161 90.3148C230.294 89.6447 230.39 89.2357 230.637 88.8975C230.884 88.5599 231.284 88.2935 231.564 88.1881C231.844 88.0837 232.007 88.1416 232.173 88.7308Z" fill="#031D31"/>
<path fill-rule="evenodd" clip-rule="evenodd" d="M237.236 92.8981C236.952 93.3165 236.114 94.0387 235.639 94.419C235.163 94.7996 235.048 94.8385 234.944 94.7859C234.84 94.7342 234.745 94.5909 234.84 94.2629C234.935 93.9352 235.22 93.4208 235.491 93.0542C235.763 92.6883 236.019 92.4702 236.266 92.3606C236.514 92.251 236.751 92.251 237.003 92.3081C237.256 92.3648 237.522 92.4797 237.236 92.8981Z" fill="#031D31"/>
<path fill-rule="evenodd" clip-rule="evenodd" d="M226.275 92.4408C226.526 92.5644 226.878 93.1068 227.091 93.535C227.305 93.9628 227.382 94.2769 227.231 94.4383C227.078 94.6005 226.697 94.6099 226.407 94.3295C226.117 94.049 225.918 93.4779 225.894 93.0448C225.87 92.6124 226.023 92.3176 226.275 92.4408Z" fill="#031D31"/>
<path fill-rule="evenodd" clip-rule="evenodd" d="M232.577 79.3716C233.452 79.7329 234.65 80.4551 235.478 81.14C236.305 81.8252 236.762 82.4715 237.028 83.1658C237.295 83.8605 237.371 84.6024 237.208 85.1727C237.047 85.7438 236.648 86.1433 235.563 86.3236C234.479 86.505 232.71 86.4668 231.16 86.4003C229.609 86.3342 228.277 86.2382 227.336 86.0477C226.394 85.858 225.842 85.573 225.357 85.2495C224.872 84.9259 224.454 84.5646 224.464 84.0218C224.473 83.4799 224.911 82.7568 225.538 82.072C226.166 81.3868 226.984 80.7405 227.859 80.2359C228.734 79.7321 229.666 79.3715 230.408 79.1901C231.15 79.0098 231.702 79.0099 232.577 79.3716Z" fill="#031D31"/>
<path fill-rule="evenodd" clip-rule="evenodd" d="M232.173 88.7308C232.34 89.3212 232.51 90.4433 232.506 91.3134C232.501 92.1838 232.321 92.8025 232.058 93.3063C231.797 93.8101 231.454 94.2001 231.179 94.4182C230.903 94.6374 230.694 94.6858 230.474 94.6288C230.256 94.5721 230.028 94.4095 229.895 94.0955C229.762 93.7825 229.724 93.3157 229.79 92.6169C229.857 91.9181 230.028 90.9853 230.161 90.3148C230.294 89.6447 230.39 89.2357 230.637 88.8975C230.884 88.5599 231.284 88.2935 231.564 88.1881C231.844 88.0837 232.007 88.1416 232.173 88.7308Z" fill="#031D31"/>
<path fill-rule="evenodd" clip-rule="evenodd" d="M237.236 92.8981C236.952 93.3165 236.114 94.0387 235.639 94.419C235.163 94.7996 235.048 94.8385 234.944 94.7859C234.84 94.7342 234.745 94.5909 234.84 94.2629C234.935 93.9352 235.22 93.4208 235.491 93.0542C235.763 92.6883 236.019 92.4702 236.266 92.3606C236.514 92.251 236.751 92.251 237.003 92.3081C237.256 92.3648 237.522 92.4797 237.236 92.8981Z" fill="#031D31"/>
<path fill-rule="evenodd" clip-rule="evenodd" d="M226.275 92.4408C226.526 92.5644 226.878 93.1068 227.091 93.535C227.305 93.9628 227.382 94.2769 227.231 94.4383C227.078 94.6005 226.697 94.6099 226.407 94.3295C226.117 94.049 225.918 93.4779 225.894 93.0448C225.87 92.6124 226.023 92.3176 226.275 92.4408Z" fill="#031D31"/>
<path fill-rule="evenodd" clip-rule="evenodd" d="M84.2621 84.1616C84.6658 84.3286 85.2191 84.662 85.6012 84.9784C85.9833 85.2947 86.1946 85.5929 86.317 85.9138C86.4402 86.2343 86.4754 86.5771 86.4006 86.8401C86.3261 87.104 86.1417 87.2884 85.6409 87.3719C85.1401 87.4555 84.3233 87.4381 83.6075 87.4071C82.8916 87.3765 82.2763 87.3323 81.8417 87.2442C81.407 87.1565 81.1519 87.0254 80.9282 86.8757C80.7044 86.7264 80.5109 86.5593 80.5155 86.3088C80.52 86.0586 80.7218 85.7248 81.0117 85.4085C81.3016 85.0921 81.6792 84.7939 82.0836 84.5607C82.4876 84.3279 82.9177 84.1616 83.2605 84.0781C83.603 83.9945 83.8581 83.9945 84.2621 84.1616Z" fill="#031D31"/>
<path fill-rule="evenodd" clip-rule="evenodd" d="M84.0752 88.4831C84.1523 88.7556 84.2309 89.2742 84.2287 89.6755C84.2268 90.0777 84.1432 90.3634 84.0223 90.5958C83.9017 90.8287 83.7434 91.0086 83.616 91.1095C83.489 91.2108 83.3919 91.2331 83.291 91.2066C83.19 91.1802 83.085 91.1053 83.023 90.9606C82.9618 90.8158 82.9444 90.6004 82.975 90.2776C83.0056 89.9548 83.085 89.5244 83.1462 89.2148C83.2074 88.9053 83.2517 88.7163 83.3658 88.5602C83.4799 88.4045 83.6644 88.2813 83.794 88.2325C83.9237 88.1845 83.9985 88.211 84.0752 88.4831Z" fill="#031D31"/>
<path fill-rule="evenodd" clip-rule="evenodd" d="M161.62 71.2203C162.207 71.4629 163.011 71.9475 163.566 72.4071C164.121 72.8666 164.428 73.3002 164.606 73.7662C164.785 74.2322 164.836 74.73 164.727 75.1124C164.619 75.4957 164.35 75.7636 163.623 75.8846C162.895 76.0063 161.709 75.981 160.668 75.9364C159.628 75.8918 158.735 75.8275 158.103 75.6994C157.472 75.572 157.101 75.3812 156.776 75.1642C156.451 74.9469 156.17 74.7046 156.176 74.3403C156.183 73.9767 156.476 73.4918 156.898 73.0322C157.318 72.5726 157.867 72.1391 158.454 71.8004C159.041 71.4622 159.667 71.2203 160.164 71.0989C160.662 70.978 161.033 70.978 161.62 71.2203Z" fill="#031D31"/>
<path fill-rule="evenodd" clip-rule="evenodd" d="M161.349 77.4996C161.461 77.8957 161.575 78.6486 161.572 79.2321C161.569 79.8161 161.448 80.2314 161.272 80.5693C161.096 80.9072 160.867 81.1692 160.681 81.3154C160.497 81.4624 160.356 81.495 160.209 81.4568C160.063 81.4186 159.91 81.3097 159.82 81.0988C159.731 80.8887 159.705 80.5757 159.75 80.1067C159.795 79.638 159.91 79.0122 159.999 78.5624C160.088 78.1127 160.152 77.8383 160.318 77.6115C160.484 77.3851 160.752 77.2063 160.94 77.1356C161.128 77.0657 161.237 77.1043 161.349 77.4996Z" fill="#031D31"/>
<path fill-rule="evenodd" clip-rule="evenodd" d="M164.746 80.2956C164.555 80.5761 163.992 81.0606 163.674 81.3161C163.355 81.5712 163.278 81.5973 163.208 81.5622C163.137 81.5274 163.074 81.431 163.137 81.2111C163.202 80.9911 163.393 80.6464 163.575 80.4004C163.757 80.1547 163.929 80.0084 164.095 79.9347C164.261 79.8614 164.42 79.8614 164.589 79.8996C164.759 79.9377 164.937 80.0148 164.746 80.2956Z" fill="#031D31"/>
<path fill-rule="evenodd" clip-rule="evenodd" d="M157.391 79.9887C157.56 80.0714 157.796 80.4355 157.939 80.7227C158.083 81.0096 158.134 81.2204 158.033 81.3285C157.93 81.4374 157.675 81.4438 157.481 81.2556C157.286 81.0678 157.152 80.6845 157.136 80.3939C157.12 80.104 157.222 79.9059 157.391 79.9887Z" fill="#031D31"/>
<defs>
<linearGradient id="paint0_linear_264_192" x1="371.79" y1="52.4191" x2="366.078" y2="111.669" gradientUnits="userSpaceOnUse">
<stop stop-color="#0D314F"/>
<stop offset="1" stop-color="#1F4B69"/>
</linearGradient>
<linearGradient id="paint1_linear_264_192" x1="68.6839" y1="91.5739" x2="71.4075" y2="117.662" gradientUnits="userSpaceOnUse">
<stop stop-color="#0D314F"/>
<stop offset="1" stop-color="#1D4663"/>
</linearGradient>
<linearGradient id="paint2_linear_264_192" x1="236.678" y1="46.8856" x2="225.081" y2="74.7736" gradientUnits="userSpaceOnUse">
<stop stop-color="#0D3752"/>
<stop offset="1" stop-color="#1F4B69"/>
</linearGradient>
<linearGradient id="paint3_linear_264_192" x1="327.11" y1="59.1421" x2="303.237" y2="129.289" gradientUnits="userSpaceOnUse">
<stop stop-color="#0D314F"/>
<stop offset="1" stop-color="#2E5C7B"/>
</linearGradient>
</defs>
</svg>
