<?xml version="1.0" encoding="UTF-8"?>
<!DOCTYPE svg PUBLIC "-//W3C//DTD SVG 1.1//EN" "http://www.w3.org/Graphics/SVG/1.1/DTD/svg11.dtd">
<!-- Creator: CorelDRAW 2020 (64 Bit) -->
<svg xmlns="http://www.w3.org/2000/svg" xml:space="preserve" width="86.6986mm" height="22.8598mm" version="1.1" style="shape-rendering:geometricPrecision; text-rendering:geometricPrecision; image-rendering:optimizeQuality; fill-rule:evenodd; clip-rule:evenodd"
viewBox="0 0 8669.86 2285.98"
 xmlns:xlink="http://www.w3.org/1999/xlink"
 xmlns:xodm="http://www.corel.com/coreldraw/odm/2003">
 <defs>
  <style type="text/css">
   <![CDATA[
    .str0 {stroke:#000D19;stroke-width:5.43;stroke-linecap:round;stroke-linejoin:round;stroke-miterlimit:22.9256}
    .fil6 {fill:none}
    .fil4 {fill:#000D19}
    .fil5 {fill:#031D31}
    .fil7 {fill:#0D3752}
    .fil8 {fill:#E9C87C}
    .fil3 {fill:url(#id0)}
    .fil2 {fill:url(#id1)}
    .fil0 {fill:url(#id2)}
    .fil1 {fill:url(#id3)}
   ]]>
  </style>
  <linearGradient id="id0" gradientUnits="userSpaceOnUse" x1="8854.26" y1="879.13" x2="9021.89" y2="1909.75">
   <stop offset="0" style="stop-opacity:1; stop-color:#0D314F"/>
   <stop offset="1" style="stop-opacity:1; stop-color:#2E5C7B"/>
  </linearGradient>
  <linearGradient id="id1" gradientUnits="userSpaceOnUse" x1="8391.41" y1="709.83" x2="8471.29" y2="1124.88">
   <stop offset="0" style="stop-opacity:1; stop-color:#0D3752"/>
   <stop offset="1" style="stop-opacity:1; stop-color:#1F4B69"/>
  </linearGradient>
  <linearGradient id="id2" gradientUnits="userSpaceOnUse" x1="1222.7" y1="793.81" x2="1257.78" y2="1642.22">
   <stop offset="0" style="stop-opacity:1; stop-color:#0D314F"/>
   <stop offset="1" style="stop-opacity:1; stop-color:#1F4B69"/>
  </linearGradient>
  <linearGradient id="id3" gradientUnits="userSpaceOnUse" x1="1069.47" y1="1356.22" x2="1053.2" y2="1730">
   <stop offset="0" style="stop-opacity:1; stop-color:#0D314F"/>
   <stop offset="1" style="stop-opacity:1; stop-color:#1D4663"/>
  </linearGradient>
 </defs>
 <g id="Camada_x0020_1">
  <metadata id="CorelCorpID_0Corel-Layer"/>
  <g id="_2506478746880">
   <path class="fil0" d="M6322.62 1033.45c-83.72,-45.09 -171.24,-59.81 -277.24,-77.36 -106,-17.54 -230.44,-37.91 -368.97,-33.55 -138.52,4.38 -291.15,33.48 -446.7,77.63 -155.59,44.13 -314.07,103.31 -419.26,137.25 -105.2,33.96 -157.07,42.7 -248.93,45.12 -91.85,2.42 -223.69,-1.45 -335.53,0.48 -111.85,1.94 -203.74,9.7 -351.46,37 -147.73,27.32 -351.43,-58.56 -510.68,-22.19 -159.25,36.36 -274.15,62.27 -412.41,63.11 -138.25,0.83 -299.89,-23.39 -528.78,-78.18 -228.9,-54.8 -527.31,16.87 -783.56,-64.61 -256.25,-81.51 -472.54,-159.14 -647.35,-218.29 -174.81,-59.18 -308.16,-99.94 -423.73,-119.8 -115.54,-19.89 -215.73,-18.94 -307.99,-19.4 -86.85,-0.46 -167,-2.05 -260.03,5.28l0 924.33c184.7,34.53 446.57,55.14 789.49,64.26 546.7,14.55 1299.31,0 2234.19,-26.2 934.87,-26.2 2051.95,-64.01 2651.22,-112.52 599.31,-48.5 680.82,-107.7 743.04,-195.96 62.22,-88.28 105.16,-72.88 86.71,-169.32 -18.44,-96.41 -98.34,-171.98 -182.03,-217.08z"/>
   <path class="fil1" d="M1808.24 1323.72c-36.85,-8.89 -108.82,-31.83 -152.08,-39.49 -43.3,-7.63 -57.84,0 -71.06,0.88 -13.22,0.91 -25.04,-4.99 -37.35,-18.51 -12.31,-13.53 -25.04,-34.72 -40.53,-51.5 -15.49,-16.75 -33.71,-29.11 -57.84,-32.63 -24.17,-3.52 -54.21,1.76 -77.88,11.18 -23.72,9.42 -41.03,22.95 -57.88,27.93 -16.86,5.02 -33.26,1.47 -57.39,-12.05 -24.13,-13.53 -67.35,31 -94.24,7.76 -26.86,-23.24 -48.71,-46.19 -73.34,-60.3 -24.58,-14.11 -51.89,-19.42 -77.42,-12.06 -77.1,22.23 -113.08,18.92 -157.17,-20.01 -22.27,-19.69 -44.2,-32.63 -68.79,-37.35 -24.54,-4.7 -51.93,-1.18 -76.06,3.52 -24.13,4.72 -45.07,10.59 -62.84,12.94 -17.76,2.37 -32.31,1.2 -56.02,-1.15 -23.68,-2.35 -56.44,-5.89 -85.61,-4.13 -29.13,1.76 -54.7,8.8 -72.92,0 -18.18,-8.81 -29.09,-33.54 -48.71,-41.49 -19.58,-7.93 -47.8,0.9 -72.88,12.96 -25.04,12.06 -46.94,27.35 -66.06,33.52 -19.13,6.19 -35.49,3.25 -60.57,-1.18 -25.04,-4.4 -61.44,-9.95 -98.83,-5.87 -28.44,3.13 -56.49,10.37 -84.77,17.6l0 971.54c232.59,2.75 482.76,-3.53 757.51,-25.93 285.12,-23.21 596.64,-63.82 817.55,-95.6 220.91,-31.75 351.18,-54.7 419.97,-109.42 68.79,-54.69 76.06,-141.19 60.16,-210.32 -15.95,-69.11 -55.16,-120.89 -93.46,-171.72 -38.34,-50.8 -75.81,-100.64 -95.4,-123 -19.58,-22.36 -21.27,-17.21 -58.09,-26.12z"/>
   <path class="fil2" d="M8669.87 526.77c-91,-13.15 -222.02,-21.82 -347.52,-11.31 -131.79,11.03 -257.51,43.23 -365.66,83.23 -108.15,40.01 -198.71,87.85 -267.65,118.2 -68.94,30.34 -116.27,43.23 -183.87,48.74 -67.56,5.52 -155.45,3.67 -257.5,5.96 -102.05,2.32 -218.33,8.74 -367.71,45.07 -149.35,36.33 -354.04,36.19 -497.99,91.37 -506.52,194.18 -751.33,317.08 -1331.82,483.52 -223.17,64.01 -427.57,117.52 -734.43,199.36 -306.86,81.87 -716.2,192.09 -995.22,318.92 -279.02,126.85 -405.57,376.54 -200.61,354.93 204.96,-21.58 829.99,-108.66 1422.09,-98.54 592.08,10.11 1135.75,155.44 1897.65,80.21 754.35,-74.48 1716.28,-148.11 2230.24,-336.91l0 -1382.75z"/>
   <path class="fil3" d="M8669.87 885.62c-10.11,-2.52 -17.51,-5.02 -24.33,-7.34 -21.47,-7.3 -37.5,-12.83 -51.34,-14.36 -13.84,-1.51 -25.46,1.03 -57.17,10.07 -31.68,9.07 -83.38,24.69 -114,41.54 -30.59,16.87 -40.03,35.01 -50.24,44.83 -10.21,9.81 -21.11,11.32 -26.59,2.51 -5.45,-8.82 -5.45,-27.93 -17.84,-30.21 -12.39,-2.26 -37.13,12.35 -67.35,27.7 -30.23,15.36 -65.94,31.46 -91.8,33.47 -25.83,2.03 -41.85,-10.07 -53.88,-12.83 -12.02,-2.76 -20.01,3.77 -37.16,14.59 -17.11,10.82 -43.3,25.94 -67.71,33.98 -24.41,8.06 -46.97,9.09 -67.75,18.41 -20.75,9.31 -39.71,26.92 -60.09,27.67 -20.38,0.76 -42.25,-15.34 -58.63,-27.95 -16.38,-12.58 -27.29,-21.65 -38.95,-20.89 -11.66,0.75 -24.04,11.35 -35.7,11.85 -11.66,0.5 -22.56,-9.07 -32.41,-9.57 -9.84,-0.5 -18.56,8.04 -26.23,15.6 -7.63,7.56 -14.2,14.09 -28.04,8.79 -13.81,-5.28 -34.95,-22.38 -49.52,-31.95 -14.56,-9.57 -22.56,-11.58 -42.61,2.01 -20.02,13.61 -52.09,42.8 -75.41,69.47 -23.29,26.69 -37.86,50.88 -45.88,46.08 -8,-4.77 -9.45,-38.52 -15.3,-57.91 -5.81,-19.37 -15.98,-24.41 -37.49,-13.84 -21.47,10.6 -54.27,36.77 -79.41,60.67 -25.1,23.94 -42.58,45.58 -53.51,57.66 -10.9,12.08 -15.29,14.62 -36.07,14.12 -20.75,-0.51 -57.87,-4.04 -80.1,-6.81 -22.2,-2.76 -29.5,-4.79 -46.61,5.53 -17.11,10.32 -44.04,33 -64.09,43.07 -20.01,10.07 -33.13,7.53 -46.24,3.49 -13.12,-4.02 -26.23,-9.55 -40.43,-9.04 -14.21,0.5 -29.5,7.03 -49.19,16.35 -19.65,9.31 -43.67,21.42 -73.16,26.94 -29.5,5.55 -64.48,4.52 -92.16,6.03 -27.65,1.53 -48.07,5.55 -62.27,12.61 -14.2,7.05 -22.2,17.12 -41.16,19.89 -18.93,2.76 -48.79,-1.76 -77.92,4.27 -29.14,6.05 -57.51,22.65 -166.78,61.68 -109.24,39.02 -299.34,100.45 -461.03,139.48 -161.7,39.02 -294.98,55.62 -396.95,73.25 -101.98,17.63 -172.6,36.24 -260,69.22 -87.41,33 -191.56,80.31 -274.6,128.15 -83.01,47.84 -144.95,96.18 -135.89,209.22 9.05,113.06 -231.69,-12.35 -76.61,136.7 155.09,149.04 296.11,74.01 712.58,106.18 416.44,32.18 1382.2,-24.62 1889.74,-12.51 500.07,11.92 941.44,37.57 1285.28,-3.11l0 -1344.76z"/>
   <path class="fil4" d="M8669.87 2129.38c-42.75,-12.91 -67.72,-22.01 -96.25,-29.65 -31.8,-8.54 -66.96,-13.53 -86.42,-15.87 -19.46,-2.35 -26.59,-2.96 -22.67,-10.6 3.88,-7.65 18.78,-22.35 17.37,-30.6 -1.41,-8.22 -19.14,-9.98 -37.54,-9.39 -18.4,0.56 -37.54,3.52 -57,10.3 -19.46,6.75 -39.31,17.31 -52.76,23.21 -13.46,5.87 -20.56,7.1 -25.85,7.69 -5.3,0.56 -8.83,0.56 -8.13,-7.66 0.71,-8.25 5.69,-24.74 19.11,-42.37 13.45,-17.66 35.42,-36.47 47.08,-49.41 11.65,-12.97 13.1,-20.02 7.45,-23.24 -5.69,-3.26 -18.4,-2.67 -33.98,2.61 -15.57,5.31 -34.01,15.32 -52.05,30.02 -18.05,14.73 -35.78,34.12 -51.35,47.68 -15.58,13.52 -29,21.15 -45.28,25 -16.28,3.81 -35.42,3.84 -48.88,3.84 -13.45,0 -21.23,-0.03 -18.4,-14.44 2.83,-14.43 16.28,-43.25 20.87,-98.53 4.63,-55.31 0.36,-137.09 -1.76,-177.96 -2.12,-40.9 -2.15,-40.88 18.75,-40.29 20.91,0.56 62.69,1.76 106.23,-4.13 43.55,-5.87 88.86,-18.84 116.12,-41.47 27.27,-22.65 36.42,-55.01 11.66,-94.71 -24.76,-39.73 -83.53,-86.77 -133.11,-121.48 -49.55,-34.69 -89.92,-57.04 -129.93,-66.76 -40.01,-9.71 -79.64,-6.77 -127.46,10.57 -47.78,17.37 -103.69,49.15 -147.24,82.98 -43.54,33.8 -74.72,69.69 -92.06,97.04 -17.35,27.34 -20.88,46.21 -20.52,61.2 0.35,15 4.59,26.17 38.21,37.62 33.62,11.47 96.63,23.27 137.93,31.32 41.26,8.06 60.85,12.41 70.65,14.6 9.76,2.16 9.79,2.16 7.45,34.98 -2.35,32.81 -7.1,98.5 -18.63,145.41 -11.53,46.93 -29.93,75.18 -43.38,94.31 -13.46,19.11 -21.97,29.11 -26.92,31.19 -4.94,2.06 -6.35,-3.84 -22.99,-16.78 -16.63,-12.96 -48.52,-32.92 -68.37,-43.22 -19.81,-10.3 -27.58,-10.91 -30.09,-4.46 -2.47,6.49 0.39,20.07 4.63,32.98 4.24,12.94 9.89,25.32 4.94,26.5 -4.94,1.17 -20.52,-8.86 -43.9,-15.32 -23.34,-6.48 -54.49,-9.44 -83.17,-11.79 -28.68,-2.35 -54.88,-4.11 -70.1,-4.96 -15.23,-0.89 -19.5,-0.91 -24.8,-14.12 -5.29,-13.23 -11.68,-39.73 -0.7,-55.9 10.98,-16.16 39.27,-22.09 62.65,-33.53 23.35,-11.48 41.81,-28.55 48.17,-43.55 6.36,-14.99 0.68,-27.93 -19.49,-45.57 -20.17,-17.66 -54.88,-40.02 -86.74,-52.05 -31.86,-12.06 -60.89,-13.85 -91.33,-10.01 -30.44,3.82 -62.3,13.21 -91.68,29.7 -29.39,16.46 -56.33,39.99 -73.67,58.83 -17.34,18.81 -25.11,32.95 -23.35,48.24 1.77,15.26 13.11,31.75 36.1,41.14 23.02,9.42 57.71,11.82 84.26,13.29 26.53,1.47 44.99,2.03 54.89,5.55 9.89,3.55 11.33,10.03 12.04,21.5 0.7,11.48 0.67,27.94 -6.75,36.18 -7.45,8.22 -22.28,8.22 -61.59,0 -39.27,-8.22 -150.26,49.79 -197.34,47.6 -480.83,-22.33 -109.82,88.02 -718.72,-47.3 -70.07,-15.56 -136.45,11.71 -163.01,-0.06 -26.56,-11.76 -26.56,-29.4 -33.3,-41.17 -6.71,-11.76 -20.17,-17.66 -42.13,-15.02 -21.94,2.67 -52.38,13.85 -71.52,22.65 -19.11,8.84 -26.88,15.32 -29.38,3.26 -2.48,-12.06 0.38,-42.66 -5.65,-60.62 -6.01,-17.93 -20.88,-23.21 -32.57,-21.45 -11.69,1.76 -20.16,10.59 -29.38,24.12 -9.22,13.53 -19.11,31.78 -25.85,38.53 -6.71,6.77 -10.28,2.05 -26.21,-11.77 -15.92,-13.82 -44.22,-36.77 -68.65,-48.53 -24.44,-11.77 -44.96,-12.36 -54.89,-7.07 -9.92,5.31 -9.18,16.48 -16.28,21.18 -7.06,4.72 -21.96,2.94 -120.39,-39.43 -98.39,-42.35 -280.38,-125.27 -445.7,-192.05 -165.32,-66.76 -314.04,-117.37 -419.17,-145.6 -105.14,-28.23 -166.77,-34.12 -228.36,-55.9 -61.59,-21.74 -123.19,-59.39 -194,-87.06 -70.81,-27.64 -150.8,-45.27 -212.75,-58.53 -61.98,-13.24 -105.87,-22.04 -136.67,-36.77 -30.8,-14.7 -48.52,-35.27 -70.46,-46.16 -21.96,-10.88 -48.14,-12.06 -75.4,-14.41 -27.26,-2.34 -55.59,-5.89 -73.64,-15.31 -18.08,-9.39 -25.85,-24.71 -42.13,-31.19 -16.31,-6.46 -41.07,-4.08 -65.86,-7.04 -24.79,-2.94 -49.55,-11.16 -67.95,-13.24 -18.44,-2.05 -30.45,2.08 -53.09,-2.05 -22.67,-4.11 -55.97,-16.46 -99.87,-30.28 -43.9,-13.83 -98.39,-29.14 -155.4,-33.86 -57,-4.7 -116.5,1.2 -163.93,0.29 -47.43,-0.88 -82.86,-8.51 -108.32,-9.98 -25.5,-1.47 -41.07,3.23 -73.28,-5.6 -4.4,-1.2 -293.71,-36.71 -298.85,-36.61 -212.62,4.35 -447.37,17.45 -516.64,-10.75 -39.63,-16.11 -70.13,-26.15 -94.54,-26.15 -24.44,0 -42.84,9.96 -72.57,12.33 -29.74,2.35 -70.81,-2.94 -101.26,-6.16 -30.44,-3.23 -50.29,-4.41 -66.22,2.05 -15.92,6.46 -27.93,20.6 -54.49,35.59 -26.56,15 -44.41,25.32 -121.04,-5.49 -76.65,-30.85 -194.41,47.52 -260.95,42.53 -66.57,-4.99 -285.52,-12.62 -317.37,-11.45 -31.89,1.17 -65.87,11.18 -86.03,22.95 -20.2,11.76 -26.59,25.29 -45,33.51 -18.4,8.21 -48.84,11.2 -69.71,19.42 -20.88,8.24 -32.21,21.77 -46.73,26.17 -14.51,4.43 -32.24,-0.29 -47.11,-1.46 -14.87,-1.18 -26.91,1.2 -43.54,10.88 -16.64,9.69 -37.9,26.79 -77.17,42.96 -39.28,16.17 -96.66,31.48 -145.86,50 -49.23,18.52 -90.27,40.29 -117.53,52.05 -27.27,11.77 -40.72,13.53 -55.95,11.18 -15.22,-2.35 -32.24,-8.8 -52.05,-4.11 -19.82,4.7 -42.46,20.6 -55.2,31.75 -12.75,11.18 -15.61,17.67 -25.86,19.43 -10.24,1.76 -28,-1.18 -45.34,2.05 -17.34,3.26 -34.33,12.65 -51.67,27.64 -17.34,15 -35.04,35.6 -73.64,57.37 -29.36,16.56 -116.79,6.36 -156.57,34.67l0 768.39 8669.87 0.03 0 -156.61z"/>
   <path class="fil5" d="M4420.79 1764.54c27.06,11.18 64.12,33.51 89.7,54.7 25.59,21.18 39.73,41.16 47.95,62.64 8.24,21.48 10.59,44.43 5.58,62.06 -4.99,17.67 -17.35,30.02 -50.89,35.59 -33.53,5.61 -88.23,4.43 -136.17,2.38 -47.95,-2.06 -89.15,-5.02 -118.25,-10.91 -29.11,-5.87 -46.19,-14.68 -61.18,-24.68 -15,-10.01 -27.94,-21.19 -27.64,-37.97 0.29,-16.76 13.82,-39.11 33.24,-60.3 19.4,-21.18 44.69,-41.17 71.77,-56.78 27.06,-15.58 55.87,-26.73 78.82,-32.33 22.94,-5.58 40.02,-5.58 67.07,5.6z"/>
   <path class="fil5" d="M4408.31 2053.97c5.15,18.25 10.43,52.97 10.27,79.86 -0.14,26.92 -5.71,46.05 -13.82,61.63 -8.09,15.58 -18.68,27.64 -27.22,34.39 -8.51,6.78 -14.99,8.28 -21.77,6.51 -6.75,-1.76 -13.79,-6.77 -17.93,-16.48 -4.11,-9.69 -5.28,-24.12 -3.23,-45.74 2.06,-21.61 7.37,-50.45 11.48,-71.18 4.1,-20.73 7.07,-33.38 14.7,-43.84 7.65,-10.43 20.01,-18.67 28.68,-21.93 8.67,-3.23 13.69,-1.44 18.84,16.78z"/>
   <path class="fil5" d="M4564.87 2182.84c-8.81,12.94 -34.71,35.27 -49.41,47.04 -14.71,11.77 -18.25,12.97 -21.48,11.34 -3.23,-1.6 -6.17,-6.03 -3.23,-16.17 2.96,-10.14 11.77,-26.04 20.14,-37.38 8.41,-11.31 16.33,-18.06 23.99,-21.45 7.66,-3.39 14.99,-3.39 22.79,-1.63 7.81,1.76 16.03,5.31 7.2,18.25z"/>
   <path class="fil5" d="M4225.89 2168.7c7.79,3.82 18.65,20.6 25.27,33.83 6.61,13.24 8.99,22.95 4.29,27.94 -4.72,5.01 -16.49,5.31 -25.45,-3.36 -8.97,-8.68 -15.16,-26.34 -15.88,-39.73 -0.74,-13.37 3.98,-22.49 11.77,-18.68z"/>
   <path class="fil5" d="M593.75 1797.91c17.52,7.24 41.53,21.71 58.11,35.43 16.58,13.73 25.74,26.68 31.06,40.59 5.34,13.92 6.87,28.78 3.62,40.21 -3.24,11.44 -11.24,19.44 -32.97,23.06 -21.73,3.63 -57.16,2.87 -88.22,1.53 -31.07,-1.33 -57.76,-3.24 -76.61,-7.06 -18.86,-3.81 -29.93,-9.51 -39.64,-15.99 -9.71,-6.49 -18.1,-13.73 -17.91,-24.6 0.19,-10.86 8.96,-25.34 21.54,-39.07 12.57,-13.72 28.95,-26.67 46.5,-36.78 17.53,-10.1 36.19,-17.32 51.06,-20.95 14.87,-3.61 25.93,-3.61 43.46,3.63z"/>
   <path class="fil5" d="M585.66 1985.42c3.33,11.83 6.76,34.32 6.65,51.74 -0.08,17.44 -3.7,29.83 -8.95,39.93 -5.24,10.09 -12.1,17.91 -17.63,22.28 -5.52,4.39 -9.72,5.36 -14.11,4.22 -4.37,-1.14 -8.94,-4.39 -11.61,-10.68 -2.67,-6.28 -3.43,-15.63 -2.1,-29.63 1.33,-14 4.77,-32.69 7.44,-46.12 2.66,-13.43 4.58,-21.62 9.52,-28.4 4.96,-6.76 12.97,-12.1 18.58,-14.21 5.62,-2.09 8.87,-0.93 12.21,10.87z"/>
   <path class="fil5" d="M789.87 2079.82c-5.71,8.38 -22.49,22.85 -32.01,30.47 -9.53,7.63 -11.83,8.41 -13.92,7.35 -2.09,-1.04 -3.99,-3.91 -2.09,-10.47 1.92,-6.57 7.62,-16.87 13.05,-24.22 5.45,-7.33 10.58,-11.7 15.54,-13.9 4.96,-2.19 9.71,-2.19 14.76,-1.05 5.07,1.14 10.39,3.44 4.67,11.82z"/>
   <path class="fil5" d="M467.47 2059.75c5.05,2.47 12.09,13.35 16.37,21.92 4.29,8.57 5.83,14.87 2.79,18.1 -3.06,3.25 -10.69,3.44 -16.49,-2.18 -5.81,-5.62 -9.82,-17.06 -10.29,-25.74 -0.48,-8.66 2.58,-14.57 7.62,-12.1z"/>
   <path class="fil5" d="M729.35 2049.79c-5.7,8.39 -22.49,22.86 -32.01,30.48 -9.53,7.62 -11.82,8.4 -13.92,7.35 -2.09,-1.04 -3.99,-3.91 -2.09,-10.48 1.92,-6.57 7.63,-16.87 13.05,-24.22 5.45,-7.33 10.58,-11.7 15.54,-13.89 4.96,-2.2 9.72,-2.2 14.76,-1.06 5.07,1.14 10.39,3.44 4.67,11.82z"/>
   <path class="fil5" d="M399.8 2087.34c5.05,2.47 12.08,13.34 16.37,21.92 4.29,8.57 5.83,14.86 2.78,18.1 -3.06,3.25 -10.68,3.44 -16.49,-2.18 -5.8,-5.62 -9.81,-17.06 -10.28,-25.74 -0.49,-8.66 2.57,-14.57 7.62,-12.1z"/>
   <path class="fil5" d="M2542.27 1720.17c15.58,6.44 36.92,19.3 51.65,31.5 14.74,12.2 22.88,23.71 27.61,36.07 4.75,12.37 6.1,25.58 3.21,35.74 -2.87,10.17 -9.99,17.28 -29.3,20.5 -19.31,3.22 -50.81,2.55 -78.42,1.36 -27.61,-1.18 -51.33,-2.89 -68.09,-6.28 -16.76,-3.38 -26.6,-8.45 -35.23,-14.21 -8.63,-5.76 -16.09,-12.2 -15.92,-21.87 0.17,-9.64 7.96,-22.52 19.15,-34.72 11.17,-12.2 25.73,-23.71 41.33,-32.69 15.58,-8.98 32.17,-15.4 45.38,-18.62 13.21,-3.22 23.05,-3.22 38.63,3.22z"/>
   <path class="fil5" d="M2535.08 1886.84c2.96,10.51 6,30.5 5.91,45.99 -0.08,15.5 -3.29,26.51 -7.96,35.49 -4.65,8.97 -10.75,15.91 -15.67,19.8 -4.9,3.9 -8.63,4.76 -12.54,3.75 -3.88,-1.01 -7.94,-3.9 -10.32,-9.49 -2.37,-5.58 -3.04,-13.89 -1.86,-26.34 1.18,-12.44 4.24,-29.05 6.61,-40.99 2.36,-11.94 4.07,-19.22 8.46,-25.24 4.41,-6.01 11.53,-10.76 16.52,-12.63 4.99,-1.86 7.88,-0.83 10.85,9.66z"/>
   <g>
    <g>
     <g>
      <path class="fil6 str0" d="M1810.49 378.69c-20.52,-7.98 -34.81,-23.34 -48.34,-36.44 -8.27,-8.01 -6.19,-4.19 -16.22,-17.5 -17.84,-23.68 -31.88,-48.65 -41.81,-77.77 -3.47,-10.18 -16.52,-52.04 -12.85,-62.9 15.87,42.63 23.24,66.55 48.84,107.79 11.08,17.85 19.8,29.92 31.67,45.75 16.04,21.38 35.3,36.2 38.71,41.07z"/>
      <path id="1" class="fil7" d="M1810.49 378.69c-20.52,-7.98 -34.81,-23.34 -48.34,-36.44 -8.27,-8.01 -6.19,-4.19 -16.22,-17.5 -17.84,-23.68 -31.88,-48.65 -41.81,-77.77 -3.47,-10.18 -16.52,-52.04 -12.85,-62.9 15.87,42.63 23.24,66.55 48.84,107.79 11.08,17.85 19.8,29.92 31.67,45.75 16.04,21.38 35.3,36.2 38.71,41.07z"/>
     </g>
     <g>
      <path class="fil6 str0" d="M1315.88 371.91l0.03 1.58c-1.31,4.18 -2.12,3.05 -4.39,7.18 -5.92,10.8 -6.04,31.39 -4.07,43.64 3.05,18.85 8.45,36.3 14.33,52.14 18.05,48.67 40.86,69.91 48.05,85.8 -6.67,-2.94 -13.44,-12.74 -18.4,-18.92 -14.52,-18.08 -33.21,-48.31 -42.03,-69.37 -7.12,-17.02 -14.2,-34.83 -16.85,-56.08 -4.19,-33.67 12.83,-50.25 23.33,-45.97z"/>
      <path id="1" class="fil7" d="M1315.88 371.91l0.03 1.58c-1.31,4.18 -2.12,3.05 -4.39,7.18 -5.92,10.8 -6.04,31.39 -4.07,43.64 3.05,18.85 8.45,36.3 14.33,52.14 18.05,48.67 40.86,69.91 48.05,85.8 -6.67,-2.94 -13.44,-12.74 -18.4,-18.92 -14.52,-18.08 -33.21,-48.31 -42.03,-69.37 -7.12,-17.02 -14.2,-34.83 -16.85,-56.08 -4.19,-33.67 12.83,-50.25 23.33,-45.97z"/>
     </g>
     <g>
      <path class="fil6 str0" d="M1135.76 634.11l-8.4 -7.26c-17.1,-20.68 -33.14,-61.99 -16.45,-81.84 0.95,0.95 3.05,-1.79 2.66,9.9 -0.17,4.97 -0.12,8.16 0.32,13.1 0.77,8.55 2.6,16.27 4.51,24.49 4.46,19.2 10.3,27.37 17.36,41.61z"/>
      <path id="1" class="fil7" d="M1135.76 634.11l-8.4 -7.26c-17.1,-20.68 -33.14,-61.99 -16.45,-81.84 0.95,0.95 3.05,-1.79 2.66,9.9 -0.17,4.97 -0.12,8.16 0.32,13.1 0.77,8.55 2.6,16.27 4.51,24.49 4.46,19.2 10.3,27.37 17.36,41.61z"/>
     </g>
     <path class="fil4" d="M1479.84 1109.86l0.34 -300.85c-4.98,5.14 -17.88,30.9 -22.55,39.13l-156.18 277.8c27.58,-0.3 58.86,-3.2 87.02,-4.56 27.93,-1.35 65.09,0.77 91.52,-2.37l-0.15 -9.15zm245.72 16.47c-27.47,-51.86 -63.22,-111.67 -92.69,-163.99l-69.19 -122.91c-5.96,-11.07 -16.73,-32.02 -23.26,-40.73l-0.14 320.72c61.96,0.73 123.99,2.7 185.28,6.91zm48.29 4.73l9.77 0.04c-4.36,-10.19 -15.93,-30.7 -22.49,-41.97 -8.46,-14.54 -15.18,-28.37 -23.53,-42.57l-92.45 -170.62c-9.37,-15.97 -39.91,-77.01 -46.96,-85.45l-12.06 -0.07 140.26 255.83c12.85,23.93 37.66,63.95 47.46,84.81zm-268.79 -403.97c12.94,11.35 57.1,8.48 78.73,8.52 8.86,0.01 23.16,2.68 23,-6.48 -0.24,-13.48 -39.47,-7.62 -50.37,-7.31 -11.48,0.33 -43.57,-0.93 -51.36,5.27zm28.01 -78.56c33.88,-9.36 37.8,-51.94 13.72,-72.97 -4.23,-3.7 -6.25,-4.48 -11.88,-4.28 7.94,11.61 13.13,20.31 13.26,39.87 0.15,23.17 -8.5,27.9 -15.1,37.38zm-422.16 -103.52c-16.69,19.85 -0.65,61.16 16.45,81.84l8.4 7.26c-7.06,-14.24 -12.9,-22.41 -17.36,-41.61 -1.91,-8.22 -3.74,-15.94 -4.51,-24.49 -0.44,-4.94 -0.49,-8.13 -0.32,-13.1 0.39,-11.69 -1.71,-8.95 -2.66,-9.9zm200.61 -164.34c2.27,-4.13 3.08,-3 4.39,-7.18l-0.03 -1.58c-10.5,-4.28 -27.52,12.3 -23.33,45.97 2.65,21.25 9.73,39.06 16.85,56.08 8.82,21.06 27.51,51.29 42.03,69.37 4.96,6.18 11.73,15.98 18.4,18.92 -7.19,-15.89 -30,-37.13 -48.05,-85.8 -5.88,-15.84 -11.28,-33.29 -14.33,-52.14 -1.97,-12.25 -1.85,-32.84 4.07,-43.64zm498.97 -1.98c-3.41,-4.87 -22.67,-19.69 -38.71,-41.07 -11.87,-15.83 -20.59,-27.9 -31.67,-45.75 -25.6,-41.24 -32.97,-65.16 -48.84,-107.79 -3.67,10.86 9.38,52.72 12.85,62.9 9.93,29.12 23.97,54.09 41.81,77.77 10.03,13.31 7.95,9.49 16.22,17.5 13.53,13.1 27.82,28.46 48.34,36.44zm19.28 -322.23c-19.69,-4.58 -32.03,8.89 -35.63,24.43 -10.16,43.76 19.04,104.78 38.53,139.27 22.2,39.28 76.92,109.64 122.88,119.45 43.87,9.38 40.39,-45.87 32.78,-77.97 -9.6,-40.5 -36.32,-89.37 -60.58,-121.84 -17.15,-22.95 -35.4,-45.37 -58.87,-62.37 -11.42,-8.27 -22.36,-17.08 -39.11,-20.97zm-143.19 100.67c3.44,-36.76 8.53,-38.82 32.99,-54.22 17.22,-10.84 36.14,-21.37 53.72,-31.78 21.93,-12.97 38.05,-27.35 60.77,-21.82 48.23,11.73 105.64,87.1 128.87,129.47 15.52,28.32 45.16,86.58 39.91,130.03 -3.57,29.59 -18.68,36.46 -39.21,47.91 -18.83,10.5 -36.37,20.23 -54.95,30.59 -22.62,12.61 -32.76,21.11 -63.55,12.46 -7.89,-2.22 -16.08,5.41 -28.06,12.1l-192.13 108.09c-9.11,4.99 -18.73,10.82 -27.99,15.62 -9.56,4.96 -18.8,9.47 -27.9,15.07 4.26,9.33 9.94,16.69 13.1,28.24 6.29,23.04 5.3,48.39 -9.31,68.15 -24.01,32.48 -21.23,-7.95 -21.38,65.77 18.77,-0.09 54.98,-5.9 62.36,10.4 2.73,6.03 6.47,48.34 -5.63,62.25 31.66,56.28 60.46,116.34 92.46,173.65 15.65,28.04 31.67,57.89 45.87,86.56 14.4,29.08 31.56,57.17 45.71,86.54 22.7,1.36 47.26,4.76 69.42,7.94 11.11,1.59 21.95,3.33 33.06,5.75 13.01,2.84 24.36,4.07 26.42,12.38 -8.73,12.87 -69.5,18.01 -90.67,20.52 -177.69,21.06 -450.42,17.99 -629.39,-0.78 -14.59,-1.53 -83.18,-6.88 -88.08,-21.29 10.61,-13.19 83.45,-19.63 107.99,-22.27 22.52,-2.41 16.34,1.37 26.15,-15.83 20.87,-36.58 39.29,-73.96 59.89,-111.25 40.64,-73.57 80.28,-147.53 120.12,-221.92 -7.69,-10.73 -8.34,-9.15 -8.26,-27.43 0.03,-8.8 -1.51,-27.04 1.5,-34.24 7.54,-18.03 37.7,-8.85 59.49,-11.49 -0.12,-67.16 3.28,-42.75 -11.58,-59.83 -18.6,-21.37 -17.3,-35.93 -21.28,-43.71 -30.8,15.9 -42.09,28.65 -67.71,19.78 -17.35,-6.01 -45.87,-27.29 -53.54,-40.03 -10.39,1.86 -24.63,9.41 -34.96,13.67 -11.44,4.72 -21.8,9.25 -32.91,13.93 -12.39,5.22 -73.98,28.16 -80.6,37.18 -8.95,12.17 -39.44,23.54 -44.97,23.23 -39.53,-2.23 -79,-96.2 -56.67,-116.81 5.06,-4.67 22.52,-13.34 29.51,-17.3 29.57,-16.71 17.78,2.4 33.14,-7.06l117.61 -69.71c-1.52,-17.19 -15.93,-59.81 10.71,-74.84 16.6,-9.37 43.73,-29.99 62.87,-28.9 8.57,0.48 51.46,-27.66 59.79,-32.4 19.91,-11.34 39.19,-22.96 59.29,-34.37l238.01 -138z"/>
     <path class="fil7" d="M1838.44 89.51c13.54,3.69 21.26,9.9 30.46,17.07 3.1,2.43 3.68,2.44 6.2,5.16 2.54,2.73 2.52,3.26 5.23,5.91 36.28,35.4 65.91,79.57 81.53,129.77 29.64,95.32 -34.98,64.01 -78.83,8.03 -4.08,-5.2 -6.38,-8.39 -10.58,-13.58 -17.02,-21.04 -40,-65.88 -48.37,-91.95 -5.61,-17.47 -18.77,-69.42 14.36,-60.41z"/>
     <path class="fil8" d="M1838.44 89.51c-33.13,-9.01 -19.97,42.94 -14.36,60.41 8.37,26.07 31.35,70.91 48.37,91.95 4.2,5.19 6.5,8.38 10.58,13.58 43.85,55.98 108.47,87.29 78.83,-8.03 -15.62,-50.2 -45.25,-94.37 -81.53,-129.77 -2.71,-2.65 -2.69,-3.18 -5.23,-5.91 -2.52,-2.72 -3.1,-2.73 -6.2,-5.16 -9.2,-7.17 -16.92,-13.38 -30.46,-17.07zm-8.67 -33.05c16.75,3.89 27.69,12.7 39.11,20.97 23.47,17 41.72,39.42 58.87,62.37 24.26,32.47 50.98,81.34 60.58,121.84 7.61,32.1 11.09,87.35 -32.78,77.97 -45.96,-9.81 -100.68,-80.17 -122.88,-119.45 -19.49,-34.49 -48.69,-95.51 -38.53,-139.27 3.6,-15.54 15.94,-29.01 35.63,-24.43z"/>
     <path class="fil8" d="M1773.85 1131.06c-9.8,-20.86 -34.61,-60.88 -47.46,-84.81l-140.26 -255.83 12.06 0.07c7.05,8.44 37.59,69.48 46.96,85.45l92.45 170.62c8.35,14.2 15.07,28.03 23.53,42.57 6.56,11.27 18.13,31.78 22.49,41.97l-9.77 -0.04z"/>
     <path class="fil8" d="M1505.06 727.09c7.79,-6.2 39.88,-4.94 51.36,-5.27 10.9,-0.31 50.13,-6.17 50.37,7.31 0.16,9.16 -14.14,6.49 -23,6.48 -21.63,-0.04 -65.79,2.83 -78.73,-8.52z"/>
     <path class="fil8" d="M1533.07 648.53c6.6,-9.48 15.25,-14.21 15.1,-37.38 -0.13,-19.56 -5.32,-28.26 -13.26,-39.87 5.63,-0.2 7.65,0.58 11.88,4.28 24.08,21.03 20.16,63.61 -13.72,72.97z"/>
     <path class="fil4" d="M1837.12 90.11c7.57,1.76 19.07,7.03 31.23,15.83 12.15,8.81 24.97,21.14 36.41,34.8 11.44,13.65 21.5,28.62 30.54,42.64 9.04,14.01 17.07,27.06 22.94,40 5.86,12.93 9.58,25.75 11.55,37.31 1.98,11.56 2.22,21.86 1.68,29.04 -0.54,7.19 -1.86,11.26 -4.3,13.81 -2.44,2.54 -6.01,3.56 -8.29,3.5 -2.27,-0.06 -3.25,-1.2 -3.2,-4.82 0.04,-3.63 1.12,-9.73 -0.08,-20.69 -1.2,-10.96 -4.67,-26.77 -9.28,-40.66 -4.61,-13.9 -10.36,-25.87 -16.77,-37.13 -6.41,-11.26 -13.47,-21.8 -22.46,-34.36 -8.98,-12.56 -19.88,-27.14 -33.66,-38.69 -13.77,-11.56 -30.42,-20.1 -39.1,-25.37 -8.68,-5.27 -9.4,-7.27 -10.09,-8.98 -0.69,-1.7 -1.34,-3.11 0.16,-4.68 1.5,-1.57 5.15,-3.32 12.72,-1.55z"/>
     <path class="fil8" d="M1607.01 730.92c1.44,8.86 -1.07,29.52 -2.75,40.98 -1.67,11.47 -2.51,13.75 -4.49,14.34 -1.97,0.6 -5.09,-0.47 -6.04,-6.7 -0.96,-6.23 0.23,-17.61 0.36,-25.74 0.12,-8.12 -0.82,-12.99 -0.88,-16.77 -0.06,-3.77 0.76,-6.44 3.87,-9.24 3.11,-2.81 8.5,-5.74 9.93,3.13z"/>
    </g>
    <path class="fil4" d="M1351.8 376.47c1.2,-3.54 2.32,-6.72 2.37,-17.83 0.06,-11.1 -0.96,-30.12 -2.07,-42.49 -1.11,-12.37 -2.33,-18.07 -3.55,-23.78 -12.7,0.94 -25.4,1.88 -34.78,2 -9.36,0.13 -15.4,-0.55 -19.3,-3.19 -3.89,-2.64 -5.64,-7.23 -5.54,-13.54 0.1,-6.3 2.05,-14.3 5.99,-24.4 3.94,-10.1 9.87,-22.29 16.21,-31.48 6.35,-9.18 13.11,-15.37 21.32,-18.82 8.21,-3.45 17.86,-4.18 29.83,-1.09 11.97,3.1 26.26,10 37.07,15.16 10.81,5.17 18.13,8.6 22.91,14.68 4.78,6.07 7.01,14.79 5.47,21.06 -1.54,6.27 -6.85,10.09 -12.24,13.53 -5.38,3.44 -10.84,6.52 -17.71,9.88 -6.86,3.37 -15.12,7.02 -23.38,10.68 2.82,4.26 5.63,8.51 8.74,16.25 3.11,7.75 6.52,18.99 9.7,30.15 3.19,11.16 6.16,22.24 6.31,30.13 0.16,7.89 -2.51,12.6 -5.81,15.93 -3.3,3.33 -7.26,5.3 -14.91,6.49 -7.66,1.19 -19.02,1.6 -24.06,-0.15 -5.04,-1.73 -3.76,-5.63 -2.57,-9.17z"/>
   </g>
   <path class="fil5" d="M3296.9 1182.32c12.5,5.17 29.63,15.49 41.45,25.28 11.83,9.79 18.36,19.02 22.16,28.95 3.81,9.92 4.89,20.53 2.58,28.68 -2.31,8.16 -8.02,13.87 -23.52,16.44 -15.49,2.59 -40.77,2.05 -62.93,1.1 -22.15,-0.95 -41.19,-2.32 -54.64,-5.04 -13.45,-2.71 -21.34,-6.78 -28.27,-11.41 -6.93,-4.62 -12.91,-9.79 -12.77,-17.54 0.13,-7.74 6.38,-18.08 15.36,-27.87 8.96,-9.78 20.65,-19.02 33.16,-26.23 12.51,-7.2 25.82,-12.36 36.43,-14.95 10.6,-2.57 18.49,-2.57 30.99,2.59z"/>
   <path class="fil5" d="M3291.13 1316.07c2.38,8.44 4.82,24.48 4.75,36.9 -0.06,12.44 -2.64,21.28 -6.39,28.48 -3.73,7.2 -8.63,12.78 -12.57,15.9 -3.94,3.13 -6.93,3.82 -10.07,3.01 -3.11,-0.82 -6.37,-3.14 -8.28,-7.62 -1.9,-4.48 -2.44,-11.15 -1.49,-21.14 0.95,-9.98 3.4,-23.31 5.3,-32.89 1.9,-9.58 3.27,-15.43 6.79,-20.26 3.54,-4.82 9.25,-8.63 13.26,-10.13 4,-1.49 6.32,-0.67 8.7,7.75z"/>
   <path class="fil5" d="M3363.48 1375.62c-4.07,5.98 -16.04,16.3 -22.83,21.74 -6.8,5.44 -8.44,5.99 -9.93,5.24 -1.49,-0.74 -2.85,-2.79 -1.49,-7.47 1.37,-4.69 5.44,-12.04 9.31,-17.28 3.88,-5.22 7.54,-8.34 11.08,-9.91 3.54,-1.56 6.93,-1.56 10.53,-0.75 3.61,0.81 7.41,2.45 3.33,8.43z"/>
   <path class="fil5" d="M3206.84 1369.09c3.6,1.76 8.61,9.52 11.67,15.63 3.06,6.12 4.16,10.61 1.99,12.91 -2.19,2.32 -7.62,2.45 -11.77,-1.55 -4.14,-4.01 -7,-12.17 -7.33,-18.36 -0.35,-6.18 1.84,-10.39 5.44,-8.63z"/>
   <path class="fil5" d="M3296.9 1182.32c12.5,5.17 29.63,15.49 41.45,25.28 11.83,9.79 18.36,19.02 22.16,28.95 3.81,9.92 4.89,20.53 2.58,28.68 -2.31,8.16 -8.02,13.87 -23.52,16.44 -15.49,2.59 -40.77,2.05 -62.93,1.1 -22.15,-0.95 -41.19,-2.32 -54.64,-5.04 -13.45,-2.71 -21.34,-6.78 -28.27,-11.41 -6.93,-4.62 -12.91,-9.79 -12.77,-17.54 0.13,-7.74 6.38,-18.08 15.36,-27.87 8.96,-9.78 20.65,-19.02 33.16,-26.23 12.51,-7.2 25.82,-12.36 36.43,-14.95 10.6,-2.57 18.49,-2.57 30.99,2.59z"/>
   <path class="fil5" d="M3291.13 1316.07c2.38,8.44 4.82,24.48 4.75,36.9 -0.06,12.44 -2.64,21.28 -6.39,28.48 -3.73,7.2 -8.63,12.78 -12.57,15.9 -3.94,3.13 -6.93,3.82 -10.07,3.01 -3.11,-0.82 -6.37,-3.14 -8.28,-7.62 -1.9,-4.48 -2.44,-11.15 -1.49,-21.14 0.95,-9.98 3.4,-23.31 5.3,-32.89 1.9,-9.58 3.27,-15.43 6.79,-20.26 3.54,-4.82 9.25,-8.63 13.26,-10.13 4,-1.49 6.32,-0.67 8.7,7.75z"/>
   <path class="fil5" d="M3363.48 1375.62c-4.07,5.98 -16.04,16.3 -22.83,21.74 -6.8,5.44 -8.44,5.99 -9.93,5.24 -1.49,-0.74 -2.85,-2.79 -1.49,-7.47 1.37,-4.69 5.44,-12.04 9.31,-17.28 3.88,-5.22 7.54,-8.34 11.08,-9.91 3.54,-1.56 6.93,-1.56 10.53,-0.75 3.61,0.81 7.41,2.45 3.33,8.43z"/>
   <path class="fil5" d="M3206.84 1369.09c3.6,1.76 8.61,9.52 11.67,15.63 3.06,6.12 4.16,10.61 1.99,12.91 -2.19,2.32 -7.62,2.45 -11.77,-1.55 -4.14,-4.01 -7,-12.17 -7.33,-18.36 -0.35,-6.18 1.84,-10.39 5.44,-8.63z"/>
   <path class="fil5" d="M1177.44 1250.78c5.78,2.38 13.68,7.15 19.14,11.67 5.46,4.52 8.48,8.78 10.23,13.37 1.76,4.58 2.26,9.47 1.19,13.24 -1.06,3.77 -3.7,6.4 -10.85,7.59 -7.16,1.2 -18.83,0.95 -29.06,0.51 -10.23,-0.44 -19.02,-1.07 -25.23,-2.33 -6.21,-1.25 -9.86,-3.13 -13.06,-5.27 -3.2,-2.13 -5.96,-4.52 -5.9,-8.1 0.07,-3.57 2.95,-8.34 7.1,-12.86 4.14,-4.52 9.53,-8.79 15.31,-12.12 5.78,-3.32 11.92,-5.7 16.82,-6.9 4.9,-1.19 8.54,-1.19 14.31,1.2z"/>
   <path class="fil5" d="M1174.78 1312.54c1.1,3.89 2.22,11.3 2.19,17.04 -0.03,5.74 -1.22,9.82 -2.95,13.15 -1.72,3.32 -3.98,5.89 -5.81,7.33 -1.81,1.45 -3.2,1.77 -4.64,1.39 -1.44,-0.37 -2.94,-1.44 -3.83,-3.51 -0.87,-2.07 -1.12,-5.15 -0.69,-9.76 0.44,-4.61 1.58,-10.77 2.45,-15.19 0.88,-4.43 1.51,-7.12 3.14,-9.36 1.63,-2.22 4.27,-3.98 6.12,-4.68 1.85,-0.68 2.92,-0.3 4.02,3.59z"/>
   <path class="fil5" d="M2282.9 1065.84c8.39,3.47 19.88,10.39 27.81,16.96 7.94,6.57 12.32,12.76 14.87,19.42 2.55,6.66 3.28,13.78 1.73,19.24 -1.55,5.48 -5.38,9.31 -15.78,11.04 -10.39,1.73 -27.35,1.37 -42.22,0.73 -14.86,-0.63 -27.63,-1.55 -36.66,-3.38 -9.02,-1.82 -14.32,-4.55 -18.96,-7.65 -4.65,-3.1 -8.67,-6.57 -8.57,-11.77 0.09,-5.2 4.28,-12.13 10.3,-18.7 6.02,-6.56 13.86,-12.76 22.25,-17.6 8.39,-4.83 17.32,-8.29 24.44,-10.02 7.11,-1.73 12.41,-1.73 20.79,1.73z"/>
   <path class="fil5" d="M2279.03 1155.58c1.6,5.65 3.24,16.42 3.19,24.75 -0.04,8.35 -1.77,14.28 -4.29,19.11 -2.5,4.83 -5.79,8.57 -8.43,10.66 -2.64,2.1 -4.65,2.57 -6.75,2.02 -2.1,-0.54 -4.28,-2.1 -5.56,-5.11 -1.28,-3 -1.64,-7.48 -1,-14.18 0.63,-6.7 2.28,-15.64 3.55,-22.07 1.28,-6.42 2.19,-10.35 4.56,-13.59 2.37,-3.23 6.2,-5.79 8.89,-6.8 2.69,-1 4.25,-0.44 5.84,5.21z"/>
   <path class="fil5" d="M2327.57 1195.53c-2.73,4.01 -10.76,10.93 -15.32,14.58 -4.56,3.65 -5.66,4.02 -6.66,3.52 -1,-0.5 -1.91,-1.87 -1,-5.02 0.92,-3.14 3.65,-8.07 6.25,-11.58 2.6,-3.51 5.06,-5.6 7.43,-6.65 2.38,-1.06 4.65,-1.06 7.07,-0.51 2.42,0.55 4.97,1.65 2.23,5.66z"/>
   <path class="fil5" d="M2222.48 1191.14c2.41,1.19 5.78,6.39 7.83,10.49 2.05,4.11 2.79,7.12 1.33,8.66 -1.46,1.56 -5.11,1.65 -7.89,-1.04 -2.78,-2.69 -4.7,-8.16 -4.92,-12.32 -0.23,-4.14 1.23,-6.97 3.65,-5.79z"/>
  </g>
 </g>
</svg>
