<?xml version="1.0" encoding="UTF-8"?>
<!DOCTYPE svg PUBLIC "-//W3C//DTD SVG 1.1//EN" "http://www.w3.org/Graphics/SVG/1.1/DTD/svg11.dtd">
<!-- Creator: CorelDRAW 2020 (64 Bit) -->
<svg xmlns="http://www.w3.org/2000/svg" xml:space="preserve" width="210mm" height="210mm" version="1.1" style="shape-rendering:geometricPrecision; text-rendering:geometricPrecision; image-rendering:optimizeQuality; fill-rule:evenodd; clip-rule:evenodd"
viewBox="0 0 21000 21000"
 xmlns:xlink="http://www.w3.org/1999/xlink"
 xmlns:xodm="http://www.corel.com/coreldraw/odm/2003">
 <defs>
  <style type="text/css">
   <![CDATA[
    .fil0 {fill:#171717}
    .fil1 {fill:#171717}
   ]]>
  </style>
 </defs>
 <g id="Camada_x0020_1">
  <metadata id="CorelCorpID_0Corel-Layer"/>
  <path class="fil0" d="M3605.1 13117.8l0 -7919.43c0,-967.79 779.12,-1746.92 1746.93,-1746.92l10306.9 0c933.12,0 1746.93,764.92 1746.93,1688.71l0 8152.33c0,429.74 -260.33,885.91 -588.36,1158.58 -389.17,323.51 -631.01,418.08 -1332.88,414.05l-5295.26 3.75c-281.32,39.55 -2109.69,1567.61 -2521.49,1904.08 -158.55,129.54 -367.01,324.81 -510.68,421.01 0,-2429.99 256.36,-2330.26 -1455.79,-2329.22 -623.64,0.38 -1064.48,14.77 -1529.8,-391.83 -357.23,-312.15 -566.5,-706.64 -566.5,-1355.11zm1397.54 2795.08l1106.39 0 0 1921.63c0,395.65 71.13,612.66 370.83,739.92 535.9,227.57 1374.08,-660.41 2067.24,-1213.4 432.22,-344.82 820.04,-659.09 1263.55,-1007.46 757.88,-595.3 227.72,-440.69 1888.57,-440.69 1556.77,0 4337.1,279.34 5311.6,-336.79l650.24 -514.39c348.8,-374.83 734.72,-903.19 734.72,-1594.51l0 -8501.74c0,-1425.53 -1306.75,-2562.16 -2853.32,-2562.16l-9899.27 0c-1486.64,0 -2507.79,708.52 -2890.74,1825.97 -213.08,621.83 -136.35,1376.38 -137.25,2133.71 -2.74,2300.35 -53.81,4940.03 -2.35,7164.77 20.59,889.61 668.03,1696.78 1457.32,2094.78 205.92,103.82 630.42,290.36 932.47,290.36z"/>
  <path class="fil0" d="M7506.58 7120l0 407.61c0,404.79 421.86,640.72 767.58,421.08 343.55,-218.23 128.11,-386.93 337.13,-1121.53 171.42,-602.45 860.61,-1221.16 1632.14,-1221.16l465.86 0c794.61,0 1746.93,744.95 1746.93,1514 0,1991.83 -1305.17,1488.22 -2148.35,2626.61 -640.84,865.21 -505.47,2206.56 -6.2,2206.56 310.33,0 567.57,-38.48 586.49,-461.67 54.65,-1222.81 98.24,-1132.09 1113.31,-1740.01 401.78,-240.63 736.79,-473.68 1003.52,-859.87 1379.2,-1996.83 -279.53,-4392.01 -2470.4,-4392.01 -1583.18,0 -3028.01,1252.04 -3028.01,2620.39z"/>
  <path class="fil1" d="M10359.9 13991.27c1224.27,0 851.87,-1397.55 174.69,-1397.55 -372.22,0 -710.22,284.12 -783.91,616.12 -84.23,379.61 237.45,781.43 609.22,781.43z"/>
 </g>
</svg>
