<?xml version="1.0" encoding="UTF-8"?>
<!DOCTYPE svg PUBLIC "-//W3C//DTD SVG 1.1//EN" "http://www.w3.org/Graphics/SVG/1.1/DTD/svg11.dtd">
<!-- Creator: CorelDRAW 2020 (64 Bit) -->
<svg xmlns="http://www.w3.org/2000/svg" xml:space="preserve" width="210mm" height="210mm" version="1.1" style="shape-rendering:geometricPrecision; text-rendering:geometricPrecision; image-rendering:optimizeQuality; fill-rule:evenodd; clip-rule:evenodd"
viewBox="0 0 21000 21000"
 xmlns:xlink="http://www.w3.org/1999/xlink"
 xmlns:xodm="http://www.corel.com/coreldraw/odm/2003">
 <defs>
  <style type="text/css">
   <![CDATA[
    .fil0 {fill:#171717}
    .fil1 {fill:#171717}
   ]]>
  </style>
 </defs>
 <g id="Camada_x0020_1">
  <metadata id="CorelCorpID_0Corel-Layer"/>
  <path class="fil0" d="M12508.29 12869.92l4641.31 -4.15 -7.87 3658.77 -4618.19 23.59 -15.25 -3678.21zm1222.56 -2217.21c0,-509.24 647.29,-986.28 1199.13,-912.61 596.86,79.68 1071.88,513.27 1071.88,1145.53l0 1048.16 -2271.01 0 0 -1281.08zm-2154.55 2271.02l0 3610.32c0,483.8 264.5,706.05 524.08,931.69l-6987.72 0.02c-1317.16,0.79 -1281.08,-82.17 -1281.08,-1572.26 0,-1360.31 325.13,-2209.65 1030.12,-3046.05 398.91,-473.27 725.09,-797.11 1372.99,-1072.7 1403.61,-597.07 3670.96,-328.1 5346.5,-360.16 784.55,-15 633.15,-994.81 53.35,-994.81l-3959.72 0c-710.32,0 -1444.16,225.14 -1921.91,465.57 -257.88,129.79 -503.38,253.24 -741.28,423.32 -696.76,498.15 -1287.09,1170.54 -1661.99,1948.36 -645.68,1339.66 -507.98,2197.56 -507.98,3684.63 0,438.46 341.12,999.94 603.97,1201.19 366.54,280.63 812.59,371.05 1434.11,371.05l9724.59 0c1279.94,0 1455.63,-207.08 1979.84,-989.93 1009.5,0 1572.24,-74.99 1572.24,-1397.55l0 -3086.24c0,-668.66 -440.16,-1106.39 -1164.61,-1106.39 0,-1170.87 171.87,-1876.9 -684.49,-2634.69 -1116.99,-988.44 -3101.67,-726.42 -3569.12,1059.73 -73.06,279.15 -57.03,522.36 -55.44,876.24 0.64,142.7 13.32,339.37 7.32,473.17 -26.9,601.05 -295.31,-9.09 -840.59,556.96 -166.69,173.06 -273.18,341.89 -273.18,658.53z"/>
  <path class="fil0" d="M9712.91 3490.3c361.01,0 914.83,120.13 1165.07,232.48 2792.39,1253.51 2167.05,5532.39 -1281.53,5532.39 -2133.77,0 -3666.06,-3039.71 -1850,-4878.03 496.25,-502.32 1175.2,-886.84 1966.46,-886.84zm-3785.01 2736.85c0,1179.42 284.67,2064.31 1091.77,2867.94 2445.28,2434.77 6652.95,802.17 6652.95,-2751.47 0,-2106.72 -1830.42,-3843.26 -3668.56,-3843.26 -780.72,0 -1189.73,34.43 -1880.77,331.99 -836.42,360.16 -1457.54,1095.39 -1847.07,1879.72 -178.72,359.88 -348.32,971.46 -348.32,1515.08z"/>
  <rect class="fil1" x="14442.05" y="13938.23" width="878.42" height="1756.84" rx="381.01" ry="381.01"/>
 </g>
</svg>
