<?xml version="1.0" encoding="UTF-8"?>
<!DOCTYPE svg PUBLIC "-//W3C//DTD SVG 1.1//EN" "http://www.w3.org/Graphics/SVG/1.1/DTD/svg11.dtd">
<!-- Creator: CorelDRAW 2020 (64 Bit) -->
<svg xmlns="http://www.w3.org/2000/svg" xml:space="preserve" width="210mm" height="210mm" version="1.1" style="shape-rendering:geometricPrecision; text-rendering:geometricPrecision; image-rendering:optimizeQuality; fill-rule:evenodd; clip-rule:evenodd"
viewBox="0 0 21000 21000"
 xmlns:xlink="http://www.w3.org/1999/xlink"
 xmlns:xodm="http://www.corel.com/coreldraw/odm/2003">
 <defs>
  <style type="text/css">
   <![CDATA[
    .str0 {stroke:#373435;stroke-width:58.83;stroke-miterlimit:22.9256}
    .fil0 {fill:none}
    .fil3 {fill:#121212}
    .fil1 {fill:#171717}
    .fil2 {fill:#F7F7F7}
   ]]>
  </style>
 </defs>
 <g id="Camada_x0020_1">
  <metadata id="CorelCorpID_0Corel-Layer"/>
  <g>
   <path class="fil0 str0" d="M10492.87 1852.66c4779.74,0 8654.47,3874.73 8654.47,8654.47 0,4779.74 -3874.73,8654.47 -8654.47,8654.47 -4779.74,0 -8654.47,-3874.73 -8654.47,-8654.47 0,-4779.74 3874.73,-8654.47 8654.47,-8654.47z"/>
   <path id="1" class="fil1" d="M10492.87 1852.66c4779.74,0 8654.47,3874.73 8654.47,8654.47 0,4779.74 -3874.73,8654.47 -8654.47,8654.47 -4779.74,0 -8654.47,-3874.73 -8654.47,-8654.47 0,-4779.74 3874.73,-8654.47 8654.47,-8654.47z"/>
  </g>
  <g>
   <path class="fil2" d="M7690.64 8134.16c297.72,-108.65 519.12,132.49 491.75,424.21 -22.29,237.49 -222.05,470.95 -407.05,533.31 -587.15,197.94 -694.88,-734.86 -84.7,-957.52zm4346.54 -1213.33c396.56,-116.9 778.93,271.64 913.22,463.23 233.62,333.3 320.38,812.28 -61.8,928.69 -734.05,223.58 -1550.5,-1185.87 -851.42,-1391.92zm-2494.57 -1066.38c569.95,-80.54 968.63,333.76 715.1,890.72 -162.13,356.18 -531.04,686.09 -1026.5,754.8 -591.2,81.98 -966.79,-323.87 -720.43,-885.45 156.22,-356.1 550.36,-692.04 1031.83,-760.07zm-1108.73 5696.62l53.58 -476.54c-410.49,-9.44 -1156.78,-170.8 -1503.56,-293.81 -799.52,-283.63 -386.77,-552.8 206.72,-713.66 1629.52,-441.7 4950.07,-465.41 6577.1,-13 1851.5,514.83 -584.29,1001.43 -1256.94,1020.66l60.78 476.35c588.01,-43.25 1546.21,-225.69 2019.6,-563.3 185.22,-132.1 280.49,-248.33 394.28,-468.37 364.83,-705.55 39.96,-2263.12 -262.89,-2888.46 -196.05,-404.82 -396.12,-743.8 -669.99,-1055.19l-199.74 -222.86c-1604.63,-1745.15 -4603.71,-1892.74 -6371.39,-327.51 -278.57,246.67 -294.73,269.33 -541.85,541.33 -267.28,294.2 -493.57,707.09 -674.57,1069.37 -311.4,623.27 -628.36,2146.69 -262.16,2875.57 202.14,402.33 502.51,583.66 975.67,749.67 399,139.99 987.72,247.32 1455.36,289.75z"/>
   <path class="fil2" d="M9031.73 10311.6c-41.58,240.78 -51.56,582.64 -78.55,837.12 -148.24,1397.71 -422.14,2805.21 -962.66,4088.37 -110.6,262.55 64.4,345.47 337.5,477.85 116.52,56.48 213.18,79.24 326.93,127.42l62.09 -80.56c264.14,-451.25 423.57,-823.94 579.45,-1329.83 26.53,-86.12 34.11,-178.07 74.51,-222.6 6.83,454.43 -36.77,914.07 -133.05,1356.72 -24.45,112.42 -84.2,304.99 -95.08,398.28 425.98,82.14 905.13,108.31 1347.96,108.53 313.28,0.15 1069.5,-22.85 1336.39,-111.68 20.97,-17.59 -134.26,-701.51 -151.84,-823.53 -24.05,-166.95 -107.9,-803.27 -46.3,-922.87 31.92,46.91 102.72,347.41 132.06,435.81 159.47,480.53 331.14,771.37 565.57,1194.45 196.65,-53.79 475.8,-176.1 609.3,-288.76 193.77,-163.53 84.6,-243.4 -62.52,-642.49 -362.23,-982.54 -581.1,-1888.12 -727.61,-2944.66 -37.79,-272.55 -70.67,-545.18 -96.51,-822.57 -21.9,-235.21 -29.1,-627.27 -73.25,-839.65 -493.62,-21.51 -970.69,-47.99 -1466.93,-48.2 -285.71,-0.12 -1240.32,10.11 -1477.46,52.85z"/>
   <path class="fil3" d="M9542.61 5854.45c-481.47,68.03 -875.61,403.97 -1031.83,760.07 -246.36,561.58 129.23,967.43 720.43,885.45 495.46,-68.71 864.37,-398.62 1026.5,-754.8 253.53,-556.96 -145.15,-971.26 -715.1,-890.72z"/>
   <path class="fil3" d="M12037.18 6920.83c-699.08,206.05 117.37,1615.5 851.42,1391.92 382.18,-116.41 295.42,-595.39 61.8,-928.69 -134.29,-191.59 -516.66,-580.13 -913.22,-463.23z"/>
   <path class="fil3" d="M7690.64 8134.16c-610.18,222.66 -502.45,1155.46 84.7,957.52 185,-62.36 384.76,-295.82 407.05,-533.31 27.37,-291.72 -194.03,-532.86 -491.75,-424.21z"/>
  </g>
 </g>
</svg>
