<?xml version="1.0" encoding="UTF-8"?>
<!DOCTYPE svg PUBLIC "-//W3C//DTD SVG 1.1//EN" "http://www.w3.org/Graphics/SVG/1.1/DTD/svg11.dtd">
<!-- Creator: CorelDRAW 2020 (64 Bit) -->
<svg xmlns="http://www.w3.org/2000/svg" xml:space="preserve" width="210mm" height="210mm" version="1.1" style="shape-rendering:geometricPrecision; text-rendering:geometricPrecision; image-rendering:optimizeQuality; fill-rule:evenodd; clip-rule:evenodd"
viewBox="0 0 21000 21000"
 xmlns:xlink="http://www.w3.org/1999/xlink"
 xmlns:xodm="http://www.corel.com/coreldraw/odm/2003">
 <defs>
  <style type="text/css">
   <![CDATA[
    .fil0 {fill:#171717}
   ]]>
  </style>
 </defs>
 <g id="Camada_x0020_1">
  <metadata id="CorelCorpID_0Corel-Layer"/>
  <path class="fil0" d="M14788.92 17553.09l-7220.64 0 0 -5706.64 1514.01 0c0,1250.51 -170.8,1743.92 1161.67,1748.33 1786.79,5.91 1575.18,-54.14 1575.18,-1748.33l1572.23 0c0,618.99 -96.05,2935.31 115.43,3261.98 64.25,99.24 255.84,231.89 408.65,231.89 712.77,0 582.33,-755.91 582.32,-1455.79 0,-679.35 0,-1358.73 0,-2038.08 401.22,-33.39 877.84,-197.63 1164.63,-349.39 0,1331.26 55.56,3955.93 1.84,5184.41 -22.84,522.46 -340.16,871.62 -875.32,871.62zm-9491.66 -6056.03c301.67,159.63 764.64,349.39 1222.86,349.39l0 5706.64c-564.22,0 -1129.78,15.81 -1216.8,-821.28l-6.06 -5234.75zm-1630.46 4134.41l0 -2445.7c0,-472.4 202.59,-552.08 582.3,-640.55l0 3610.33c-313.09,-72.94 -582.3,-124.88 -582.3,-524.08zm13043.75 524.08l0 -3610.33c407.76,9.09 582.32,229.19 582.32,640.55l0 2271c0,418.85 -195.95,666.63 -582.32,698.78zm-6677.86 -5734.05l843.89 -17.45 37.47 2167.05 -904.94 -17.27 23.58 -2132.33zm-5084.8 -1137.21l0 -2212.79c0,-931.84 634.14,-1494.16 1572.23,-1572.24l0 5299.03c-462.61,-107.77 -755.58,-165.39 -1064.15,-449.87 -201.87,-186.09 -508.08,-696.8 -508.08,-1064.13zm9549.88 -3726.79c290.94,-137.07 1514,256.61 1514,1339.31l0 2445.71c0,1195.45 -1420.11,1410.72 -1514,1455.77l0 -5240.79zm-1106.4 174.68l0 5066.11 -1572.23 0 0 -873.47c0,-170.68 -295.17,-465.85 -465.85,-465.85 -2104.41,0 -2271,-226.25 -2271,1339.32l-1514.01 0 0 -5299.03 5706.64 0c245.6,0 116.45,90.66 116.45,232.92zm-3959.69 -2271l2038.08 0c590.42,0 918.7,406.32 931.69,989.92l-3726.79 0c0,-307.07 40.52,-537.71 170.2,-703.27 94.89,-121.14 379.27,-286.65 586.82,-286.65zm-1863.4 989.92c-913.05,0 -1808.28,-111.1 -2570.81,457.22 -392.8,292.75 -626.09,544.1 -846.88,1016.51 -395.59,846.47 -250.86,2226.59 -250.86,3359.46 0,678.76 349.37,1000.09 349.37,1281.08l0 989.92 -291.16 0c-677.02,0 -1339.29,776.73 -1339.29,1455.79l0 2678.61c0,768.48 639.92,1455.79 1688.69,1455.79 196.82,844.83 926.16,1455.77 1630.47,1455.77l9025.8 0c481.31,0 892.74,-239.1 1151.21,-479.27 255.44,-237.34 375.5,-398.53 496.88,-725.97 160.85,-433.94 56.63,-146.15 574.52,-298.95 288.37,-85.07 554.32,-262.79 739.92,-482.94 596.71,-707.78 414.87,-2218.22 414.87,-3370.12 0,-761.71 -348.27,-1399.81 -994.4,-1626 -676.03,-236.64 -636.06,368.7 -636.06,-1052.63 0,-334.97 412.99,-434.22 411.21,-1923.45 -26.11,-610.41 -46.07,-1251.85 -61.52,-1861.87 -30.68,-1210.29 -1189.01,-2328.95 -2446,-2328.95l-1164.63 0c0,-1213.14 -780.39,-2038.08 -1979.85,-2038.08l-2096.32 0c-573.94,0 -1041.65,287.03 -1326.98,594.65 -281.57,303.58 -465.83,889.08 -478.18,1443.43z"/>
 </g>
</svg>
