<?xml version="1.0" encoding="UTF-8"?>
<!DOCTYPE svg PUBLIC "-//W3C//DTD SVG 1.1//EN" "http://www.w3.org/Graphics/SVG/1.1/DTD/svg11.dtd">
<!-- Creator: CorelDRAW 2020 (64 Bit) -->
<svg xmlns="http://www.w3.org/2000/svg" xml:space="preserve" width="210mm" height="210mm" version="1.1" style="shape-rendering:geometricPrecision; text-rendering:geometricPrecision; image-rendering:optimizeQuality; fill-rule:evenodd; clip-rule:evenodd"
viewBox="0 0 21000 21000"
 xmlns:xlink="http://www.w3.org/1999/xlink"
 xmlns:xodm="http://www.corel.com/coreldraw/odm/2003">
 <defs>
  <style type="text/css">
   <![CDATA[
    .fil0 {fill:#171717}
   ]]>
  </style>
 </defs>
 <g id="Camada_x0020_1">
  <metadata id="CorelCorpID_0Corel-Layer"/>
  <path class="fil0" d="M3124.2 16088.91l649.18 -625.25c328.89,243.06 787.25,719.26 1076.97,1017.08 268.2,275.7 842.7,806.71 1025.16,1078.66 -46.52,58.61 -80.56,83.42 -130.53,136.15l-494.31 517.35c-282.01,-140.25 -840.96,-781.54 -1091.66,-1040.34 -200.59,-207.08 -943.96,-909.71 -1034.81,-1083.65zm2723.45 201.59l-845.58 -860.79 1762.78 -1742.39 831.13 809.68 -1748.33 1793.5zm2997.87 -1838.36c-273.22,-115.43 -1321.68,-1236.27 -1598.42,-1557.04 -130.55,-151.31 -460.46,-335.39 -368.67,-571.73 94.14,-242.43 895.47,-906.83 1048.64,-1065 217.45,-224.57 803.46,-934.41 1026.61,-1039.43l2012.36 2048.48c-218.72,353.65 -393.38,416.15 -522.63,576.7l-1597.89 1608.02zm199.38 -5322.5c57.81,-112.99 -4.37,-8.78 65.23,-95.27l1811.89 -1855.11c182.66,-193.04 1642.55,-1780.89 1919.87,-1937.92l2929.16 3045.74 -238.43 301.19c-508.54,501.81 -3362.65,3336.58 -3464.87,3547.73 -254.15,-158.13 -582.34,-530.78 -788.44,-741.52l-2234.41 -2264.84zm5413.81 -6435.32c315.71,357.86 652.13,657.32 986.56,1022.76 167.58,183.11 298.52,331.22 468.48,513.54 169.24,181.55 335.29,293.04 500.81,478.58 710.58,796.57 1266.07,1309.92 1913.45,2031.09 -347.16,326.3 -1091.33,1210.52 -1427.42,1412.49l-3456.28 -3518.31c-194.89,-156.61 -375.12,-305.49 -471.54,-532.58l1485.94 -1407.57zm1854.02 723.87c-735.68,-569.62 -1350,-1891.5 -2141.52,-1563.44 -293,121.45 -450.16,415.92 -674.26,617.91 -260.54,234.8 -412.18,382.92 -644.85,595.38 -693.34,633.16 -920.48,761.91 -653.87,1576.77l-2306.51 2329.55c-399.5,401.31 -751.92,770.66 -1147.12,1176.78 -423.42,435.14 -850.22,642.41 -417.36,1443.22 -243.8,353.27 -2076.2,2035.2 -2245.28,2350.8 -279.69,522 -33.61,731.94 123.67,1110.73l-1806.52 1783.42c-407.07,-322.88 -815.83,-418.02 -1239.17,15.99 -863.21,884.94 -1387.69,1093.08 -455.7,2067.55l1727.86 1732.12c145.24,143 247.81,305.37 506.15,373.68 672.71,177.89 1240.97,-437.86 1622.16,-929.65 318.24,-410.57 228.1,-856.8 -81.64,-1161.07 187.57,-371.35 1413.8,-1457.24 1747.14,-1800.12 885.5,490.72 1112.72,-3 1660.87,-474.71l908.42 -951.11c273.29,-296.72 433.78,-340.45 226,66.95l-1757.22 3256.62c-153.6,313.41 -650.28,921.06 -232.4,1204.22 503.09,340.9 775.56,-423.06 925.94,-719.3 219.15,-431.71 1769.8,-3333.03 1932.92,-3500.74 -12.07,796.32 -3.76,1593.87 -5.56,2390.37 -1.95,861.25 -173.41,1903.45 418.93,1894.26 417.26,-6.45 412.26,-358.2 409.04,-757.7 -7.63,-945.58 -38.79,-2638.6 5.92,-3451.28 152.33,156.32 1191.01,2178.64 1404.58,2561.03 251.88,451.02 463.61,879.67 697.74,1316.51 362.21,675.83 1051.44,272.42 820.8,-298.96l-1397.88 -2581.16c-289.24,-517.49 -1142.71,-2222.22 -1414.91,-2558.92 279.32,-299.08 609.09,-591.24 907.5,-888.47l2635.72 -2738.73c899.74,246.82 802.23,232.08 1703.07,-667.5 1460.48,-1458.48 1549.55,-1440.4 420.87,-2563.99l-1557.79 -1591.97c-220.27,-226.18 -377.29,-472.66 -625.74,-665.04z"/>
 </g>
</svg>
