<?xml version="1.0" encoding="UTF-8"?>
<!DOCTYPE svg PUBLIC "-//W3C//DTD SVG 1.1//EN" "http://www.w3.org/Graphics/SVG/1.1/DTD/svg11.dtd">
<!-- Creator: CorelDRAW 2020 (64 Bit) -->
<svg xmlns="http://www.w3.org/2000/svg" xml:space="preserve" width="210mm" height="210mm" version="1.1" style="shape-rendering:geometricPrecision; text-rendering:geometricPrecision; image-rendering:optimizeQuality; fill-rule:evenodd; clip-rule:evenodd"
viewBox="0 0 21000 21000"
 xmlns:xlink="http://www.w3.org/1999/xlink"
 xmlns:xodm="http://www.corel.com/coreldraw/odm/2003">
 <defs>
  <style type="text/css">
   <![CDATA[
    .fil0 {fill:#171717}
   ]]>
  </style>
 </defs>
 <g id="Camada_x0020_1">
  <metadata id="CorelCorpID_0Corel-Layer"/>
  <path class="fil0" d="M10842.25 13987.85c0,-1504.16 1822.06,-2707.79 3330.24,-1466.84 487.07,400.78 629.47,1020.87 629.47,1641.53 0,532.61 -372.37,988.23 -653.55,1268.08 -1181.15,1175.58 -3306.16,261.67 -3306.16,-1442.77zm-5881.33 -5590.18c0,-1692.79 719.75,-2708.08 1764.08,-3593.17 1444.61,-1224.33 3970.79,-1184.04 5448.79,-67.61 643.69,486.21 1080.15,928.35 1465.2,1679.3 1189.53,2319.96 -176.49,4294.38 -234.58,4543.64 -1296.17,0 -1671.31,74.53 -2438.03,648.19 -1260.53,943.15 -1470.77,2753.19 -589.97,4068.53 -150.87,173.58 -271.49,322.05 -416.07,515.64 -118.66,158.89 -350.15,407.13 -399.17,590.75 -908.89,-1260.57 -1851.45,-2517.13 -2713.51,-3808.37 -848.45,-1270.71 -1886.74,-3005.57 -1886.74,-4576.9zm-1048.15 -232.92c0,1976.03 631.73,3033.3 1612.06,4676.88 629.84,1055.95 1610.49,2431.55 2347.22,3475.88l956.56 1372.67c712.54,990.31 978.31,485.31 2038.88,-940.24 98.28,-132.12 155.32,-235.35 265.92,-316.39 1293.69,866.29 2207.17,650.02 3435.63,0 171.82,256.57 1575.03,1735.4 1887.41,1770.72 284.71,32.21 616.52,-250.58 616.52,-547.88 0,-300.84 -1510.26,-1724.14 -1805.16,-1921.61 268.26,-506.96 582.31,-962.52 582.31,-1746.93 0,-1223.85 -770.12,-2195.98 -1572.24,-2620.39 1473.5,-2200.46 1024.21,-5286.45 -859.34,-6943.62 -1059.56,-932.23 -2337.99,-1616.36 -3857.37,-1616.36 -3050.24,0 -5648.4,2526.76 -5648.4,5357.27z"/>
  <path class="fil0" d="M9502.93 10319.3c-1019.5,0 -1863.37,-915.42 -1863.37,-1921.63 0,-1038.87 762.23,-1863.4 1979.84,-1863.4 991.6,0 1789.66,960.61 1789.75,1921.63 0.08,992.63 -868.26,1863.4 -1906.22,1863.4zm-58.21 989.92c1622.25,0 2969.77,-1207.39 2969.77,-2736.86 0,-896.53 -220.61,-1538.52 -828.49,-2199.52 -1110.23,-1207.2 -3089.84,-1169.55 -4166.11,0 -1806.42,1963 -348.11,4936.38 2024.83,4936.38z"/>
 </g>
</svg>
