<?xml version="1.0" encoding="UTF-8"?>
<!DOCTYPE svg PUBLIC "-//W3C//DTD SVG 1.1//EN" "http://www.w3.org/Graphics/SVG/1.1/DTD/svg11.dtd">
<!-- Creator: CorelDRAW 2020 (64 Bit) -->
<svg xmlns="http://www.w3.org/2000/svg" xml:space="preserve" width="210mm" height="210mm" version="1.1" style="shape-rendering:geometricPrecision; text-rendering:geometricPrecision; image-rendering:optimizeQuality; fill-rule:evenodd; clip-rule:evenodd"
viewBox="0 0 21000 21000"
 xmlns:xlink="http://www.w3.org/1999/xlink"
 xmlns:xodm="http://www.corel.com/coreldraw/odm/2003">
 <defs>
  <style type="text/css">
   <![CDATA[
    .fil0 {fill:#FEFEFE}
   ]]>
  </style>
 </defs>
 <g id="Camada_x0020_1">
  <metadata id="CorelCorpID_0Corel-Layer"/>
  <path class="fil0" d="M18186.05 10123.36c-5336.68,0 -10673.36,0 -16010.04,0 -658.59,0 -1612.93,-139.83 -1612.93,786.86 0,300.74 243.4,588.56 487.93,652.7 206.92,54.39 16810.96,15.86 17174.47,15.86 -126.46,189.01 -4279.22,4298.72 -4651.58,4671.3 -236.83,236.83 -603.74,481.59 -664.93,870.03 -63,401.59 190.37,831.28 753.32,831.28 303.46,0 403.4,-146.4 560.68,-304.82l6156.18 -6156.17c226.17,-225.27 321.58,-267.2 324.53,-640.91l0 -18.13 0 -14.05c-4.53,-292.36 -149.12,-391.85 -304.82,-546.41l-6156.4 -6156.17c-228.89,-229.81 -268.56,-324.54 -658.81,-324.54 -443.52,0 -727.26,423.8 -679.44,800.91 49.18,388.67 419.95,650.88 649.98,880.69 368.27,368.27 4502.68,4458.71 4631.86,4651.57z"/>
 </g>
</svg>
