<?xml version="1.0" encoding="UTF-8"?>
<!DOCTYPE svg PUBLIC "-//W3C//DTD SVG 1.1//EN" "http://www.w3.org/Graphics/SVG/1.1/DTD/svg11.dtd">
<!-- Creator: CorelDRAW 2020 (64 Bit) -->
<svg xmlns="http://www.w3.org/2000/svg" xml:space="preserve" width="210mm" height="210mm" version="1.1" style="shape-rendering:geometricPrecision; text-rendering:geometricPrecision; image-rendering:optimizeQuality; fill-rule:evenodd; clip-rule:evenodd"
viewBox="0 0 21000 21000"
 xmlns:xlink="http://www.w3.org/1999/xlink"
 xmlns:xodm="http://www.corel.com/coreldraw/odm/2003">
 <defs>
  <style type="text/css">
   <![CDATA[
    .fil0 {fill:#171717}
   ]]>
  </style>
 </defs>
 <g id="Camada_x0020_1">
  <metadata id="CorelCorpID_0Corel-Layer"/>
  <path class="fil0" d="M15791.36 5752.1c-176,-117.86 -712.74,-704.79 -1502.15,-1234.7 -1220.88,-819.56 -2771.13,-1216.51 -4324.78,-1098.37 -1337.59,101.71 -2031.47,350.71 -3159.04,975.37 -701.36,388.54 -1749,1365.87 -2183.85,2008.78 -181.16,267.83 -358.49,529.53 -516.21,823.11 -437.28,814 -1508.29,4115.99 -251.32,4115.99 809.92,0 308.6,-872.62 781.4,-2537.76 224.3,-789.92 693.28,-1613.74 1157.97,-2161.19 630.65,-743 991.1,-970.69 1833.9,-1485.26 672.19,-410.42 1909.51,-687.05 2923.29,-687.05 1011.61,0 2068.77,348.76 2737.64,697.99l756.92 465.93c317.16,224.45 967.54,755.6 1163.92,1048.87 -504.65,0 -1009.45,1.22 -1514.07,-0.09 -663.66,-1.7 -1048.09,-17.73 -1048.09,582.38 0,419.91 395.18,524.08 815.23,524.08l2445.71 0c671.9,0 931.69,-136.44 931.69,-815.22l0 -2969.79c0,-1013.99 -870.83,-892.05 -1048.72,-403.55 -78.95,216.8 -2.84,339.26 2.49,633.77 9.07,500.62 -1.93,1014.45 -1.93,1516.71z"/>
  <path class="fil0" d="M5717.4 14370.29l2132.27 -22.27c561.07,-147.17 525.55,-1025.89 -268.89,-1025.89l-2678.61 0c-566.62,0 -873.48,190.24 -873.48,757l0 3144.48c0,641.95 981.05,787.37 1050.05,118.35 56.81,-550.9 -1.89,-1503.21 -1.89,-2098.2 456.92,474.78 0,0 456.92,474.78 997.42,786.66 1641.38,1388.7 3106.1,1785.32 3094.46,837.9 5985.84,-564.67 7667.8,-2791.95 1117.43,-1479.74 2077.18,-4883.63 823.01,-4883.63 -779.42,0 -533.19,1455.34 -650.9,1911.27 -502.04,1944.59 -1520.52,3435.02 -3405.06,4339.65 -1910.84,917.27 -4161.72,777.32 -5995.5,-450.34 -469.18,-314.1 -1051.79,-795.56 -1361.82,-1258.57z"/>
 </g>
</svg>
